<?xml version="1.0" encoding="UTF-8" standalone="no"?>
<!DOCTYPE svg PUBLIC "-//W3C//DTD SVG 1.1//EN"
 "http://www.w3.org/Graphics/SVG/1.1/DTD/svg11.dtd">
<!-- Generated by graphviz version 14.0.2 (20251019.1705)
 -->
<!-- Title: src/utils/Config.cpp Pages: 1 -->
<svg width="232pt" height="83pt"
 viewBox="0.00 0.00 232.00 83.00" xmlns="http://www.w3.org/2000/svg" xmlns:xlink="http://www.w3.org/1999/xlink">
<g id="graph0" class="graph" transform="scale(1 1) rotate(0) translate(4 78.5)">
<title>src/utils/Config.cpp</title>
<!-- Node1 -->
<g id="Node000001" class="node">
<title>Node1</title>
<g id="a_Node000001"><a xlink:title=" ">
<polygon fill="#999999" stroke="#666666" points="171.25,-74.5 70.5,-74.5 70.5,-55.25 171.25,-55.25 171.25,-74.5"/>
<text xml:space="preserve" text-anchor="middle" x="120.88" y="-61" font-family="Helvetica,sans-Serif" font-size="10.00">src/utils/Config.cpp</text>
</a>
</g>
</g>
<!-- Node2 -->
<g id="Node000002" class="node">
<title>Node2</title>
<g id="a_Node000002"><a xlink:href="_config_8h.html" target="_top" xlink:title=" ">
<polygon fill="white" stroke="#666666" points="73.75,-19.25 0,-19.25 0,0 73.75,0 73.75,-19.25"/>
<text xml:space="preserve" text-anchor="middle" x="36.88" y="-5.75" font-family="Helvetica,sans-Serif" font-size="10.00">utils/Config.h</text>
</a>
</g>
</g>
<!-- Node1&#45;&gt;Node2 -->
<g id="edge1_Node000001_Node000002" class="edge">
<title>Node1&#45;&gt;Node2</title>
<g id="a_edge1_Node000001_Node000002"><a xlink:title=" ">
<path fill="none" stroke="#63b8ff" d="M106.63,-54.84C94.08,-46.89 75.54,-35.14 60.73,-25.75"/>
<polygon fill="#63b8ff" stroke="#63b8ff" points="62.79,-22.91 52.47,-20.51 59.04,-28.82 62.79,-22.91"/>
</a>
</g>
</g>
<!-- Node3 -->
<g id="Node000003" class="node">
<title>Node3</title>
<g id="a_Node000003"><a xlink:title=" ">
<polygon fill="#e0e0e0" stroke="#999999" points="150.25,-19.25 91.5,-19.25 91.5,0 150.25,0 150.25,-19.25"/>
<text xml:space="preserve" text-anchor="middle" x="120.88" y="-5.75" font-family="Helvetica,sans-Serif" font-size="10.00">stdexcept</text>
</a>
</g>
</g>
<!-- Node1&#45;&gt;Node3 -->
<g id="edge2_Node000001_Node000003" class="edge">
<title>Node1&#45;&gt;Node3</title>
<g id="a_edge2_Node000001_Node000003"><a xlink:title=" ">
<path fill="none" stroke="#63b8ff" d="M120.88,-55.08C120.88,-48.57 120.88,-39.42 120.88,-31.12"/>
<polygon fill="#63b8ff" stroke="#63b8ff" points="124.38,-31.12 120.88,-21.12 117.38,-31.12 124.38,-31.12"/>
</a>
</g>
</g>
<!-- Node4 -->
<g id="Node000004" class="node">
<title>Node4</title>
<g id="a_Node000004"><a xlink:title=" ">
<polygon fill="#e0e0e0" stroke="#999999" points="223.75,-19.25 168,-19.25 168,0 223.75,0 223.75,-19.25"/>
<text xml:space="preserve" text-anchor="middle" x="195.88" y="-5.75" font-family="Helvetica,sans-Serif" font-size="10.00">algorithm</text>
</a>
</g>
</g>
<!-- Node1&#45;&gt;Node4 -->
<g id="edge3_Node000001_Node000004" class="edge">
<title>Node1&#45;&gt;Node4</title>
<g id="a_edge3_Node000001_Node000004"><a xlink:title=" ">
<path fill="none" stroke="#63b8ff" d="M133.6,-54.84C144.59,-47.04 160.72,-35.59 173.81,-26.29"/>
<polygon fill="#63b8ff" stroke="#63b8ff" points="175.73,-29.22 181.86,-20.58 171.68,-23.51 175.73,-29.22"/>
</a>
</g>
</g>
</g>
</svg>
