<?xml version="1.0" encoding="UTF-8" standalone="no"?>
<!DOCTYPE svg PUBLIC "-//W3C//DTD SVG 1.1//EN"
 "http://www.w3.org/Graphics/SVG/1.1/DTD/svg11.dtd">
<!-- Generated by graphviz version 14.0.2 (20251019.1705)
 -->
<!-- Title: src/core/Config.cpp Pages: 1 -->
<svg width="258pt" height="138pt"
 viewBox="0.00 0.00 258.00 138.00" xmlns="http://www.w3.org/2000/svg" xmlns:xlink="http://www.w3.org/1999/xlink">
<g id="graph0" class="graph" transform="scale(1 1) rotate(0) translate(4 133.75)">
<title>src/core/Config.cpp</title>
<!-- Node1 -->
<g id="Node000001" class="node">
<title>Node1</title>
<g id="a_Node000001"><a xlink:title=" ">
<polygon fill="#999999" stroke="#666666" points="197.75,-129.75 96.25,-129.75 96.25,-110.5 197.75,-110.5 197.75,-129.75"/>
<text xml:space="preserve" text-anchor="middle" x="147" y="-116.25" font-family="Helvetica,sans-Serif" font-size="10.00">src/core/Config.cpp</text>
</a>
</g>
</g>
<!-- Node2 -->
<g id="Node000002" class="node">
<title>Node2</title>
<g id="a_Node000002"><a xlink:href="_config_8h.html" target="_top" xlink:title=" ">
<polygon fill="white" stroke="#666666" points="99.5,-74.5 2.5,-74.5 2.5,-55.25 99.5,-55.25 99.5,-74.5"/>
<text xml:space="preserve" text-anchor="middle" x="51" y="-61" font-family="Helvetica,sans-Serif" font-size="10.00">slitherlink/Config.h</text>
</a>
</g>
</g>
<!-- Node1&#45;&gt;Node2 -->
<g id="edge1_Node000001_Node000002" class="edge">
<title>Node1&#45;&gt;Node2</title>
<g id="a_edge1_Node000001_Node000002"><a xlink:title=" ">
<path fill="none" stroke="#63b8ff" d="M130.71,-110.09C116.1,-101.98 94.37,-89.93 77.29,-80.46"/>
<polygon fill="#63b8ff" stroke="#63b8ff" points="79.13,-77.48 68.69,-75.69 75.74,-83.6 79.13,-77.48"/>
</a>
</g>
</g>
<!-- Node5 -->
<g id="Node000005" class="node">
<title>Node5</title>
<g id="a_Node000005"><a xlink:title=" ">
<polygon fill="#e0e0e0" stroke="#999999" points="176.38,-74.5 117.62,-74.5 117.62,-55.25 176.38,-55.25 176.38,-74.5"/>
<text xml:space="preserve" text-anchor="middle" x="147" y="-61" font-family="Helvetica,sans-Serif" font-size="10.00">stdexcept</text>
</a>
</g>
</g>
<!-- Node1&#45;&gt;Node5 -->
<g id="edge4_Node000001_Node000005" class="edge">
<title>Node1&#45;&gt;Node5</title>
<g id="a_edge4_Node000001_Node000005"><a xlink:title=" ">
<path fill="none" stroke="#63b8ff" d="M147,-110.33C147,-103.82 147,-94.67 147,-86.37"/>
<polygon fill="#63b8ff" stroke="#63b8ff" points="150.5,-86.37 147,-76.37 143.5,-86.37 150.5,-86.37"/>
</a>
</g>
</g>
<!-- Node6 -->
<g id="Node000006" class="node">
<title>Node6</title>
<g id="a_Node000006"><a xlink:title=" ">
<polygon fill="#e0e0e0" stroke="#999999" points="249.88,-74.5 194.12,-74.5 194.12,-55.25 249.88,-55.25 249.88,-74.5"/>
<text xml:space="preserve" text-anchor="middle" x="222" y="-61" font-family="Helvetica,sans-Serif" font-size="10.00">algorithm</text>
</a>
</g>
</g>
<!-- Node1&#45;&gt;Node6 -->
<g id="edge5_Node000001_Node000006" class="edge">
<title>Node1&#45;&gt;Node6</title>
<g id="a_edge5_Node000001_Node000006"><a xlink:title=" ">
<path fill="none" stroke="#63b8ff" d="M159.72,-110.09C170.71,-102.29 186.84,-90.84 199.93,-81.54"/>
<polygon fill="#63b8ff" stroke="#63b8ff" points="201.85,-84.47 207.98,-75.83 197.8,-78.76 201.85,-84.47"/>
</a>
</g>
</g>
<!-- Node3 -->
<g id="Node000003" class="node">
<title>Node3</title>
<g id="a_Node000003"><a xlink:title=" ">
<polygon fill="#e0e0e0" stroke="#999999" points="40,-19.25 0,-19.25 0,0 40,0 40,-19.25"/>
<text xml:space="preserve" text-anchor="middle" x="20" y="-5.75" font-family="Helvetica,sans-Serif" font-size="10.00">string</text>
</a>
</g>
</g>
<!-- Node2&#45;&gt;Node3 -->
<g id="edge2_Node000002_Node000003" class="edge">
<title>Node2&#45;&gt;Node3</title>
<g id="a_edge2_Node000002_Node000003"><a xlink:title=" ">
<path fill="none" stroke="#63b8ff" d="M45.88,-55.08C41.82,-48.11 36.01,-38.12 30.91,-29.37"/>
<polygon fill="#63b8ff" stroke="#63b8ff" points="34.05,-27.8 25.99,-20.92 28,-31.32 34.05,-27.8"/>
</a>
</g>
</g>
<!-- Node4 -->
<g id="Node000004" class="node">
<title>Node4</title>
<g id="a_Node000004"><a xlink:title=" ">
<polygon fill="#e0e0e0" stroke="#999999" points="106.12,-19.25 57.88,-19.25 57.88,0 106.12,0 106.12,-19.25"/>
<text xml:space="preserve" text-anchor="middle" x="82" y="-5.75" font-family="Helvetica,sans-Serif" font-size="10.00">cstddef</text>
</a>
</g>
</g>
<!-- Node2&#45;&gt;Node4 -->
<g id="edge3_Node000002_Node000004" class="edge">
<title>Node2&#45;&gt;Node4</title>
<g id="a_edge3_Node000002_Node000004"><a xlink:title=" ">
<path fill="none" stroke="#63b8ff" d="M56.12,-55.08C60.18,-48.11 65.99,-38.12 71.09,-29.37"/>
<polygon fill="#63b8ff" stroke="#63b8ff" points="74,-31.32 76.01,-20.92 67.95,-27.8 74,-31.32"/>
</a>
</g>
</g>
</g>
</svg>
