<?xml version="1.0" encoding="UTF-8" standalone="no"?>
<!DOCTYPE svg PUBLIC "-//W3C//DTD SVG 1.1//EN"
 "http://www.w3.org/Graphics/SVG/1.1/DTD/svg11.dtd">
<!-- Generated by graphviz version 14.0.2 (20251019.1705)
 -->
<!-- Title: include/slitherlink/solver/EdgeSelectionHeuristic.h Pages: 1 -->
<svg width="328pt" height="216pt"
 viewBox="0.00 0.00 328.00 216.00" xmlns="http://www.w3.org/2000/svg" xmlns:xlink="http://www.w3.org/1999/xlink">

<svg id="main" version="1.1" xmlns="http://www.w3.org/2000/svg" xmlns:xlink="http://www.w3.org/1999/xlink" xml:space="preserve">

<style type="text/css"><![CDATA[
.node, .edge {opacity: 0.7;}
.node.selected, .edge.selected {opacity: 1;}
.edge:hover path { stroke: red; }
.edge:hover polygon { stroke: red; fill: red; }
]]></style>
<script type="application/ecmascript" xlink:href="svg.min.js"/>
<svg id="graph" class="graph">
<g id="graph0" class="graph" transform="scale(1 1) rotate(0) translate(4 211.5)">
<title>include/slitherlink/solver/EdgeSelectionHeuristic.h</title>
<!-- Node1 -->
<g id="Node000001" class="node">
<title>Node1</title>
<g id="a_Node000001"><a xlink:title=" ">
<polygon fill="#999999" stroke="#666666" points="240,-207.5 81.5,-207.5 81.5,-177 240,-177 240,-207.5"/>
<text xml:space="preserve" text-anchor="start" x="89.5" y="-194" font-family="Helvetica,sans-Serif" font-size="10.00">include/slitherlink</text>
<text xml:space="preserve" text-anchor="middle" x="160.75" y="-182.75" font-family="Helvetica,sans-Serif" font-size="10.00">/solver/EdgeSelectionHeuristic.h</text>
</a>
</g>
</g>
<!-- Node2 -->
<g id="Node000002" class="node">
<title>Node2</title>
<g id="a_Node000002"><a xlink:href="_i_heuristic_8h.html" target="_top" xlink:title=" ">
<polygon fill="white" stroke="#666666" points="111.25,-141 8.25,-141 8.25,-110.5 111.25,-110.5 111.25,-141"/>
<text xml:space="preserve" text-anchor="start" x="16.25" y="-127.5" font-family="Helvetica,sans-Serif" font-size="10.00">slitherlink/interfaces</text>
<text xml:space="preserve" text-anchor="middle" x="59.75" y="-116.25" font-family="Helvetica,sans-Serif" font-size="10.00">/IHeuristic.h</text>
</a>
</g>
</g>
<!-- Node1&#45;&gt;Node2 -->
<g id="edge1_Node000001_Node000002" class="edge">
<title>Node1&#45;&gt;Node2</title>
<g id="a_edge1_Node000001_Node000002"><a xlink:title=" ">
<path fill="none" stroke="#63b8ff" d="M137.83,-176.61C124.27,-167.95 106.89,-156.85 91.96,-147.32"/>
<polygon fill="#63b8ff" stroke="#63b8ff" points="94.17,-144.58 83.85,-142.14 90.4,-150.47 94.17,-144.58"/>
</a>
</g>
</g>
<!-- Node4 -->
<g id="Node000004" class="node">
<title>Node4</title>
<g id="a_Node000004"><a xlink:title=" ">
<polygon fill="#e0e0e0" stroke="#999999" points="163.25,-19.25 120.25,-19.25 120.25,0 163.25,0 163.25,-19.25"/>
<text xml:space="preserve" text-anchor="middle" x="141.75" y="-5.75" font-family="Helvetica,sans-Serif" font-size="10.00">vector</text>
</a>
</g>
</g>
<!-- Node1&#45;&gt;Node4 -->
<g id="edge7_Node000001_Node000004" class="edge">
<title>Node1&#45;&gt;Node4</title>
<g id="a_edge7_Node000001_Node000004"><a xlink:title=" ">
<path fill="none" stroke="#63b8ff" d="M159.23,-176.77C155.86,-144.72 147.75,-67.7 143.88,-30.89"/>
<polygon fill="#63b8ff" stroke="#63b8ff" points="147.39,-30.76 142.86,-21.19 140.43,-31.5 147.39,-30.76"/>
</a>
</g>
</g>
<!-- Node5 -->
<g id="Node000005" class="node">
<title>Node5</title>
<g id="a_Node000005"><a xlink:href="_grid_8h.html" target="_top" xlink:title=" ">
<polygon fill="white" stroke="#666666" points="277.88,-74.5 169.62,-74.5 169.62,-55.25 277.88,-55.25 277.88,-74.5"/>
<text xml:space="preserve" text-anchor="middle" x="223.75" y="-61" font-family="Helvetica,sans-Serif" font-size="10.00">slitherlink/core/Grid.h</text>
</a>
</g>
</g>
<!-- Node1&#45;&gt;Node5 -->
<g id="edge4_Node000001_Node000005" class="edge">
<title>Node1&#45;&gt;Node5</title>
<g id="a_edge4_Node000001_Node000005"><a xlink:title=" ">
<path fill="none" stroke="#63b8ff" d="M167.31,-176.51C174.65,-160.21 187.05,-133.23 198.75,-110.5 203.22,-101.81 208.46,-92.35 212.99,-84.39"/>
<polygon fill="#63b8ff" stroke="#63b8ff" points="215.88,-86.39 217.83,-75.98 209.81,-82.9 215.88,-86.39"/>
</a>
</g>
</g>
<!-- Node6 -->
<g id="Node000006" class="node">
<title>Node6</title>
<g id="a_Node000006"><a xlink:href="_edge_8h.html" target="_top" xlink:title=" ">
<polygon fill="white" stroke="#666666" points="320.12,-135.38 207.38,-135.38 207.38,-116.12 320.12,-116.12 320.12,-135.38"/>
<text xml:space="preserve" text-anchor="middle" x="263.75" y="-121.88" font-family="Helvetica,sans-Serif" font-size="10.00">slitherlink/core/Edge.h</text>
</a>
</g>
</g>
<!-- Node1&#45;&gt;Node6 -->
<g id="edge6_Node000001_Node000006" class="edge">
<title>Node1&#45;&gt;Node6</title>
<g id="a_edge6_Node000001_Node000006"><a xlink:title=" ">
<path fill="none" stroke="#63b8ff" d="M184.12,-176.61C200.74,-166.21 222.98,-152.28 239.74,-141.79"/>
<polygon fill="#63b8ff" stroke="#63b8ff" points="241.46,-144.84 248.08,-136.56 237.75,-138.9 241.46,-144.84"/>
</a>
</g>
</g>
<!-- Node3 -->
<g id="Node000003" class="node">
<title>Node3</title>
<g id="a_Node000003"><a xlink:href="_state_8h.html" target="_top" xlink:title=" ">
<polygon fill="white" stroke="#666666" points="113.5,-74.5 0,-74.5 0,-55.25 113.5,-55.25 113.5,-74.5"/>
<text xml:space="preserve" text-anchor="middle" x="56.75" y="-61" font-family="Helvetica,sans-Serif" font-size="10.00">slitherlink/core/State.h</text>
</a>
</g>
</g>
<!-- Node2&#45;&gt;Node3 -->
<g id="edge2_Node000002_Node000003" class="edge">
<title>Node2&#45;&gt;Node3</title>
<g id="a_edge2_Node000002_Node000003"><a xlink:title=" ">
<path fill="none" stroke="#63b8ff" d="M59.01,-110.2C58.64,-102.96 58.19,-94.09 57.79,-86.19"/>
<polygon fill="#63b8ff" stroke="#63b8ff" points="61.29,-86.27 57.29,-76.46 54.3,-86.63 61.29,-86.27"/>
</a>
</g>
</g>
<!-- Node3&#45;&gt;Node4 -->
<g id="edge3_Node000003_Node000004" class="edge">
<title>Node3&#45;&gt;Node4</title>
<g id="a_edge3_Node000003_Node000004"><a xlink:title=" ">
<path fill="none" stroke="#63b8ff" d="M71.17,-54.84C83.87,-46.89 102.62,-35.14 117.61,-25.75"/>
<polygon fill="#63b8ff" stroke="#63b8ff" points="119.36,-28.78 125.98,-20.51 115.65,-22.85 119.36,-28.78"/>
</a>
</g>
</g>
<!-- Node5&#45;&gt;Node4 -->
<g id="edge5_Node000005_Node000004" class="edge">
<title>Node5&#45;&gt;Node4</title>
<g id="a_edge5_Node000005_Node000004"><a xlink:title=" ">
<path fill="none" stroke="#63b8ff" d="M209.84,-54.84C197.59,-46.89 179.5,-35.14 165.04,-25.75"/>
<polygon fill="#63b8ff" stroke="#63b8ff" points="167.29,-23.04 157,-20.53 163.48,-28.91 167.29,-23.04"/>
</a>
</g>
</g>
</g>
</svg>
</svg>

<style type='text/css'>
<![CDATA[
[data-mouse-over-selected='false'] { opacity: 0.7; }
[data-mouse-over-selected='true']  { opacity: 1.0; }
]]>
</style>
<script type="application/ecmascript"><![CDATA[
document.addEventListener('DOMContentLoaded', (event) => {
  highlightEdges();
  highlightAdjacentNodes();
});
]]></script>
</svg>
