<?xml version="1.0" encoding="UTF-8" standalone="no"?>
<!DOCTYPE svg PUBLIC "-//W3C//DTD SVG 1.1//EN"
 "http://www.w3.org/Graphics/SVG/1.1/DTD/svg11.dtd">
<!-- Generated by graphviz version 14.0.2 (20251019.1705)
 -->
<!-- Title: include/core/Edge.h Pages: 1 -->
<svg width="788pt" height="271pt"
 viewBox="0.00 0.00 788.00 271.00" xmlns="http://www.w3.org/2000/svg" xmlns:xlink="http://www.w3.org/1999/xlink">
<g id="graph0" class="graph" transform="scale(1 1) rotate(0) translate(4 266.75)">
<title>include/core/Edge.h</title>
<!-- Node1 -->
<g id="Node000001" class="node">
<title>Node1</title>
<g id="a_Node000001"><a xlink:title=" ">
<polygon fill="#999999" stroke="#666666" points="391.75,-262.75 289.5,-262.75 289.5,-243.5 391.75,-243.5 391.75,-262.75"/>
<text xml:space="preserve" text-anchor="middle" x="340.62" y="-249.25" font-family="Helvetica,sans-Serif" font-size="10.00">include/core/Edge.h</text>
</a>
</g>
</g>
<!-- Node2 -->
<g id="Node000002" class="node">
<title>Node2</title>
<g id="a_Node000002"><a xlink:href="_optimized_propagator_8h.html" target="_top" xlink:title=" ">
<polygon fill="white" stroke="#666666" points="159.25,-207.5 36,-207.5 36,-177 159.25,-177 159.25,-207.5"/>
<text xml:space="preserve" text-anchor="start" x="44" y="-194" font-family="Helvetica,sans-Serif" font-size="10.00">include/solver/Optimized</text>
<text xml:space="preserve" text-anchor="middle" x="97.62" y="-182.75" font-family="Helvetica,sans-Serif" font-size="10.00">Propagator.h</text>
</a>
</g>
</g>
<!-- Node1&#45;&gt;Node2 -->
<g id="edge1_Node000001_Node000002" class="edge">
<title>Node1&#45;&gt;Node2</title>
<g id="a_edge1_Node000001_Node000002"><a xlink:title=" ">
<path fill="none" stroke="#63b8ff" d="M292.27,-240.41C253.78,-231.08 199.67,-217.97 158.28,-207.94"/>
<polygon fill="#63b8ff" stroke="#63b8ff" points="291.17,-243.75 301.72,-242.7 292.82,-236.94 291.17,-243.75"/>
</a>
</g>
</g>
<!-- Node4 -->
<g id="Node000004" class="node">
<title>Node4</title>
<g id="a_Node000004"><a xlink:href="_smart_heuristic_8h.html" target="_top" xlink:title=" ">
<polygon fill="white" stroke="#666666" points="339.88,-201.88 187.38,-201.88 187.38,-182.62 339.88,-182.62 339.88,-201.88"/>
<text xml:space="preserve" text-anchor="middle" x="263.62" y="-188.38" font-family="Helvetica,sans-Serif" font-size="10.00">include/solver/SmartHeuristic.h</text>
</a>
</g>
</g>
<!-- Node1&#45;&gt;Node4 -->
<g id="edge3_Node000001_Node000004" class="edge">
<title>Node1&#45;&gt;Node4</title>
<g id="a_edge3_Node000001_Node000004"><a xlink:title=" ">
<path fill="none" stroke="#63b8ff" d="M319.86,-236.25C305.62,-225.36 287.23,-211.3 275.43,-202.28"/>
<polygon fill="#63b8ff" stroke="#63b8ff" points="317.66,-238.97 327.73,-242.26 321.91,-233.41 317.66,-238.97"/>
</a>
</g>
</g>
<!-- Node6 -->
<g id="Node000006" class="node">
<title>Node6</title>
<g id="a_Node000006"><a xlink:href="_solver_8h.html" target="_top" xlink:title=" ">
<polygon fill="white" stroke="#666666" points="473.75,-201.88 359.5,-201.88 359.5,-182.62 473.75,-182.62 473.75,-201.88"/>
<text xml:space="preserve" text-anchor="middle" x="416.62" y="-188.38" font-family="Helvetica,sans-Serif" font-size="10.00">include/solver/Solver.h</text>
</a>
</g>
</g>
<!-- Node1&#45;&gt;Node6 -->
<g id="edge5_Node000001_Node000006" class="edge">
<title>Node1&#45;&gt;Node6</title>
<g id="a_edge5_Node000001_Node000006"><a xlink:title=" ">
<path fill="none" stroke="#63b8ff" d="M361.12,-236.25C375.18,-225.36 393.33,-211.3 404.97,-202.28"/>
<polygon fill="#63b8ff" stroke="#63b8ff" points="359.13,-233.37 353.36,-242.26 363.41,-238.9 359.13,-233.37"/>
</a>
</g>
</g>
<!-- Node12 -->
<g id="Node000012" class="node">
<title>Node12</title>
<g id="a_Node000012"><a xlink:href="_standard_validator_8h.html" target="_top" xlink:title=" ">
<polygon fill="white" stroke="#666666" points="719.12,-201.88 556.12,-201.88 556.12,-182.62 719.12,-182.62 719.12,-201.88"/>
<text xml:space="preserve" text-anchor="middle" x="637.62" y="-188.38" font-family="Helvetica,sans-Serif" font-size="10.00">include/solver/StandardValidator.h</text>
</a>
</g>
</g>
<!-- Node1&#45;&gt;Node12 -->
<g id="edge11_Node000001_Node000012" class="edge">
<title>Node1&#45;&gt;Node12</title>
<g id="a_edge11_Node000001_Node000012"><a xlink:title=" ">
<path fill="none" stroke="#63b8ff" d="M397.63,-240.83C454.12,-229.63 539.58,-212.69 591.82,-202.33"/>
<polygon fill="#63b8ff" stroke="#63b8ff" points="396.99,-237.38 387.87,-242.76 398.35,-244.25 396.99,-237.38"/>
</a>
</g>
</g>
<!-- Node3 -->
<g id="Node000003" class="node">
<title>Node3</title>
<g id="a_Node000003"><a xlink:href="_optimized_propagator_8cpp.html" target="_top" xlink:title=" ">
<polygon fill="white" stroke="#666666" points="171.25,-135.38 0,-135.38 0,-116.12 171.25,-116.12 171.25,-135.38"/>
<text xml:space="preserve" text-anchor="middle" x="85.62" y="-121.88" font-family="Helvetica,sans-Serif" font-size="10.00">src/solver/OptimizedPropagator.cpp</text>
</a>
</g>
</g>
<!-- Node2&#45;&gt;Node3 -->
<g id="edge2_Node000002_Node000003" class="edge">
<title>Node2&#45;&gt;Node3</title>
<g id="a_edge2_Node000002_Node000003"><a xlink:title=" ">
<path fill="none" stroke="#63b8ff" d="M92.8,-165.34C90.84,-154.76 88.69,-143.25 87.27,-135.57"/>
<polygon fill="#63b8ff" stroke="#63b8ff" points="89.36,-165.93 94.63,-175.13 96.24,-164.65 89.36,-165.93"/>
</a>
</g>
</g>
<!-- Node5 -->
<g id="Node000005" class="node">
<title>Node5</title>
<g id="a_Node000005"><a xlink:href="_smart_heuristic_8cpp.html" target="_top" xlink:title=" ">
<polygon fill="white" stroke="#666666" points="335.5,-135.38 189.75,-135.38 189.75,-116.12 335.5,-116.12 335.5,-135.38"/>
<text xml:space="preserve" text-anchor="middle" x="262.62" y="-121.88" font-family="Helvetica,sans-Serif" font-size="10.00">src/solver/SmartHeuristic.cpp</text>
</a>
</g>
</g>
<!-- Node4&#45;&gt;Node5 -->
<g id="edge4_Node000004_Node000005" class="edge">
<title>Node4&#45;&gt;Node5</title>
<g id="a_edge4_Node000004_Node000005"><a xlink:title=" ">
<path fill="none" stroke="#63b8ff" d="M263.31,-170.77C263.12,-158.94 262.9,-144.66 262.76,-135.64"/>
<polygon fill="#63b8ff" stroke="#63b8ff" points="259.81,-170.82 263.46,-180.77 266.81,-170.72 259.81,-170.82"/>
</a>
</g>
</g>
<!-- Node7 -->
<g id="Node000007" class="node">
<title>Node7</title>
<g id="a_Node000007"><a xlink:href="_slitherlink_solver_8h.html" target="_top" xlink:title=" ">
<polygon fill="white" stroke="#666666" points="479.38,-141 353.88,-141 353.88,-110.5 479.38,-110.5 479.38,-141"/>
<text xml:space="preserve" text-anchor="start" x="361.88" y="-127.5" font-family="Helvetica,sans-Serif" font-size="10.00">include/factory/Slitherlink</text>
<text xml:space="preserve" text-anchor="middle" x="416.62" y="-116.25" font-family="Helvetica,sans-Serif" font-size="10.00">Solver.h</text>
</a>
</g>
</g>
<!-- Node6&#45;&gt;Node7 -->
<g id="edge6_Node000006_Node000007" class="edge">
<title>Node6&#45;&gt;Node7</title>
<g id="a_edge6_Node000006_Node000007"><a xlink:title=" ">
<path fill="none" stroke="#63b8ff" d="M416.62,-170.87C416.62,-161.19 416.62,-149.85 416.62,-141.09"/>
<polygon fill="#63b8ff" stroke="#63b8ff" points="413.13,-170.77 416.63,-180.77 420.13,-170.77 413.13,-170.77"/>
</a>
</g>
</g>
<!-- Node11 -->
<g id="Node000011" class="node">
<title>Node11</title>
<g id="a_Node000011"><a xlink:href="_solver_8cpp.html" target="_top" xlink:title=" ">
<polygon fill="white" stroke="#666666" points="605.38,-135.38 497.88,-135.38 497.88,-116.12 605.38,-116.12 605.38,-135.38"/>
<text xml:space="preserve" text-anchor="middle" x="551.62" y="-121.88" font-family="Helvetica,sans-Serif" font-size="10.00">src/solver/Solver.cpp</text>
</a>
</g>
</g>
<!-- Node6&#45;&gt;Node11 -->
<g id="edge10_Node000006_Node000011" class="edge">
<title>Node6&#45;&gt;Node11</title>
<g id="a_edge10_Node000006_Node000011"><a xlink:title=" ">
<path fill="none" stroke="#63b8ff" d="M445.83,-177.3C472.16,-164.72 510.1,-146.59 532.67,-135.81"/>
<polygon fill="#63b8ff" stroke="#63b8ff" points="444.56,-174.02 437.05,-181.49 447.58,-180.34 444.56,-174.02"/>
</a>
</g>
</g>
<!-- Node8 -->
<g id="Node000008" class="node">
<title>Node8</title>
<g id="a_Node000008"><a xlink:href="_solver_factory_8h.html" target="_top" xlink:title=" ">
<polygon fill="white" stroke="#666666" points="406.75,-74.5 256.5,-74.5 256.5,-55.25 406.75,-55.25 406.75,-74.5"/>
<text xml:space="preserve" text-anchor="middle" x="331.62" y="-61" font-family="Helvetica,sans-Serif" font-size="10.00">include/factory/SolverFactory.h</text>
</a>
</g>
</g>
<!-- Node7&#45;&gt;Node8 -->
<g id="edge7_Node000007_Node000008" class="edge">
<title>Node7&#45;&gt;Node8</title>
<g id="a_edge7_Node000007_Node000008"><a xlink:title=" ">
<path fill="none" stroke="#63b8ff" d="M386.17,-103.65C371.94,-93.8 355.75,-82.58 344.73,-74.95"/>
<polygon fill="#63b8ff" stroke="#63b8ff" points="384.16,-106.52 394.37,-109.33 388.14,-100.76 384.16,-106.52"/>
</a>
</g>
</g>
<!-- Node10 -->
<g id="Node000010" class="node">
<title>Node10</title>
<g id="a_Node000010"><a xlink:href="_slitherlink_solver_8cpp.html" target="_top" xlink:title=" ">
<polygon fill="white" stroke="#666666" points="578.62,-74.5 424.62,-74.5 424.62,-55.25 578.62,-55.25 578.62,-74.5"/>
<text xml:space="preserve" text-anchor="middle" x="501.62" y="-61" font-family="Helvetica,sans-Serif" font-size="10.00">src/factory/SlitherlinkSolver.cpp</text>
</a>
</g>
</g>
<!-- Node7&#45;&gt;Node10 -->
<g id="edge9_Node000007_Node000010" class="edge">
<title>Node7&#45;&gt;Node10</title>
<g id="a_edge9_Node000007_Node000010"><a xlink:title=" ">
<path fill="none" stroke="#63b8ff" d="M447.08,-103.65C461.31,-93.8 477.5,-82.58 488.52,-74.95"/>
<polygon fill="#63b8ff" stroke="#63b8ff" points="445.11,-100.76 438.88,-109.33 449.09,-106.52 445.11,-100.76"/>
</a>
</g>
</g>
<!-- Node9 -->
<g id="Node000009" class="node">
<title>Node9</title>
<g id="a_Node000009"><a xlink:href="_solver_factory_8cpp.html" target="_top" xlink:title=" ">
<polygon fill="white" stroke="#666666" points="403.38,-19.25 259.88,-19.25 259.88,0 403.38,0 403.38,-19.25"/>
<text xml:space="preserve" text-anchor="middle" x="331.62" y="-5.75" font-family="Helvetica,sans-Serif" font-size="10.00">src/factory/SolverFactory.cpp</text>
</a>
</g>
</g>
<!-- Node8&#45;&gt;Node9 -->
<g id="edge8_Node000008_Node000009" class="edge">
<title>Node8&#45;&gt;Node9</title>
<g id="a_edge8_Node000008_Node000009"><a xlink:title=" ">
<path fill="none" stroke="#63b8ff" d="M331.62,-43.63C331.62,-35.34 331.62,-26.17 331.62,-19.61"/>
<polygon fill="#63b8ff" stroke="#63b8ff" points="328.13,-43.57 331.63,-53.57 335.13,-43.57 328.13,-43.57"/>
</a>
</g>
</g>
<!-- Node13 -->
<g id="Node000013" class="node">
<title>Node13</title>
<g id="a_Node000013"><a xlink:href="_standard_validator_8cpp.html" target="_top" xlink:title=" ">
<polygon fill="white" stroke="#666666" points="779.75,-135.38 623.5,-135.38 623.5,-116.12 779.75,-116.12 779.75,-135.38"/>
<text xml:space="preserve" text-anchor="middle" x="701.62" y="-121.88" font-family="Helvetica,sans-Serif" font-size="10.00">src/solver/StandardValidator.cpp</text>
</a>
</g>
</g>
<!-- Node12&#45;&gt;Node13 -->
<g id="edge12_Node000012_Node000013" class="edge">
<title>Node12&#45;&gt;Node13</title>
<g id="a_edge12_Node000012_Node000013"><a xlink:title=" ">
<path fill="none" stroke="#63b8ff" d="M654.29,-174.45C666.61,-162.04 682.9,-145.62 692.8,-135.64"/>
<polygon fill="#63b8ff" stroke="#63b8ff" points="652.15,-171.64 647.59,-181.21 657.12,-176.57 652.15,-171.64"/>
</a>
</g>
</g>
</g>
</svg>
