<?xml version="1.0" encoding="UTF-8" standalone="no"?>
<!DOCTYPE svg PUBLIC "-//W3C//DTD SVG 1.1//EN"
 "http://www.w3.org/Graphics/SVG/1.1/DTD/svg11.dtd">
<!-- Generated by graphviz version 14.0.2 (20251019.1705)
 -->
<!-- Title: include/slitherlink/core/Edge.h Pages: 1 -->
<svg width="748pt" height="305pt"
 viewBox="0.00 0.00 748.00 305.00" xmlns="http://www.w3.org/2000/svg" xmlns:xlink="http://www.w3.org/1999/xlink">
<g id="graph0" class="graph" transform="scale(1 1) rotate(0) translate(4 300.5)">
<title>include/slitherlink/core/Edge.h</title>
<!-- Node1 -->
<g id="Node000001" class="node">
<title>Node1</title>
<g id="a_Node000001"><a xlink:title=" ">
<polygon fill="#999999" stroke="#666666" points="366.5,-296.5 275.5,-296.5 275.5,-266 366.5,-266 366.5,-296.5"/>
<text xml:space="preserve" text-anchor="start" x="283.5" y="-283" font-family="Helvetica,sans-Serif" font-size="10.00">include/slitherlink</text>
<text xml:space="preserve" text-anchor="middle" x="321" y="-271.75" font-family="Helvetica,sans-Serif" font-size="10.00">/core/Edge.h</text>
</a>
</g>
</g>
<!-- Node2 -->
<g id="Node000002" class="node">
<title>Node2</title>
<g id="a_Node000002"><a xlink:href="_constraint_propagator_8h.html" target="_top" xlink:title=" ">
<polygon fill="white" stroke="#666666" points="148,-230 0,-230 0,-199.5 148,-199.5 148,-230"/>
<text xml:space="preserve" text-anchor="start" x="8" y="-216.5" font-family="Helvetica,sans-Serif" font-size="10.00">include/slitherlink</text>
<text xml:space="preserve" text-anchor="middle" x="74" y="-205.25" font-family="Helvetica,sans-Serif" font-size="10.00">/solver/ConstraintPropagator.h</text>
</a>
</g>
</g>
<!-- Node1&#45;&gt;Node2 -->
<g id="edge1_Node000001_Node000002" class="edge">
<title>Node1&#45;&gt;Node2</title>
<g id="a_edge1_Node000001_Node000002"><a xlink:title=" ">
<path fill="none" stroke="#63b8ff" d="M264.18,-265.41C224.06,-254.93 170.52,-240.95 130.47,-230.5"/>
<polygon fill="#63b8ff" stroke="#63b8ff" points="263.1,-268.75 273.66,-267.89 264.86,-261.97 263.1,-268.75"/>
</a>
</g>
</g>
<!-- Node3 -->
<g id="Node000003" class="node">
<title>Node3</title>
<g id="a_Node000003"><a xlink:href="_edge_selection_heuristic_8h.html" target="_top" xlink:title=" ">
<polygon fill="white" stroke="#666666" points="324.25,-230 165.75,-230 165.75,-199.5 324.25,-199.5 324.25,-230"/>
<text xml:space="preserve" text-anchor="start" x="173.75" y="-216.5" font-family="Helvetica,sans-Serif" font-size="10.00">include/slitherlink</text>
<text xml:space="preserve" text-anchor="middle" x="245" y="-205.25" font-family="Helvetica,sans-Serif" font-size="10.00">/solver/EdgeSelectionHeuristic.h</text>
</a>
</g>
</g>
<!-- Node1&#45;&gt;Node3 -->
<g id="edge2_Node000001_Node000003" class="edge">
<title>Node1&#45;&gt;Node3</title>
<g id="a_edge2_Node000001_Node000003"><a xlink:title=" ">
<path fill="none" stroke="#63b8ff" d="M295.07,-258.24C284.21,-249.03 271.88,-238.56 262.18,-230.33"/>
<polygon fill="#63b8ff" stroke="#63b8ff" points="292.71,-260.83 302.6,-264.63 297.24,-255.5 292.71,-260.83"/>
</a>
</g>
</g>
<!-- Node4 -->
<g id="Node000004" class="node">
<title>Node4</title>
<g id="a_Node000004"><a xlink:href="_graph_builder_8h.html" target="_top" xlink:title=" ">
<polygon fill="white" stroke="#666666" points="454,-230 342,-230 342,-199.5 454,-199.5 454,-230"/>
<text xml:space="preserve" text-anchor="start" x="350" y="-216.5" font-family="Helvetica,sans-Serif" font-size="10.00">include/slitherlink</text>
<text xml:space="preserve" text-anchor="middle" x="398" y="-205.25" font-family="Helvetica,sans-Serif" font-size="10.00">/solver/GraphBuilder.h</text>
</a>
</g>
</g>
<!-- Node1&#45;&gt;Node4 -->
<g id="edge3_Node000001_Node000004" class="edge">
<title>Node1&#45;&gt;Node4</title>
<g id="a_edge3_Node000001_Node000004"><a xlink:title=" ">
<path fill="none" stroke="#63b8ff" d="M347.27,-258.24C358.28,-249.03 370.76,-238.56 380.6,-230.33"/>
<polygon fill="#63b8ff" stroke="#63b8ff" points="345.05,-255.54 339.63,-264.64 349.55,-260.9 345.05,-255.54"/>
</a>
</g>
</g>
<!-- Node7 -->
<g id="Node000007" class="node">
<title>Node7</title>
<g id="a_Node000007"><a xlink:href="_solver_8h.html" target="_top" xlink:title=" ">
<polygon fill="white" stroke="#666666" points="594.5,-230 503.5,-230 503.5,-199.5 594.5,-199.5 594.5,-230"/>
<text xml:space="preserve" text-anchor="start" x="511.5" y="-216.5" font-family="Helvetica,sans-Serif" font-size="10.00">include/slitherlink</text>
<text xml:space="preserve" text-anchor="middle" x="549" y="-205.25" font-family="Helvetica,sans-Serif" font-size="10.00">/solver/Solver.h</text>
</a>
</g>
</g>
<!-- Node1&#45;&gt;Node7 -->
<g id="edge6_Node000001_Node000007" class="edge">
<title>Node1&#45;&gt;Node7</title>
<g id="a_edge6_Node000001_Node000007"><a xlink:title=" ">
<path fill="none" stroke="#63b8ff" d="M377.45,-264.28C416.2,-253.32 466.97,-238.95 503.21,-228.7"/>
<polygon fill="#63b8ff" stroke="#63b8ff" points="376.99,-260.77 368.32,-266.86 378.9,-267.51 376.99,-260.77"/>
</a>
</g>
</g>
<!-- Node5 -->
<g id="Node000005" class="node">
<title>Node5</title>
<g id="a_Node000005"><a xlink:href="_solver_factory_8cpp.html" target="_top" xlink:title=" ">
<polygon fill="white" stroke="#666666" points="373.75,-24.88 230.25,-24.88 230.25,-5.63 373.75,-5.63 373.75,-24.88"/>
<text xml:space="preserve" text-anchor="middle" x="302" y="-11.38" font-family="Helvetica,sans-Serif" font-size="10.00">src/factory/SolverFactory.cpp</text>
</a>
</g>
</g>
<!-- Node4&#45;&gt;Node5 -->
<g id="edge4_Node000004_Node000005" class="edge">
<title>Node4&#45;&gt;Node5</title>
<g id="a_edge4_Node000004_Node000005"><a xlink:title=" ">
<path fill="none" stroke="#63b8ff" d="M353.11,-193.5C340.82,-185.83 328.77,-175.88 321,-163.5 292.5,-118.09 297.77,-49.26 300.75,-25.05"/>
<polygon fill="#63b8ff" stroke="#63b8ff" points="351.21,-196.45 361.62,-198.42 354.71,-190.39 351.21,-196.45"/>
</a>
</g>
</g>
<!-- Node6 -->
<g id="Node000006" class="node">
<title>Node6</title>
<g id="a_Node000006"><a xlink:href="_graph_builder_8cpp.html" target="_top" xlink:title=" ">
<polygon fill="white" stroke="#666666" points="466,-157.88 330,-157.88 330,-138.62 466,-138.62 466,-157.88"/>
<text xml:space="preserve" text-anchor="middle" x="398" y="-144.38" font-family="Helvetica,sans-Serif" font-size="10.00">src/solver/GraphBuilder.cpp</text>
</a>
</g>
</g>
<!-- Node4&#45;&gt;Node6 -->
<g id="edge5_Node000004_Node000006" class="edge">
<title>Node4&#45;&gt;Node6</title>
<g id="a_edge5_Node000004_Node000006"><a xlink:title=" ">
<path fill="none" stroke="#63b8ff" d="M398,-187.84C398,-177.26 398,-165.75 398,-158.07"/>
<polygon fill="#63b8ff" stroke="#63b8ff" points="394.5,-187.6 398,-197.6 401.5,-187.6 394.5,-187.6"/>
</a>
</g>
</g>
<!-- Node8 -->
<g id="Node000008" class="node">
<title>Node8</title>
<g id="a_Node000008"><a xlink:href="_slitherlink_solver_8h.html" target="_top" xlink:title=" ">
<polygon fill="white" stroke="#666666" points="614,-163.5 484,-163.5 484,-133 614,-133 614,-163.5"/>
<text xml:space="preserve" text-anchor="start" x="492" y="-150" font-family="Helvetica,sans-Serif" font-size="10.00">include/slitherlink</text>
<text xml:space="preserve" text-anchor="middle" x="549" y="-138.75" font-family="Helvetica,sans-Serif" font-size="10.00">/factory/SlitherlinkSolver.h</text>
</a>
</g>
</g>
<!-- Node7&#45;&gt;Node8 -->
<g id="edge7_Node000007_Node000008" class="edge">
<title>Node7&#45;&gt;Node8</title>
<g id="a_edge7_Node000007_Node000008"><a xlink:title=" ">
<path fill="none" stroke="#63b8ff" d="M549,-187.81C549,-179.64 549,-170.91 549,-163.83"/>
<polygon fill="#63b8ff" stroke="#63b8ff" points="545.5,-187.6 549,-197.6 552.5,-187.6 545.5,-187.6"/>
</a>
</g>
</g>
<!-- Node13 -->
<g id="Node000013" class="node">
<title>Node13</title>
<g id="a_Node000013"><a xlink:href="_solver_8cpp.html" target="_top" xlink:title=" ">
<polygon fill="white" stroke="#666666" points="739.75,-157.88 632.25,-157.88 632.25,-138.62 739.75,-138.62 739.75,-157.88"/>
<text xml:space="preserve" text-anchor="middle" x="686" y="-144.38" font-family="Helvetica,sans-Serif" font-size="10.00">src/solver/Solver.cpp</text>
</a>
</g>
</g>
<!-- Node7&#45;&gt;Node13 -->
<g id="edge14_Node000007_Node000013" class="edge">
<title>Node7&#45;&gt;Node13</title>
<g id="a_edge14_Node000007_Node000013"><a xlink:title=" ">
<path fill="none" stroke="#63b8ff" d="M590.22,-194.35C615.66,-182.37 647.1,-167.56 666.86,-158.26"/>
<polygon fill="#63b8ff" stroke="#63b8ff" points="589.01,-191.04 581.46,-198.47 592,-197.38 589.01,-191.04"/>
</a>
</g>
</g>
<!-- Node9 -->
<g id="Node000009" class="node">
<title>Node9</title>
<g id="a_Node000009"><a xlink:href="_slitherlink_8h.html" target="_top" xlink:title=" ">
<polygon fill="white" stroke="#666666" points="636.5,-30.5 545.5,-30.5 545.5,0 636.5,0 636.5,-30.5"/>
<text xml:space="preserve" text-anchor="start" x="553.5" y="-17" font-family="Helvetica,sans-Serif" font-size="10.00">include/slitherlink</text>
<text xml:space="preserve" text-anchor="middle" x="591" y="-5.75" font-family="Helvetica,sans-Serif" font-size="10.00">/Slitherlink.h</text>
</a>
</g>
</g>
<!-- Node8&#45;&gt;Node9 -->
<g id="edge8_Node000008_Node000009" class="edge">
<title>Node8&#45;&gt;Node9</title>
<g id="a_edge8_Node000008_Node000009"><a xlink:title=" ">
<path fill="none" stroke="#63b8ff" d="M602.58,-127.28C615.45,-119.82 627.59,-109.91 635,-97 648.11,-74.15 626.04,-47.21 608.7,-30.95"/>
<polygon fill="#63b8ff" stroke="#63b8ff" points="601.21,-124.05 594.01,-131.82 604.49,-130.23 601.21,-124.05"/>
</a>
</g>
</g>
<!-- Node10 -->
<g id="Node000010" class="node">
<title>Node10</title>
<g id="a_Node000010"><a xlink:href="_solver_factory_8h.html" target="_top" xlink:title=" ">
<polygon fill="white" stroke="#666666" points="453.75,-97 334.25,-97 334.25,-66.5 453.75,-66.5 453.75,-97"/>
<text xml:space="preserve" text-anchor="start" x="342.25" y="-83.5" font-family="Helvetica,sans-Serif" font-size="10.00">include/slitherlink</text>
<text xml:space="preserve" text-anchor="middle" x="394" y="-72.25" font-family="Helvetica,sans-Serif" font-size="10.00">/factory/SolverFactory.h</text>
</a>
</g>
</g>
<!-- Node8&#45;&gt;Node10 -->
<g id="edge9_Node000008_Node000010" class="edge">
<title>Node8&#45;&gt;Node10</title>
<g id="a_edge9_Node000008_Node000010"><a xlink:title=" ">
<path fill="none" stroke="#63b8ff" d="M503.34,-128.25C479.69,-118.41 451.25,-106.57 429.3,-97.44"/>
<polygon fill="#63b8ff" stroke="#63b8ff" points="501.85,-131.42 512.43,-132.03 504.54,-124.96 501.85,-131.42"/>
</a>
</g>
</g>
<!-- Node12 -->
<g id="Node000012" class="node">
<title>Node12</title>
<g id="a_Node000012"><a xlink:href="_slitherlink_solver_8cpp.html" target="_top" xlink:title=" ">
<polygon fill="white" stroke="#666666" points="626,-91.38 472,-91.38 472,-72.12 626,-72.12 626,-91.38"/>
<text xml:space="preserve" text-anchor="middle" x="549" y="-77.88" font-family="Helvetica,sans-Serif" font-size="10.00">src/factory/SlitherlinkSolver.cpp</text>
</a>
</g>
</g>
<!-- Node8&#45;&gt;Node12 -->
<g id="edge13_Node000008_Node000012" class="edge">
<title>Node8&#45;&gt;Node12</title>
<g id="a_edge13_Node000008_Node000012"><a xlink:title=" ">
<path fill="none" stroke="#63b8ff" d="M549,-121.34C549,-110.76 549,-99.25 549,-91.57"/>
<polygon fill="#63b8ff" stroke="#63b8ff" points="545.5,-121.1 549,-131.1 552.5,-121.1 545.5,-121.1"/>
</a>
</g>
</g>
<!-- Node10&#45;&gt;Node5 -->
<g id="edge11_Node000010_Node000005" class="edge">
<title>Node10&#45;&gt;Node5</title>
<g id="a_edge11_Node000010_Node000005"><a xlink:title=" ">
<path fill="none" stroke="#63b8ff" d="M363.79,-59.57C347.19,-47.93 327.47,-34.11 314.85,-25.26"/>
<polygon fill="#63b8ff" stroke="#63b8ff" points="361.69,-62.37 371.88,-65.25 365.71,-56.64 361.69,-62.37"/>
</a>
</g>
</g>
<!-- Node10&#45;&gt;Node9 -->
<g id="edge10_Node000010_Node000009" class="edge">
<title>Node10&#45;&gt;Node9</title>
<g id="a_edge10_Node000010_Node000009"><a xlink:title=" ">
<path fill="none" stroke="#63b8ff" d="M449.61,-62.54C480.13,-52.55 517.49,-40.32 546.13,-30.94"/>
<polygon fill="#63b8ff" stroke="#63b8ff" points="448.56,-59.21 440.14,-65.64 450.73,-65.86 448.56,-59.21"/>
</a>
</g>
</g>
<!-- Node11 -->
<g id="Node000011" class="node">
<title>Node11</title>
<g id="a_Node000011"><a xlink:href="src_2main_8cpp.html" target="_top" xlink:title=" ">
<polygon fill="white" stroke="#666666" points="464.12,-24.88 391.88,-24.88 391.88,-5.63 464.12,-5.63 464.12,-24.88"/>
<text xml:space="preserve" text-anchor="middle" x="428" y="-11.38" font-family="Helvetica,sans-Serif" font-size="10.00">src/main.cpp</text>
</a>
</g>
</g>
<!-- Node10&#45;&gt;Node11 -->
<g id="edge12_Node000010_Node000011" class="edge">
<title>Node10&#45;&gt;Node11</title>
<g id="a_edge12_Node000010_Node000011"><a xlink:title=" ">
<path fill="none" stroke="#63b8ff" d="M406.94,-56.19C412.71,-45.26 419.13,-33.08 423.35,-25.07"/>
<polygon fill="#63b8ff" stroke="#63b8ff" points="403.99,-54.3 402.42,-64.78 410.18,-57.56 403.99,-54.3"/>
</a>
</g>
</g>
</g>
</svg>
