<?xml version="1.0" encoding="UTF-8" standalone="no"?>
<!DOCTYPE svg PUBLIC "-//W3C//DTD SVG 1.1//EN"
 "http://www.w3.org/Graphics/SVG/1.1/DTD/svg11.dtd">
<!-- Generated by graphviz version 14.0.2 (20251019.1705)
 -->
<!-- Title: src/solver/GraphBuilder.cpp Pages: 1 -->
<svg width="201pt" height="193pt"
 viewBox="0.00 0.00 201.00 193.00" xmlns="http://www.w3.org/2000/svg" xmlns:xlink="http://www.w3.org/1999/xlink">

<svg id="main" version="1.1" xmlns="http://www.w3.org/2000/svg" xmlns:xlink="http://www.w3.org/1999/xlink" xml:space="preserve">

<style type="text/css"><![CDATA[
.node, .edge {opacity: 0.7;}
.node.selected, .edge.selected {opacity: 1;}
.edge:hover path { stroke: red; }
.edge:hover polygon { stroke: red; fill: red; }
]]></style>
<script type="application/ecmascript" xlink:href="svg.min.js"/>
<svg id="graph" class="graph">
<g id="graph0" class="graph" transform="scale(1 1) rotate(0) translate(4 189)">
<title>src/solver/GraphBuilder.cpp</title>
<!-- Node1 -->
<g id="Node000001" class="node">
<title>Node1</title>
<g id="a_Node000001"><a xlink:title=" ">
<polygon fill="#999999" stroke="#666666" points="186.5,-185 50.5,-185 50.5,-165.75 186.5,-165.75 186.5,-185"/>
<text xml:space="preserve" text-anchor="middle" x="118.5" y="-171.5" font-family="Helvetica,sans-Serif" font-size="10.00">src/solver/GraphBuilder.cpp</text>
</a>
</g>
</g>
<!-- Node2 -->
<g id="Node000002" class="node">
<title>Node2</title>
<g id="a_Node000002"><a xlink:href="_graph_builder_8h.html" target="_top" xlink:title=" ">
<polygon fill="white" stroke="#666666" points="173,-129.75 64,-129.75 64,-110.5 173,-110.5 173,-129.75"/>
<text xml:space="preserve" text-anchor="middle" x="118.5" y="-116.25" font-family="Helvetica,sans-Serif" font-size="10.00">solver/GraphBuilder.h</text>
</a>
</g>
</g>
<!-- Node1&#45;&gt;Node2 -->
<g id="edge1_Node000001_Node000002" class="edge">
<title>Node1&#45;&gt;Node2</title>
<g id="a_edge1_Node000001_Node000002"><a xlink:title=" ">
<path fill="none" stroke="#63b8ff" d="M118.5,-165.58C118.5,-159.07 118.5,-149.92 118.5,-141.62"/>
<polygon fill="#63b8ff" stroke="#63b8ff" points="122,-141.62 118.5,-131.62 115,-141.62 122,-141.62"/>
</a>
</g>
</g>
<!-- Node3 -->
<g id="Node000003" class="node">
<title>Node3</title>
<g id="a_Node000003"><a xlink:href="_grid_8h.html" target="_top" xlink:title=" ">
<polygon fill="white" stroke="#666666" points="83.5,-74.5 19.5,-74.5 19.5,-55.25 83.5,-55.25 83.5,-74.5"/>
<text xml:space="preserve" text-anchor="middle" x="51.5" y="-61" font-family="Helvetica,sans-Serif" font-size="10.00">core/Grid.h</text>
</a>
</g>
</g>
<!-- Node2&#45;&gt;Node3 -->
<g id="edge2_Node000002_Node000003" class="edge">
<title>Node2&#45;&gt;Node3</title>
<g id="a_edge2_Node000002_Node000003"><a xlink:title=" ">
<path fill="none" stroke="#63b8ff" d="M107.13,-110.09C97.45,-102.4 83.3,-91.15 71.69,-81.93"/>
<polygon fill="#63b8ff" stroke="#63b8ff" points="73.89,-79.2 63.88,-75.72 69.53,-84.68 73.89,-79.2"/>
</a>
</g>
</g>
<!-- Node6 -->
<g id="Node000006" class="node">
<title>Node6</title>
<g id="a_Node000006"><a xlink:title=" ">
<polygon fill="#e0e0e0" stroke="#999999" points="135.88,-74.5 101.12,-74.5 101.12,-55.25 135.88,-55.25 135.88,-74.5"/>
<text xml:space="preserve" text-anchor="middle" x="118.5" y="-61" font-family="Helvetica,sans-Serif" font-size="10.00">map</text>
</a>
</g>
</g>
<!-- Node2&#45;&gt;Node6 -->
<g id="edge5_Node000002_Node000006" class="edge">
<title>Node2&#45;&gt;Node6</title>
<g id="a_edge5_Node000002_Node000006"><a xlink:title=" ">
<path fill="none" stroke="#63b8ff" d="M118.5,-110.33C118.5,-103.82 118.5,-94.67 118.5,-86.37"/>
<polygon fill="#63b8ff" stroke="#63b8ff" points="122,-86.37 118.5,-76.37 115,-86.37 122,-86.37"/>
</a>
</g>
</g>
<!-- Node7 -->
<g id="Node000007" class="node">
<title>Node7</title>
<g id="a_Node000007"><a xlink:title=" ">
<polygon fill="#e0e0e0" stroke="#999999" points="193.12,-74.5 153.88,-74.5 153.88,-55.25 193.12,-55.25 193.12,-74.5"/>
<text xml:space="preserve" text-anchor="middle" x="173.5" y="-61" font-family="Helvetica,sans-Serif" font-size="10.00">utility</text>
</a>
</g>
</g>
<!-- Node2&#45;&gt;Node7 -->
<g id="edge6_Node000002_Node000007" class="edge">
<title>Node2&#45;&gt;Node7</title>
<g id="a_edge6_Node000002_Node000007"><a xlink:title=" ">
<path fill="none" stroke="#63b8ff" d="M127.58,-110.33C135.34,-102.82 146.71,-91.81 156.2,-82.63"/>
<polygon fill="#63b8ff" stroke="#63b8ff" points="158.38,-85.38 163.13,-75.91 153.51,-80.35 158.38,-85.38"/>
</a>
</g>
</g>
<!-- Node4 -->
<g id="Node000004" class="node">
<title>Node4</title>
<g id="a_Node000004"><a xlink:title=" ">
<polygon fill="#e0e0e0" stroke="#999999" points="43,-19.25 0,-19.25 0,0 43,0 43,-19.25"/>
<text xml:space="preserve" text-anchor="middle" x="21.5" y="-5.75" font-family="Helvetica,sans-Serif" font-size="10.00">vector</text>
</a>
</g>
</g>
<!-- Node3&#45;&gt;Node4 -->
<g id="edge3_Node000003_Node000004" class="edge">
<title>Node3&#45;&gt;Node4</title>
<g id="a_edge3_Node000003_Node000004"><a xlink:title=" ">
<path fill="none" stroke="#63b8ff" d="M46.55,-55.08C42.62,-48.11 36.99,-38.12 32.06,-29.37"/>
<polygon fill="#63b8ff" stroke="#63b8ff" points="35.26,-27.92 27.3,-20.93 29.16,-31.36 35.26,-27.92"/>
</a>
</g>
</g>
<!-- Node5 -->
<g id="Node000005" class="node">
<title>Node5</title>
<g id="a_Node000005"><a xlink:title=" ">
<polygon fill="#e0e0e0" stroke="#999999" points="101.5,-19.25 61.5,-19.25 61.5,0 101.5,0 101.5,-19.25"/>
<text xml:space="preserve" text-anchor="middle" x="81.5" y="-5.75" font-family="Helvetica,sans-Serif" font-size="10.00">string</text>
</a>
</g>
</g>
<!-- Node3&#45;&gt;Node5 -->
<g id="edge4_Node000003_Node000005" class="edge">
<title>Node3&#45;&gt;Node5</title>
<g id="a_edge4_Node000003_Node000005"><a xlink:title=" ">
<path fill="none" stroke="#63b8ff" d="M56.45,-55.08C60.38,-48.11 66.01,-38.12 70.94,-29.37"/>
<polygon fill="#63b8ff" stroke="#63b8ff" points="73.84,-31.36 75.7,-20.93 67.74,-27.92 73.84,-31.36"/>
</a>
</g>
</g>
</g>
</svg>
</svg>

<style type='text/css'>
<![CDATA[
[data-mouse-over-selected='false'] { opacity: 0.7; }
[data-mouse-over-selected='true']  { opacity: 1.0; }
]]>
</style>
<script type="application/ecmascript"><![CDATA[
document.addEventListener('DOMContentLoaded', (event) => {
  highlightEdges();
  highlightAdjacentNodes();
});
]]></script>
</svg>
