<?xml version="1.0" encoding="UTF-8" standalone="no"?>
<!DOCTYPE svg PUBLIC "-//W3C//DTD SVG 1.1//EN"
 "http://www.w3.org/Graphics/SVG/1.1/DTD/svg11.dtd">
<!-- Generated by graphviz version 14.0.2 (20251019.1705)
 -->
<!-- Title: src/solver/GraphBuilder.cpp Pages: 1 -->
<svg width="301pt" height="271pt"
 viewBox="0.00 0.00 301.00 271.00" xmlns="http://www.w3.org/2000/svg" xmlns:xlink="http://www.w3.org/1999/xlink">
<g id="graph0" class="graph" transform="scale(1 1) rotate(0) translate(4 266.75)">
<title>src/solver/GraphBuilder.cpp</title>
<!-- Node1 -->
<g id="Node000001" class="node">
<title>Node1</title>
<g id="a_Node000001"><a xlink:title=" ">
<polygon fill="#999999" stroke="#666666" points="248.38,-262.75 112.38,-262.75 112.38,-243.5 248.38,-243.5 248.38,-262.75"/>
<text xml:space="preserve" text-anchor="middle" x="180.38" y="-249.25" font-family="Helvetica,sans-Serif" font-size="10.00">src/solver/GraphBuilder.cpp</text>
</a>
</g>
</g>
<!-- Node2 -->
<g id="Node000002" class="node">
<title>Node2</title>
<g id="a_Node000002"><a xlink:href="_graph_builder_8h.html" target="_top" xlink:title=" ">
<polygon fill="white" stroke="#666666" points="223.62,-207.5 137.12,-207.5 137.12,-177 223.62,-177 223.62,-207.5"/>
<text xml:space="preserve" text-anchor="start" x="145.12" y="-194" font-family="Helvetica,sans-Serif" font-size="10.00">slitherlink/solver</text>
<text xml:space="preserve" text-anchor="middle" x="180.38" y="-182.75" font-family="Helvetica,sans-Serif" font-size="10.00">/GraphBuilder.h</text>
</a>
</g>
</g>
<!-- Node1&#45;&gt;Node2 -->
<g id="edge1_Node000001_Node000002" class="edge">
<title>Node1&#45;&gt;Node2</title>
<g id="a_edge1_Node000001_Node000002"><a xlink:title=" ">
<path fill="none" stroke="#63b8ff" d="M180.38,-243.18C180.38,-236.73 180.38,-227.66 180.38,-219.01"/>
<polygon fill="#63b8ff" stroke="#63b8ff" points="183.88,-219.3 180.38,-209.3 176.88,-219.3 183.88,-219.3"/>
</a>
</g>
</g>
<!-- Node3 -->
<g id="Node000003" class="node">
<title>Node3</title>
<g id="a_Node000003"><a xlink:href="_edge_8h.html" target="_top" xlink:title=" ">
<polygon fill="white" stroke="#666666" points="112.75,-135.38 0,-135.38 0,-116.12 112.75,-116.12 112.75,-135.38"/>
<text xml:space="preserve" text-anchor="middle" x="56.38" y="-121.88" font-family="Helvetica,sans-Serif" font-size="10.00">slitherlink/core/Edge.h</text>
</a>
</g>
</g>
<!-- Node2&#45;&gt;Node3 -->
<g id="edge2_Node000002_Node000003" class="edge">
<title>Node2&#45;&gt;Node3</title>
<g id="a_edge2_Node000002_Node000003"><a xlink:title=" ">
<path fill="none" stroke="#63b8ff" d="M152.24,-176.61C131.76,-165.96 104.19,-151.62 83.87,-141.05"/>
<polygon fill="#63b8ff" stroke="#63b8ff" points="85.53,-137.97 75.04,-136.46 82.3,-144.18 85.53,-137.97"/>
</a>
</g>
</g>
<!-- Node4 -->
<g id="Node000004" class="node">
<title>Node4</title>
<g id="a_Node000004"><a xlink:href="_grid_8h.html" target="_top" xlink:title=" ">
<polygon fill="white" stroke="#666666" points="272.5,-74.5 164.25,-74.5 164.25,-55.25 272.5,-55.25 272.5,-74.5"/>
<text xml:space="preserve" text-anchor="middle" x="218.38" y="-61" font-family="Helvetica,sans-Serif" font-size="10.00">slitherlink/core/Grid.h</text>
</a>
</g>
</g>
<!-- Node2&#45;&gt;Node4 -->
<g id="edge3_Node000002_Node000004" class="edge">
<title>Node2&#45;&gt;Node4</title>
<g id="a_edge3_Node000002_Node000004"><a xlink:title=" ">
<path fill="none" stroke="#63b8ff" d="M170.94,-176.6C161.48,-159.91 149.72,-132.14 160.38,-110.5 166.54,-97.98 178.09,-87.99 189.27,-80.66"/>
<polygon fill="#63b8ff" stroke="#63b8ff" points="190.78,-83.84 197.56,-75.69 187.18,-77.83 190.78,-83.84"/>
</a>
</g>
</g>
<!-- Node5 -->
<g id="Node000005" class="node">
<title>Node5</title>
<g id="a_Node000005"><a xlink:title=" ">
<polygon fill="#e0e0e0" stroke="#999999" points="280.88,-19.25 237.88,-19.25 237.88,0 280.88,0 280.88,-19.25"/>
<text xml:space="preserve" text-anchor="middle" x="259.38" y="-5.75" font-family="Helvetica,sans-Serif" font-size="10.00">vector</text>
</a>
</g>
</g>
<!-- Node2&#45;&gt;Node5 -->
<g id="edge7_Node000002_Node000005" class="edge">
<title>Node2&#45;&gt;Node5</title>
<g id="a_edge7_Node000002_Node000005"><a xlink:title=" ">
<path fill="none" stroke="#63b8ff" d="M224.08,-181.06C245.27,-173.68 268.79,-161.31 281.38,-141 301.44,-108.6 290.03,-92.37 281.38,-55.25 279.3,-46.33 275.16,-37.14 271.04,-29.44"/>
<polygon fill="#63b8ff" stroke="#63b8ff" points="274.21,-27.94 266.18,-21.04 268.15,-31.45 274.21,-27.94"/>
</a>
</g>
</g>
<!-- Node6 -->
<g id="Node000006" class="node">
<title>Node6</title>
<g id="a_Node000006"><a xlink:href="_i_graph_builder_8h.html" target="_top" xlink:title=" ">
<polygon fill="white" stroke="#666666" points="271.88,-141 168.88,-141 168.88,-110.5 271.88,-110.5 271.88,-141"/>
<text xml:space="preserve" text-anchor="start" x="176.88" y="-127.5" font-family="Helvetica,sans-Serif" font-size="10.00">slitherlink/interfaces</text>
<text xml:space="preserve" text-anchor="middle" x="220.38" y="-116.25" font-family="Helvetica,sans-Serif" font-size="10.00">/IGraphBuilder.h</text>
</a>
</g>
</g>
<!-- Node2&#45;&gt;Node6 -->
<g id="edge5_Node000002_Node000006" class="edge">
<title>Node2&#45;&gt;Node6</title>
<g id="a_edge5_Node000002_Node000006"><a xlink:title=" ">
<path fill="none" stroke="#63b8ff" d="M189.45,-176.61C194.16,-169.03 200.03,-159.56 205.38,-150.93"/>
<polygon fill="#63b8ff" stroke="#63b8ff" points="208.24,-152.96 210.54,-142.61 202.29,-149.27 208.24,-152.96"/>
</a>
</g>
</g>
<!-- Node4&#45;&gt;Node5 -->
<g id="edge4_Node000004_Node000005" class="edge">
<title>Node4&#45;&gt;Node5</title>
<g id="a_edge4_Node000004_Node000005"><a xlink:title=" ">
<path fill="none" stroke="#63b8ff" d="M225.15,-55.08C230.69,-47.88 238.72,-37.46 245.6,-28.51"/>
<polygon fill="#63b8ff" stroke="#63b8ff" points="248.21,-30.87 251.53,-20.81 242.66,-26.6 248.21,-30.87"/>
</a>
</g>
</g>
<!-- Node6&#45;&gt;Node4 -->
<g id="edge6_Node000006_Node000004" class="edge">
<title>Node6&#45;&gt;Node4</title>
<g id="a_edge6_Node000006_Node000004"><a xlink:title=" ">
<path fill="none" stroke="#63b8ff" d="M219.88,-110.2C219.63,-102.96 219.33,-94.09 219.07,-86.19"/>
<polygon fill="#63b8ff" stroke="#63b8ff" points="222.57,-86.34 218.73,-76.46 215.58,-86.58 222.57,-86.34"/>
</a>
</g>
</g>
</g>
</svg>
