<?xml version="1.0" encoding="UTF-8" standalone="no"?>
<!DOCTYPE svg PUBLIC "-//W3C//DTD SVG 1.1//EN"
 "http://www.w3.org/Graphics/SVG/1.1/DTD/svg11.dtd">
<!-- Generated by graphviz version 14.0.2 (20251019.1705)
 -->
<!-- Title: include/slitherlink/core/Grid.h Pages: 1 -->
<!--zoomable 305 -->

<svg id="main" version="1.1" xmlns="http://www.w3.org/2000/svg" xmlns:xlink="http://www.w3.org/1999/xlink" xml:space="preserve" onload="init(evt)">

<style type="text/css"><![CDATA[
.node, .edge {opacity: 0.7;}
.node.selected, .edge.selected {opacity: 1;}
.edge:hover path { stroke: red; }
.edge:hover polygon { stroke: red; fill: red; }
]]></style>

<defs>
  <circle id="rim" cx="0" cy="0" r="7"/>
  <circle id="rim2" cx="0" cy="0" r="3.5"/>
  <g id="zoomPlus">
    <use xlink:href="#rim" fill="#404040"><set attributeName="fill" to="#808080" begin="zoomplus.mouseover" end="zoomplus.mouseout"/></use>
    <path d="M-4,0h8M0,-4v8" fill="none" stroke="white" stroke-width="1.5" pointer-events="none"/>
  </g>
  <g id="zoomMin">
    <use xlink:href="#rim" fill="#404040"><set attributeName="fill" to="#808080" begin="zoomminus.mouseover" end="zoomminus.mouseout"/></use>
    <path d="M-4,0h8" fill="none" stroke="white" stroke-width="1.5" pointer-events="none"/>
  </g>
  <g id="arrowUp" transform="translate(30 24)">
    <use xlink:href="#rim"/>
    <path pointer-events="none" fill="none" stroke="white" stroke-width="1.5" d="M0,-3.0v7 M-2.5,-0.5L0,-3.0L2.5,-0.5"/>
  </g>
  <g id="arrowRight" transform="rotate(90) translate(36 -43)">
    <use xlink:href="#rim"/>
    <path pointer-events="none" fill="none" stroke="white" stroke-width="1.5" d="M0,-3.0v7 M-2.5,-0.5L0,-3.0L2.5,-0.5"/>
  </g>
  <g id="arrowDown" transform="rotate(180) translate(-30 -48)">
    <use xlink:href="#rim"/>
    <path pointer-events="none" fill="none" stroke="white" stroke-width="1.5" d="M0,-3.0v7 M-2.5,-0.5L0,-3.0L2.5,-0.5"/>
  </g>
  <g id="arrowLeft" transform="rotate(270) translate(-36 17)">
    <use xlink:href="#rim"/>
    <path pointer-events="none" fill="none" stroke="white" stroke-width="1.5" d="M0,-3.0v7 M-2.5,-0.5L0,-3.0L2.5,-0.5"/>
  </g>
  <g id="resetDef">
    <use xlink:href="#rim2" fill="#404040"><set attributeName="fill" to="#808080" begin="reset.mouseover" end="reset.mouseout"/></use>
  </g>
</defs>
<script type="application/ecmascript">
var viewWidth = 1037;
var viewHeight = 305;
var sectionId = 'dynsection-1';
</script>
<script type="application/ecmascript" xlink:href="svg.min.js"/>
<svg id="graph" class="graph">
<g id="viewport">
<title>include/slitherlink/core/Grid.h</title>
<!-- Node1 -->
<g id="Node000001" class="node">
<title>Node1</title>
<g id="a_Node000001"><a xlink:title=" ">
<polygon fill="#999999" stroke="#666666" points="435.07,-296.5 344.07,-296.5 344.07,-266 435.07,-266 435.07,-296.5"/>
<text xml:space="preserve" text-anchor="start" x="352.07" y="-283" font-family="Helvetica,sans-Serif" font-size="10.00">include/slitherlink</text>
<text xml:space="preserve" text-anchor="middle" x="389.57" y="-271.75" font-family="Helvetica,sans-Serif" font-size="10.00">/core/Grid.h</text>
</a>
</g>
</g>
<!-- Node2 -->
<g id="Node000002" class="node">
<title>Node2</title>
<g id="a_Node000002"><a xlink:href="_slitherlink_8h.html" target="_top" xlink:title=" ">
<polygon fill="white" stroke="#666666" points="127.07,-30.5 36.07,-30.5 36.07,0 127.07,0 127.07,-30.5"/>
<text xml:space="preserve" text-anchor="start" x="44.07" y="-17" font-family="Helvetica,sans-Serif" font-size="10.00">include/slitherlink</text>
<text xml:space="preserve" text-anchor="middle" x="81.57" y="-5.75" font-family="Helvetica,sans-Serif" font-size="10.00">/Slitherlink.h</text>
</a>
</g>
</g>
<!-- Node1&#45;&gt;Node2 -->
<g id="edge1_Node000001_Node000002" class="edge">
<title>Node1&#45;&gt;Node2</title>
<g id="a_edge1_Node000001_Node000002"><a xlink:title=" ">
<path fill="none" stroke="#63b8ff" d="M332.71,-277.71C254.95,-271.06 116.36,-247.37 39.57,-163.5 9.01,-130.12 -12.49,-106.56 8.57,-66.5 16.81,-50.84 32.37,-39.11 47.02,-30.94"/>
<polygon fill="#63b8ff" stroke="#63b8ff" points="331.97,-281.16 342.22,-278.45 332.52,-274.18 331.97,-281.16"/>
</a>
</g>
</g>
<!-- Node3 -->
<g id="Node000003" class="node">
<title>Node3</title>
<g id="a_Node000003"><a xlink:href="_slitherlink_solver_8h.html" target="_top" xlink:title=" ">
<polygon fill="white" stroke="#666666" points="178.57,-163.5 48.57,-163.5 48.57,-133 178.57,-133 178.57,-163.5"/>
<text xml:space="preserve" text-anchor="start" x="56.57" y="-150" font-family="Helvetica,sans-Serif" font-size="10.00">include/slitherlink</text>
<text xml:space="preserve" text-anchor="middle" x="113.57" y="-138.75" font-family="Helvetica,sans-Serif" font-size="10.00">/factory/SlitherlinkSolver.h</text>
</a>
</g>
</g>
<!-- Node1&#45;&gt;Node3 -->
<g id="edge2_Node000001_Node000003" class="edge">
<title>Node1&#45;&gt;Node3</title>
<g id="a_edge2_Node000001_Node000003"><a xlink:title=" ">
<path fill="none" stroke="#63b8ff" d="M332.62,-273.31C292.57,-266.6 238.8,-253.8 196.57,-230 166.27,-212.92 139.02,-182.05 124.53,-163.83"/>
<polygon fill="#63b8ff" stroke="#63b8ff" points="331.88,-276.73 342.3,-274.85 332.97,-269.82 331.88,-276.73"/>
</a>
</g>
</g>
<!-- Node4 -->
<g id="Node000004" class="node">
<title>Node4</title>
<g id="a_Node000004"><a xlink:href="_solver_factory_8h.html" target="_top" xlink:title=" ">
<polygon fill="white" stroke="#666666" points="318.32,-97 198.82,-97 198.82,-66.5 318.32,-66.5 318.32,-97"/>
<text xml:space="preserve" text-anchor="start" x="206.82" y="-83.5" font-family="Helvetica,sans-Serif" font-size="10.00">include/slitherlink</text>
<text xml:space="preserve" text-anchor="middle" x="258.57" y="-72.25" font-family="Helvetica,sans-Serif" font-size="10.00">/factory/SolverFactory.h</text>
</a>
</g>
</g>
<!-- Node1&#45;&gt;Node4 -->
<g id="edge9_Node000001_Node000004" class="edge">
<title>Node1&#45;&gt;Node4</title>
<g id="a_edge9_Node000001_Node000004"><a xlink:title=" ">
<path fill="none" stroke="#63b8ff" d="M379.92,-255.32C367.38,-224.72 343.5,-172.09 313.57,-133 303.27,-119.55 289.11,-106.7 277.74,-97.37"/>
<polygon fill="#63b8ff" stroke="#63b8ff" points="376.63,-256.51 383.6,-264.49 383.13,-253.91 376.63,-256.51"/>
</a>
</g>
</g>
<!-- Node8 -->
<g id="Node000008" class="node">
<title>Node8</title>
<g id="a_Node000008"><a xlink:href="_i_graph_builder_8h.html" target="_top" xlink:title=" ">
<polygon fill="white" stroke="#666666" points="568.32,-230 436.82,-230 436.82,-199.5 568.32,-199.5 568.32,-230"/>
<text xml:space="preserve" text-anchor="start" x="444.82" y="-216.5" font-family="Helvetica,sans-Serif" font-size="10.00">include/slitherlink</text>
<text xml:space="preserve" text-anchor="middle" x="502.57" y="-205.25" font-family="Helvetica,sans-Serif" font-size="10.00">/interfaces/IGraphBuilder.h</text>
</a>
</g>
</g>
<!-- Node1&#45;&gt;Node8 -->
<g id="edge10_Node000001_Node000008" class="edge">
<title>Node1&#45;&gt;Node8</title>
<g id="a_edge10_Node000001_Node000008"><a xlink:title=" ">
<path fill="none" stroke="#63b8ff" d="M424.77,-260.16C441.69,-250.5 461.59,-239.14 477.03,-230.33"/>
<polygon fill="#63b8ff" stroke="#63b8ff" points="423.48,-256.87 416.53,-264.86 426.95,-262.95 423.48,-256.87"/>
</a>
</g>
</g>
<!-- Node9 -->
<g id="Node000009" class="node">
<title>Node9</title>
<g id="a_Node000009"><a xlink:href="_graph_builder_8h.html" target="_top" xlink:title=" ">
<polygon fill="white" stroke="#666666" points="535.57,-163.5 423.57,-163.5 423.57,-133 535.57,-133 535.57,-163.5"/>
<text xml:space="preserve" text-anchor="start" x="431.57" y="-150" font-family="Helvetica,sans-Serif" font-size="10.00">include/slitherlink</text>
<text xml:space="preserve" text-anchor="middle" x="479.57" y="-138.75" font-family="Helvetica,sans-Serif" font-size="10.00">/solver/GraphBuilder.h</text>
</a>
</g>
</g>
<!-- Node1&#45;&gt;Node9 -->
<g id="edge23_Node000001_Node000009" class="edge">
<title>Node1&#45;&gt;Node9</title>
<g id="a_edge23_Node000001_Node000009"><a xlink:title=" ">
<path fill="none" stroke="#63b8ff" d="M398.64,-255.13C405.28,-238.51 415.26,-216.7 427.57,-199.5 437.22,-186.02 450.74,-173.09 461.58,-163.71"/>
<polygon fill="#63b8ff" stroke="#63b8ff" points="395.44,-253.69 395.13,-264.28 401.98,-256.19 395.44,-253.69"/>
</a>
</g>
</g>
<!-- Node11 -->
<g id="Node000011" class="node">
<title>Node11</title>
<g id="a_Node000011"><a xlink:href="_grid_reader_8h.html" target="_top" xlink:title=" ">
<polygon fill="white" stroke="#666666" points="427.07,-97 336.07,-97 336.07,-66.5 427.07,-66.5 427.07,-97"/>
<text xml:space="preserve" text-anchor="start" x="344.07" y="-83.5" font-family="Helvetica,sans-Serif" font-size="10.00">include/slitherlink</text>
<text xml:space="preserve" text-anchor="middle" x="381.57" y="-72.25" font-family="Helvetica,sans-Serif" font-size="10.00">/io/GridReader.h</text>
</a>
</g>
</g>
<!-- Node1&#45;&gt;Node11 -->
<g id="edge14_Node000001_Node000011" class="edge">
<title>Node1&#45;&gt;Node11</title>
<g id="a_edge14_Node000001_Node000011"><a xlink:title=" ">
<path fill="none" stroke="#63b8ff" d="M388.52,-254.27C386.82,-212.19 383.51,-130.49 382.16,-97.29"/>
<polygon fill="#63b8ff" stroke="#63b8ff" points="385.02,-254.36 388.92,-264.22 392.02,-254.08 385.02,-254.36"/>
</a>
</g>
</g>
<!-- Node13 -->
<g id="Node000013" class="node">
<title>Node13</title>
<g id="a_Node000013"><a xlink:href="_solution_printer_8h.html" target="_top" xlink:title=" ">
<polygon fill="white" stroke="#666666" points="686.95,-230 586.2,-230 586.2,-199.5 686.95,-199.5 686.95,-230"/>
<text xml:space="preserve" text-anchor="start" x="594.2" y="-216.5" font-family="Helvetica,sans-Serif" font-size="10.00">include/slitherlink</text>
<text xml:space="preserve" text-anchor="middle" x="636.57" y="-205.25" font-family="Helvetica,sans-Serif" font-size="10.00">/io/SolutionPrinter.h</text>
</a>
</g>
</g>
<!-- Node1&#45;&gt;Node13 -->
<g id="edge18_Node000001_Node000013" class="edge">
<title>Node1&#45;&gt;Node13</title>
<g id="a_edge18_Node000001_Node000013"><a xlink:title=" ">
<path fill="none" stroke="#63b8ff" d="M446.36,-265.42C488.43,-254.43 545.27,-239.59 585.83,-229"/>
<polygon fill="#63b8ff" stroke="#63b8ff" points="445.71,-261.97 436.92,-267.89 447.48,-268.75 445.71,-261.97"/>
</a>
</g>
</g>
<!-- Node15 -->
<g id="Node000015" class="node">
<title>Node15</title>
<g id="a_Node000015"><a xlink:href="_constraint_propagator_8h.html" target="_top" xlink:title=" ">
<polygon fill="white" stroke="#666666" points="852.57,-230 704.57,-230 704.57,-199.5 852.57,-199.5 852.57,-230"/>
<text xml:space="preserve" text-anchor="start" x="712.57" y="-216.5" font-family="Helvetica,sans-Serif" font-size="10.00">include/slitherlink</text>
<text xml:space="preserve" text-anchor="middle" x="778.57" y="-205.25" font-family="Helvetica,sans-Serif" font-size="10.00">/solver/ConstraintPropagator.h</text>
</a>
</g>
</g>
<!-- Node1&#45;&gt;Node15 -->
<g id="edge21_Node000001_Node000015" class="edge">
<title>Node1&#45;&gt;Node15</title>
<g id="a_edge21_Node000001_Node000015"><a xlink:title=" ">
<path fill="none" stroke="#63b8ff" d="M446.48,-271.03C507.94,-261.05 608.73,-244.59 695.57,-230 698.46,-229.52 701.4,-229.02 704.37,-228.52"/>
<polygon fill="#63b8ff" stroke="#63b8ff" points="446.27,-267.52 436.96,-272.58 447.4,-274.43 446.27,-267.52"/>
</a>
</g>
</g>
<!-- Node16 -->
<g id="Node000016" class="node">
<title>Node16</title>
<g id="a_Node000016"><a xlink:href="_edge_selection_heuristic_8h.html" target="_top" xlink:title=" ">
<polygon fill="white" stroke="#666666" points="1028.82,-230 870.32,-230 870.32,-199.5 1028.82,-199.5 1028.82,-230"/>
<text xml:space="preserve" text-anchor="start" x="878.32" y="-216.5" font-family="Helvetica,sans-Serif" font-size="10.00">include/slitherlink</text>
<text xml:space="preserve" text-anchor="middle" x="949.57" y="-205.25" font-family="Helvetica,sans-Serif" font-size="10.00">/solver/EdgeSelectionHeuristic.h</text>
</a>
</g>
</g>
<!-- Node1&#45;&gt;Node16 -->
<g id="edge22_Node000001_Node000016" class="edge">
<title>Node1&#45;&gt;Node16</title>
<g id="a_edge22_Node000001_Node000016"><a xlink:title=" ">
<path fill="none" stroke="#63b8ff" d="M447.01,-275.15C536,-267.03 712.47,-249.99 861.57,-230 864.33,-229.63 867.14,-229.24 869.98,-228.84"/>
<polygon fill="#63b8ff" stroke="#63b8ff" points="446.72,-271.66 437.08,-276.06 447.35,-278.64 446.72,-271.66"/>
</a>
</g>
</g>
<!-- Node17 -->
<g id="Node000017" class="node">
<title>Node17</title>
<g id="a_Node000017"><a xlink:href="_solver_8h.html" target="_top" xlink:title=" ">
<polygon fill="white" stroke="#666666" points="296.07,-230 205.07,-230 205.07,-199.5 296.07,-199.5 296.07,-230"/>
<text xml:space="preserve" text-anchor="start" x="213.07" y="-216.5" font-family="Helvetica,sans-Serif" font-size="10.00">include/slitherlink</text>
<text xml:space="preserve" text-anchor="middle" x="250.57" y="-205.25" font-family="Helvetica,sans-Serif" font-size="10.00">/solver/Solver.h</text>
</a>
</g>
</g>
<!-- Node1&#45;&gt;Node17 -->
<g id="edge24_Node000001_Node000017" class="edge">
<title>Node1&#45;&gt;Node17</title>
<g id="a_edge24_Node000001_Node000017"><a xlink:title=" ">
<path fill="none" stroke="#63b8ff" d="M347.72,-260.83C326.61,-251.03 301.42,-239.35 281.99,-230.33"/>
<polygon fill="#63b8ff" stroke="#63b8ff" points="346.11,-263.94 356.66,-264.98 349.06,-257.59 346.11,-263.94"/>
</a>
</g>
</g>
<!-- Node3&#45;&gt;Node2 -->
<g id="edge3_Node000003_Node000002" class="edge">
<title>Node3&#45;&gt;Node2</title>
<g id="a_edge3_Node000003_Node000002"><a xlink:title=" ">
<path fill="none" stroke="#63b8ff" d="M52.12,-127.58C38.43,-120.21 25.61,-110.27 17.57,-97 10.55,-85.4 11.64,-78.69 17.57,-66.5 24.99,-51.25 39.51,-39.26 52.85,-30.82"/>
<polygon fill="#63b8ff" stroke="#63b8ff" points="50.31,-130.59 60.83,-131.84 53.38,-124.3 50.31,-130.59"/>
</a>
</g>
</g>
<!-- Node3&#45;&gt;Node4 -->
<g id="edge4_Node000003_Node000004" class="edge">
<title>Node3&#45;&gt;Node4</title>
<g id="a_edge4_Node000003_Node000004"><a xlink:title=" ">
<path fill="none" stroke="#63b8ff" d="M156.89,-127.98C178.89,-118.19 205.2,-106.49 225.55,-97.44"/>
<polygon fill="#63b8ff" stroke="#63b8ff" points="155.57,-124.74 147.86,-132 158.42,-131.13 155.57,-124.74"/>
</a>
</g>
</g>
<!-- Node7 -->
<g id="Node000007" class="node">
<title>Node7</title>
<g id="a_Node000007"><a xlink:href="_slitherlink_solver_8cpp.html" target="_top" xlink:title=" ">
<polygon fill="white" stroke="#666666" points="180.57,-91.38 26.57,-91.38 26.57,-72.12 180.57,-72.12 180.57,-91.38"/>
<text xml:space="preserve" text-anchor="middle" x="103.57" y="-77.88" font-family="Helvetica,sans-Serif" font-size="10.00">src/factory/SlitherlinkSolver.cpp</text>
</a>
</g>
</g>
<!-- Node3&#45;&gt;Node7 -->
<g id="edge8_Node000003_Node000007" class="edge">
<title>Node3&#45;&gt;Node7</title>
<g id="a_edge8_Node000003_Node000007"><a xlink:title=" ">
<path fill="none" stroke="#63b8ff" d="M109.55,-121.34C107.92,-110.76 106.13,-99.25 104.94,-91.57"/>
<polygon fill="#63b8ff" stroke="#63b8ff" points="106.08,-121.77 111.07,-131.12 113,-120.7 106.08,-121.77"/>
</a>
</g>
</g>
<!-- Node4&#45;&gt;Node2 -->
<g id="edge5_Node000004_Node000002" class="edge">
<title>Node4&#45;&gt;Node2</title>
<g id="a_edge5_Node000004_Node000002"><a xlink:title=" ">
<path fill="none" stroke="#63b8ff" d="M207.88,-62.28C180.59,-52.33 147.4,-40.24 121.88,-30.94"/>
<polygon fill="#63b8ff" stroke="#63b8ff" points="206.39,-65.46 216.99,-65.6 208.79,-58.88 206.39,-65.46"/>
</a>
</g>
</g>
<!-- Node5 -->
<g id="Node000005" class="node">
<title>Node5</title>
<g id="a_Node000005"><a xlink:href="_solver_factory_8cpp.html" target="_top" xlink:title=" ">
<polygon fill="white" stroke="#666666" points="594.32,-24.88 450.82,-24.88 450.82,-5.63 594.32,-5.63 594.32,-24.88"/>
<text xml:space="preserve" text-anchor="middle" x="522.57" y="-11.38" font-family="Helvetica,sans-Serif" font-size="10.00">src/factory/SolverFactory.cpp</text>
</a>
</g>
</g>
<!-- Node4&#45;&gt;Node5 -->
<g id="edge6_Node000004_Node000005" class="edge">
<title>Node4&#45;&gt;Node5</title>
<g id="a_edge6_Node000004_Node000005"><a xlink:title=" ">
<path fill="none" stroke="#63b8ff" d="M329.92,-63.32C380.08,-51.06 445.19,-35.16 485.41,-25.33"/>
<polygon fill="#63b8ff" stroke="#63b8ff" points="329.16,-59.9 320.28,-65.67 330.82,-66.7 329.16,-59.9"/>
</a>
</g>
</g>
<!-- Node6 -->
<g id="Node000006" class="node">
<title>Node6</title>
<g id="a_Node000006"><a xlink:href="src_2main_8cpp.html" target="_top" xlink:title=" ">
<polygon fill="white" stroke="#666666" points="297.7,-24.88 225.45,-24.88 225.45,-5.63 297.7,-5.63 297.7,-24.88"/>
<text xml:space="preserve" text-anchor="middle" x="261.57" y="-11.38" font-family="Helvetica,sans-Serif" font-size="10.00">src/main.cpp</text>
</a>
</g>
</g>
<!-- Node4&#45;&gt;Node6 -->
<g id="edge7_Node000004_Node000006" class="edge">
<title>Node4&#45;&gt;Node6</title>
<g id="a_edge7_Node000004_Node000006"><a xlink:title=" ">
<path fill="none" stroke="#63b8ff" d="M259.78,-54.84C260.27,-44.26 260.81,-32.75 261.16,-25.07"/>
<polygon fill="#63b8ff" stroke="#63b8ff" points="256.29,-54.45 259.32,-64.6 263.28,-54.78 256.29,-54.45"/>
</a>
</g>
</g>
<!-- Node8&#45;&gt;Node9 -->
<g id="edge11_Node000008_Node000009" class="edge">
<title>Node8&#45;&gt;Node9</title>
<g id="a_edge11_Node000008_Node000009"><a xlink:title=" ">
<path fill="none" stroke="#63b8ff" d="M493.52,-188.38C490.55,-180.05 487.36,-171.08 484.77,-163.83"/>
<polygon fill="#63b8ff" stroke="#63b8ff" points="490.19,-189.44 496.85,-197.69 496.78,-187.09 490.19,-189.44"/>
</a>
</g>
</g>
<!-- Node9&#45;&gt;Node5 -->
<g id="edge12_Node000009_Node000005" class="edge">
<title>Node9&#45;&gt;Node5</title>
<g id="a_edge12_Node000009_Node000005"><a xlink:title=" ">
<path fill="none" stroke="#63b8ff" d="M472.5,-121.75C469.28,-105.4 467.55,-84.02 474.57,-66.5 481.58,-49.03 497.87,-34.19 509.53,-25.27"/>
<polygon fill="#63b8ff" stroke="#63b8ff" points="469.02,-122.22 474.68,-131.18 475.84,-120.65 469.02,-122.22"/>
</a>
</g>
</g>
<!-- Node10 -->
<g id="Node000010" class="node">
<title>Node10</title>
<g id="a_Node000010"><a xlink:href="_graph_builder_8cpp.html" target="_top" xlink:title=" ">
<polygon fill="white" stroke="#666666" points="619.57,-91.38 483.57,-91.38 483.57,-72.12 619.57,-72.12 619.57,-91.38"/>
<text xml:space="preserve" text-anchor="middle" x="551.57" y="-77.88" font-family="Helvetica,sans-Serif" font-size="10.00">src/solver/GraphBuilder.cpp</text>
</a>
</g>
</g>
<!-- Node9&#45;&gt;Node10 -->
<g id="edge13_Node000009_Node000010" class="edge">
<title>Node9&#45;&gt;Node10</title>
<g id="a_edge13_Node000009_Node000010"><a xlink:title=" ">
<path fill="none" stroke="#63b8ff" d="M504.37,-125.04C517.2,-113.54 532.14,-100.15 541.72,-91.57"/>
<polygon fill="#63b8ff" stroke="#63b8ff" points="502.15,-122.32 497.04,-131.6 506.82,-127.54 502.15,-122.32"/>
</a>
</g>
</g>
<!-- Node11&#45;&gt;Node2 -->
<g id="edge15_Node000011_Node000002" class="edge">
<title>Node11&#45;&gt;Node2</title>
<g id="a_edge15_Node000011_Node000002"><a xlink:title=" ">
<path fill="none" stroke="#63b8ff" d="M324.74,-65.9C250.64,-48.78 174.76,-33.83 127.53,-24.83"/>
<polygon fill="#63b8ff" stroke="#63b8ff" points="323.65,-69.24 334.19,-68.1 325.24,-62.43 323.65,-69.24"/>
</a>
</g>
</g>
<!-- Node11&#45;&gt;Node6 -->
<g id="edge17_Node000011_Node000006" class="edge">
<title>Node11&#45;&gt;Node6</title>
<g id="a_edge17_Node000011_Node000006"><a xlink:title=" ">
<path fill="none" stroke="#63b8ff" d="M344.28,-60.7C322.21,-48.84 295.33,-34.4 278.34,-25.26"/>
<polygon fill="#63b8ff" stroke="#63b8ff" points="342.54,-63.75 353.01,-65.4 345.86,-57.58 342.54,-63.75"/>
</a>
</g>
</g>
<!-- Node12 -->
<g id="Node000012" class="node">
<title>Node12</title>
<g id="a_Node000012"><a xlink:href="_grid_reader_8cpp.html" target="_top" xlink:title=" ">
<polygon fill="white" stroke="#666666" points="432.82,-24.88 322.32,-24.88 322.32,-5.63 432.82,-5.63 432.82,-24.88"/>
<text xml:space="preserve" text-anchor="middle" x="377.57" y="-11.38" font-family="Helvetica,sans-Serif" font-size="10.00">src/io/GridReader.cpp</text>
</a>
</g>
</g>
<!-- Node11&#45;&gt;Node12 -->
<g id="edge16_Node000011_Node000012" class="edge">
<title>Node11&#45;&gt;Node12</title>
<g id="a_edge16_Node000011_Node000012"><a xlink:title=" ">
<path fill="none" stroke="#63b8ff" d="M379.97,-54.84C379.31,-44.26 378.6,-32.75 378.12,-25.07"/>
<polygon fill="#63b8ff" stroke="#63b8ff" points="376.46,-54.84 380.57,-64.6 383.45,-54.41 376.46,-54.84"/>
</a>
</g>
</g>
<!-- Node13&#45;&gt;Node5 -->
<g id="edge19_Node000013_Node000005" class="edge">
<title>Node13&#45;&gt;Node5</title>
<g id="a_edge19_Node000013_Node000005"><a xlink:title=" ">
<path fill="none" stroke="#63b8ff" d="M642.56,-188C648.33,-156.5 653.01,-102.91 628.57,-66.5 614.16,-45.03 587.96,-32.49 565.21,-25.31"/>
<polygon fill="#63b8ff" stroke="#63b8ff" points="639.13,-187.3 640.56,-197.8 645.99,-188.69 639.13,-187.3"/>
</a>
</g>
</g>
<!-- Node14 -->
<g id="Node000014" class="node">
<title>Node14</title>
<g id="a_Node000014"><a xlink:href="_solution_printer_8cpp.html" target="_top" xlink:title=" ">
<polygon fill="white" stroke="#666666" points="799.95,-157.88 675.2,-157.88 675.2,-138.62 799.95,-138.62 799.95,-157.88"/>
<text xml:space="preserve" text-anchor="middle" x="737.57" y="-144.38" font-family="Helvetica,sans-Serif" font-size="10.00">src/io/SolutionPrinter.cpp</text>
</a>
</g>
</g>
<!-- Node13&#45;&gt;Node14 -->
<g id="edge20_Node000013_Node000014" class="edge">
<title>Node13&#45;&gt;Node14</title>
<g id="a_edge20_Node000013_Node000014"><a xlink:title=" ">
<path fill="none" stroke="#63b8ff" d="M668.97,-193.06C687.35,-181.32 709.42,-167.23 723.46,-158.26"/>
<polygon fill="#63b8ff" stroke="#63b8ff" points="667.31,-189.97 660.77,-198.3 671.08,-195.87 667.31,-189.97"/>
</a>
</g>
</g>
<!-- Node17&#45;&gt;Node3 -->
<g id="edge25_Node000017_Node000003" class="edge">
<title>Node17&#45;&gt;Node3</title>
<g id="a_edge25_Node000017_Node000003"><a xlink:title=" ">
<path fill="none" stroke="#63b8ff" d="M209.33,-194.33C188.52,-184.53 163.69,-172.85 144.54,-163.83"/>
<polygon fill="#63b8ff" stroke="#63b8ff" points="207.58,-197.38 218.12,-198.47 210.56,-191.04 207.58,-197.38"/>
</a>
</g>
</g>
<!-- Node18 -->
<g id="Node000018" class="node">
<title>Node18</title>
<g id="a_Node000018"><a xlink:href="_solver_8cpp.html" target="_top" xlink:title=" ">
<polygon fill="white" stroke="#666666" points="304.32,-157.88 196.82,-157.88 196.82,-138.62 304.32,-138.62 304.32,-157.88"/>
<text xml:space="preserve" text-anchor="middle" x="250.57" y="-144.38" font-family="Helvetica,sans-Serif" font-size="10.00">src/solver/Solver.cpp</text>
</a>
</g>
</g>
<!-- Node17&#45;&gt;Node18 -->
<g id="edge26_Node000017_Node000018" class="edge">
<title>Node17&#45;&gt;Node18</title>
<g id="a_edge26_Node000017_Node000018"><a xlink:title=" ">
<path fill="none" stroke="#63b8ff" d="M250.57,-187.84C250.57,-177.26 250.57,-165.75 250.57,-158.07"/>
<polygon fill="#63b8ff" stroke="#63b8ff" points="247.07,-187.6 250.57,-197.6 254.07,-187.6 247.07,-187.6"/>
</a>
</g>
</g>
</g>
</svg>

<g id="navigator" transform="translate(0 0)" fill="#404254">
  <rect fill="#f2f5e9" fill-opacity="0.5" stroke="#606060" stroke-width=".5" x="0" y="0" width="60" height="60"/>
  <use id="zoomplus" xlink:href="#zoomPlus" x="17" y="9" onmousedown="handleZoom(evt,'in')"/>
  <use id="zoomminus" xlink:href="#zoomMin" x="42" y="9" onmousedown="handleZoom(evt,'out')"/>
  <use id="reset" xlink:href="#resetDef" x="30" y="36" onmousedown="handleReset()"/>
   <use id="arrowup" xlink:href="#arrowUp" x="0" y="0" onmousedown="handlePan(0,-1)"/>
  <use id="arrowright" xlink:href="#arrowRight" x="0" y="0" onmousedown="handlePan(1,0)"/>
  <use id="arrowdown" xlink:href="#arrowDown" x="0" y="0" onmousedown="handlePan(0,1)"/>
  <use id="arrowleft" xlink:href="#arrowLeft" x="0" y="0" onmousedown="handlePan(-1,0)"/>
</g>
<svg viewBox="0 0 15 15" width="100%" height="30px" preserveAspectRatio="xMaxYMin meet">
 <g id="arrow_out" transform="scale(0.3 0.3)">
  <a xlink:href="_grid_8h__dep__incl_org.svg" target="_base">
   <rect id="button" ry="5" rx="5" y="6" x="6" height="38" width="38"
        fill="#f2f5e9" fill-opacity="0.5" stroke="#606060" stroke-width="1.0"/>
   <path id="arrow"
     d="M 11.500037,31.436501 C 11.940474,20.09759 22.043105,11.32322 32.158766,21.979434 L 37.068811,17.246167 C 37.068811,17.246167 37.088388,32 37.088388,32 L 22.160133,31.978069 C 22.160133,31.978069 26.997745,27.140456 26.997745,27.140456 C 18.528582,18.264221 13.291696,25.230495 11.500037,31.436501 z"
     style="fill:#404040;"/>
  </a>
 </g>
</svg>

<style type='text/css'>
<![CDATA[
[data-mouse-over-selected='false'] { opacity: 0.7; }
[data-mouse-over-selected='true']  { opacity: 1.0; }
]]>
</style>
<script type="application/ecmascript"><![CDATA[
document.addEventListener('DOMContentLoaded', (event) => {
  highlightEdges();
  highlightAdjacentNodes();
});
]]></script>
</svg>
