<?xml version="1.0" encoding="UTF-8" standalone="no"?>
<!DOCTYPE svg PUBLIC "-//W3C//DTD SVG 1.1//EN"
 "http://www.w3.org/Graphics/SVG/1.1/DTD/svg11.dtd">
<!-- Generated by graphviz version 14.0.2 (20251019.1705)
 -->
<!-- Title: include/io/GridReader.h Pages: 1 -->
<svg width="129pt" height="138pt"
 viewBox="0.00 0.00 129.00 138.00" xmlns="http://www.w3.org/2000/svg" xmlns:xlink="http://www.w3.org/1999/xlink">

<svg id="main" version="1.1" xmlns="http://www.w3.org/2000/svg" xmlns:xlink="http://www.w3.org/1999/xlink" xml:space="preserve">

<style type="text/css"><![CDATA[
.node, .edge {opacity: 0.7;}
.node.selected, .edge.selected {opacity: 1;}
.edge:hover path { stroke: red; }
.edge:hover polygon { stroke: red; fill: red; }
]]></style>
<script type="application/ecmascript" xlink:href="svg.min.js"/>
<svg id="graph" class="graph">
<g id="graph0" class="graph" transform="scale(1 1) rotate(0) translate(4 133.75)">
<title>include/io/GridReader.h</title>
<!-- Node1 -->
<g id="Node000001" class="node">
<title>Node1</title>
<g id="a_Node000001"><a xlink:title=" ">
<polygon fill="#999999" stroke="#666666" points="120.62,-129.75 3.38,-129.75 3.38,-110.5 120.62,-110.5 120.62,-129.75"/>
<text xml:space="preserve" text-anchor="middle" x="62" y="-116.25" font-family="Helvetica,sans-Serif" font-size="10.00">include/io/GridReader.h</text>
</a>
</g>
</g>
<!-- Node2 -->
<g id="Node000002" class="node">
<title>Node2</title>
<g id="a_Node000002"><a xlink:href="_grid_8h.html" target="_top" xlink:title=" ">
<polygon fill="white" stroke="#666666" points="64,-74.5 0,-74.5 0,-55.25 64,-55.25 64,-74.5"/>
<text xml:space="preserve" text-anchor="middle" x="32" y="-61" font-family="Helvetica,sans-Serif" font-size="10.00">core/Grid.h</text>
</a>
</g>
</g>
<!-- Node1&#45;&gt;Node2 -->
<g id="edge1_Node000001_Node000002" class="edge">
<title>Node1&#45;&gt;Node2</title>
<g id="a_edge1_Node000001_Node000002"><a xlink:title=" ">
<path fill="none" stroke="#63b8ff" d="M57.05,-110.33C53.12,-103.36 47.49,-93.37 42.56,-84.62"/>
<polygon fill="#63b8ff" stroke="#63b8ff" points="45.76,-83.17 37.8,-76.18 39.66,-86.61 45.76,-83.17"/>
</a>
</g>
</g>
<!-- Node4 -->
<g id="Node000004" class="node">
<title>Node4</title>
<g id="a_Node000004"><a xlink:title=" ">
<polygon fill="#e0e0e0" stroke="#999999" points="112,-19.25 72,-19.25 72,0 112,0 112,-19.25"/>
<text xml:space="preserve" text-anchor="middle" x="92" y="-5.75" font-family="Helvetica,sans-Serif" font-size="10.00">string</text>
</a>
</g>
</g>
<!-- Node1&#45;&gt;Node4 -->
<g id="edge4_Node000001_Node000004" class="edge">
<title>Node1&#45;&gt;Node4</title>
<g id="a_edge4_Node000001_Node000004"><a xlink:title=" ">
<path fill="none" stroke="#63b8ff" d="M64.46,-110.25C69.25,-92.92 79.94,-54.23 86.51,-30.49"/>
<polygon fill="#63b8ff" stroke="#63b8ff" points="89.82,-31.66 89.11,-21.09 83.07,-29.79 89.82,-31.66"/>
</a>
</g>
</g>
<!-- Node3 -->
<g id="Node000003" class="node">
<title>Node3</title>
<g id="a_Node000003"><a xlink:title=" ">
<polygon fill="#e0e0e0" stroke="#999999" points="53.5,-19.25 10.5,-19.25 10.5,0 53.5,0 53.5,-19.25"/>
<text xml:space="preserve" text-anchor="middle" x="32" y="-5.75" font-family="Helvetica,sans-Serif" font-size="10.00">vector</text>
</a>
</g>
</g>
<!-- Node2&#45;&gt;Node3 -->
<g id="edge2_Node000002_Node000003" class="edge">
<title>Node2&#45;&gt;Node3</title>
<g id="a_edge2_Node000002_Node000003"><a xlink:title=" ">
<path fill="none" stroke="#63b8ff" d="M32,-55.08C32,-48.57 32,-39.42 32,-31.12"/>
<polygon fill="#63b8ff" stroke="#63b8ff" points="35.5,-31.12 32,-21.12 28.5,-31.12 35.5,-31.12"/>
</a>
</g>
</g>
<!-- Node2&#45;&gt;Node4 -->
<g id="edge3_Node000002_Node000004" class="edge">
<title>Node2&#45;&gt;Node4</title>
<g id="a_edge3_Node000002_Node000004"><a xlink:title=" ">
<path fill="none" stroke="#63b8ff" d="M42.18,-54.84C50.76,-47.22 63.27,-36.12 73.6,-26.95"/>
<polygon fill="#63b8ff" stroke="#63b8ff" points="75.68,-29.79 80.84,-20.53 71.04,-24.55 75.68,-29.79"/>
</a>
</g>
</g>
</g>
</svg>
</svg>

<style type='text/css'>
<![CDATA[
[data-mouse-over-selected='false'] { opacity: 0.7; }
[data-mouse-over-selected='true']  { opacity: 1.0; }
]]>
</style>
<script type="application/ecmascript"><![CDATA[
document.addEventListener('DOMContentLoaded', (event) => {
  highlightEdges();
  highlightAdjacentNodes();
});
]]></script>
</svg>
