<?xml version="1.0" encoding="UTF-8" standalone="no"?>
<!DOCTYPE svg PUBLIC "-//W3C//DTD SVG 1.1//EN"
 "http://www.w3.org/Graphics/SVG/1.1/DTD/svg11.dtd">
<!-- Generated by graphviz version 14.0.2 (20251019.1705)
 -->
<!-- Title: src/io/GridReader.cpp Pages: 1 -->
<svg width="357pt" height="193pt"
 viewBox="0.00 0.00 357.00 193.00" xmlns="http://www.w3.org/2000/svg" xmlns:xlink="http://www.w3.org/1999/xlink">
<g id="graph0" class="graph" transform="scale(1 1) rotate(0) translate(4 189)">
<title>src/io/GridReader.cpp</title>
<!-- Node1 -->
<g id="Node000001" class="node">
<title>Node1</title>
<g id="a_Node000001"><a xlink:title=" ">
<polygon fill="#999999" stroke="#666666" points="275.38,-185 164.88,-185 164.88,-165.75 275.38,-165.75 275.38,-185"/>
<text xml:space="preserve" text-anchor="middle" x="220.12" y="-171.5" font-family="Helvetica,sans-Serif" font-size="10.00">src/io/GridReader.cpp</text>
</a>
</g>
</g>
<!-- Node2 -->
<g id="Node000002" class="node">
<title>Node2</title>
<g id="a_Node000002"><a xlink:href="_grid_reader_8h.html" target="_top" xlink:title=" ">
<polygon fill="white" stroke="#666666" points="166,-129.75 38.25,-129.75 38.25,-110.5 166,-110.5 166,-129.75"/>
<text xml:space="preserve" text-anchor="middle" x="102.12" y="-116.25" font-family="Helvetica,sans-Serif" font-size="10.00">slitherlink/io/GridReader.h</text>
</a>
</g>
</g>
<!-- Node1&#45;&gt;Node2 -->
<g id="edge1_Node000001_Node000002" class="edge">
<title>Node1&#45;&gt;Node2</title>
<g id="a_edge1_Node000001_Node000002"><a xlink:title=" ">
<path fill="none" stroke="#63b8ff" d="M200.11,-165.34C181.63,-157 153.92,-144.5 132.68,-134.91"/>
<polygon fill="#63b8ff" stroke="#63b8ff" points="134.17,-131.75 123.62,-130.83 131.3,-138.13 134.17,-131.75"/>
</a>
</g>
</g>
<!-- Node4 -->
<g id="Node000004" class="node">
<title>Node4</title>
<g id="a_Node000004"><a xlink:title=" ">
<polygon fill="#e0e0e0" stroke="#999999" points="145.62,-19.25 102.62,-19.25 102.62,0 145.62,0 145.62,-19.25"/>
<text xml:space="preserve" text-anchor="middle" x="124.12" y="-5.75" font-family="Helvetica,sans-Serif" font-size="10.00">vector</text>
</a>
</g>
</g>
<!-- Node1&#45;&gt;Node4 -->
<g id="edge7_Node000001_Node000004" class="edge">
<title>Node1&#45;&gt;Node4</title>
<g id="a_edge7_Node000001_Node000004"><a xlink:title=" ">
<path fill="none" stroke="#63b8ff" d="M218.29,-165.3C213.75,-144.37 200.46,-91.76 175.12,-55.25 167.4,-44.12 156.3,-33.97 146.43,-26.17"/>
<polygon fill="#63b8ff" stroke="#63b8ff" points="148.8,-23.57 138.7,-20.37 144.6,-29.17 148.8,-23.57"/>
</a>
</g>
</g>
<!-- Node6 -->
<g id="Node000006" class="node">
<title>Node6</title>
<g id="a_Node000006"><a xlink:title=" ">
<polygon fill="#e0e0e0" stroke="#999999" points="271.62,-129.75 222.62,-129.75 222.62,-110.5 271.62,-110.5 271.62,-129.75"/>
<text xml:space="preserve" text-anchor="middle" x="247.12" y="-116.25" font-family="Helvetica,sans-Serif" font-size="10.00">fstream</text>
</a>
</g>
</g>
<!-- Node1&#45;&gt;Node6 -->
<g id="edge5_Node000001_Node000006" class="edge">
<title>Node1&#45;&gt;Node6</title>
<g id="a_edge5_Node000001_Node000006"><a xlink:title=" ">
<path fill="none" stroke="#63b8ff" d="M224.58,-165.58C228.08,-158.69 233.07,-148.84 237.47,-140.16"/>
<polygon fill="#63b8ff" stroke="#63b8ff" points="240.48,-141.96 241.89,-131.46 234.24,-138.8 240.48,-141.96"/>
</a>
</g>
</g>
<!-- Node7 -->
<g id="Node000007" class="node">
<title>Node7</title>
<g id="a_Node000007"><a xlink:title=" ">
<polygon fill="#e0e0e0" stroke="#999999" points="348.5,-129.75 289.75,-129.75 289.75,-110.5 348.5,-110.5 348.5,-129.75"/>
<text xml:space="preserve" text-anchor="middle" x="319.12" y="-116.25" font-family="Helvetica,sans-Serif" font-size="10.00">stdexcept</text>
</a>
</g>
</g>
<!-- Node1&#45;&gt;Node7 -->
<g id="edge6_Node000001_Node000007" class="edge">
<title>Node1&#45;&gt;Node7</title>
<g id="a_edge6_Node000001_Node000007"><a xlink:title=" ">
<path fill="none" stroke="#63b8ff" d="M236.92,-165.34C252.14,-157.16 274.82,-144.96 292.51,-135.44"/>
<polygon fill="#63b8ff" stroke="#63b8ff" points="293.77,-138.74 300.92,-130.92 290.45,-132.57 293.77,-138.74"/>
</a>
</g>
</g>
<!-- Node3 -->
<g id="Node000003" class="node">
<title>Node3</title>
<g id="a_Node000003"><a xlink:href="_grid_8h.html" target="_top" xlink:title=" ">
<polygon fill="white" stroke="#666666" points="108.25,-74.5 0,-74.5 0,-55.25 108.25,-55.25 108.25,-74.5"/>
<text xml:space="preserve" text-anchor="middle" x="54.12" y="-61" font-family="Helvetica,sans-Serif" font-size="10.00">slitherlink/core/Grid.h</text>
</a>
</g>
</g>
<!-- Node2&#45;&gt;Node3 -->
<g id="edge2_Node000002_Node000003" class="edge">
<title>Node2&#45;&gt;Node3</title>
<g id="a_edge2_Node000002_Node000003"><a xlink:title=" ">
<path fill="none" stroke="#63b8ff" d="M94.2,-110.33C87.57,-102.98 77.91,-92.26 69.74,-83.19"/>
<polygon fill="#63b8ff" stroke="#63b8ff" points="72.53,-81.07 63.24,-75.98 67.33,-85.75 72.53,-81.07"/>
</a>
</g>
</g>
<!-- Node5 -->
<g id="Node000005" class="node">
<title>Node5</title>
<g id="a_Node000005"><a xlink:title=" ">
<polygon fill="#e0e0e0" stroke="#999999" points="166.12,-74.5 126.12,-74.5 126.12,-55.25 166.12,-55.25 166.12,-74.5"/>
<text xml:space="preserve" text-anchor="middle" x="146.12" y="-61" font-family="Helvetica,sans-Serif" font-size="10.00">string</text>
</a>
</g>
</g>
<!-- Node2&#45;&gt;Node5 -->
<g id="edge4_Node000002_Node000005" class="edge">
<title>Node2&#45;&gt;Node5</title>
<g id="a_edge4_Node000002_Node000005"><a xlink:title=" ">
<path fill="none" stroke="#63b8ff" d="M109.39,-110.33C115.41,-103.05 124.14,-92.48 131.58,-83.48"/>
<polygon fill="#63b8ff" stroke="#63b8ff" points="134.07,-85.96 137.74,-76.03 128.67,-81.51 134.07,-85.96"/>
</a>
</g>
</g>
<!-- Node3&#45;&gt;Node4 -->
<g id="edge3_Node000003_Node000004" class="edge">
<title>Node3&#45;&gt;Node4</title>
<g id="a_edge3_Node000003_Node000004"><a xlink:title=" ">
<path fill="none" stroke="#63b8ff" d="M66,-54.84C76.22,-47.07 91.2,-35.67 103.39,-26.4"/>
<polygon fill="#63b8ff" stroke="#63b8ff" points="105.38,-29.28 111.22,-20.44 101.14,-23.71 105.38,-29.28"/>
</a>
</g>
</g>
</g>
</svg>
