<?xml version="1.0" encoding="UTF-8" standalone="no"?>
<!DOCTYPE svg PUBLIC "-//W3C//DTD SVG 1.1//EN"
 "http://www.w3.org/Graphics/SVG/1.1/DTD/svg11.dtd">
<!-- Generated by graphviz version 14.0.2 (20251019.1705)
 -->
<!-- Title: include/slitherlink/io/GridReader.h Pages: 1 -->
<svg width="174pt" height="149pt"
 viewBox="0.00 0.00 174.00 149.00" xmlns="http://www.w3.org/2000/svg" xmlns:xlink="http://www.w3.org/1999/xlink">
<g id="graph0" class="graph" transform="scale(1 1) rotate(0) translate(4 145)">
<title>include/slitherlink/io/GridReader.h</title>
<!-- Node1 -->
<g id="Node000001" class="node">
<title>Node1</title>
<g id="a_Node000001"><a xlink:title=" ">
<polygon fill="#999999" stroke="#666666" points="145.62,-141 54.62,-141 54.62,-110.5 145.62,-110.5 145.62,-141"/>
<text xml:space="preserve" text-anchor="start" x="62.62" y="-127.5" font-family="Helvetica,sans-Serif" font-size="10.00">include/slitherlink</text>
<text xml:space="preserve" text-anchor="middle" x="100.12" y="-116.25" font-family="Helvetica,sans-Serif" font-size="10.00">/io/GridReader.h</text>
</a>
</g>
</g>
<!-- Node2 -->
<g id="Node000002" class="node">
<title>Node2</title>
<g id="a_Node000002"><a xlink:href="_grid_8h.html" target="_top" xlink:title=" ">
<polygon fill="white" stroke="#666666" points="108.25,-74.5 0,-74.5 0,-55.25 108.25,-55.25 108.25,-74.5"/>
<text xml:space="preserve" text-anchor="middle" x="54.12" y="-61" font-family="Helvetica,sans-Serif" font-size="10.00">slitherlink/core/Grid.h</text>
</a>
</g>
</g>
<!-- Node1&#45;&gt;Node2 -->
<g id="edge1_Node000001_Node000002" class="edge">
<title>Node1&#45;&gt;Node2</title>
<g id="a_edge1_Node000001_Node000002"><a xlink:title=" ">
<path fill="none" stroke="#63b8ff" d="M88.75,-110.2C82.56,-102.27 74.83,-92.38 68.26,-83.96"/>
<polygon fill="#63b8ff" stroke="#63b8ff" points="71.06,-81.87 62.15,-76.14 65.55,-86.18 71.06,-81.87"/>
</a>
</g>
</g>
<!-- Node4 -->
<g id="Node000004" class="node">
<title>Node4</title>
<g id="a_Node000004"><a xlink:title=" ">
<polygon fill="#e0e0e0" stroke="#999999" points="166.12,-74.5 126.12,-74.5 126.12,-55.25 166.12,-55.25 166.12,-74.5"/>
<text xml:space="preserve" text-anchor="middle" x="146.12" y="-61" font-family="Helvetica,sans-Serif" font-size="10.00">string</text>
</a>
</g>
</g>
<!-- Node1&#45;&gt;Node4 -->
<g id="edge3_Node000001_Node000004" class="edge">
<title>Node1&#45;&gt;Node4</title>
<g id="a_edge3_Node000001_Node000004"><a xlink:title=" ">
<path fill="none" stroke="#63b8ff" d="M111.5,-110.2C117.69,-102.27 125.42,-92.38 131.99,-83.96"/>
<polygon fill="#63b8ff" stroke="#63b8ff" points="134.7,-86.18 138.1,-76.14 129.19,-81.87 134.7,-86.18"/>
</a>
</g>
</g>
<!-- Node3 -->
<g id="Node000003" class="node">
<title>Node3</title>
<g id="a_Node000003"><a xlink:title=" ">
<polygon fill="#e0e0e0" stroke="#999999" points="75.62,-19.25 32.62,-19.25 32.62,0 75.62,0 75.62,-19.25"/>
<text xml:space="preserve" text-anchor="middle" x="54.12" y="-5.75" font-family="Helvetica,sans-Serif" font-size="10.00">vector</text>
</a>
</g>
</g>
<!-- Node2&#45;&gt;Node3 -->
<g id="edge2_Node000002_Node000003" class="edge">
<title>Node2&#45;&gt;Node3</title>
<g id="a_edge2_Node000002_Node000003"><a xlink:title=" ">
<path fill="none" stroke="#63b8ff" d="M54.12,-55.08C54.12,-48.57 54.12,-39.42 54.12,-31.12"/>
<polygon fill="#63b8ff" stroke="#63b8ff" points="57.63,-31.12 54.13,-21.12 50.63,-31.12 57.63,-31.12"/>
</a>
</g>
</g>
</g>
</svg>
