<?xml version="1.0" encoding="UTF-8" standalone="no"?>
<!DOCTYPE svg PUBLIC "-//W3C//DTD SVG 1.1//EN"
 "http://www.w3.org/Graphics/SVG/1.1/DTD/svg11.dtd">
<!-- Generated by graphviz version 14.0.2 (20251019.1705)
 -->
<!-- Title: include/core/Grid.h Pages: 1 -->
<!--zoomable 271 -->

<svg id="main" version="1.1" xmlns="http://www.w3.org/2000/svg" xmlns:xlink="http://www.w3.org/1999/xlink" xml:space="preserve" onload="init(evt)">

<style type="text/css"><![CDATA[
.node, .edge {opacity: 0.7;}
.node.selected, .edge.selected {opacity: 1;}
.edge:hover path { stroke: red; }
.edge:hover polygon { stroke: red; fill: red; }
]]></style>

<defs>
  <circle id="rim" cx="0" cy="0" r="7"/>
  <circle id="rim2" cx="0" cy="0" r="3.5"/>
  <g id="zoomPlus">
    <use xlink:href="#rim" fill="#404040"><set attributeName="fill" to="#808080" begin="zoomplus.mouseover" end="zoomplus.mouseout"/></use>
    <path d="M-4,0h8M0,-4v8" fill="none" stroke="white" stroke-width="1.5" pointer-events="none"/>
  </g>
  <g id="zoomMin">
    <use xlink:href="#rim" fill="#404040"><set attributeName="fill" to="#808080" begin="zoomminus.mouseover" end="zoomminus.mouseout"/></use>
    <path d="M-4,0h8" fill="none" stroke="white" stroke-width="1.5" pointer-events="none"/>
  </g>
  <g id="arrowUp" transform="translate(30 24)">
    <use xlink:href="#rim"/>
    <path pointer-events="none" fill="none" stroke="white" stroke-width="1.5" d="M0,-3.0v7 M-2.5,-0.5L0,-3.0L2.5,-0.5"/>
  </g>
  <g id="arrowRight" transform="rotate(90) translate(36 -43)">
    <use xlink:href="#rim"/>
    <path pointer-events="none" fill="none" stroke="white" stroke-width="1.5" d="M0,-3.0v7 M-2.5,-0.5L0,-3.0L2.5,-0.5"/>
  </g>
  <g id="arrowDown" transform="rotate(180) translate(-30 -48)">
    <use xlink:href="#rim"/>
    <path pointer-events="none" fill="none" stroke="white" stroke-width="1.5" d="M0,-3.0v7 M-2.5,-0.5L0,-3.0L2.5,-0.5"/>
  </g>
  <g id="arrowLeft" transform="rotate(270) translate(-36 17)">
    <use xlink:href="#rim"/>
    <path pointer-events="none" fill="none" stroke="white" stroke-width="1.5" d="M0,-3.0v7 M-2.5,-0.5L0,-3.0L2.5,-0.5"/>
  </g>
  <g id="resetDef">
    <use xlink:href="#rim2" fill="#404040"><set attributeName="fill" to="#808080" begin="reset.mouseover" end="reset.mouseout"/></use>
  </g>
</defs>
<script type="application/ecmascript">
var viewWidth = 1371;
var viewHeight = 271;
var sectionId = 'dynsection-1';
</script>
<script type="application/ecmascript" xlink:href="svg.min.js"/>
<svg id="graph" class="graph">
<g id="viewport">
<title>include/core/Grid.h</title>
<!-- Node1 -->
<g id="Node000001" class="node">
<title>Node1</title>
<g id="a_Node000001"><a xlink:title=" ">
<polygon fill="#999999" stroke="#666666" points="756.12,-262.75 658.38,-262.75 658.38,-243.5 756.12,-243.5 756.12,-262.75"/>
<text xml:space="preserve" text-anchor="middle" x="707.25" y="-249.25" font-family="Helvetica,sans-Serif" font-size="10.00">include/core/Grid.h</text>
</a>
</g>
</g>
<!-- Node2 -->
<g id="Node000002" class="node">
<title>Node2</title>
<g id="a_Node000002"><a xlink:href="_slitherlink_solver_8h.html" target="_top" xlink:title=" ">
<polygon fill="white" stroke="#666666" points="596,-141 470.5,-141 470.5,-110.5 596,-110.5 596,-141"/>
<text xml:space="preserve" text-anchor="start" x="478.5" y="-127.5" font-family="Helvetica,sans-Serif" font-size="10.00">include/factory/Slitherlink</text>
<text xml:space="preserve" text-anchor="middle" x="533.25" y="-116.25" font-family="Helvetica,sans-Serif" font-size="10.00">Solver.h</text>
</a>
</g>
</g>
<!-- Node1&#45;&gt;Node2 -->
<g id="edge1_Node000001_Node000002" class="edge">
<title>Node1&#45;&gt;Node2</title>
<g id="a_edge1_Node000001_Node000002"><a xlink:title=" ">
<path fill="none" stroke="#63b8ff" d="M663.15,-239.45C642.49,-232.18 618.3,-221.65 599.25,-207.5 574.39,-189.04 553.29,-159.21 542.03,-141.44"/>
<polygon fill="#63b8ff" stroke="#63b8ff" points="661.86,-242.71 672.46,-242.58 664.09,-236.08 661.86,-242.71"/>
</a>
</g>
</g>
<!-- Node3 -->
<g id="Node000003" class="node">
<title>Node3</title>
<g id="a_Node000003"><a xlink:href="_solver_factory_8h.html" target="_top" xlink:title=" ">
<polygon fill="white" stroke="#666666" points="736.38,-74.5 586.12,-74.5 586.12,-55.25 736.38,-55.25 736.38,-74.5"/>
<text xml:space="preserve" text-anchor="middle" x="661.25" y="-61" font-family="Helvetica,sans-Serif" font-size="10.00">include/factory/SolverFactory.h</text>
</a>
</g>
</g>
<!-- Node1&#45;&gt;Node3 -->
<g id="edge5_Node000001_Node000003" class="edge">
<title>Node1&#45;&gt;Node3</title>
<g id="a_edge5_Node000001_Node000003"><a xlink:title=" ">
<path fill="none" stroke="#63b8ff" d="M719.96,-233.44C724.46,-225.75 728.97,-216.54 731.25,-207.5 741.78,-165.69 751.98,-148.3 731.25,-110.5 721.89,-93.44 702.94,-81.96 687.11,-74.93"/>
<polygon fill="#63b8ff" stroke="#63b8ff" points="717.04,-231.51 714.65,-241.83 722.96,-235.25 717.04,-231.51"/>
</a>
</g>
</g>
<!-- Node6 -->
<g id="Node000006" class="node">
<title>Node6</title>
<g id="a_Node000006"><a xlink:href="_grid_reader_8h.html" target="_top" xlink:title=" ">
<polygon fill="white" stroke="#666666" points="129.88,-201.88 12.62,-201.88 12.62,-182.62 129.88,-182.62 129.88,-201.88"/>
<text xml:space="preserve" text-anchor="middle" x="71.25" y="-188.38" font-family="Helvetica,sans-Serif" font-size="10.00">include/io/GridReader.h</text>
</a>
</g>
</g>
<!-- Node1&#45;&gt;Node6 -->
<g id="edge6_Node000001_Node000006" class="edge">
<title>Node1&#45;&gt;Node6</title>
<g id="a_edge6_Node000001_Node000006"><a xlink:title=" ">
<path fill="none" stroke="#63b8ff" d="M646.61,-249.01C544.65,-243.38 332.53,-229.95 154.25,-207.5 143.08,-206.09 131.12,-204.24 119.86,-202.34"/>
<polygon fill="#63b8ff" stroke="#63b8ff" points="646.21,-252.5 656.39,-249.55 646.6,-245.51 646.21,-252.5"/>
</a>
</g>
</g>
<!-- Node8 -->
<g id="Node000008" class="node">
<title>Node8</title>
<g id="a_Node000008"><a xlink:href="_solution_printer_8h.html" target="_top" xlink:title=" ">
<polygon fill="white" stroke="#666666" points="452,-135.38 320.5,-135.38 320.5,-116.12 452,-116.12 452,-135.38"/>
<text xml:space="preserve" text-anchor="middle" x="386.25" y="-121.88" font-family="Helvetica,sans-Serif" font-size="10.00">include/io/SolutionPrinter.h</text>
</a>
</g>
</g>
<!-- Node1&#45;&gt;Node8 -->
<g id="edge8_Node000001_Node000008" class="edge">
<title>Node1&#45;&gt;Node8</title>
<g id="a_edge8_Node000001_Node000008"><a xlink:title=" ">
<path fill="none" stroke="#63b8ff" d="M663.36,-239.95C634.82,-231.67 596.97,-219.97 564.25,-207.5 504.32,-184.66 435.86,-151.53 404.13,-135.75"/>
<polygon fill="#63b8ff" stroke="#63b8ff" points="662.17,-243.25 672.75,-242.65 664.1,-236.52 662.17,-243.25"/>
</a>
</g>
</g>
<!-- Node10 -->
<g id="Node000010" class="node">
<title>Node10</title>
<g id="a_Node000010"><a xlink:href="_graph_builder_8h.html" target="_top" xlink:title=" ">
<polygon fill="white" stroke="#666666" points="305.62,-201.88 162.88,-201.88 162.88,-182.62 305.62,-182.62 305.62,-201.88"/>
<text xml:space="preserve" text-anchor="middle" x="234.25" y="-188.38" font-family="Helvetica,sans-Serif" font-size="10.00">include/solver/GraphBuilder.h</text>
</a>
</g>
</g>
<!-- Node1&#45;&gt;Node10 -->
<g id="edge12_Node000001_Node000010" class="edge">
<title>Node1&#45;&gt;Node10</title>
<g id="a_edge12_Node000001_Node000010"><a xlink:title=" ">
<path fill="none" stroke="#63b8ff" d="M646.69,-244.59C559.54,-233.74 399.06,-213.76 306.06,-202.19"/>
<polygon fill="#63b8ff" stroke="#63b8ff" points="646.11,-248.04 656.47,-245.8 646.98,-241.1 646.11,-248.04"/>
</a>
</g>
</g>
<!-- Node12 -->
<g id="Node000012" class="node">
<title>Node12</title>
<g id="a_Node000012"><a xlink:href="_optimized_propagator_8h.html" target="_top" xlink:title=" ">
<polygon fill="white" stroke="#666666" points="901.88,-207.5 778.62,-207.5 778.62,-177 901.88,-177 901.88,-207.5"/>
<text xml:space="preserve" text-anchor="start" x="786.62" y="-194" font-family="Helvetica,sans-Serif" font-size="10.00">include/solver/Optimized</text>
<text xml:space="preserve" text-anchor="middle" x="840.25" y="-182.75" font-family="Helvetica,sans-Serif" font-size="10.00">Propagator.h</text>
</a>
</g>
</g>
<!-- Node1&#45;&gt;Node12 -->
<g id="edge15_Node000001_Node000012" class="edge">
<title>Node1&#45;&gt;Node12</title>
<g id="a_edge15_Node000001_Node000012"><a xlink:title=" ">
<path fill="none" stroke="#63b8ff" d="M738.17,-238.44C758.82,-229.3 785.95,-217.29 807.05,-207.94"/>
<polygon fill="#63b8ff" stroke="#63b8ff" points="736.85,-235.19 729.12,-242.44 739.68,-241.59 736.85,-235.19"/>
</a>
</g>
</g>
<!-- Node14 -->
<g id="Node000014" class="node">
<title>Node14</title>
<g id="a_Node000014"><a xlink:href="_smart_heuristic_8h.html" target="_top" xlink:title=" ">
<polygon fill="white" stroke="#666666" points="1072.5,-201.88 920,-201.88 920,-182.62 1072.5,-182.62 1072.5,-201.88"/>
<text xml:space="preserve" text-anchor="middle" x="996.25" y="-188.38" font-family="Helvetica,sans-Serif" font-size="10.00">include/solver/SmartHeuristic.h</text>
</a>
</g>
</g>
<!-- Node1&#45;&gt;Node14 -->
<g id="edge17_Node000001_Node000014" class="edge">
<title>Node1&#45;&gt;Node14</title>
<g id="a_edge17_Node000001_Node000014"><a xlink:title=" ">
<path fill="none" stroke="#63b8ff" d="M762.71,-240.83C817.69,-229.63 900.85,-212.69 951.68,-202.33"/>
<polygon fill="#63b8ff" stroke="#63b8ff" points="762.36,-237.33 753.26,-242.75 763.75,-244.19 762.36,-237.33"/>
</a>
</g>
</g>
<!-- Node16 -->
<g id="Node000016" class="node">
<title>Node16</title>
<g id="a_Node000016"><a xlink:href="_solver_8h.html" target="_top" xlink:title=" ">
<polygon fill="white" stroke="#666666" points="722.38,-201.88 608.12,-201.88 608.12,-182.62 722.38,-182.62 722.38,-201.88"/>
<text xml:space="preserve" text-anchor="middle" x="665.25" y="-188.38" font-family="Helvetica,sans-Serif" font-size="10.00">include/solver/Solver.h</text>
</a>
</g>
</g>
<!-- Node1&#45;&gt;Node16 -->
<g id="edge19_Node000001_Node000016" class="edge">
<title>Node1&#45;&gt;Node16</title>
<g id="a_edge19_Node000001_Node000016"><a xlink:title=" ">
<path fill="none" stroke="#63b8ff" d="M694.33,-234.01C686.82,-223.49 677.69,-210.69 671.69,-202.28"/>
<polygon fill="#63b8ff" stroke="#63b8ff" points="691.34,-235.84 699.99,-241.95 697.03,-231.78 691.34,-235.84"/>
</a>
</g>
</g>
<!-- Node18 -->
<g id="Node000018" class="node">
<title>Node18</title>
<g id="a_Node000018"><a xlink:href="_standard_validator_8h.html" target="_top" xlink:title=" ">
<polygon fill="white" stroke="#666666" points="1253.75,-201.88 1090.75,-201.88 1090.75,-182.62 1253.75,-182.62 1253.75,-201.88"/>
<text xml:space="preserve" text-anchor="middle" x="1172.25" y="-188.38" font-family="Helvetica,sans-Serif" font-size="10.00">include/solver/StandardValidator.h</text>
</a>
</g>
</g>
<!-- Node1&#45;&gt;Node18 -->
<g id="edge22_Node000001_Node000018" class="edge">
<title>Node1&#45;&gt;Node18</title>
<g id="a_edge22_Node000001_Node000018"><a xlink:title=" ">
<path fill="none" stroke="#63b8ff" d="M767.73,-245.6C841.75,-237.45 970.88,-222.72 1081.25,-207.5 1092.66,-205.93 1104.84,-204.11 1116.47,-202.31"/>
<polygon fill="#63b8ff" stroke="#63b8ff" points="767.4,-242.11 757.84,-246.68 768.16,-249.07 767.4,-242.11"/>
</a>
</g>
</g>
<!-- Node20 -->
<g id="Node000020" class="node">
<title>Node20</title>
<g id="a_Node000020"><a xlink:href="_grid_8cpp.html" target="_top" xlink:title=" ">
<polygon fill="white" stroke="#666666" points="1362.75,-201.88 1271.75,-201.88 1271.75,-182.62 1362.75,-182.62 1362.75,-201.88"/>
<text xml:space="preserve" text-anchor="middle" x="1317.25" y="-188.38" font-family="Helvetica,sans-Serif" font-size="10.00">src/core/Grid.cpp</text>
</a>
</g>
</g>
<!-- Node1&#45;&gt;Node20 -->
<g id="edge24_Node000001_Node000020" class="edge">
<title>Node1&#45;&gt;Node20</title>
<g id="a_edge24_Node000001_Node000020"><a xlink:title=" ">
<path fill="none" stroke="#63b8ff" d="M767.68,-250.79C870.26,-247.74 1084.7,-237.97 1263.25,-207.5 1270.9,-206.19 1279.04,-204.31 1286.62,-202.34"/>
<polygon fill="#63b8ff" stroke="#63b8ff" points="767.74,-247.29 757.84,-251.07 767.94,-254.28 767.74,-247.29"/>
</a>
</g>
</g>
<!-- Node2&#45;&gt;Node3 -->
<g id="edge2_Node000002_Node000003" class="edge">
<title>Node2&#45;&gt;Node3</title>
<g id="a_edge2_Node000002_Node000003"><a xlink:title=" ">
<path fill="none" stroke="#63b8ff" d="M575.46,-105.33C597.76,-95.08 624.07,-82.97 641.62,-74.9"/>
<polygon fill="#63b8ff" stroke="#63b8ff" points="574.22,-102.05 566.59,-109.41 577.14,-108.41 574.22,-102.05"/>
</a>
</g>
</g>
<!-- Node5 -->
<g id="Node000005" class="node">
<title>Node5</title>
<g id="a_Node000005"><a xlink:href="_slitherlink_solver_8cpp.html" target="_top" xlink:title=" ">
<polygon fill="white" stroke="#666666" points="568.25,-74.5 414.25,-74.5 414.25,-55.25 568.25,-55.25 568.25,-74.5"/>
<text xml:space="preserve" text-anchor="middle" x="491.25" y="-61" font-family="Helvetica,sans-Serif" font-size="10.00">src/factory/SlitherlinkSolver.cpp</text>
</a>
</g>
</g>
<!-- Node2&#45;&gt;Node5 -->
<g id="edge4_Node000002_Node000005" class="edge">
<title>Node2&#45;&gt;Node5</title>
<g id="a_edge4_Node000002_Node000005"><a xlink:title=" ">
<path fill="none" stroke="#63b8ff" d="M516.35,-101.07C509.8,-91.88 502.7,-81.92 497.72,-74.95"/>
<polygon fill="#63b8ff" stroke="#63b8ff" points="513.33,-102.86 521.99,-108.96 519.03,-98.79 513.33,-102.86"/>
</a>
</g>
</g>
<!-- Node4 -->
<g id="Node000004" class="node">
<title>Node4</title>
<g id="a_Node000004"><a xlink:href="_solver_factory_8cpp.html" target="_top" xlink:title=" ">
<polygon fill="white" stroke="#666666" points="458,-19.25 314.5,-19.25 314.5,0 458,0 458,-19.25"/>
<text xml:space="preserve" text-anchor="middle" x="386.25" y="-5.75" font-family="Helvetica,sans-Serif" font-size="10.00">src/factory/SolverFactory.cpp</text>
</a>
</g>
</g>
<!-- Node3&#45;&gt;Node4 -->
<g id="edge3_Node000003_Node000004" class="edge">
<title>Node3&#45;&gt;Node4</title>
<g id="a_edge3_Node000003_Node000004"><a xlink:title=" ">
<path fill="none" stroke="#63b8ff" d="M603.19,-52.63C552.55,-42.83 480.01,-28.78 433.02,-19.68"/>
<polygon fill="#63b8ff" stroke="#63b8ff" points="602.32,-56.03 612.8,-54.49 603.65,-49.16 602.32,-56.03"/>
</a>
</g>
</g>
<!-- Node7 -->
<g id="Node000007" class="node">
<title>Node7</title>
<g id="a_Node000007"><a xlink:href="_grid_reader_8cpp.html" target="_top" xlink:title=" ">
<polygon fill="white" stroke="#666666" points="110.5,-135.38 0,-135.38 0,-116.12 110.5,-116.12 110.5,-135.38"/>
<text xml:space="preserve" text-anchor="middle" x="55.25" y="-121.88" font-family="Helvetica,sans-Serif" font-size="10.00">src/io/GridReader.cpp</text>
</a>
</g>
</g>
<!-- Node6&#45;&gt;Node7 -->
<g id="edge7_Node000006_Node000007" class="edge">
<title>Node6&#45;&gt;Node7</title>
<g id="a_edge7_Node000006_Node000007"><a xlink:title=" ">
<path fill="none" stroke="#63b8ff" d="M66.26,-171.15C63.31,-159.25 59.72,-144.76 57.46,-135.64"/>
<polygon fill="#63b8ff" stroke="#63b8ff" points="62.86,-171.95 68.66,-180.81 69.65,-170.26 62.86,-171.95"/>
</a>
</g>
</g>
<!-- Node8&#45;&gt;Node4 -->
<g id="edge10_Node000008_Node000004" class="edge">
<title>Node8&#45;&gt;Node4</title>
<g id="a_edge10_Node000008_Node000004"><a xlink:title=" ">
<path fill="none" stroke="#63b8ff" d="M386.25,-104.37C386.25,-79.25 386.25,-37.67 386.25,-19.54"/>
<polygon fill="#63b8ff" stroke="#63b8ff" points="382.75,-104.28 386.25,-114.28 389.75,-104.28 382.75,-104.28"/>
</a>
</g>
</g>
<!-- Node8&#45;&gt;Node5 -->
<g id="edge9_Node000008_Node000005" class="edge">
<title>Node8&#45;&gt;Node5</title>
<g id="a_edge9_Node000008_Node000005"><a xlink:title=" ">
<path fill="none" stroke="#63b8ff" d="M412.07,-110.27C431.8,-99.21 458.37,-84.31 475.15,-74.9"/>
<polygon fill="#63b8ff" stroke="#63b8ff" points="410.53,-107.12 403.52,-115.07 413.95,-113.23 410.53,-107.12"/>
</a>
</g>
</g>
<!-- Node9 -->
<g id="Node000009" class="node">
<title>Node9</title>
<g id="a_Node000009"><a xlink:href="_solution_printer_8cpp.html" target="_top" xlink:title=" ">
<polygon fill="white" stroke="#666666" points="358.62,-74.5 233.88,-74.5 233.88,-55.25 358.62,-55.25 358.62,-74.5"/>
<text xml:space="preserve" text-anchor="middle" x="296.25" y="-61" font-family="Helvetica,sans-Serif" font-size="10.00">src/io/SolutionPrinter.cpp</text>
</a>
</g>
</g>
<!-- Node8&#45;&gt;Node9 -->
<g id="edge11_Node000008_Node000009" class="edge">
<title>Node8&#45;&gt;Node9</title>
<g id="a_edge11_Node000008_Node000009"><a xlink:title=" ">
<path fill="none" stroke="#63b8ff" d="M363.41,-109.81C346.58,-98.8 324.24,-84.18 310.05,-74.9"/>
<polygon fill="#63b8ff" stroke="#63b8ff" points="361.03,-112.43 371.31,-114.98 364.86,-106.58 361.03,-112.43"/>
</a>
</g>
</g>
<!-- Node10&#45;&gt;Node4 -->
<g id="edge13_Node000010_Node000004" class="edge">
<title>Node10&#45;&gt;Node4</title>
<g id="a_edge13_Node000010_Node000004"><a xlink:title=" ">
<path fill="none" stroke="#63b8ff" d="M198.79,-177.48C183.08,-169.39 166.17,-157.47 157.25,-141 150.8,-129.08 151.42,-122.74 157.25,-110.5 185.02,-52.15 258.04,-27.89 314.23,-17.8"/>
<polygon fill="#63b8ff" stroke="#63b8ff" points="196.94,-180.48 207.47,-181.61 199.94,-174.16 196.94,-180.48"/>
</a>
</g>
</g>
<!-- Node11 -->
<g id="Node000011" class="node">
<title>Node11</title>
<g id="a_Node000011"><a xlink:href="_graph_builder_8cpp.html" target="_top" xlink:title=" ">
<polygon fill="white" stroke="#666666" points="302.25,-135.38 166.25,-135.38 166.25,-116.12 302.25,-116.12 302.25,-135.38"/>
<text xml:space="preserve" text-anchor="middle" x="234.25" y="-121.88" font-family="Helvetica,sans-Serif" font-size="10.00">src/solver/GraphBuilder.cpp</text>
</a>
</g>
</g>
<!-- Node10&#45;&gt;Node11 -->
<g id="edge14_Node000010_Node000011" class="edge">
<title>Node10&#45;&gt;Node11</title>
<g id="a_edge14_Node000010_Node000011"><a xlink:title=" ">
<path fill="none" stroke="#63b8ff" d="M234.25,-170.77C234.25,-158.94 234.25,-144.66 234.25,-135.64"/>
<polygon fill="#63b8ff" stroke="#63b8ff" points="230.75,-170.77 234.25,-180.77 237.75,-170.77 230.75,-170.77"/>
</a>
</g>
</g>
<!-- Node13 -->
<g id="Node000013" class="node">
<title>Node13</title>
<g id="a_Node000013"><a xlink:href="_optimized_propagator_8cpp.html" target="_top" xlink:title=" ">
<polygon fill="white" stroke="#666666" points="949.88,-135.38 778.62,-135.38 778.62,-116.12 949.88,-116.12 949.88,-135.38"/>
<text xml:space="preserve" text-anchor="middle" x="864.25" y="-121.88" font-family="Helvetica,sans-Serif" font-size="10.00">src/solver/OptimizedPropagator.cpp</text>
</a>
</g>
</g>
<!-- Node12&#45;&gt;Node13 -->
<g id="edge16_Node000012_Node000013" class="edge">
<title>Node12&#45;&gt;Node13</title>
<g id="a_edge16_Node000012_Node000013"><a xlink:title=" ">
<path fill="none" stroke="#63b8ff" d="M849.64,-166.02C853.64,-155.26 858.05,-143.41 860.97,-135.57"/>
<polygon fill="#63b8ff" stroke="#63b8ff" points="846.43,-164.6 846.22,-175.2 852.99,-167.04 846.43,-164.6"/>
</a>
</g>
</g>
<!-- Node15 -->
<g id="Node000015" class="node">
<title>Node15</title>
<g id="a_Node000015"><a xlink:href="_smart_heuristic_8cpp.html" target="_top" xlink:title=" ">
<polygon fill="white" stroke="#666666" points="1114.12,-135.38 968.38,-135.38 968.38,-116.12 1114.12,-116.12 1114.12,-135.38"/>
<text xml:space="preserve" text-anchor="middle" x="1041.25" y="-121.88" font-family="Helvetica,sans-Serif" font-size="10.00">src/solver/SmartHeuristic.cpp</text>
</a>
</g>
</g>
<!-- Node14&#45;&gt;Node15 -->
<g id="edge18_Node000014_Node000015" class="edge">
<title>Node14&#45;&gt;Node15</title>
<g id="a_edge18_Node000014_Node000015"><a xlink:title=" ">
<path fill="none" stroke="#63b8ff" d="M1008.98,-173C1017.5,-160.79 1028.35,-145.24 1035.05,-135.64"/>
<polygon fill="#63b8ff" stroke="#63b8ff" points="1006.22,-170.84 1003.37,-181.04 1011.97,-174.84 1006.22,-170.84"/>
</a>
</g>
</g>
<!-- Node16&#45;&gt;Node2 -->
<g id="edge20_Node000016_Node000002" class="edge">
<title>Node16&#45;&gt;Node2</title>
<g id="a_edge20_Node000016_Node000002"><a xlink:title=" ">
<path fill="none" stroke="#63b8ff" d="M636.39,-177.15C614.73,-166.56 585.16,-152.11 563.23,-141.4"/>
<polygon fill="#63b8ff" stroke="#63b8ff" points="634.74,-180.24 645.26,-181.48 637.81,-173.95 634.74,-180.24"/>
</a>
</g>
</g>
<!-- Node17 -->
<g id="Node000017" class="node">
<title>Node17</title>
<g id="a_Node000017"><a xlink:href="_solver_8cpp.html" target="_top" xlink:title=" ">
<polygon fill="white" stroke="#666666" points="722,-135.38 614.5,-135.38 614.5,-116.12 722,-116.12 722,-135.38"/>
<text xml:space="preserve" text-anchor="middle" x="668.25" y="-121.88" font-family="Helvetica,sans-Serif" font-size="10.00">src/solver/Solver.cpp</text>
</a>
</g>
</g>
<!-- Node16&#45;&gt;Node17 -->
<g id="edge21_Node000016_Node000017" class="edge">
<title>Node16&#45;&gt;Node17</title>
<g id="a_edge21_Node000016_Node000017"><a xlink:title=" ">
<path fill="none" stroke="#63b8ff" d="M666.18,-171.15C666.74,-159.25 667.41,-144.76 667.84,-135.64"/>
<polygon fill="#63b8ff" stroke="#63b8ff" points="662.71,-170.62 665.74,-180.77 669.7,-170.94 662.71,-170.62"/>
</a>
</g>
</g>
<!-- Node19 -->
<g id="Node000019" class="node">
<title>Node19</title>
<g id="a_Node000019"><a xlink:href="_standard_validator_8cpp.html" target="_top" xlink:title=" ">
<polygon fill="white" stroke="#666666" points="1288.38,-135.38 1132.12,-135.38 1132.12,-116.12 1288.38,-116.12 1288.38,-135.38"/>
<text xml:space="preserve" text-anchor="middle" x="1210.25" y="-121.88" font-family="Helvetica,sans-Serif" font-size="10.00">src/solver/StandardValidator.cpp</text>
</a>
</g>
</g>
<!-- Node18&#45;&gt;Node19 -->
<g id="edge23_Node000018_Node000019" class="edge">
<title>Node18&#45;&gt;Node19</title>
<g id="a_edge23_Node000018_Node000019"><a xlink:title=" ">
<path fill="none" stroke="#63b8ff" d="M1183.22,-172.64C1190.38,-160.48 1199.41,-145.14 1205.01,-135.64"/>
<polygon fill="#63b8ff" stroke="#63b8ff" points="1180.36,-170.58 1178.3,-180.98 1186.39,-174.14 1180.36,-170.58"/>
</a>
</g>
</g>
</g>
</svg>

<g id="navigator" transform="translate(0 0)" fill="#404254">
  <rect fill="#f2f5e9" fill-opacity="0.5" stroke="#606060" stroke-width=".5" x="0" y="0" width="60" height="60"/>
  <use id="zoomplus" xlink:href="#zoomPlus" x="17" y="9" onmousedown="handleZoom(evt,'in')"/>
  <use id="zoomminus" xlink:href="#zoomMin" x="42" y="9" onmousedown="handleZoom(evt,'out')"/>
  <use id="reset" xlink:href="#resetDef" x="30" y="36" onmousedown="handleReset()"/>
   <use id="arrowup" xlink:href="#arrowUp" x="0" y="0" onmousedown="handlePan(0,-1)"/>
  <use id="arrowright" xlink:href="#arrowRight" x="0" y="0" onmousedown="handlePan(1,0)"/>
  <use id="arrowdown" xlink:href="#arrowDown" x="0" y="0" onmousedown="handlePan(0,1)"/>
  <use id="arrowleft" xlink:href="#arrowLeft" x="0" y="0" onmousedown="handlePan(-1,0)"/>
</g>
<svg viewBox="0 0 15 15" width="100%" height="30px" preserveAspectRatio="xMaxYMin meet">
 <g id="arrow_out" transform="scale(0.3 0.3)">
  <a xlink:href="_grid_8h__dep__incl_org.svg" target="_base">
   <rect id="button" ry="5" rx="5" y="6" x="6" height="38" width="38"
        fill="#f2f5e9" fill-opacity="0.5" stroke="#606060" stroke-width="1.0"/>
   <path id="arrow"
     d="M 11.500037,31.436501 C 11.940474,20.09759 22.043105,11.32322 32.158766,21.979434 L 37.068811,17.246167 C 37.068811,17.246167 37.088388,32 37.088388,32 L 22.160133,31.978069 C 22.160133,31.978069 26.997745,27.140456 26.997745,27.140456 C 18.528582,18.264221 13.291696,25.230495 11.500037,31.436501 z"
     style="fill:#404040;"/>
  </a>
 </g>
</svg>

<style type='text/css'>
<![CDATA[
[data-mouse-over-selected='false'] { opacity: 0.7; }
[data-mouse-over-selected='true']  { opacity: 1.0; }
]]>
</style>
<script type="application/ecmascript"><![CDATA[
document.addEventListener('DOMContentLoaded', (event) => {
  highlightEdges();
  highlightAdjacentNodes();
});
]]></script>
</svg>
