<?xml version="1.0" encoding="UTF-8" standalone="no"?>
<!DOCTYPE svg PUBLIC "-//W3C//DTD SVG 1.1//EN"
 "http://www.w3.org/Graphics/SVG/1.1/DTD/svg11.dtd">
<!-- Generated by graphviz version 14.0.2 (20251019.1705)
 -->
<!-- Title: src/io/GridReader.cpp Pages: 1 -->
<svg width="274pt" height="193pt"
 viewBox="0.00 0.00 274.00 193.00" xmlns="http://www.w3.org/2000/svg" xmlns:xlink="http://www.w3.org/1999/xlink">
<g id="graph0" class="graph" transform="scale(1 1) rotate(0) translate(4 189)">
<title>src/io/GridReader.cpp</title>
<!-- Node1 -->
<g id="Node000001" class="node">
<title>Node1</title>
<g id="a_Node000001"><a xlink:title=" ">
<polygon fill="#999999" stroke="#666666" points="193,-185 82.5,-185 82.5,-165.75 193,-165.75 193,-185"/>
<text xml:space="preserve" text-anchor="middle" x="137.75" y="-171.5" font-family="Helvetica,sans-Serif" font-size="10.00">src/io/GridReader.cpp</text>
</a>
</g>
</g>
<!-- Node2 -->
<g id="Node000002" class="node">
<title>Node2</title>
<g id="a_Node000002"><a xlink:href="_grid_reader_8h.html" target="_top" xlink:title=" ">
<polygon fill="white" stroke="#666666" points="83.5,-129.75 0,-129.75 0,-110.5 83.5,-110.5 83.5,-129.75"/>
<text xml:space="preserve" text-anchor="middle" x="41.75" y="-116.25" font-family="Helvetica,sans-Serif" font-size="10.00">io/GridReader.h</text>
</a>
</g>
</g>
<!-- Node1&#45;&gt;Node2 -->
<g id="edge1_Node000001_Node000002" class="edge">
<title>Node1&#45;&gt;Node2</title>
<g id="a_edge1_Node000001_Node000002"><a xlink:title=" ">
<path fill="none" stroke="#63b8ff" d="M121.46,-165.34C106.85,-157.23 85.12,-145.18 68.04,-135.71"/>
<polygon fill="#63b8ff" stroke="#63b8ff" points="69.88,-132.73 59.44,-130.94 66.49,-138.85 69.88,-132.73"/>
</a>
</g>
</g>
<!-- Node4 -->
<g id="Node000004" class="node">
<title>Node4</title>
<g id="a_Node000004"><a xlink:title=" ">
<polygon fill="#e0e0e0" stroke="#999999" points="118.25,-19.25 75.25,-19.25 75.25,0 118.25,0 118.25,-19.25"/>
<text xml:space="preserve" text-anchor="middle" x="96.75" y="-5.75" font-family="Helvetica,sans-Serif" font-size="10.00">vector</text>
</a>
</g>
</g>
<!-- Node1&#45;&gt;Node4 -->
<g id="edge8_Node000001_Node000004" class="edge">
<title>Node1&#45;&gt;Node4</title>
<g id="a_edge8_Node000001_Node000004"><a xlink:title=" ">
<path fill="none" stroke="#63b8ff" d="M135.55,-165.57C129.18,-140.14 110.64,-66.1 101.69,-30.37"/>
<polygon fill="#63b8ff" stroke="#63b8ff" points="105.16,-29.79 99.33,-20.94 98.37,-31.49 105.16,-29.79"/>
</a>
</g>
</g>
<!-- Node6 -->
<g id="Node000006" class="node">
<title>Node6</title>
<g id="a_Node000006"><a xlink:title=" ">
<polygon fill="#e0e0e0" stroke="#999999" points="189.25,-129.75 140.25,-129.75 140.25,-110.5 189.25,-110.5 189.25,-129.75"/>
<text xml:space="preserve" text-anchor="middle" x="164.75" y="-116.25" font-family="Helvetica,sans-Serif" font-size="10.00">fstream</text>
</a>
</g>
</g>
<!-- Node1&#45;&gt;Node6 -->
<g id="edge6_Node000001_Node000006" class="edge">
<title>Node1&#45;&gt;Node6</title>
<g id="a_edge6_Node000001_Node000006"><a xlink:title=" ">
<path fill="none" stroke="#63b8ff" d="M142.21,-165.58C145.7,-158.69 150.7,-148.84 155.1,-140.16"/>
<polygon fill="#63b8ff" stroke="#63b8ff" points="158.11,-141.96 159.51,-131.46 151.87,-138.8 158.11,-141.96"/>
</a>
</g>
</g>
<!-- Node7 -->
<g id="Node000007" class="node">
<title>Node7</title>
<g id="a_Node000007"><a xlink:title=" ">
<polygon fill="#e0e0e0" stroke="#999999" points="266.12,-129.75 207.38,-129.75 207.38,-110.5 266.12,-110.5 266.12,-129.75"/>
<text xml:space="preserve" text-anchor="middle" x="236.75" y="-116.25" font-family="Helvetica,sans-Serif" font-size="10.00">stdexcept</text>
</a>
</g>
</g>
<!-- Node1&#45;&gt;Node7 -->
<g id="edge7_Node000001_Node000007" class="edge">
<title>Node1&#45;&gt;Node7</title>
<g id="a_edge7_Node000001_Node000007"><a xlink:title=" ">
<path fill="none" stroke="#63b8ff" d="M154.54,-165.34C169.76,-157.16 192.45,-144.96 210.13,-135.44"/>
<polygon fill="#63b8ff" stroke="#63b8ff" points="211.39,-138.74 218.54,-130.92 208.08,-132.57 211.39,-138.74"/>
</a>
</g>
</g>
<!-- Node3 -->
<g id="Node000003" class="node">
<title>Node3</title>
<g id="a_Node000003"><a xlink:href="_grid_8h.html" target="_top" xlink:title=" ">
<polygon fill="white" stroke="#666666" points="83.75,-74.5 19.75,-74.5 19.75,-55.25 83.75,-55.25 83.75,-74.5"/>
<text xml:space="preserve" text-anchor="middle" x="51.75" y="-61" font-family="Helvetica,sans-Serif" font-size="10.00">core/Grid.h</text>
</a>
</g>
</g>
<!-- Node2&#45;&gt;Node3 -->
<g id="edge2_Node000002_Node000003" class="edge">
<title>Node2&#45;&gt;Node3</title>
<g id="a_edge2_Node000002_Node000003"><a xlink:title=" ">
<path fill="none" stroke="#63b8ff" d="M43.4,-110.33C44.64,-103.74 46.38,-94.46 47.96,-86.07"/>
<polygon fill="#63b8ff" stroke="#63b8ff" points="51.38,-86.82 49.78,-76.35 44.5,-85.53 51.38,-86.82"/>
</a>
</g>
</g>
<!-- Node5 -->
<g id="Node000005" class="node">
<title>Node5</title>
<g id="a_Node000005"><a xlink:title=" ">
<polygon fill="#e0e0e0" stroke="#999999" points="41.75,-19.25 1.75,-19.25 1.75,0 41.75,0 41.75,-19.25"/>
<text xml:space="preserve" text-anchor="middle" x="21.75" y="-5.75" font-family="Helvetica,sans-Serif" font-size="10.00">string</text>
</a>
</g>
</g>
<!-- Node2&#45;&gt;Node5 -->
<g id="edge5_Node000002_Node000005" class="edge">
<title>Node2&#45;&gt;Node5</title>
<g id="a_edge5_Node000002_Node000005"><a xlink:title=" ">
<path fill="none" stroke="#63b8ff" d="M32.98,-110.12C25.43,-101.7 15.09,-88.36 10.75,-74.5 6.21,-60.02 9.51,-43.06 13.65,-30.26"/>
<polygon fill="#63b8ff" stroke="#63b8ff" points="16.92,-31.49 17.12,-20.9 10.36,-29.06 16.92,-31.49"/>
</a>
</g>
</g>
<!-- Node3&#45;&gt;Node4 -->
<g id="edge3_Node000003_Node000004" class="edge">
<title>Node3&#45;&gt;Node4</title>
<g id="a_edge3_Node000003_Node000004"><a xlink:title=" ">
<path fill="none" stroke="#63b8ff" d="M59.18,-55.08C65.33,-47.8 74.26,-37.23 81.88,-28.23"/>
<polygon fill="#63b8ff" stroke="#63b8ff" points="84.4,-30.66 88.18,-20.77 79.05,-26.14 84.4,-30.66"/>
</a>
</g>
</g>
<!-- Node3&#45;&gt;Node5 -->
<g id="edge4_Node000003_Node000005" class="edge">
<title>Node3&#45;&gt;Node5</title>
<g id="a_edge4_Node000003_Node000005"><a xlink:title=" ">
<path fill="none" stroke="#63b8ff" d="M46.8,-55.08C42.87,-48.11 37.24,-38.12 32.31,-29.37"/>
<polygon fill="#63b8ff" stroke="#63b8ff" points="35.51,-27.92 27.55,-20.93 29.41,-31.36 35.51,-27.92"/>
</a>
</g>
</g>
</g>
</svg>
