<?xml version="1.0" encoding="UTF-8" standalone="no"?>
<!DOCTYPE svg PUBLIC "-//W3C//DTD SVG 1.1//EN"
 "http://www.w3.org/Graphics/SVG/1.1/DTD/svg11.dtd">
<!-- Generated by graphviz version 14.0.2 (20251019.1705)
 -->
<!-- Title: include/interfaces/IHeuristic.h Pages: 1 -->
<svg width="425pt" height="271pt"
 viewBox="0.00 0.00 425.00 271.00" xmlns="http://www.w3.org/2000/svg" xmlns:xlink="http://www.w3.org/1999/xlink">

<svg id="main" version="1.1" xmlns="http://www.w3.org/2000/svg" xmlns:xlink="http://www.w3.org/1999/xlink" xml:space="preserve">

<style type="text/css"><![CDATA[
.node, .edge {opacity: 0.7;}
.node.selected, .edge.selected {opacity: 1;}
.edge:hover path { stroke: red; }
.edge:hover polygon { stroke: red; fill: red; }
]]></style>
<script type="application/ecmascript" xlink:href="svg.min.js"/>
<svg id="graph" class="graph">
<g id="graph0" class="graph" transform="scale(1 1) rotate(0) translate(4 266.75)">
<title>include/interfaces/IHeuristic.h</title>
<!-- Node1 -->
<g id="Node000001" class="node">
<title>Node1</title>
<g id="a_Node000001"><a xlink:title=" ">
<polygon fill="#999999" stroke="#666666" points="197.5,-262.75 105,-262.75 105,-232.25 197.5,-232.25 197.5,-262.75"/>
<text xml:space="preserve" text-anchor="start" x="113" y="-249.25" font-family="Helvetica,sans-Serif" font-size="10.00">include/interfaces</text>
<text xml:space="preserve" text-anchor="middle" x="151.25" y="-238" font-family="Helvetica,sans-Serif" font-size="10.00">/IHeuristic.h</text>
</a>
</g>
</g>
<!-- Node2 -->
<g id="Node000002" class="node">
<title>Node2</title>
<g id="a_Node000002"><a xlink:href="_smart_heuristic_8h.html" target="_top" xlink:title=" ">
<polygon fill="white" stroke="#666666" points="152.5,-196.25 0,-196.25 0,-177 152.5,-177 152.5,-196.25"/>
<text xml:space="preserve" text-anchor="middle" x="76.25" y="-182.75" font-family="Helvetica,sans-Serif" font-size="10.00">include/solver/SmartHeuristic.h</text>
</a>
</g>
</g>
<!-- Node1&#45;&gt;Node2 -->
<g id="edge1_Node000001_Node000002" class="edge">
<title>Node1&#45;&gt;Node2</title>
<g id="a_edge1_Node000001_Node000002"><a xlink:title=" ">
<path fill="none" stroke="#63b8ff" d="M124.01,-225.12C111.55,-215.33 97.44,-204.26 87.81,-196.7"/>
<polygon fill="#63b8ff" stroke="#63b8ff" points="121.49,-227.59 131.52,-231.01 125.82,-222.08 121.49,-227.59"/>
</a>
</g>
</g>
<!-- Node4 -->
<g id="Node000004" class="node">
<title>Node4</title>
<g id="a_Node000004"><a xlink:href="_solver_8h.html" target="_top" xlink:title=" ">
<polygon fill="white" stroke="#666666" points="285.38,-196.25 171.12,-196.25 171.12,-177 285.38,-177 285.38,-196.25"/>
<text xml:space="preserve" text-anchor="middle" x="228.25" y="-182.75" font-family="Helvetica,sans-Serif" font-size="10.00">include/solver/Solver.h</text>
</a>
</g>
</g>
<!-- Node1&#45;&gt;Node4 -->
<g id="edge3_Node000001_Node000004" class="edge">
<title>Node1&#45;&gt;Node4</title>
<g id="a_edge3_Node000001_Node000004"><a xlink:title=" ">
<path fill="none" stroke="#63b8ff" d="M179.22,-225.12C192.01,-215.33 206.49,-204.26 216.38,-196.7"/>
<polygon fill="#63b8ff" stroke="#63b8ff" points="177.3,-222.17 171.49,-231.03 181.56,-227.73 177.3,-222.17"/>
</a>
</g>
</g>
<!-- Node3 -->
<g id="Node000003" class="node">
<title>Node3</title>
<g id="a_Node000003"><a xlink:href="_smart_heuristic_8cpp.html" target="_top" xlink:title=" ">
<polygon fill="white" stroke="#666666" points="147.12,-135.38 1.38,-135.38 1.38,-116.12 147.12,-116.12 147.12,-135.38"/>
<text xml:space="preserve" text-anchor="middle" x="74.25" y="-121.88" font-family="Helvetica,sans-Serif" font-size="10.00">src/solver/SmartHeuristic.cpp</text>
</a>
</g>
</g>
<!-- Node2&#45;&gt;Node3 -->
<g id="edge2_Node000002_Node000003" class="edge">
<title>Node2&#45;&gt;Node3</title>
<g id="a_edge2_Node000002_Node000003"><a xlink:title=" ">
<path fill="none" stroke="#63b8ff" d="M75.56,-165.2C75.22,-155.17 74.82,-143.58 74.56,-135.78"/>
<polygon fill="#63b8ff" stroke="#63b8ff" points="72.06,-165.3 75.89,-175.17 79.05,-165.06 72.06,-165.3"/>
</a>
</g>
</g>
<!-- Node5 -->
<g id="Node000005" class="node">
<title>Node5</title>
<g id="a_Node000005"><a xlink:href="_slitherlink_solver_8h.html" target="_top" xlink:title=" ">
<polygon fill="white" stroke="#666666" points="291,-141 165.5,-141 165.5,-110.5 291,-110.5 291,-141"/>
<text xml:space="preserve" text-anchor="start" x="173.5" y="-127.5" font-family="Helvetica,sans-Serif" font-size="10.00">include/factory/Slitherlink</text>
<text xml:space="preserve" text-anchor="middle" x="228.25" y="-116.25" font-family="Helvetica,sans-Serif" font-size="10.00">Solver.h</text>
</a>
</g>
</g>
<!-- Node4&#45;&gt;Node5 -->
<g id="edge4_Node000004_Node000005" class="edge">
<title>Node4&#45;&gt;Node5</title>
<g id="a_edge4_Node000004_Node000005"><a xlink:title=" ">
<path fill="none" stroke="#63b8ff" d="M228.25,-165.42C228.25,-157.49 228.25,-148.56 228.25,-141.28"/>
<polygon fill="#63b8ff" stroke="#63b8ff" points="224.75,-165.17 228.25,-175.17 231.75,-165.17 224.75,-165.17"/>
</a>
</g>
</g>
<!-- Node9 -->
<g id="Node000009" class="node">
<title>Node9</title>
<g id="a_Node000009"><a xlink:href="_solver_8cpp.html" target="_top" xlink:title=" ">
<polygon fill="white" stroke="#666666" points="417,-135.38 309.5,-135.38 309.5,-116.12 417,-116.12 417,-135.38"/>
<text xml:space="preserve" text-anchor="middle" x="363.25" y="-121.88" font-family="Helvetica,sans-Serif" font-size="10.00">src/solver/Solver.cpp</text>
</a>
</g>
</g>
<!-- Node4&#45;&gt;Node9 -->
<g id="edge8_Node000004_Node000009" class="edge">
<title>Node4&#45;&gt;Node9</title>
<g id="a_edge8_Node000004_Node000009"><a xlink:title=" ">
<path fill="none" stroke="#63b8ff" d="M259.33,-172.07C284.92,-160.91 320.47,-145.41 342.65,-135.73"/>
<polygon fill="#63b8ff" stroke="#63b8ff" points="258.2,-168.74 250.44,-175.95 261,-175.16 258.2,-168.74"/>
</a>
</g>
</g>
<!-- Node6 -->
<g id="Node000006" class="node">
<title>Node6</title>
<g id="a_Node000006"><a xlink:href="_solver_factory_8h.html" target="_top" xlink:title=" ">
<polygon fill="white" stroke="#666666" points="218.38,-74.5 68.12,-74.5 68.12,-55.25 218.38,-55.25 218.38,-74.5"/>
<text xml:space="preserve" text-anchor="middle" x="143.25" y="-61" font-family="Helvetica,sans-Serif" font-size="10.00">include/factory/SolverFactory.h</text>
</a>
</g>
</g>
<!-- Node5&#45;&gt;Node6 -->
<g id="edge5_Node000005_Node000006" class="edge">
<title>Node5&#45;&gt;Node6</title>
<g id="a_edge5_Node000005_Node000006"><a xlink:title=" ">
<path fill="none" stroke="#63b8ff" d="M197.79,-103.65C183.56,-93.8 167.37,-82.58 156.35,-74.95"/>
<polygon fill="#63b8ff" stroke="#63b8ff" points="195.78,-106.52 205.99,-109.33 199.77,-100.76 195.78,-106.52"/>
</a>
</g>
</g>
<!-- Node8 -->
<g id="Node000008" class="node">
<title>Node8</title>
<g id="a_Node000008"><a xlink:href="_slitherlink_solver_8cpp.html" target="_top" xlink:title=" ">
<polygon fill="white" stroke="#666666" points="390.25,-74.5 236.25,-74.5 236.25,-55.25 390.25,-55.25 390.25,-74.5"/>
<text xml:space="preserve" text-anchor="middle" x="313.25" y="-61" font-family="Helvetica,sans-Serif" font-size="10.00">src/factory/SlitherlinkSolver.cpp</text>
</a>
</g>
</g>
<!-- Node5&#45;&gt;Node8 -->
<g id="edge7_Node000005_Node000008" class="edge">
<title>Node5&#45;&gt;Node8</title>
<g id="a_edge7_Node000005_Node000008"><a xlink:title=" ">
<path fill="none" stroke="#63b8ff" d="M258.71,-103.65C272.94,-93.8 289.13,-82.58 300.15,-74.95"/>
<polygon fill="#63b8ff" stroke="#63b8ff" points="256.73,-100.76 250.51,-109.33 260.72,-106.52 256.73,-100.76"/>
</a>
</g>
</g>
<!-- Node7 -->
<g id="Node000007" class="node">
<title>Node7</title>
<g id="a_Node000007"><a xlink:href="_solver_factory_8cpp.html" target="_top" xlink:title=" ">
<polygon fill="white" stroke="#666666" points="215,-19.25 71.5,-19.25 71.5,0 215,0 215,-19.25"/>
<text xml:space="preserve" text-anchor="middle" x="143.25" y="-5.75" font-family="Helvetica,sans-Serif" font-size="10.00">src/factory/SolverFactory.cpp</text>
</a>
</g>
</g>
<!-- Node6&#45;&gt;Node7 -->
<g id="edge6_Node000006_Node000007" class="edge">
<title>Node6&#45;&gt;Node7</title>
<g id="a_edge6_Node000006_Node000007"><a xlink:title=" ">
<path fill="none" stroke="#63b8ff" d="M143.25,-43.63C143.25,-35.34 143.25,-26.17 143.25,-19.61"/>
<polygon fill="#63b8ff" stroke="#63b8ff" points="139.75,-43.57 143.25,-53.57 146.75,-43.57 139.75,-43.57"/>
</a>
</g>
</g>
</g>
</svg>
</svg>

<style type='text/css'>
<![CDATA[
[data-mouse-over-selected='false'] { opacity: 0.7; }
[data-mouse-over-selected='true']  { opacity: 1.0; }
]]>
</style>
<script type="application/ecmascript"><![CDATA[
document.addEventListener('DOMContentLoaded', (event) => {
  highlightEdges();
  highlightAdjacentNodes();
});
]]></script>
</svg>
