<?xml version="1.0" encoding="UTF-8" standalone="no"?>
<!DOCTYPE svg PUBLIC "-//W3C//DTD SVG 1.1//EN"
 "http://www.w3.org/Graphics/SVG/1.1/DTD/svg11.dtd">
<!-- Generated by graphviz version 14.0.2 (20251019.1705)
 -->
<!-- Title: include/slitherlink/interfaces/ISolutionCollector.h Pages: 1 -->
<svg width="565pt" height="238pt"
 viewBox="0.00 0.00 565.00 238.00" xmlns="http://www.w3.org/2000/svg" xmlns:xlink="http://www.w3.org/1999/xlink">
<g id="graph0" class="graph" transform="scale(1 1) rotate(0) translate(4 234)">
<title>include/slitherlink/interfaces/ISolutionCollector.h</title>
<!-- Node1 -->
<g id="Node000001" class="node">
<title>Node1</title>
<g id="a_Node000001"><a xlink:title=" ">
<polygon fill="#999999" stroke="#666666" points="338.25,-230 188.75,-230 188.75,-199.5 338.25,-199.5 338.25,-230"/>
<text xml:space="preserve" text-anchor="start" x="196.75" y="-216.5" font-family="Helvetica,sans-Serif" font-size="10.00">include/slitherlink</text>
<text xml:space="preserve" text-anchor="middle" x="263.5" y="-205.25" font-family="Helvetica,sans-Serif" font-size="10.00">/interfaces/ISolutionCollector.h</text>
</a>
</g>
</g>
<!-- Node2 -->
<g id="Node000002" class="node">
<title>Node2</title>
<g id="a_Node000002"><a xlink:href="_slitherlink_solver_8h.html" target="_top" xlink:title=" ">
<polygon fill="white" stroke="#666666" points="259.5,-163.5 129.5,-163.5 129.5,-133 259.5,-133 259.5,-163.5"/>
<text xml:space="preserve" text-anchor="start" x="137.5" y="-150" font-family="Helvetica,sans-Serif" font-size="10.00">include/slitherlink</text>
<text xml:space="preserve" text-anchor="middle" x="194.5" y="-138.75" font-family="Helvetica,sans-Serif" font-size="10.00">/factory/SlitherlinkSolver.h</text>
</a>
</g>
</g>
<!-- Node1&#45;&gt;Node2 -->
<g id="edge1_Node000001_Node000002" class="edge">
<title>Node1&#45;&gt;Node2</title>
<g id="a_edge1_Node000001_Node000002"><a xlink:title=" ">
<path fill="none" stroke="#63b8ff" d="M239.66,-191.46C229.87,-182.32 218.82,-171.98 210.1,-163.83"/>
<polygon fill="#63b8ff" stroke="#63b8ff" points="237.04,-193.81 246.74,-198.08 241.82,-188.69 237.04,-193.81"/>
</a>
</g>
</g>
<!-- Node8 -->
<g id="Node000008" class="node">
<title>Node8</title>
<g id="a_Node000008"><a xlink:href="_solution_collector_8h.html" target="_top" xlink:title=" ">
<polygon fill="white" stroke="#666666" points="449.12,-163.5 337.88,-163.5 337.88,-133 449.12,-133 449.12,-163.5"/>
<text xml:space="preserve" text-anchor="start" x="345.88" y="-150" font-family="Helvetica,sans-Serif" font-size="10.00">include/slitherlink</text>
<text xml:space="preserve" text-anchor="middle" x="393.5" y="-138.75" font-family="Helvetica,sans-Serif" font-size="10.00">/io/SolutionCollector.h</text>
</a>
</g>
</g>
<!-- Node1&#45;&gt;Node8 -->
<g id="edge8_Node000001_Node000008" class="edge">
<title>Node1&#45;&gt;Node8</title>
<g id="a_edge8_Node000001_Node000008"><a xlink:title=" ">
<path fill="none" stroke="#63b8ff" d="M303.18,-194.06C322.82,-184.32 346.11,-172.76 364.12,-163.83"/>
<polygon fill="#63b8ff" stroke="#63b8ff" points="301.76,-190.86 294.35,-198.44 304.87,-197.13 301.76,-190.86"/>
</a>
</g>
</g>
<!-- Node3 -->
<g id="Node000003" class="node">
<title>Node3</title>
<g id="a_Node000003"><a xlink:href="_slitherlink_8h.html" target="_top" xlink:title=" ">
<polygon fill="white" stroke="#666666" points="91,-30.5 0,-30.5 0,0 91,0 91,-30.5"/>
<text xml:space="preserve" text-anchor="start" x="8" y="-17" font-family="Helvetica,sans-Serif" font-size="10.00">include/slitherlink</text>
<text xml:space="preserve" text-anchor="middle" x="45.5" y="-5.75" font-family="Helvetica,sans-Serif" font-size="10.00">/Slitherlink.h</text>
</a>
</g>
</g>
<!-- Node2&#45;&gt;Node3 -->
<g id="edge2_Node000002_Node000003" class="edge">
<title>Node2&#45;&gt;Node3</title>
<g id="a_edge2_Node000002_Node000003"><a xlink:title=" ">
<path fill="none" stroke="#63b8ff" d="M118.48,-131.62C98.48,-124.16 78.58,-113.16 64.5,-97 48.33,-78.43 45.28,-48.64 45.04,-30.9"/>
<polygon fill="#63b8ff" stroke="#63b8ff" points="117.22,-134.89 127.82,-134.83 119.49,-128.27 117.22,-134.89"/>
</a>
</g>
</g>
<!-- Node4 -->
<g id="Node000004" class="node">
<title>Node4</title>
<g id="a_Node000004"><a xlink:href="_solver_factory_8h.html" target="_top" xlink:title=" ">
<polygon fill="white" stroke="#666666" points="193.25,-97 73.75,-97 73.75,-66.5 193.25,-66.5 193.25,-97"/>
<text xml:space="preserve" text-anchor="start" x="81.75" y="-83.5" font-family="Helvetica,sans-Serif" font-size="10.00">include/slitherlink</text>
<text xml:space="preserve" text-anchor="middle" x="133.5" y="-72.25" font-family="Helvetica,sans-Serif" font-size="10.00">/factory/SolverFactory.h</text>
</a>
</g>
</g>
<!-- Node2&#45;&gt;Node4 -->
<g id="edge3_Node000002_Node000004" class="edge">
<title>Node2&#45;&gt;Node4</title>
<g id="a_edge3_Node000002_Node000004"><a xlink:title=" ">
<path fill="none" stroke="#63b8ff" d="M172.9,-124.41C164.38,-115.4 154.84,-105.32 147.29,-97.33"/>
<polygon fill="#63b8ff" stroke="#63b8ff" points="170.2,-126.65 179.62,-131.51 175.29,-121.84 170.2,-126.65"/>
</a>
</g>
</g>
<!-- Node7 -->
<g id="Node000007" class="node">
<title>Node7</title>
<g id="a_Node000007"><a xlink:href="_slitherlink_solver_8cpp.html" target="_top" xlink:title=" ">
<polygon fill="white" stroke="#666666" points="365.5,-91.38 211.5,-91.38 211.5,-72.12 365.5,-72.12 365.5,-91.38"/>
<text xml:space="preserve" text-anchor="middle" x="288.5" y="-77.88" font-family="Helvetica,sans-Serif" font-size="10.00">src/factory/SlitherlinkSolver.cpp</text>
</a>
</g>
</g>
<!-- Node2&#45;&gt;Node7 -->
<g id="edge7_Node000002_Node000007" class="edge">
<title>Node2&#45;&gt;Node7</title>
<g id="a_edge7_Node000002_Node000007"><a xlink:title=" ">
<path fill="none" stroke="#63b8ff" d="M224.89,-126.4C241.95,-114.69 262.35,-100.69 275.37,-91.76"/>
<polygon fill="#63b8ff" stroke="#63b8ff" points="223.34,-123.21 217.08,-131.76 227.3,-128.99 223.34,-123.21"/>
</a>
</g>
</g>
<!-- Node4&#45;&gt;Node3 -->
<g id="edge4_Node000004_Node000003" class="edge">
<title>Node4&#45;&gt;Node3</title>
<g id="a_edge4_Node000004_Node000003"><a xlink:title=" ">
<path fill="none" stroke="#63b8ff" d="M104.6,-59.57C91.76,-50.16 76.96,-39.31 65.39,-30.83"/>
<polygon fill="#63b8ff" stroke="#63b8ff" points="102.18,-62.13 112.31,-65.22 106.31,-56.48 102.18,-62.13"/>
</a>
</g>
</g>
<!-- Node5 -->
<g id="Node000005" class="node">
<title>Node5</title>
<g id="a_Node000005"><a xlink:href="_solver_factory_8cpp.html" target="_top" xlink:title=" ">
<polygon fill="white" stroke="#666666" points="404.25,-24.88 260.75,-24.88 260.75,-5.63 404.25,-5.63 404.25,-24.88"/>
<text xml:space="preserve" text-anchor="middle" x="332.5" y="-11.38" font-family="Helvetica,sans-Serif" font-size="10.00">src/factory/SolverFactory.cpp</text>
</a>
</g>
</g>
<!-- Node4&#45;&gt;Node5 -->
<g id="edge5_Node000004_Node000005" class="edge">
<title>Node4&#45;&gt;Node5</title>
<g id="a_edge5_Node000004_Node000005"><a xlink:title=" ">
<path fill="none" stroke="#63b8ff" d="M189.43,-62.62C226.91,-50.48 274.66,-35 304.41,-25.35"/>
<polygon fill="#63b8ff" stroke="#63b8ff" points="188.53,-59.23 180.1,-65.65 190.69,-65.89 188.53,-59.23"/>
</a>
</g>
</g>
<!-- Node6 -->
<g id="Node000006" class="node">
<title>Node6</title>
<g id="a_Node000006"><a xlink:href="src_2main_8cpp.html" target="_top" xlink:title=" ">
<polygon fill="white" stroke="#666666" points="181.62,-24.88 109.38,-24.88 109.38,-5.63 181.62,-5.63 181.62,-24.88"/>
<text xml:space="preserve" text-anchor="middle" x="145.5" y="-11.38" font-family="Helvetica,sans-Serif" font-size="10.00">src/main.cpp</text>
</a>
</g>
</g>
<!-- Node4&#45;&gt;Node6 -->
<g id="edge6_Node000004_Node000006" class="edge">
<title>Node4&#45;&gt;Node6</title>
<g id="a_edge6_Node000004_Node000006"><a xlink:title=" ">
<path fill="none" stroke="#63b8ff" d="M138.32,-54.84C140.29,-44.26 142.43,-32.75 143.86,-25.07"/>
<polygon fill="#63b8ff" stroke="#63b8ff" points="134.89,-54.15 136.5,-64.63 141.77,-55.43 134.89,-54.15"/>
</a>
</g>
</g>
<!-- Node8&#45;&gt;Node5 -->
<g id="edge9_Node000008_Node000005" class="edge">
<title>Node8&#45;&gt;Node5</title>
<g id="a_edge9_Node000008_Node000005"><a xlink:title=" ">
<path fill="none" stroke="#63b8ff" d="M390.57,-121.61C387.96,-105.2 383.16,-83.81 374.5,-66.5 366.36,-50.23 351.99,-34.67 342.36,-25.28"/>
<polygon fill="#63b8ff" stroke="#63b8ff" points="387.04,-121.64 391.9,-131.06 393.97,-120.67 387.04,-121.64"/>
</a>
</g>
</g>
<!-- Node9 -->
<g id="Node000009" class="node">
<title>Node9</title>
<g id="a_Node000009"><a xlink:href="_solution_collector_8cpp.html" target="_top" xlink:title=" ">
<polygon fill="white" stroke="#666666" points="557.12,-91.38 421.88,-91.38 421.88,-72.12 557.12,-72.12 557.12,-91.38"/>
<text xml:space="preserve" text-anchor="middle" x="489.5" y="-77.88" font-family="Helvetica,sans-Serif" font-size="10.00">src/io/SolutionCollector.cpp</text>
</a>
</g>
</g>
<!-- Node8&#45;&gt;Node9 -->
<g id="edge10_Node000008_Node000009" class="edge">
<title>Node8&#45;&gt;Node9</title>
<g id="a_edge10_Node000008_Node000009"><a xlink:title=" ">
<path fill="none" stroke="#63b8ff" d="M424.54,-126.4C441.96,-114.69 462.8,-100.69 476.09,-91.76"/>
<polygon fill="#63b8ff" stroke="#63b8ff" points="422.89,-123.29 416.54,-131.77 426.79,-129.1 422.89,-123.29"/>
</a>
</g>
</g>
</g>
</svg>
