<?xml version="1.0" encoding="UTF-8" standalone="no"?>
<!DOCTYPE svg PUBLIC "-//W3C//DTD SVG 1.1//EN"
 "http://www.w3.org/Graphics/SVG/1.1/DTD/svg11.dtd">
<!-- Generated by graphviz version 14.0.2 (20251019.1705)
 -->
<!-- Title: include/slitherlink/interfaces/ISolutionValidator.h Pages: 1 -->
<svg width="156pt" height="149pt"
 viewBox="0.00 0.00 156.00 149.00" xmlns="http://www.w3.org/2000/svg" xmlns:xlink="http://www.w3.org/1999/xlink">
<g id="graph0" class="graph" transform="scale(1 1) rotate(0) translate(4 145)">
<title>include/slitherlink/interfaces/ISolutionValidator.h</title>
<!-- Node1 -->
<g id="Node000001" class="node">
<title>Node1</title>
<g id="a_Node000001"><a xlink:title=" ">
<polygon fill="#999999" stroke="#666666" points="148,-141 0,-141 0,-110.5 148,-110.5 148,-141"/>
<text xml:space="preserve" text-anchor="start" x="8" y="-127.5" font-family="Helvetica,sans-Serif" font-size="10.00">include/slitherlink</text>
<text xml:space="preserve" text-anchor="middle" x="74" y="-116.25" font-family="Helvetica,sans-Serif" font-size="10.00">/interfaces/ISolutionValidator.h</text>
</a>
</g>
</g>
<!-- Node2 -->
<g id="Node000002" class="node">
<title>Node2</title>
<g id="a_Node000002"><a xlink:href="_solution_8h.html" target="_top" xlink:title=" ">
<polygon fill="white" stroke="#666666" points="136.75,-74.5 11.25,-74.5 11.25,-55.25 136.75,-55.25 136.75,-74.5"/>
<text xml:space="preserve" text-anchor="middle" x="74" y="-61" font-family="Helvetica,sans-Serif" font-size="10.00">slitherlink/core/Solution.h</text>
</a>
</g>
</g>
<!-- Node1&#45;&gt;Node2 -->
<g id="edge1_Node000001_Node000002" class="edge">
<title>Node1&#45;&gt;Node2</title>
<g id="a_edge1_Node000001_Node000002"><a xlink:title=" ">
<path fill="none" stroke="#63b8ff" d="M74,-110.2C74,-102.96 74,-94.09 74,-86.19"/>
<polygon fill="#63b8ff" stroke="#63b8ff" points="77.5,-86.46 74,-76.46 70.5,-86.46 77.5,-86.46"/>
</a>
</g>
</g>
<!-- Node3 -->
<g id="Node000003" class="node">
<title>Node3</title>
<g id="a_Node000003"><a xlink:title=" ">
<polygon fill="#e0e0e0" stroke="#999999" points="64.62,-19.25 25.38,-19.25 25.38,0 64.62,0 64.62,-19.25"/>
<text xml:space="preserve" text-anchor="middle" x="45" y="-5.75" font-family="Helvetica,sans-Serif" font-size="10.00">utility</text>
</a>
</g>
</g>
<!-- Node2&#45;&gt;Node3 -->
<g id="edge2_Node000002_Node000003" class="edge">
<title>Node2&#45;&gt;Node3</title>
<g id="a_edge2_Node000002_Node000003"><a xlink:title=" ">
<path fill="none" stroke="#63b8ff" d="M69.21,-55.08C65.46,-48.19 60.09,-38.34 55.37,-29.66"/>
<polygon fill="#63b8ff" stroke="#63b8ff" points="58.47,-28.05 50.62,-20.94 52.33,-31.39 58.47,-28.05"/>
</a>
</g>
</g>
<!-- Node4 -->
<g id="Node000004" class="node">
<title>Node4</title>
<g id="a_Node000004"><a xlink:title=" ">
<polygon fill="#e0e0e0" stroke="#999999" points="125.5,-19.25 82.5,-19.25 82.5,0 125.5,0 125.5,-19.25"/>
<text xml:space="preserve" text-anchor="middle" x="104" y="-5.75" font-family="Helvetica,sans-Serif" font-size="10.00">vector</text>
</a>
</g>
</g>
<!-- Node2&#45;&gt;Node4 -->
<g id="edge3_Node000002_Node000004" class="edge">
<title>Node2&#45;&gt;Node4</title>
<g id="a_edge3_Node000002_Node000004"><a xlink:title=" ">
<path fill="none" stroke="#63b8ff" d="M78.95,-55.08C82.88,-48.11 88.51,-38.12 93.44,-29.37"/>
<polygon fill="#63b8ff" stroke="#63b8ff" points="96.34,-31.36 98.2,-20.93 90.24,-27.92 96.34,-31.36"/>
</a>
</g>
</g>
</g>
</svg>
