<?xml version="1.0" encoding="UTF-8" standalone="no"?>
<!DOCTYPE svg PUBLIC "-//W3C//DTD SVG 1.1//EN"
 "http://www.w3.org/Graphics/SVG/1.1/DTD/svg11.dtd">
<!-- Generated by graphviz version 14.0.2 (20251019.1705)
 -->
<!-- Title: include/slitherlink/interfaces/ISolutionCollector.h Pages: 1 -->
<svg width="191pt" height="149pt"
 viewBox="0.00 0.00 191.00 149.00" xmlns="http://www.w3.org/2000/svg" xmlns:xlink="http://www.w3.org/1999/xlink">
<g id="graph0" class="graph" transform="scale(1 1) rotate(0) translate(4 145)">
<title>include/slitherlink/interfaces/ISolutionCollector.h</title>
<!-- Node1 -->
<g id="Node000001" class="node">
<title>Node1</title>
<g id="a_Node000001"><a xlink:title=" ">
<polygon fill="#999999" stroke="#666666" points="182.5,-141 33,-141 33,-110.5 182.5,-110.5 182.5,-141"/>
<text xml:space="preserve" text-anchor="start" x="41" y="-127.5" font-family="Helvetica,sans-Serif" font-size="10.00">include/slitherlink</text>
<text xml:space="preserve" text-anchor="middle" x="107.75" y="-116.25" font-family="Helvetica,sans-Serif" font-size="10.00">/interfaces/ISolutionCollector.h</text>
</a>
</g>
</g>
<!-- Node2 -->
<g id="Node000002" class="node">
<title>Node2</title>
<g id="a_Node000002"><a xlink:href="_solution_8h.html" target="_top" xlink:title=" ">
<polygon fill="white" stroke="#666666" points="125.5,-74.5 0,-74.5 0,-55.25 125.5,-55.25 125.5,-74.5"/>
<text xml:space="preserve" text-anchor="middle" x="62.75" y="-61" font-family="Helvetica,sans-Serif" font-size="10.00">slitherlink/core/Solution.h</text>
</a>
</g>
</g>
<!-- Node1&#45;&gt;Node2 -->
<g id="edge1_Node000001_Node000002" class="edge">
<title>Node1&#45;&gt;Node2</title>
<g id="a_edge1_Node000001_Node000002"><a xlink:title=" ">
<path fill="none" stroke="#63b8ff" d="M96.63,-110.2C90.57,-102.27 83.01,-92.38 76.57,-83.96"/>
<polygon fill="#63b8ff" stroke="#63b8ff" points="79.46,-81.97 70.61,-76.15 73.9,-86.22 79.46,-81.97"/>
</a>
</g>
</g>
<!-- Node4 -->
<g id="Node000004" class="node">
<title>Node4</title>
<g id="a_Node000004"><a xlink:title=" ">
<polygon fill="#e0e0e0" stroke="#999999" points="159.25,-19.25 116.25,-19.25 116.25,0 159.25,0 159.25,-19.25"/>
<text xml:space="preserve" text-anchor="middle" x="137.75" y="-5.75" font-family="Helvetica,sans-Serif" font-size="10.00">vector</text>
</a>
</g>
</g>
<!-- Node1&#45;&gt;Node4 -->
<g id="edge4_Node000001_Node000004" class="edge">
<title>Node1&#45;&gt;Node4</title>
<g id="a_edge4_Node000001_Node000004"><a xlink:title=" ">
<path fill="none" stroke="#63b8ff" d="M117.89,-110.1C123.98,-100.46 131.21,-87.29 134.75,-74.5 138.7,-60.22 139.35,-43.46 139.06,-30.69"/>
<polygon fill="#63b8ff" stroke="#63b8ff" points="142.57,-30.84 138.62,-21.01 135.58,-31.16 142.57,-30.84"/>
</a>
</g>
</g>
<!-- Node3 -->
<g id="Node000003" class="node">
<title>Node3</title>
<g id="a_Node000003"><a xlink:title=" ">
<polygon fill="#e0e0e0" stroke="#999999" points="82.38,-19.25 43.12,-19.25 43.12,0 82.38,0 82.38,-19.25"/>
<text xml:space="preserve" text-anchor="middle" x="62.75" y="-5.75" font-family="Helvetica,sans-Serif" font-size="10.00">utility</text>
</a>
</g>
</g>
<!-- Node2&#45;&gt;Node3 -->
<g id="edge2_Node000002_Node000003" class="edge">
<title>Node2&#45;&gt;Node3</title>
<g id="a_edge2_Node000002_Node000003"><a xlink:title=" ">
<path fill="none" stroke="#63b8ff" d="M62.75,-55.08C62.75,-48.57 62.75,-39.42 62.75,-31.12"/>
<polygon fill="#63b8ff" stroke="#63b8ff" points="66.25,-31.12 62.75,-21.12 59.25,-31.12 66.25,-31.12"/>
</a>
</g>
</g>
<!-- Node2&#45;&gt;Node4 -->
<g id="edge3_Node000002_Node000004" class="edge">
<title>Node2&#45;&gt;Node4</title>
<g id="a_edge3_Node000002_Node000004"><a xlink:title=" ">
<path fill="none" stroke="#63b8ff" d="M75.47,-54.84C86.46,-47.04 102.59,-35.59 115.68,-26.29"/>
<polygon fill="#63b8ff" stroke="#63b8ff" points="117.6,-29.22 123.73,-20.58 113.55,-23.51 117.6,-29.22"/>
</a>
</g>
</g>
</g>
</svg>
