<?xml version="1.0" encoding="UTF-8" standalone="no"?>
<!DOCTYPE svg PUBLIC "-//W3C//DTD SVG 1.1//EN"
 "http://www.w3.org/Graphics/SVG/1.1/DTD/svg11.dtd">
<!-- Generated by graphviz version 14.0.2 (20251019.1705)
 -->
<!-- Title: include/slitherlink/factory/SlitherlinkSolver.h Pages: 1 -->
<svg width="409pt" height="172pt"
 viewBox="0.00 0.00 409.00 172.00" xmlns="http://www.w3.org/2000/svg" xmlns:xlink="http://www.w3.org/1999/xlink">

<svg id="main" version="1.1" xmlns="http://www.w3.org/2000/svg" xmlns:xlink="http://www.w3.org/1999/xlink" xml:space="preserve">

<style type="text/css"><![CDATA[
.node, .edge {opacity: 0.7;}
.node.selected, .edge.selected {opacity: 1;}
.edge:hover path { stroke: red; }
.edge:hover polygon { stroke: red; fill: red; }
]]></style>
<script type="application/ecmascript" xlink:href="svg.min.js"/>
<svg id="graph" class="graph">
<g id="graph0" class="graph" transform="scale(1 1) rotate(0) translate(4 167.5)">
<title>include/slitherlink/factory/SlitherlinkSolver.h</title>
<!-- Node1 -->
<g id="Node000001" class="node">
<title>Node1</title>
<g id="a_Node000001"><a xlink:title=" ">
<polygon fill="#999999" stroke="#666666" points="233.5,-163.5 103.5,-163.5 103.5,-133 233.5,-133 233.5,-163.5"/>
<text xml:space="preserve" text-anchor="start" x="111.5" y="-150" font-family="Helvetica,sans-Serif" font-size="10.00">include/slitherlink</text>
<text xml:space="preserve" text-anchor="middle" x="168.5" y="-138.75" font-family="Helvetica,sans-Serif" font-size="10.00">/factory/SlitherlinkSolver.h</text>
</a>
</g>
</g>
<!-- Node2 -->
<g id="Node000002" class="node">
<title>Node2</title>
<g id="a_Node000002"><a xlink:href="_slitherlink_8h.html" target="_top" xlink:title=" ">
<polygon fill="white" stroke="#666666" points="91,-30.5 0,-30.5 0,0 91,0 91,-30.5"/>
<text xml:space="preserve" text-anchor="start" x="8" y="-17" font-family="Helvetica,sans-Serif" font-size="10.00">include/slitherlink</text>
<text xml:space="preserve" text-anchor="middle" x="45.5" y="-5.75" font-family="Helvetica,sans-Serif" font-size="10.00">/Slitherlink.h</text>
</a>
</g>
</g>
<!-- Node1&#45;&gt;Node2 -->
<g id="edge1_Node000001_Node000002" class="edge">
<title>Node1&#45;&gt;Node2</title>
<g id="a_edge1_Node000001_Node000002"><a xlink:title=" ">
<path fill="none" stroke="#63b8ff" d="M134.93,-126.36C123,-118.05 109.95,-107.88 99.5,-97 79.75,-76.45 62.54,-47.84 53.13,-30.77"/>
<polygon fill="#63b8ff" stroke="#63b8ff" points="132.68,-129.06 142.93,-131.75 136.59,-123.26 132.68,-129.06"/>
</a>
</g>
</g>
<!-- Node3 -->
<g id="Node000003" class="node">
<title>Node3</title>
<g id="a_Node000003"><a xlink:href="_solver_factory_8h.html" target="_top" xlink:title=" ">
<polygon fill="white" stroke="#666666" points="228.25,-97 108.75,-97 108.75,-66.5 228.25,-66.5 228.25,-97"/>
<text xml:space="preserve" text-anchor="start" x="116.75" y="-83.5" font-family="Helvetica,sans-Serif" font-size="10.00">include/slitherlink</text>
<text xml:space="preserve" text-anchor="middle" x="168.5" y="-72.25" font-family="Helvetica,sans-Serif" font-size="10.00">/factory/SolverFactory.h</text>
</a>
</g>
</g>
<!-- Node1&#45;&gt;Node3 -->
<g id="edge2_Node000001_Node000003" class="edge">
<title>Node1&#45;&gt;Node3</title>
<g id="a_edge2_Node000001_Node000003"><a xlink:title=" ">
<path fill="none" stroke="#63b8ff" d="M168.5,-121.31C168.5,-113.14 168.5,-104.41 168.5,-97.33"/>
<polygon fill="#63b8ff" stroke="#63b8ff" points="165,-121.1 168.5,-131.1 172,-121.1 165,-121.1"/>
</a>
</g>
</g>
<!-- Node6 -->
<g id="Node000006" class="node">
<title>Node6</title>
<g id="a_Node000006"><a xlink:href="_slitherlink_solver_8cpp.html" target="_top" xlink:title=" ">
<polygon fill="white" stroke="#666666" points="400.5,-91.38 246.5,-91.38 246.5,-72.12 400.5,-72.12 400.5,-91.38"/>
<text xml:space="preserve" text-anchor="middle" x="323.5" y="-77.88" font-family="Helvetica,sans-Serif" font-size="10.00">src/factory/SlitherlinkSolver.cpp</text>
</a>
</g>
</g>
<!-- Node1&#45;&gt;Node6 -->
<g id="edge6_Node000001_Node000006" class="edge">
<title>Node1&#45;&gt;Node6</title>
<g id="a_edge6_Node000001_Node000006"><a xlink:title=" ">
<path fill="none" stroke="#63b8ff" d="M213.98,-128.32C242.97,-116.26 279.2,-101.19 301.85,-91.76"/>
<polygon fill="#63b8ff" stroke="#63b8ff" points="212.96,-124.96 205.07,-132.03 215.65,-131.42 212.96,-124.96"/>
</a>
</g>
</g>
<!-- Node3&#45;&gt;Node2 -->
<g id="edge3_Node000003_Node000002" class="edge">
<title>Node3&#45;&gt;Node2</title>
<g id="a_edge3_Node000003_Node000002"><a xlink:title=" ">
<path fill="none" stroke="#63b8ff" d="M130.44,-60.79C111.97,-51.11 90.18,-39.68 73.3,-30.83"/>
<polygon fill="#63b8ff" stroke="#63b8ff" points="128.77,-63.87 139.25,-65.41 132.02,-57.67 128.77,-63.87"/>
</a>
</g>
</g>
<!-- Node4 -->
<g id="Node000004" class="node">
<title>Node4</title>
<g id="a_Node000004"><a xlink:href="_solver_factory_8cpp.html" target="_top" xlink:title=" ">
<polygon fill="white" stroke="#666666" points="252.25,-24.88 108.75,-24.88 108.75,-5.63 252.25,-5.63 252.25,-24.88"/>
<text xml:space="preserve" text-anchor="middle" x="180.5" y="-11.38" font-family="Helvetica,sans-Serif" font-size="10.00">src/factory/SolverFactory.cpp</text>
</a>
</g>
</g>
<!-- Node3&#45;&gt;Node4 -->
<g id="edge4_Node000003_Node000004" class="edge">
<title>Node3&#45;&gt;Node4</title>
<g id="a_edge4_Node000003_Node000004"><a xlink:title=" ">
<path fill="none" stroke="#63b8ff" d="M173.32,-54.84C175.29,-44.26 177.43,-32.75 178.86,-25.07"/>
<polygon fill="#63b8ff" stroke="#63b8ff" points="169.89,-54.15 171.5,-64.63 176.77,-55.43 169.89,-54.15"/>
</a>
</g>
</g>
<!-- Node5 -->
<g id="Node000005" class="node">
<title>Node5</title>
<g id="a_Node000005"><a xlink:href="src_2main_8cpp.html" target="_top" xlink:title=" ">
<polygon fill="white" stroke="#666666" points="342.62,-24.88 270.38,-24.88 270.38,-5.63 342.62,-5.63 342.62,-24.88"/>
<text xml:space="preserve" text-anchor="middle" x="306.5" y="-11.38" font-family="Helvetica,sans-Serif" font-size="10.00">src/main.cpp</text>
</a>
</g>
</g>
<!-- Node3&#45;&gt;Node5 -->
<g id="edge5_Node000003_Node000005" class="edge">
<title>Node3&#45;&gt;Node5</title>
<g id="a_edge5_Node000003_Node000005"><a xlink:title=" ">
<path fill="none" stroke="#63b8ff" d="M210.02,-61.35C235.64,-49.37 267.32,-34.56 287.22,-25.26"/>
<polygon fill="#63b8ff" stroke="#63b8ff" points="208.76,-58.07 201.19,-65.47 211.73,-64.41 208.76,-58.07"/>
</a>
</g>
</g>
</g>
</svg>
</svg>

<style type='text/css'>
<![CDATA[
[data-mouse-over-selected='false'] { opacity: 0.7; }
[data-mouse-over-selected='true']  { opacity: 1.0; }
]]>
</style>
<script type="application/ecmascript"><![CDATA[
document.addEventListener('DOMContentLoaded', (event) => {
  highlightEdges();
  highlightAdjacentNodes();
});
]]></script>
</svg>
