<?xml version="1.0" encoding="UTF-8" standalone="no"?>
<!DOCTYPE svg PUBLIC "-//W3C//DTD SVG 1.1//EN"
 "http://www.w3.org/Graphics/SVG/1.1/DTD/svg11.dtd">
<!-- Generated by graphviz version 14.0.2 (20251019.1705)
 -->
<!-- Title: src/factory/SlitherlinkSolver.cpp Pages: 1 -->
<!--zoomable 304 -->

<svg id="main" version="1.1" xmlns="http://www.w3.org/2000/svg" xmlns:xlink="http://www.w3.org/1999/xlink" xml:space="preserve" onload="init(evt)">

<style type="text/css"><![CDATA[
.node, .edge {opacity: 0.7;}
.node.selected, .edge.selected {opacity: 1;}
.edge:hover path { stroke: red; }
.edge:hover polygon { stroke: red; fill: red; }
]]></style>

<defs>
  <circle id="rim" cx="0" cy="0" r="7"/>
  <circle id="rim2" cx="0" cy="0" r="3.5"/>
  <g id="zoomPlus">
    <use xlink:href="#rim" fill="#404040"><set attributeName="fill" to="#808080" begin="zoomplus.mouseover" end="zoomplus.mouseout"/></use>
    <path d="M-4,0h8M0,-4v8" fill="none" stroke="white" stroke-width="1.5" pointer-events="none"/>
  </g>
  <g id="zoomMin">
    <use xlink:href="#rim" fill="#404040"><set attributeName="fill" to="#808080" begin="zoomminus.mouseover" end="zoomminus.mouseout"/></use>
    <path d="M-4,0h8" fill="none" stroke="white" stroke-width="1.5" pointer-events="none"/>
  </g>
  <g id="arrowUp" transform="translate(30 24)">
    <use xlink:href="#rim"/>
    <path pointer-events="none" fill="none" stroke="white" stroke-width="1.5" d="M0,-3.0v7 M-2.5,-0.5L0,-3.0L2.5,-0.5"/>
  </g>
  <g id="arrowRight" transform="rotate(90) translate(36 -43)">
    <use xlink:href="#rim"/>
    <path pointer-events="none" fill="none" stroke="white" stroke-width="1.5" d="M0,-3.0v7 M-2.5,-0.5L0,-3.0L2.5,-0.5"/>
  </g>
  <g id="arrowDown" transform="rotate(180) translate(-30 -48)">
    <use xlink:href="#rim"/>
    <path pointer-events="none" fill="none" stroke="white" stroke-width="1.5" d="M0,-3.0v7 M-2.5,-0.5L0,-3.0L2.5,-0.5"/>
  </g>
  <g id="arrowLeft" transform="rotate(270) translate(-36 17)">
    <use xlink:href="#rim"/>
    <path pointer-events="none" fill="none" stroke="white" stroke-width="1.5" d="M0,-3.0v7 M-2.5,-0.5L0,-3.0L2.5,-0.5"/>
  </g>
  <g id="resetDef">
    <use xlink:href="#rim2" fill="#404040"><set attributeName="fill" to="#808080" begin="reset.mouseover" end="reset.mouseout"/></use>
  </g>
</defs>
<script type="application/ecmascript">
var viewWidth = 813;
var viewHeight = 304;
var sectionId = 'dynsection-0';
</script>
<script type="application/ecmascript" xlink:href="svg.min.js"/>
<svg id="graph" class="graph">
<g id="viewport">
<title>src/factory/SlitherlinkSolver.cpp</title>
<!-- Node1 -->
<g id="Node000001" class="node">
<title>Node1</title>
<g id="a_Node000001"><a xlink:title=" ">
<polygon fill="#999999" stroke="#666666" points="380.12,-295.5 226.12,-295.5 226.12,-276.25 380.12,-276.25 380.12,-295.5"/>
<text xml:space="preserve" text-anchor="middle" x="303.12" y="-282" font-family="Helvetica,sans-Serif" font-size="10.00">src/factory/SlitherlinkSolver.cpp</text>
</a>
</g>
</g>
<!-- Node2 -->
<g id="Node000002" class="node">
<title>Node2</title>
<g id="a_Node000002"><a xlink:href="_slitherlink_solver_8h.html" target="_top" xlink:title=" ">
<polygon fill="white" stroke="#666666" points="446.62,-240.25 319.62,-240.25 319.62,-221 446.62,-221 446.62,-240.25"/>
<text xml:space="preserve" text-anchor="middle" x="383.12" y="-226.75" font-family="Helvetica,sans-Serif" font-size="10.00">factory/SlitherlinkSolver.h</text>
</a>
</g>
</g>
<!-- Node1&#45;&gt;Node2 -->
<g id="edge1_Node000001_Node000002" class="edge">
<title>Node1&#45;&gt;Node2</title>
<g id="a_edge1_Node000001_Node000002"><a xlink:title=" ">
<path fill="none" stroke="#63b8ff" d="M316.7,-275.84C328.53,-267.96 345.96,-256.36 360,-247.02"/>
<polygon fill="#63b8ff" stroke="#63b8ff" points="361.84,-250 368.23,-241.54 357.96,-244.17 361.84,-250"/>
</a>
</g>
</g>
<!-- Node16 -->
<g id="Node000016" class="node">
<title>Node16</title>
<g id="a_Node000016"><a xlink:title=" ">
<polygon fill="#e0e0e0" stroke="#999999" points="570.88,-185 517.38,-185 517.38,-165.75 570.88,-165.75 570.88,-185"/>
<text xml:space="preserve" text-anchor="middle" x="544.12" y="-171.5" font-family="Helvetica,sans-Serif" font-size="10.00">iostream</text>
</a>
</g>
</g>
<!-- Node1&#45;&gt;Node16 -->
<g id="edge34_Node000001_Node000016" class="edge">
<title>Node1&#45;&gt;Node16</title>
<g id="a_edge34_Node000001_Node000016"><a xlink:title=" ">
<path fill="none" stroke="#63b8ff" d="M349.17,-275.81C380.36,-268.63 421.96,-257 456.12,-240.25 482.3,-227.42 508.91,-206.83 525.91,-192.51"/>
<polygon fill="#63b8ff" stroke="#63b8ff" points="527.86,-195.45 533.16,-186.27 523.3,-190.14 527.86,-195.45"/>
</a>
</g>
</g>
<!-- Node17 -->
<g id="Node000017" class="node">
<title>Node17</title>
<g id="a_Node000017"><a xlink:href="_solution_collector_8h.html" target="_top" xlink:title=" ">
<polygon fill="white" stroke="#666666" points="108.25,-185 0,-185 0,-165.75 108.25,-165.75 108.25,-185"/>
<text xml:space="preserve" text-anchor="middle" x="54.12" y="-171.5" font-family="Helvetica,sans-Serif" font-size="10.00">io/SolutionCollector.h</text>
</a>
</g>
</g>
<!-- Node1&#45;&gt;Node17 -->
<g id="edge24_Node000001_Node000017" class="edge">
<title>Node1&#45;&gt;Node17</title>
<g id="a_edge24_Node000001_Node000017"><a xlink:title=" ">
<path fill="none" stroke="#63b8ff" d="M275.39,-275.89C250.22,-267.48 212.23,-254.15 180.12,-240.25 144.68,-224.9 105.15,-204.26 79.99,-190.65"/>
<polygon fill="#63b8ff" stroke="#63b8ff" points="81.92,-187.72 71.46,-186.01 78.57,-193.86 81.92,-187.72"/>
</a>
</g>
</g>
<!-- Node18 -->
<g id="Node000018" class="node">
<title>Node18</title>
<g id="a_Node000018"><a xlink:href="_solution_printer_8h.html" target="_top" xlink:title=" ">
<polygon fill="white" stroke="#666666" points="287,-240.25 189.25,-240.25 189.25,-221 287,-221 287,-240.25"/>
<text xml:space="preserve" text-anchor="middle" x="238.12" y="-226.75" font-family="Helvetica,sans-Serif" font-size="10.00">io/SolutionPrinter.h</text>
</a>
</g>
</g>
<!-- Node1&#45;&gt;Node18 -->
<g id="edge28_Node000001_Node000018" class="edge">
<title>Node1&#45;&gt;Node18</title>
<g id="a_edge28_Node000001_Node000018"><a xlink:title=" ">
<path fill="none" stroke="#63b8ff" d="M292.1,-275.84C282.7,-268.15 268.98,-256.9 257.72,-247.68"/>
<polygon fill="#63b8ff" stroke="#63b8ff" points="260.11,-245.11 250.16,-241.48 255.68,-250.53 260.11,-245.11"/>
</a>
</g>
</g>
<!-- Node3 -->
<g id="Node000003" class="node">
<title>Node3</title>
<g id="a_Node000003"><a xlink:href="_grid_8h.html" target="_top" xlink:title=" ">
<polygon fill="white" stroke="#666666" points="791.12,-129.75 727.12,-129.75 727.12,-110.5 791.12,-110.5 791.12,-129.75"/>
<text xml:space="preserve" text-anchor="middle" x="759.12" y="-116.25" font-family="Helvetica,sans-Serif" font-size="10.00">core/Grid.h</text>
</a>
</g>
</g>
<!-- Node2&#45;&gt;Node3 -->
<g id="edge2_Node000002_Node000003" class="edge">
<title>Node2&#45;&gt;Node3</title>
<g id="a_edge2_Node000002_Node000003"><a xlink:title=" ">
<path fill="none" stroke="#63b8ff" d="M399.39,-220.54C427.95,-204.73 486.17,-173.1 508.12,-165.75 595.84,-136.38 622.11,-146.27 713.12,-129.75 713.96,-129.6 714.81,-129.44 715.67,-129.29"/>
<polygon fill="#63b8ff" stroke="#63b8ff" points="716.28,-132.73 725.47,-127.48 715.01,-125.85 716.28,-132.73"/>
</a>
</g>
</g>
<!-- Node6 -->
<g id="Node000006" class="node">
<title>Node6</title>
<g id="a_Node000006"><a xlink:href="_solver_8h.html" target="_top" xlink:title=" ">
<polygon fill="white" stroke="#666666" points="423.38,-185 342.88,-185 342.88,-165.75 423.38,-165.75 423.38,-185"/>
<text xml:space="preserve" text-anchor="middle" x="383.12" y="-171.5" font-family="Helvetica,sans-Serif" font-size="10.00">solver/Solver.h</text>
</a>
</g>
</g>
<!-- Node2&#45;&gt;Node6 -->
<g id="edge5_Node000002_Node000006" class="edge">
<title>Node2&#45;&gt;Node6</title>
<g id="a_edge5_Node000002_Node000006"><a xlink:title=" ">
<path fill="none" stroke="#63b8ff" d="M383.12,-220.83C383.12,-214.32 383.12,-205.17 383.12,-196.87"/>
<polygon fill="#63b8ff" stroke="#63b8ff" points="386.63,-196.87 383.13,-186.87 379.63,-196.87 386.63,-196.87"/>
</a>
</g>
</g>
<!-- Node14 -->
<g id="Node000014" class="node">
<title>Node14</title>
<g id="a_Node000014"><a xlink:title=" ">
<polygon fill="#e0e0e0" stroke="#999999" points="245.75,-129.75 194.5,-129.75 194.5,-110.5 245.75,-110.5 245.75,-129.75"/>
<text xml:space="preserve" text-anchor="middle" x="220.12" y="-116.25" font-family="Helvetica,sans-Serif" font-size="10.00">memory</text>
</a>
</g>
</g>
<!-- Node2&#45;&gt;Node14 -->
<g id="edge22_Node000002_Node000014" class="edge">
<title>Node2&#45;&gt;Node14</title>
<g id="a_edge22_Node000002_Node000014"><a xlink:title=" ">
<path fill="none" stroke="#63b8ff" d="M369.51,-220.56C341.51,-201.93 277.24,-159.15 242.84,-136.25"/>
<polygon fill="#63b8ff" stroke="#63b8ff" points="245.11,-133.55 234.85,-130.93 241.23,-139.38 245.11,-133.55"/>
</a>
</g>
</g>
<!-- Node2&#45;&gt;Node16 -->
<g id="edge23_Node000002_Node000016" class="edge">
<title>Node2&#45;&gt;Node16</title>
<g id="a_edge23_Node000002_Node000016"><a xlink:title=" ">
<path fill="none" stroke="#63b8ff" d="M410.44,-220.59C436.77,-211.88 476.84,-198.63 506.25,-188.9"/>
<polygon fill="#63b8ff" stroke="#63b8ff" points="507.12,-192.3 515.51,-185.84 504.92,-185.66 507.12,-192.3"/>
</a>
</g>
</g>
<!-- Node4 -->
<g id="Node000004" class="node">
<title>Node4</title>
<g id="a_Node000004"><a xlink:title=" ">
<polygon fill="#e0e0e0" stroke="#999999" points="295.62,-19.25 252.62,-19.25 252.62,0 295.62,0 295.62,-19.25"/>
<text xml:space="preserve" text-anchor="middle" x="274.12" y="-5.75" font-family="Helvetica,sans-Serif" font-size="10.00">vector</text>
</a>
</g>
</g>
<!-- Node3&#45;&gt;Node4 -->
<g id="edge3_Node000003_Node000004" class="edge">
<title>Node3&#45;&gt;Node4</title>
<g id="a_edge3_Node000003_Node000004"><a xlink:title=" ">
<path fill="none" stroke="#63b8ff" d="M755.62,-110.26C749.44,-95.92 735.13,-67.97 713.12,-55.25 644.16,-15.4 397.59,-10.84 307.44,-10.54"/>
<polygon fill="#63b8ff" stroke="#63b8ff" points="307.55,-7.04 297.54,-10.52 307.54,-14.04 307.55,-7.04"/>
</a>
</g>
</g>
<!-- Node5 -->
<g id="Node000005" class="node">
<title>Node5</title>
<g id="a_Node000005"><a xlink:title=" ">
<polygon fill="#e0e0e0" stroke="#999999" points="805.12,-74.5 765.12,-74.5 765.12,-55.25 805.12,-55.25 805.12,-74.5"/>
<text xml:space="preserve" text-anchor="middle" x="785.12" y="-61" font-family="Helvetica,sans-Serif" font-size="10.00">string</text>
</a>
</g>
</g>
<!-- Node3&#45;&gt;Node5 -->
<g id="edge4_Node000003_Node000005" class="edge">
<title>Node3&#45;&gt;Node5</title>
<g id="a_edge4_Node000003_Node000005"><a xlink:title=" ">
<path fill="none" stroke="#63b8ff" d="M763.42,-110.33C766.75,-103.51 771.49,-93.81 775.69,-85.2"/>
<polygon fill="#63b8ff" stroke="#63b8ff" points="778.83,-86.74 780.07,-76.22 772.54,-83.67 778.83,-86.74"/>
</a>
</g>
</g>
<!-- Node6&#45;&gt;Node3 -->
<g id="edge6_Node000006_Node000003" class="edge">
<title>Node6&#45;&gt;Node3</title>
<g id="a_edge6_Node000006_Node000003"><a xlink:title=" ">
<path fill="none" stroke="#63b8ff" d="M423.8,-167.75C428.29,-167.06 432.8,-166.38 437.12,-165.75 559.55,-147.99 590.95,-149.16 713.12,-129.75 713.97,-129.62 714.82,-129.48 715.68,-129.34"/>
<polygon fill="#63b8ff" stroke="#63b8ff" points="716.24,-132.79 725.5,-127.64 715.05,-125.89 716.24,-132.79"/>
</a>
</g>
</g>
<!-- Node6&#45;&gt;Node4 -->
<g id="edge19_Node000006_Node000004" class="edge">
<title>Node6&#45;&gt;Node4</title>
<g id="a_edge19_Node000006_Node000004"><a xlink:title=" ">
<path fill="none" stroke="#63b8ff" d="M423.83,-166.48C425.28,-166.23 426.71,-165.99 428.12,-165.75 541.22,-146.85 750.86,-200.74 680.12,-110.5 633.67,-51.23 395.81,-22.43 307.33,-13.64"/>
<polygon fill="#63b8ff" stroke="#63b8ff" points="307.67,-10.16 297.38,-12.68 307,-17.12 307.67,-10.16"/>
</a>
</g>
</g>
<!-- Node7 -->
<g id="Node000007" class="node">
<title>Node7</title>
<g id="a_Node000007"><a xlink:href="_edge_8h.html" target="_top" xlink:title=" ">
<polygon fill="white" stroke="#666666" points="607.5,-129.75 560.75,-129.75 560.75,-110.5 607.5,-110.5 607.5,-129.75"/>
<text xml:space="preserve" text-anchor="middle" x="584.12" y="-116.25" font-family="Helvetica,sans-Serif" font-size="10.00">Edge.h</text>
</a>
</g>
</g>
<!-- Node6&#45;&gt;Node7 -->
<g id="edge7_Node000006_Node000007" class="edge">
<title>Node6&#45;&gt;Node7</title>
<g id="a_edge7_Node000006_Node000007"><a xlink:title=" ">
<path fill="none" stroke="#63b8ff" d="M417.22,-165.34C454.07,-155.58 512.47,-140.11 549.51,-130.29"/>
<polygon fill="#63b8ff" stroke="#63b8ff" points="550.04,-133.77 558.81,-127.83 548.25,-127.01 550.04,-133.77"/>
</a>
</g>
</g>
<!-- Node8 -->
<g id="Node000008" class="node">
<title>Node8</title>
<g id="a_Node000008"><a xlink:href="_state_8h.html" target="_top" xlink:title=" ">
<polygon fill="white" stroke="#666666" points="406.88,-74.5 359.38,-74.5 359.38,-55.25 406.88,-55.25 406.88,-74.5"/>
<text xml:space="preserve" text-anchor="middle" x="383.12" y="-61" font-family="Helvetica,sans-Serif" font-size="10.00">State.h</text>
</a>
</g>
</g>
<!-- Node6&#45;&gt;Node8 -->
<g id="edge8_Node000006_Node000008" class="edge">
<title>Node6&#45;&gt;Node8</title>
<g id="a_edge8_Node000006_Node000008"><a xlink:title=" ">
<path fill="none" stroke="#63b8ff" d="M397.4,-165.45C414.09,-153.79 438.34,-132.27 429.12,-110.5 424.36,-99.24 415.22,-89.43 406.33,-81.9"/>
<polygon fill="#63b8ff" stroke="#63b8ff" points="408.59,-79.22 398.55,-75.83 404.28,-84.74 408.59,-79.22"/>
</a>
</g>
</g>
<!-- Node9 -->
<g id="Node000009" class="node">
<title>Node9</title>
<g id="a_Node000009"><a xlink:href="_solution_8h.html" target="_top" xlink:title=" ">
<polygon fill="white" stroke="#666666" points="137.88,-129.75 78.38,-129.75 78.38,-110.5 137.88,-110.5 137.88,-129.75"/>
<text xml:space="preserve" text-anchor="middle" x="108.12" y="-116.25" font-family="Helvetica,sans-Serif" font-size="10.00">Solution.h</text>
</a>
</g>
</g>
<!-- Node6&#45;&gt;Node9 -->
<g id="edge10_Node000006_Node000009" class="edge">
<title>Node6&#45;&gt;Node9</title>
<g id="a_edge10_Node000006_Node000009"><a xlink:title=" ">
<path fill="none" stroke="#63b8ff" d="M342.55,-166.52C290.74,-156.49 201.57,-139.22 149.42,-129.12"/>
<polygon fill="#63b8ff" stroke="#63b8ff" points="150.22,-125.71 139.74,-127.25 148.89,-132.58 150.22,-125.71"/>
</a>
</g>
</g>
<!-- Node11 -->
<g id="Node000011" class="node">
<title>Node11</title>
<g id="a_Node000011"><a xlink:href="_i_heuristic_8h.html" target="_top" xlink:title=" ">
<polygon fill="white" stroke="#666666" points="542.25,-129.75 476,-129.75 476,-110.5 542.25,-110.5 542.25,-129.75"/>
<text xml:space="preserve" text-anchor="middle" x="509.12" y="-116.25" font-family="Helvetica,sans-Serif" font-size="10.00">IHeuristic.h</text>
</a>
</g>
</g>
<!-- Node6&#45;&gt;Node11 -->
<g id="edge13_Node000006_Node000011" class="edge">
<title>Node6&#45;&gt;Node11</title>
<g id="a_edge13_Node000006_Node000011"><a xlink:title=" ">
<path fill="none" stroke="#63b8ff" d="M404.5,-165.34C424.41,-156.93 454.36,-144.27 477.13,-134.65"/>
<polygon fill="#63b8ff" stroke="#63b8ff" points="478.4,-137.91 486.25,-130.79 475.68,-131.46 478.4,-137.91"/>
</a>
</g>
</g>
<!-- Node12 -->
<g id="Node000012" class="node">
<title>Node12</title>
<g id="a_Node000012"><a xlink:href="_i_validator_8h.html" target="_top" xlink:title=" ">
<polygon fill="white" stroke="#666666" points="328.12,-129.75 264.12,-129.75 264.12,-110.5 328.12,-110.5 328.12,-129.75"/>
<text xml:space="preserve" text-anchor="middle" x="296.12" y="-116.25" font-family="Helvetica,sans-Serif" font-size="10.00">IValidator.h</text>
</a>
</g>
</g>
<!-- Node6&#45;&gt;Node12 -->
<g id="edge15_Node000006_Node000012" class="edge">
<title>Node6&#45;&gt;Node12</title>
<g id="a_edge15_Node000006_Node000012"><a xlink:title=" ">
<path fill="none" stroke="#63b8ff" d="M368.37,-165.34C355.24,-157.31 335.8,-145.41 320.39,-135.98"/>
<polygon fill="#63b8ff" stroke="#63b8ff" points="322.6,-133.23 312.25,-130.99 318.95,-139.2 322.6,-133.23"/>
</a>
</g>
</g>
<!-- Node13 -->
<g id="Node000013" class="node">
<title>Node13</title>
<g id="a_Node000013"><a xlink:href="_i_propagator_8h.html" target="_top" xlink:title=" ">
<polygon fill="white" stroke="#666666" points="420,-129.75 346.25,-129.75 346.25,-110.5 420,-110.5 420,-129.75"/>
<text xml:space="preserve" text-anchor="middle" x="383.12" y="-116.25" font-family="Helvetica,sans-Serif" font-size="10.00">IPropagator.h</text>
</a>
</g>
</g>
<!-- Node6&#45;&gt;Node13 -->
<g id="edge17_Node000006_Node000013" class="edge">
<title>Node6&#45;&gt;Node13</title>
<g id="a_edge17_Node000006_Node000013"><a xlink:title=" ">
<path fill="none" stroke="#63b8ff" d="M383.12,-165.58C383.12,-159.07 383.12,-149.92 383.12,-141.62"/>
<polygon fill="#63b8ff" stroke="#63b8ff" points="386.63,-141.62 383.13,-131.62 379.63,-141.62 386.63,-141.62"/>
</a>
</g>
</g>
<!-- Node6&#45;&gt;Node14 -->
<g id="edge20_Node000006_Node000014" class="edge">
<title>Node6&#45;&gt;Node14</title>
<g id="a_edge20_Node000006_Node000014"><a xlink:title=" ">
<path fill="none" stroke="#63b8ff" d="M355.47,-165.34C328.33,-156.47 286.77,-142.9 256.86,-133.13"/>
<polygon fill="#63b8ff" stroke="#63b8ff" points="258.06,-129.83 247.46,-130.06 255.88,-136.49 258.06,-129.83"/>
</a>
</g>
</g>
<!-- Node15 -->
<g id="Node000015" class="node">
<title>Node15</title>
<g id="a_Node000015"><a xlink:title=" ">
<polygon fill="#e0e0e0" stroke="#999999" points="670.75,-129.75 625.5,-129.75 625.5,-110.5 670.75,-110.5 670.75,-129.75"/>
<text xml:space="preserve" text-anchor="middle" x="648.12" y="-116.25" font-family="Helvetica,sans-Serif" font-size="10.00">atomic</text>
</a>
</g>
</g>
<!-- Node6&#45;&gt;Node15 -->
<g id="edge21_Node000006_Node000015" class="edge">
<title>Node6&#45;&gt;Node15</title>
<g id="a_edge21_Node000006_Node000015"><a xlink:title=" ">
<path fill="none" stroke="#63b8ff" d="M423.72,-167.54C468.09,-159.86 541.48,-146.56 613.95,-130.11"/>
<polygon fill="#63b8ff" stroke="#63b8ff" points="614.67,-133.53 623.63,-127.89 613.1,-126.71 614.67,-133.53"/>
</a>
</g>
</g>
<!-- Node8&#45;&gt;Node4 -->
<g id="edge9_Node000008_Node000004" class="edge">
<title>Node8&#45;&gt;Node4</title>
<g id="a_edge9_Node000008_Node000004"><a xlink:title=" ">
<path fill="none" stroke="#63b8ff" d="M364.63,-54.84C347.72,-46.58 322.44,-34.23 302.89,-24.68"/>
<polygon fill="#63b8ff" stroke="#63b8ff" points="304.59,-21.61 294.07,-20.37 301.51,-27.9 304.59,-21.61"/>
</a>
</g>
</g>
<!-- Node9&#45;&gt;Node4 -->
<g id="edge11_Node000009_Node000004" class="edge">
<title>Node9&#45;&gt;Node4</title>
<g id="a_edge11_Node000009_Node000004"><a xlink:title=" ">
<path fill="none" stroke="#63b8ff" d="M102.96,-110.24C95.93,-96.86 85.58,-71.37 98.12,-55.25 115.53,-32.88 195.34,-19.92 241.29,-14.18"/>
<polygon fill="#63b8ff" stroke="#63b8ff" points="241.44,-17.69 250.95,-13.03 240.6,-10.74 241.44,-17.69"/>
</a>
</g>
</g>
<!-- Node10 -->
<g id="Node000010" class="node">
<title>Node10</title>
<g id="a_Node000010"><a xlink:title=" ">
<polygon fill="#e0e0e0" stroke="#999999" points="146.75,-74.5 107.5,-74.5 107.5,-55.25 146.75,-55.25 146.75,-74.5"/>
<text xml:space="preserve" text-anchor="middle" x="127.12" y="-61" font-family="Helvetica,sans-Serif" font-size="10.00">utility</text>
</a>
</g>
</g>
<!-- Node9&#45;&gt;Node10 -->
<g id="edge12_Node000009_Node000010" class="edge">
<title>Node9&#45;&gt;Node10</title>
<g id="a_edge12_Node000009_Node000010"><a xlink:title=" ">
<path fill="none" stroke="#63b8ff" d="M111.26,-110.33C113.67,-103.59 117.08,-94.02 120.13,-85.49"/>
<polygon fill="#63b8ff" stroke="#63b8ff" points="123.35,-86.88 123.41,-76.28 116.75,-84.53 123.35,-86.88"/>
</a>
</g>
</g>
<!-- Node11&#45;&gt;Node8 -->
<g id="edge14_Node000011_Node000008" class="edge">
<title>Node11&#45;&gt;Node8</title>
<g id="a_edge14_Node000011_Node000008"><a xlink:title=" ">
<path fill="none" stroke="#63b8ff" d="M487.75,-110.09C467.84,-101.68 437.89,-89.02 415.12,-79.4"/>
<polygon fill="#63b8ff" stroke="#63b8ff" points="416.57,-76.21 406,-75.54 413.85,-82.66 416.57,-76.21"/>
</a>
</g>
</g>
<!-- Node12&#45;&gt;Node8 -->
<g id="edge16_Node000012_Node000008" class="edge">
<title>Node12&#45;&gt;Node8</title>
<g id="a_edge16_Node000012_Node000008"><a xlink:title=" ">
<path fill="none" stroke="#63b8ff" d="M310.88,-110.09C324.01,-102.06 343.45,-90.16 358.86,-80.73"/>
<polygon fill="#63b8ff" stroke="#63b8ff" points="360.3,-83.95 367,-75.74 356.65,-77.98 360.3,-83.95"/>
</a>
</g>
</g>
<!-- Node13&#45;&gt;Node8 -->
<g id="edge18_Node000013_Node000008" class="edge">
<title>Node13&#45;&gt;Node8</title>
<g id="a_edge18_Node000013_Node000008"><a xlink:title=" ">
<path fill="none" stroke="#63b8ff" d="M383.12,-110.33C383.12,-103.82 383.12,-94.67 383.12,-86.37"/>
<polygon fill="#63b8ff" stroke="#63b8ff" points="386.63,-86.37 383.13,-76.37 379.63,-86.37 386.63,-86.37"/>
</a>
</g>
</g>
<!-- Node17&#45;&gt;Node4 -->
<g id="edge26_Node000017_Node000004" class="edge">
<title>Node17&#45;&gt;Node4</title>
<g id="a_edge26_Node000017_Node000004"><a xlink:title=" ">
<path fill="none" stroke="#63b8ff" d="M53.74,-165.28C53.34,-142.88 55.65,-84.75 88.12,-55.25 110.33,-35.08 193.85,-21.15 241.07,-14.7"/>
<polygon fill="#63b8ff" stroke="#63b8ff" points="241.28,-18.2 250.73,-13.42 240.36,-11.26 241.28,-18.2"/>
</a>
</g>
</g>
<!-- Node17&#45;&gt;Node9 -->
<g id="edge25_Node000017_Node000009" class="edge">
<title>Node17&#45;&gt;Node9</title>
<g id="a_edge25_Node000017_Node000009"><a xlink:title=" ">
<path fill="none" stroke="#63b8ff" d="M63.04,-165.58C70.58,-158.15 81.59,-147.29 90.85,-138.16"/>
<polygon fill="#63b8ff" stroke="#63b8ff" points="93.27,-140.69 97.94,-131.17 88.36,-135.7 93.27,-140.69"/>
</a>
</g>
</g>
<!-- Node17&#45;&gt;Node14 -->
<g id="edge27_Node000017_Node000014" class="edge">
<title>Node17&#45;&gt;Node14</title>
<g id="a_edge27_Node000017_Node000014"><a xlink:title=" ">
<path fill="none" stroke="#63b8ff" d="M82.28,-165.34C110.13,-156.41 152.88,-142.7 183.39,-132.91"/>
<polygon fill="#63b8ff" stroke="#63b8ff" points="184.12,-136.35 192.58,-129.96 181.99,-129.68 184.12,-136.35"/>
</a>
</g>
</g>
<!-- Node18&#45;&gt;Node3 -->
<g id="edge29_Node000018_Node000003" class="edge">
<title>Node18&#45;&gt;Node3</title>
<g id="a_edge29_Node000018_Node000003"><a xlink:title=" ">
<path fill="none" stroke="#63b8ff" d="M287.18,-222.56C327.16,-215.81 384.57,-203.83 432.12,-185 447.91,-178.75 449.1,-171.35 465.12,-165.75 570.27,-129.02 603.26,-148.02 713.12,-129.75 713.97,-129.61 714.82,-129.47 715.67,-129.32"/>
<polygon fill="#63b8ff" stroke="#63b8ff" points="716.25,-132.77 725.49,-127.59 715.04,-125.88 716.25,-132.77"/>
</a>
</g>
</g>
<!-- Node18&#45;&gt;Node4 -->
<g id="edge32_Node000018_Node000004" class="edge">
<title>Node18&#45;&gt;Node4</title>
<g id="a_edge32_Node000018_Node000004"><a xlink:title=" ">
<path fill="none" stroke="#63b8ff" d="M234.18,-220.81C228.52,-208.36 217.65,-185 207.12,-165.75 198.13,-149.3 190.2,-147.8 185.12,-129.75 182.81,-121.51 182.08,-118.5 185.12,-110.5 198.59,-75.15 230.96,-44.35 252.72,-26.62"/>
<polygon fill="#63b8ff" stroke="#63b8ff" points="254.7,-29.51 260.39,-20.57 250.37,-24.01 254.7,-29.51"/>
</a>
</g>
</g>
<!-- Node18&#45;&gt;Node9 -->
<g id="edge30_Node000018_Node000009" class="edge">
<title>Node18&#45;&gt;Node9</title>
<g id="a_edge30_Node000018_Node000009"><a xlink:title=" ">
<path fill="none" stroke="#63b8ff" d="M214.95,-220.5C197.29,-212.8 173.04,-200.55 155.12,-185 140.19,-172.04 127.22,-153.52 118.71,-139.75"/>
<polygon fill="#63b8ff" stroke="#63b8ff" points="121.77,-138.05 113.66,-131.24 115.75,-141.62 121.77,-138.05"/>
</a>
</g>
</g>
<!-- Node18&#45;&gt;Node16 -->
<g id="edge31_Node000018_Node000016" class="edge">
<title>Node18&#45;&gt;Node16</title>
<g id="a_edge31_Node000018_Node000016"><a xlink:title=" ">
<path fill="none" stroke="#63b8ff" d="M287.29,-221.07C348.17,-210.47 450.59,-192.65 505.91,-183.03"/>
<polygon fill="#63b8ff" stroke="#63b8ff" points="506.22,-186.52 515.47,-181.36 505.02,-179.63 506.22,-186.52"/>
</a>
</g>
</g>
<!-- Node19 -->
<g id="Node000019" class="node">
<title>Node19</title>
<g id="a_Node000019"><a xlink:title=" ">
<polygon fill="#e0e0e0" stroke="#999999" points="198.5,-185 163.75,-185 163.75,-165.75 198.5,-165.75 198.5,-185"/>
<text xml:space="preserve" text-anchor="middle" x="181.12" y="-171.5" font-family="Helvetica,sans-Serif" font-size="10.00">map</text>
</a>
</g>
</g>
<!-- Node18&#45;&gt;Node19 -->
<g id="edge33_Node000018_Node000019" class="edge">
<title>Node18&#45;&gt;Node19</title>
<g id="a_edge33_Node000018_Node000019"><a xlink:title=" ">
<path fill="none" stroke="#63b8ff" d="M228.46,-220.59C220.38,-213.05 208.66,-202.1 198.9,-192.98"/>
<polygon fill="#63b8ff" stroke="#63b8ff" points="201.45,-190.58 191.76,-186.31 196.68,-195.69 201.45,-190.58"/>
</a>
</g>
</g>
</g>
</svg>

<g id="navigator" transform="translate(0 0)" fill="#404254">
  <rect fill="#f2f5e9" fill-opacity="0.5" stroke="#606060" stroke-width=".5" x="0" y="0" width="60" height="60"/>
  <use id="zoomplus" xlink:href="#zoomPlus" x="17" y="9" onmousedown="handleZoom(evt,'in')"/>
  <use id="zoomminus" xlink:href="#zoomMin" x="42" y="9" onmousedown="handleZoom(evt,'out')"/>
  <use id="reset" xlink:href="#resetDef" x="30" y="36" onmousedown="handleReset()"/>
   <use id="arrowup" xlink:href="#arrowUp" x="0" y="0" onmousedown="handlePan(0,-1)"/>
  <use id="arrowright" xlink:href="#arrowRight" x="0" y="0" onmousedown="handlePan(1,0)"/>
  <use id="arrowdown" xlink:href="#arrowDown" x="0" y="0" onmousedown="handlePan(0,1)"/>
  <use id="arrowleft" xlink:href="#arrowLeft" x="0" y="0" onmousedown="handlePan(-1,0)"/>
</g>
<svg viewBox="0 0 15 15" width="100%" height="30px" preserveAspectRatio="xMaxYMin meet">
 <g id="arrow_out" transform="scale(0.3 0.3)">
  <a xlink:href="_slitherlink_solver_8cpp__incl_org.svg" target="_base">
   <rect id="button" ry="5" rx="5" y="6" x="6" height="38" width="38"
        fill="#f2f5e9" fill-opacity="0.5" stroke="#606060" stroke-width="1.0"/>
   <path id="arrow"
     d="M 11.500037,31.436501 C 11.940474,20.09759 22.043105,11.32322 32.158766,21.979434 L 37.068811,17.246167 C 37.068811,17.246167 37.088388,32 37.088388,32 L 22.160133,31.978069 C 22.160133,31.978069 26.997745,27.140456 26.997745,27.140456 C 18.528582,18.264221 13.291696,25.230495 11.500037,31.436501 z"
     style="fill:#404040;"/>
  </a>
 </g>
</svg>

<style type='text/css'>
<![CDATA[
[data-mouse-over-selected='false'] { opacity: 0.7; }
[data-mouse-over-selected='true']  { opacity: 1.0; }
]]>
</style>
<script type="application/ecmascript"><![CDATA[
document.addEventListener('DOMContentLoaded', (event) => {
  highlightEdges();
  highlightAdjacentNodes();
});
]]></script>
</svg>
