<?xml version="1.0" encoding="UTF-8" standalone="no"?>
<!DOCTYPE svg PUBLIC "-//W3C//DTD SVG 1.1//EN"
 "http://www.w3.org/Graphics/SVG/1.1/DTD/svg11.dtd">
<!-- Generated by graphviz version 14.0.2 (20251019.1705)
 -->
<!-- Title: include/slitherlink/Slitherlink.h Pages: 1 -->
<svg width="1105pt" height="349pt"
 viewBox="0.00 0.00 1105.00 349.00" xmlns="http://www.w3.org/2000/svg" xmlns:xlink="http://www.w3.org/1999/xlink">
<g id="graph0" class="graph" transform="scale(1 1) rotate(0) translate(4 344.5)">
<title>include/slitherlink/Slitherlink.h</title>
<!-- Node1 -->
<g id="Node000001" class="node">
<title>Node1</title>
<g id="a_Node000001"><a xlink:title=" ">
<polygon fill="#999999" stroke="#666666" points="340.62,-340.5 249.62,-340.5 249.62,-310 340.62,-310 340.62,-340.5"/>
<text xml:space="preserve" text-anchor="start" x="257.62" y="-327" font-family="Helvetica,sans-Serif" font-size="10.00">include/slitherlink</text>
<text xml:space="preserve" text-anchor="middle" x="295.12" y="-315.75" font-family="Helvetica,sans-Serif" font-size="10.00">/Slitherlink.h</text>
</a>
</g>
</g>
<!-- Node2 -->
<g id="Node000002" class="node">
<title>Node2</title>
<g id="a_Node000002"><a xlink:href="_config_8h.html" target="_top" xlink:title=" ">
<polygon fill="white" stroke="#666666" points="303.62,-201.88 206.62,-201.88 206.62,-182.62 303.62,-182.62 303.62,-201.88"/>
<text xml:space="preserve" text-anchor="middle" x="255.12" y="-188.38" font-family="Helvetica,sans-Serif" font-size="10.00">slitherlink/Config.h</text>
</a>
</g>
</g>
<!-- Node1&#45;&gt;Node2 -->
<g id="edge1_Node000001_Node000002" class="edge">
<title>Node1&#45;&gt;Node2</title>
<g id="a_edge1_Node000001_Node000002"><a xlink:title=" ">
<path fill="none" stroke="#63b8ff" d="M290.03,-309.8C286.55,-299.79 281.9,-286.13 278.12,-274 271.7,-253.37 265.01,-229.56 260.51,-213.17"/>
<polygon fill="#63b8ff" stroke="#63b8ff" points="263.94,-212.44 257.93,-203.71 257.18,-214.28 263.94,-212.44"/>
</a>
</g>
</g>
<!-- Node5 -->
<g id="Node000005" class="node">
<title>Node5</title>
<g id="a_Node000005"><a xlink:href="_grid_8h.html" target="_top" xlink:title=" ">
<polygon fill="white" stroke="#666666" points="108.25,-74.5 0,-74.5 0,-55.25 108.25,-55.25 108.25,-74.5"/>
<text xml:space="preserve" text-anchor="middle" x="54.12" y="-61" font-family="Helvetica,sans-Serif" font-size="10.00">slitherlink/core/Grid.h</text>
</a>
</g>
</g>
<!-- Node1&#45;&gt;Node5 -->
<g id="edge4_Node000001_Node000005" class="edge">
<title>Node1&#45;&gt;Node5</title>
<g id="a_edge4_Node000001_Node000005"><a xlink:title=" ">
<path fill="none" stroke="#63b8ff" d="M249.15,-317.11C191.61,-305.43 95.36,-276.24 52.12,-207.5 28.41,-169.8 39.25,-114.55 47.63,-85.46"/>
<polygon fill="#63b8ff" stroke="#63b8ff" points="50.89,-86.75 50.51,-76.16 44.2,-84.68 50.89,-86.75"/>
</a>
</g>
</g>
<!-- Node7 -->
<g id="Node000007" class="node">
<title>Node7</title>
<g id="a_Node000007"><a xlink:href="_solution_8h.html" target="_top" xlink:title=" ">
<polygon fill="white" stroke="#666666" points="1027.88,-74.5 902.38,-74.5 902.38,-55.25 1027.88,-55.25 1027.88,-74.5"/>
<text xml:space="preserve" text-anchor="middle" x="965.12" y="-61" font-family="Helvetica,sans-Serif" font-size="10.00">slitherlink/core/Solution.h</text>
</a>
</g>
</g>
<!-- Node1&#45;&gt;Node7 -->
<g id="edge6_Node000001_Node000007" class="edge">
<title>Node1&#45;&gt;Node7</title>
<g id="a_edge6_Node000001_Node000007"><a xlink:title=" ">
<path fill="none" stroke="#63b8ff" d="M340.96,-318.9C479.53,-301.69 889.32,-242.87 967.12,-141 979.11,-125.31 976.23,-101.93 971.87,-85.43"/>
<polygon fill="#63b8ff" stroke="#63b8ff" points="975.34,-84.82 969.07,-76.28 968.65,-86.87 975.34,-84.82"/>
</a>
</g>
</g>
<!-- Node9 -->
<g id="Node000009" class="node">
<title>Node9</title>
<g id="a_Node000009"><a xlink:href="_solver_factory_8h.html" target="_top" xlink:title=" ">
<polygon fill="white" stroke="#666666" points="377.25,-274 287,-274 287,-243.5 377.25,-243.5 377.25,-274"/>
<text xml:space="preserve" text-anchor="start" x="295" y="-260.5" font-family="Helvetica,sans-Serif" font-size="10.00">slitherlink/factory</text>
<text xml:space="preserve" text-anchor="middle" x="332.12" y="-249.25" font-family="Helvetica,sans-Serif" font-size="10.00">/SolverFactory.h</text>
</a>
</g>
</g>
<!-- Node1&#45;&gt;Node9 -->
<g id="edge9_Node000001_Node000009" class="edge">
<title>Node1&#45;&gt;Node9</title>
<g id="a_edge9_Node000001_Node000009"><a xlink:title=" ">
<path fill="none" stroke="#63b8ff" d="M303.52,-309.61C307.83,-302.11 313.18,-292.77 318.09,-284.21"/>
<polygon fill="#63b8ff" stroke="#63b8ff" points="321.07,-286.06 323.01,-275.64 315,-282.57 321.07,-286.06"/>
</a>
</g>
</g>
<!-- Node10 -->
<g id="Node000010" class="node">
<title>Node10</title>
<g id="a_Node000010"><a xlink:href="_slitherlink_solver_8h.html" target="_top" xlink:title=" ">
<polygon fill="white" stroke="#666666" points="537.62,-207.5 440.62,-207.5 440.62,-177 537.62,-177 537.62,-207.5"/>
<text xml:space="preserve" text-anchor="start" x="448.62" y="-194" font-family="Helvetica,sans-Serif" font-size="10.00">slitherlink/factory</text>
<text xml:space="preserve" text-anchor="middle" x="489.12" y="-182.75" font-family="Helvetica,sans-Serif" font-size="10.00">/SlitherlinkSolver.h</text>
</a>
</g>
</g>
<!-- Node1&#45;&gt;Node10 -->
<g id="edge35_Node000001_Node000010" class="edge">
<title>Node1&#45;&gt;Node10</title>
<g id="a_edge35_Node000001_Node000010"><a xlink:title=" ">
<path fill="none" stroke="#63b8ff" d="M324.51,-309.56C342.69,-300.1 366.26,-287.15 386.12,-274 413.73,-255.73 443.27,-232.1 463.61,-215.13"/>
<polygon fill="#63b8ff" stroke="#63b8ff" points="465.71,-217.94 471.11,-208.82 461.2,-212.58 465.71,-217.94"/>
</a>
</g>
</g>
<!-- Node22 -->
<g id="Node000022" class="node">
<title>Node22</title>
<g id="a_Node000022"><a xlink:href="_grid_reader_8h.html" target="_top" xlink:title=" ">
<polygon fill="white" stroke="#666666" points="189,-201.88 61.25,-201.88 61.25,-182.62 189,-182.62 189,-201.88"/>
<text xml:space="preserve" text-anchor="middle" x="125.12" y="-188.38" font-family="Helvetica,sans-Serif" font-size="10.00">slitherlink/io/GridReader.h</text>
</a>
</g>
</g>
<!-- Node1&#45;&gt;Node22 -->
<g id="edge36_Node000001_Node000022" class="edge">
<title>Node1&#45;&gt;Node22</title>
<g id="a_edge36_Node000001_Node000022"><a xlink:title=" ">
<path fill="none" stroke="#63b8ff" d="M276.28,-309.73C244.18,-284.99 179.13,-234.87 145.81,-209.19"/>
<polygon fill="#63b8ff" stroke="#63b8ff" points="148.19,-206.61 138.13,-203.28 143.92,-212.15 148.19,-206.61"/>
</a>
</g>
</g>
<!-- Node3 -->
<g id="Node000003" class="node">
<title>Node3</title>
<g id="a_Node000003"><a xlink:title=" ">
<polygon fill="#e0e0e0" stroke="#999999" points="170.12,-135.38 130.12,-135.38 130.12,-116.12 170.12,-116.12 170.12,-135.38"/>
<text xml:space="preserve" text-anchor="middle" x="150.12" y="-121.88" font-family="Helvetica,sans-Serif" font-size="10.00">string</text>
</a>
</g>
</g>
<!-- Node2&#45;&gt;Node3 -->
<g id="edge2_Node000002_Node000003" class="edge">
<title>Node2&#45;&gt;Node3</title>
<g id="a_edge2_Node000002_Node000003"><a xlink:title=" ">
<path fill="none" stroke="#63b8ff" d="M240.53,-182.28C223.46,-171.8 194.96,-154.29 174.52,-141.73"/>
<polygon fill="#63b8ff" stroke="#63b8ff" points="176.58,-138.89 166.23,-136.64 172.92,-144.86 176.58,-138.89"/>
</a>
</g>
</g>
<!-- Node4 -->
<g id="Node000004" class="node">
<title>Node4</title>
<g id="a_Node000004"><a xlink:title=" ">
<polygon fill="#e0e0e0" stroke="#999999" points="279.25,-135.38 231,-135.38 231,-116.12 279.25,-116.12 279.25,-135.38"/>
<text xml:space="preserve" text-anchor="middle" x="255.12" y="-121.88" font-family="Helvetica,sans-Serif" font-size="10.00">cstddef</text>
</a>
</g>
</g>
<!-- Node2&#45;&gt;Node4 -->
<g id="edge3_Node000002_Node000004" class="edge">
<title>Node2&#45;&gt;Node4</title>
<g id="a_edge3_Node000002_Node000004"><a xlink:title=" ">
<path fill="none" stroke="#63b8ff" d="M255.12,-182.28C255.12,-173.23 255.12,-158.95 255.12,-147.13"/>
<polygon fill="#63b8ff" stroke="#63b8ff" points="258.63,-147.16 255.13,-137.16 251.63,-147.16 258.63,-147.16"/>
</a>
</g>
</g>
<!-- Node6 -->
<g id="Node000006" class="node">
<title>Node6</title>
<g id="a_Node000006"><a xlink:title=" ">
<polygon fill="#e0e0e0" stroke="#999999" points="749.62,-19.25 706.62,-19.25 706.62,0 749.62,0 749.62,-19.25"/>
<text xml:space="preserve" text-anchor="middle" x="728.12" y="-5.75" font-family="Helvetica,sans-Serif" font-size="10.00">vector</text>
</a>
</g>
</g>
<!-- Node5&#45;&gt;Node6 -->
<g id="edge5_Node000005_Node000006" class="edge">
<title>Node5&#45;&gt;Node6</title>
<g id="a_edge5_Node000005_Node000006"><a xlink:title=" ">
<path fill="none" stroke="#63b8ff" d="M108.74,-56.18C111.57,-55.85 114.38,-55.54 117.12,-55.25 337.06,-32.19 602.77,-17.15 694.83,-12.32"/>
<polygon fill="#63b8ff" stroke="#63b8ff" points="694.85,-15.82 704.65,-11.81 694.48,-8.83 694.85,-15.82"/>
</a>
</g>
</g>
<!-- Node7&#45;&gt;Node6 -->
<g id="edge8_Node000007_Node000006" class="edge">
<title>Node7&#45;&gt;Node6</title>
<g id="a_edge8_Node000007_Node000006"><a xlink:title=" ">
<path fill="none" stroke="#63b8ff" d="M924.65,-54.78C878.49,-44.41 803.89,-27.65 761.11,-18.04"/>
<polygon fill="#63b8ff" stroke="#63b8ff" points="761.93,-14.63 751.41,-15.86 760.4,-21.46 761.93,-14.63"/>
</a>
</g>
</g>
<!-- Node8 -->
<g id="Node000008" class="node">
<title>Node8</title>
<g id="a_Node000008"><a xlink:title=" ">
<polygon fill="#e0e0e0" stroke="#999999" points="984.75,-19.25 945.5,-19.25 945.5,0 984.75,0 984.75,-19.25"/>
<text xml:space="preserve" text-anchor="middle" x="965.12" y="-5.75" font-family="Helvetica,sans-Serif" font-size="10.00">utility</text>
</a>
</g>
</g>
<!-- Node7&#45;&gt;Node8 -->
<g id="edge7_Node000007_Node000008" class="edge">
<title>Node7&#45;&gt;Node8</title>
<g id="a_edge7_Node000007_Node000008"><a xlink:title=" ">
<path fill="none" stroke="#63b8ff" d="M965.12,-55.08C965.12,-48.57 965.12,-39.42 965.12,-31.12"/>
<polygon fill="#63b8ff" stroke="#63b8ff" points="968.63,-31.12 965.13,-21.12 961.63,-31.12 968.63,-31.12"/>
</a>
</g>
</g>
<!-- Node9&#45;&gt;Node2 -->
<g id="edge33_Node000009_Node000002" class="edge">
<title>Node9&#45;&gt;Node2</title>
<g id="a_edge33_Node000009_Node000002"><a xlink:title=" ">
<path fill="none" stroke="#63b8ff" d="M314.65,-243.11C302.63,-233.04 286.66,-219.67 274.29,-209.31"/>
<polygon fill="#63b8ff" stroke="#63b8ff" points="276.73,-206.78 266.82,-203.04 272.24,-212.15 276.73,-206.78"/>
</a>
</g>
</g>
<!-- Node9&#45;&gt;Node5 -->
<g id="edge32_Node000009_Node000005" class="edge">
<title>Node9&#45;&gt;Node5</title>
<g id="a_edge32_Node000009_Node000005"><a xlink:title=" ">
<path fill="none" stroke="#63b8ff" d="M332.6,-243.29C332.71,-213.3 328.33,-144.35 288.12,-110.5 275.27,-99.68 184.46,-84.62 119.83,-75.06"/>
<polygon fill="#63b8ff" stroke="#63b8ff" points="120.4,-71.6 109.99,-73.61 119.38,-78.53 120.4,-71.6"/>
</a>
</g>
</g>
<!-- Node9&#45;&gt;Node10 -->
<g id="edge10_Node000009_Node000010" class="edge">
<title>Node9&#45;&gt;Node10</title>
<g id="a_edge10_Node000009_Node000010"><a xlink:title=" ">
<path fill="none" stroke="#63b8ff" d="M367.75,-243.11C389.95,-233.99 418.76,-222.16 442.73,-212.31"/>
<polygon fill="#63b8ff" stroke="#63b8ff" points="444.05,-215.55 451.97,-208.51 441.39,-209.08 444.05,-215.55"/>
</a>
</g>
</g>
<!-- Node15 -->
<g id="Node000015" class="node">
<title>Node15</title>
<g id="a_Node000015"><a xlink:title=" ">
<polygon fill="#e0e0e0" stroke="#999999" points="177.75,-74.5 126.5,-74.5 126.5,-55.25 177.75,-55.25 177.75,-74.5"/>
<text xml:space="preserve" text-anchor="middle" x="152.12" y="-61" font-family="Helvetica,sans-Serif" font-size="10.00">memory</text>
</a>
</g>
</g>
<!-- Node9&#45;&gt;Node15 -->
<g id="edge34_Node000009_Node000015" class="edge">
<title>Node9&#45;&gt;Node15</title>
<g id="a_edge34_Node000009_Node000015"><a xlink:title=" ">
<path fill="none" stroke="#63b8ff" d="M339.45,-243.32C352.9,-214.58 377.38,-149.62 346.12,-110.5 303.02,-56.54 261.7,-87.88 189.05,-74.63"/>
<polygon fill="#63b8ff" stroke="#63b8ff" points="190.09,-71.27 179.59,-72.65 188.66,-78.12 190.09,-71.27"/>
</a>
</g>
</g>
<!-- Node10&#45;&gt;Node5 -->
<g id="edge11_Node000010_Node000005" class="edge">
<title>Node10&#45;&gt;Node5</title>
<g id="a_edge11_Node000010_Node000005"><a xlink:title=" ">
<path fill="none" stroke="#63b8ff" d="M468.94,-176.69C442.22,-158.19 393.01,-126.71 346.12,-110.5 335.51,-106.83 202.57,-87.27 119.78,-75.3"/>
<polygon fill="#63b8ff" stroke="#63b8ff" points="120.34,-71.84 109.94,-73.88 119.34,-78.77 120.34,-71.84"/>
</a>
</g>
</g>
<!-- Node11 -->
<g id="Node000011" class="node">
<title>Node11</title>
<g id="a_Node000011"><a xlink:href="_solver_8h.html" target="_top" xlink:title=" ">
<polygon fill="white" stroke="#666666" points="560.38,-141 473.88,-141 473.88,-110.5 560.38,-110.5 560.38,-141"/>
<text xml:space="preserve" text-anchor="start" x="481.88" y="-127.5" font-family="Helvetica,sans-Serif" font-size="10.00">slitherlink/solver</text>
<text xml:space="preserve" text-anchor="middle" x="517.12" y="-116.25" font-family="Helvetica,sans-Serif" font-size="10.00">/Solver.h</text>
</a>
</g>
</g>
<!-- Node10&#45;&gt;Node11 -->
<g id="edge12_Node000010_Node000011" class="edge">
<title>Node10&#45;&gt;Node11</title>
<g id="a_edge12_Node000010_Node000011"><a xlink:title=" ">
<path fill="none" stroke="#63b8ff" d="M495.48,-176.61C498.66,-169.27 502.61,-160.18 506.26,-151.77"/>
<polygon fill="#63b8ff" stroke="#63b8ff" points="509.42,-153.28 510.19,-142.72 503,-150.5 509.42,-153.28"/>
</a>
</g>
</g>
<!-- Node10&#45;&gt;Node15 -->
<g id="edge30_Node000010_Node000015" class="edge">
<title>Node10&#45;&gt;Node15</title>
<g id="a_edge30_Node000010_Node000015"><a xlink:title=" ">
<path fill="none" stroke="#63b8ff" d="M481.4,-176.51C470.75,-157.81 449.71,-126.11 422.12,-110.5 333.32,-60.23 293.5,-92.76 189.36,-74.66"/>
<polygon fill="#63b8ff" stroke="#63b8ff" points="190.02,-71.22 179.55,-72.82 188.73,-78.1 190.02,-71.22"/>
</a>
</g>
</g>
<!-- Node19 -->
<g id="Node000019" class="node">
<title>Node19</title>
<g id="a_Node000019"><a xlink:href="_i_solution_collector_8h.html" target="_top" xlink:title=" ">
<polygon fill="white" stroke="#666666" points="837,-141 733.25,-141 733.25,-110.5 837,-110.5 837,-141"/>
<text xml:space="preserve" text-anchor="start" x="741.25" y="-127.5" font-family="Helvetica,sans-Serif" font-size="10.00">slitherlink/interfaces</text>
<text xml:space="preserve" text-anchor="middle" x="785.12" y="-116.25" font-family="Helvetica,sans-Serif" font-size="10.00">/ISolutionCollector.h</text>
</a>
</g>
</g>
<!-- Node10&#45;&gt;Node19 -->
<g id="edge24_Node000010_Node000019" class="edge">
<title>Node10&#45;&gt;Node19</title>
<g id="a_edge24_Node000010_Node000019"><a xlink:title=" ">
<path fill="none" stroke="#63b8ff" d="M538,-180.6C588.31,-169.64 666.91,-152.51 721.92,-140.52"/>
<polygon fill="#63b8ff" stroke="#63b8ff" points="722.43,-143.99 731.45,-138.45 720.94,-137.15 722.43,-143.99"/>
</a>
</g>
</g>
<!-- Node20 -->
<g id="Node000020" class="node">
<title>Node20</title>
<g id="a_Node000020"><a xlink:href="_i_solution_printer_8h.html" target="_top" xlink:title=" ">
<polygon fill="white" stroke="#666666" points="957.62,-141 854.62,-141 854.62,-110.5 957.62,-110.5 957.62,-141"/>
<text xml:space="preserve" text-anchor="start" x="862.62" y="-127.5" font-family="Helvetica,sans-Serif" font-size="10.00">slitherlink/interfaces</text>
<text xml:space="preserve" text-anchor="middle" x="906.12" y="-116.25" font-family="Helvetica,sans-Serif" font-size="10.00">/ISolutionPrinter.h</text>
</a>
</g>
</g>
<!-- Node10&#45;&gt;Node20 -->
<g id="edge27_Node000010_Node000020" class="edge">
<title>Node10&#45;&gt;Node20</title>
<g id="a_edge27_Node000010_Node000020"><a xlink:title=" ">
<path fill="none" stroke="#63b8ff" d="M537.86,-185.85C604.66,-178.13 728.59,-162.66 843.1,-141.47"/>
<polygon fill="#63b8ff" stroke="#63b8ff" points="843.48,-144.97 852.67,-139.68 842.19,-138.08 843.48,-144.97"/>
</a>
</g>
</g>
<!-- Node21 -->
<g id="Node000021" class="node">
<title>Node21</title>
<g id="a_Node000021"><a xlink:title=" ">
<polygon fill="#e0e0e0" stroke="#999999" points="1096.75,-74.5 1045.5,-74.5 1045.5,-55.25 1096.75,-55.25 1096.75,-74.5"/>
<text xml:space="preserve" text-anchor="middle" x="1071.12" y="-61" font-family="Helvetica,sans-Serif" font-size="10.00">ostream</text>
</a>
</g>
</g>
<!-- Node10&#45;&gt;Node21 -->
<g id="edge31_Node000010_Node000021" class="edge">
<title>Node10&#45;&gt;Node21</title>
<g id="a_edge31_Node000010_Node000021"><a xlink:title=" ">
<path fill="none" stroke="#63b8ff" d="M537.73,-189.31C643.13,-184.6 889.48,-170.69 967.12,-141 1001.45,-127.88 1034.73,-100.46 1054.06,-82.63"/>
<polygon fill="#63b8ff" stroke="#63b8ff" points="1056.42,-85.21 1061.27,-75.79 1051.6,-80.13 1056.42,-85.21"/>
</a>
</g>
</g>
<!-- Node11&#45;&gt;Node5 -->
<g id="edge14_Node000011_Node000005" class="edge">
<title>Node11&#45;&gt;Node5</title>
<g id="a_edge14_Node000011_Node000005"><a xlink:title=" ">
<path fill="none" stroke="#63b8ff" d="M473.66,-117.94C457.49,-115.48 438.99,-112.76 422.12,-110.5 290.4,-92.85 254.41,-91.8 119.59,-74.79"/>
<polygon fill="#63b8ff" stroke="#63b8ff" points="120.28,-71.35 109.91,-73.56 119.39,-78.29 120.28,-71.35"/>
</a>
</g>
</g>
<!-- Node11&#45;&gt;Node6 -->
<g id="edge21_Node000011_Node000006" class="edge">
<title>Node11&#45;&gt;Node6</title>
<g id="a_edge21_Node000011_Node000006"><a xlink:title=" ">
<path fill="none" stroke="#63b8ff" d="M550.86,-110.07C572.16,-100.52 600.1,-87.46 624.12,-74.5 652.68,-59.09 684.28,-39.26 705.07,-25.81"/>
<polygon fill="#63b8ff" stroke="#63b8ff" points="706.88,-28.81 713.35,-20.42 703.06,-22.95 706.88,-28.81"/>
</a>
</g>
</g>
<!-- Node11&#45;&gt;Node7 -->
<g id="edge15_Node000011_Node000007" class="edge">
<title>Node11&#45;&gt;Node7</title>
<g id="a_edge15_Node000011_Node000007"><a xlink:title=" ">
<path fill="none" stroke="#63b8ff" d="M560.49,-119.05C636.98,-109 796.69,-88.01 890.97,-75.62"/>
<polygon fill="#63b8ff" stroke="#63b8ff" points="891.18,-79.12 900.63,-74.35 890.26,-72.18 891.18,-79.12"/>
</a>
</g>
</g>
<!-- Node12 -->
<g id="Node000012" class="node">
<title>Node12</title>
<g id="a_Node000012"><a xlink:href="_edge_8h.html" target="_top" xlink:title=" ">
<polygon fill="white" stroke="#666666" points="551.5,-74.5 438.75,-74.5 438.75,-55.25 551.5,-55.25 551.5,-74.5"/>
<text xml:space="preserve" text-anchor="middle" x="495.12" y="-61" font-family="Helvetica,sans-Serif" font-size="10.00">slitherlink/core/Edge.h</text>
</a>
</g>
</g>
<!-- Node11&#45;&gt;Node12 -->
<g id="edge13_Node000011_Node000012" class="edge">
<title>Node11&#45;&gt;Node12</title>
<g id="a_edge13_Node000011_Node000012"><a xlink:title=" ">
<path fill="none" stroke="#63b8ff" d="M511.69,-110.2C508.92,-102.78 505.51,-93.66 502.51,-85.63"/>
<polygon fill="#63b8ff" stroke="#63b8ff" points="505.83,-84.51 499.05,-76.37 499.27,-86.96 505.83,-84.51"/>
</a>
</g>
</g>
<!-- Node13 -->
<g id="Node000013" class="node">
<title>Node13</title>
<g id="a_Node000013"><a xlink:href="_state_8h.html" target="_top" xlink:title=" ">
<polygon fill="white" stroke="#666666" points="784.88,-74.5 671.38,-74.5 671.38,-55.25 784.88,-55.25 784.88,-74.5"/>
<text xml:space="preserve" text-anchor="middle" x="728.12" y="-61" font-family="Helvetica,sans-Serif" font-size="10.00">slitherlink/core/State.h</text>
</a>
</g>
</g>
<!-- Node11&#45;&gt;Node13 -->
<g id="edge16_Node000011_Node000013" class="edge">
<title>Node11&#45;&gt;Node13</title>
<g id="a_edge16_Node000011_Node000013"><a xlink:title=" ">
<path fill="none" stroke="#63b8ff" d="M560.84,-112.55C597.16,-102.42 648.56,-88.08 684.78,-77.97"/>
<polygon fill="#63b8ff" stroke="#63b8ff" points="685.35,-81.45 694.04,-75.39 683.47,-74.7 685.35,-81.45"/>
</a>
</g>
</g>
<!-- Node14 -->
<g id="Node000014" class="node">
<title>Node14</title>
<g id="a_Node000014"><a xlink:title=" ">
<polygon fill="#e0e0e0" stroke="#999999" points="614.75,-74.5 569.5,-74.5 569.5,-55.25 614.75,-55.25 614.75,-74.5"/>
<text xml:space="preserve" text-anchor="middle" x="592.12" y="-61" font-family="Helvetica,sans-Serif" font-size="10.00">atomic</text>
</a>
</g>
</g>
<!-- Node11&#45;&gt;Node14 -->
<g id="edge18_Node000011_Node000014" class="edge">
<title>Node11&#45;&gt;Node14</title>
<g id="a_edge18_Node000011_Node000014"><a xlink:title=" ">
<path fill="none" stroke="#63b8ff" d="M535.66,-110.2C546.64,-101.58 560.57,-90.65 571.84,-81.8"/>
<polygon fill="#63b8ff" stroke="#63b8ff" points="573.67,-84.81 579.37,-75.89 569.35,-79.31 573.67,-84.81"/>
</a>
</g>
</g>
<!-- Node11&#45;&gt;Node15 -->
<g id="edge19_Node000011_Node000015" class="edge">
<title>Node11&#45;&gt;Node15</title>
<g id="a_edge19_Node000011_Node000015"><a xlink:title=" ">
<path fill="none" stroke="#63b8ff" d="M473.67,-113.34C469.11,-112.31 464.53,-111.34 460.12,-110.5 343.42,-88.29 309.37,-96.64 189.17,-74.68"/>
<polygon fill="#63b8ff" stroke="#63b8ff" points="190.01,-71.27 179.54,-72.88 188.73,-78.15 190.01,-71.27"/>
</a>
</g>
</g>
<!-- Node16 -->
<g id="Node000016" class="node">
<title>Node16</title>
<g id="a_Node000016"><a xlink:title=" ">
<polygon fill="#e0e0e0" stroke="#999999" points="845.62,-74.5 802.62,-74.5 802.62,-55.25 845.62,-55.25 845.62,-74.5"/>
<text xml:space="preserve" text-anchor="middle" x="824.12" y="-61" font-family="Helvetica,sans-Serif" font-size="10.00">mutex</text>
</a>
</g>
</g>
<!-- Node11&#45;&gt;Node16 -->
<g id="edge20_Node000011_Node000016" class="edge">
<title>Node11&#45;&gt;Node16</title>
<g id="a_edge20_Node000011_Node000016"><a xlink:title=" ">
<path fill="none" stroke="#63b8ff" d="M560.58,-118.25C613.12,-110.09 704.39,-94.95 791.13,-75.03"/>
<polygon fill="#63b8ff" stroke="#63b8ff" points="791.82,-78.46 800.76,-72.79 790.23,-71.64 791.82,-78.46"/>
</a>
</g>
</g>
<!-- Node17 -->
<g id="Node000017" class="node">
<title>Node17</title>
<g id="a_Node000017"><a xlink:title=" ">
<polygon fill="#e0e0e0" stroke="#999999" points="314.12,-74.5 196.12,-74.5 196.12,-55.25 314.12,-55.25 314.12,-74.5"/>
<text xml:space="preserve" text-anchor="middle" x="255.12" y="-61" font-family="Helvetica,sans-Serif" font-size="10.00">tbb/concurrent_vector.h</text>
</a>
</g>
</g>
<!-- Node11&#45;&gt;Node17 -->
<g id="edge22_Node000011_Node000017" class="edge">
<title>Node11&#45;&gt;Node17</title>
<g id="a_edge22_Node000011_Node000017"><a xlink:title=" ">
<path fill="none" stroke="#63b8ff" d="M473.59,-113.72C469.05,-112.61 464.5,-111.52 460.12,-110.5 409.39,-98.64 351.34,-86.1 310,-77.34"/>
<polygon fill="#63b8ff" stroke="#63b8ff" points="310.79,-73.93 300.28,-75.29 309.34,-80.78 310.79,-73.93"/>
</a>
</g>
</g>
<!-- Node18 -->
<g id="Node000018" class="node">
<title>Node18</title>
<g id="a_Node000018"><a xlink:title=" ">
<polygon fill="#e0e0e0" stroke="#999999" points="420.5,-74.5 331.75,-74.5 331.75,-55.25 420.5,-55.25 420.5,-74.5"/>
<text xml:space="preserve" text-anchor="middle" x="376.12" y="-61" font-family="Helvetica,sans-Serif" font-size="10.00">tbb/task_arena.h</text>
</a>
</g>
</g>
<!-- Node11&#45;&gt;Node18 -->
<g id="edge23_Node000011_Node000018" class="edge">
<title>Node11&#45;&gt;Node18</title>
<g id="a_edge23_Node000011_Node000018"><a xlink:title=" ">
<path fill="none" stroke="#63b8ff" d="M481.91,-110.05C459.3,-100.6 430.17,-88.44 408.2,-79.27"/>
<polygon fill="#63b8ff" stroke="#63b8ff" points="409.72,-76.11 399.15,-75.49 407.02,-82.57 409.72,-76.11"/>
</a>
</g>
</g>
<!-- Node13&#45;&gt;Node6 -->
<g id="edge17_Node000013_Node000006" class="edge">
<title>Node13&#45;&gt;Node6</title>
<g id="a_edge17_Node000013_Node000006"><a xlink:title=" ">
<path fill="none" stroke="#63b8ff" d="M728.12,-55.08C728.12,-48.57 728.12,-39.42 728.12,-31.12"/>
<polygon fill="#63b8ff" stroke="#63b8ff" points="731.63,-31.12 728.13,-21.12 724.63,-31.12 731.63,-31.12"/>
</a>
</g>
</g>
<!-- Node19&#45;&gt;Node6 -->
<g id="edge26_Node000019_Node000006" class="edge">
<title>Node19&#45;&gt;Node6</title>
<g id="a_edge26_Node000019_Node000006"><a xlink:title=" ">
<path fill="none" stroke="#63b8ff" d="M817.85,-110.17C842.67,-97.01 870.17,-76.49 855.12,-55.25 834.01,-25.45 791.36,-15.41 761.32,-12.1"/>
<polygon fill="#63b8ff" stroke="#63b8ff" points="761.89,-8.64 751.62,-11.24 761.27,-15.61 761.89,-8.64"/>
</a>
</g>
</g>
<!-- Node19&#45;&gt;Node7 -->
<g id="edge25_Node000019_Node000007" class="edge">
<title>Node19&#45;&gt;Node7</title>
<g id="a_edge25_Node000019_Node000007"><a xlink:title=" ">
<path fill="none" stroke="#63b8ff" d="M830.08,-110.05C859.77,-100.33 898.28,-87.74 926.57,-78.48"/>
<polygon fill="#63b8ff" stroke="#63b8ff" points="927.4,-81.9 935.82,-75.46 925.22,-75.24 927.4,-81.9"/>
</a>
</g>
</g>
<!-- Node20&#45;&gt;Node7 -->
<g id="edge28_Node000020_Node000007" class="edge">
<title>Node20&#45;&gt;Node7</title>
<g id="a_edge28_Node000020_Node000007"><a xlink:title=" ">
<path fill="none" stroke="#63b8ff" d="M920.71,-110.2C929,-101.92 939.43,-91.52 948.09,-82.87"/>
<polygon fill="#63b8ff" stroke="#63b8ff" points="950.35,-85.56 954.96,-76.02 945.41,-80.61 950.35,-85.56"/>
</a>
</g>
</g>
<!-- Node20&#45;&gt;Node21 -->
<g id="edge29_Node000020_Node000021" class="edge">
<title>Node20&#45;&gt;Node21</title>
<g id="a_edge29_Node000020_Node000021"><a xlink:title=" ">
<path fill="none" stroke="#63b8ff" d="M947.34,-110.05C974.28,-100.43 1009.13,-88 1034.99,-78.77"/>
<polygon fill="#63b8ff" stroke="#63b8ff" points="1036.15,-82.07 1044.4,-75.41 1033.8,-75.48 1036.15,-82.07"/>
</a>
</g>
</g>
<!-- Node22&#45;&gt;Node3 -->
<g id="edge38_Node000022_Node000003" class="edge">
<title>Node22&#45;&gt;Node3</title>
<g id="a_edge38_Node000022_Node000003"><a xlink:title=" ">
<path fill="none" stroke="#63b8ff" d="M128.6,-182.28C132.22,-172.94 138,-158.03 142.66,-146.01"/>
<polygon fill="#63b8ff" stroke="#63b8ff" points="145.78,-147.64 146.13,-137.05 139.25,-145.11 145.78,-147.64"/>
</a>
</g>
</g>
<!-- Node22&#45;&gt;Node5 -->
<g id="edge37_Node000022_Node000005" class="edge">
<title>Node22&#45;&gt;Node5</title>
<g id="a_edge37_Node000022_Node000005"><a xlink:title=" ">
<path fill="none" stroke="#63b8ff" d="M120.02,-182.23C108.51,-161.9 80.32,-112.13 64.8,-84.73"/>
<polygon fill="#63b8ff" stroke="#63b8ff" points="67.9,-83.1 59.93,-76.13 61.81,-86.55 67.9,-83.1"/>
</a>
</g>
</g>
</g>
</svg>
