<?xml version="1.0" encoding="UTF-8" standalone="no"?>
<!DOCTYPE svg PUBLIC "-//W3C//DTD SVG 1.1//EN"
 "http://www.w3.org/Graphics/SVG/1.1/DTD/svg11.dtd">
<!-- Generated by graphviz version 14.0.2 (20251019.1705)
 -->
<!-- Title: include/slitherlink/factory/SlitherlinkSolver.h Pages: 1 -->
<svg width="1106pt" height="216pt"
 viewBox="0.00 0.00 1106.00 216.00" xmlns="http://www.w3.org/2000/svg" xmlns:xlink="http://www.w3.org/1999/xlink">
<g id="graph0" class="graph" transform="scale(1 1) rotate(0) translate(4 211.5)">
<title>include/slitherlink/factory/SlitherlinkSolver.h</title>
<!-- Node1 -->
<g id="Node000001" class="node">
<title>Node1</title>
<g id="a_Node000001"><a xlink:title=" ">
<polygon fill="#999999" stroke="#666666" points="897.12,-207.5 767.12,-207.5 767.12,-177 897.12,-177 897.12,-207.5"/>
<text xml:space="preserve" text-anchor="start" x="775.12" y="-194" font-family="Helvetica,sans-Serif" font-size="10.00">include/slitherlink</text>
<text xml:space="preserve" text-anchor="middle" x="832.12" y="-182.75" font-family="Helvetica,sans-Serif" font-size="10.00">/factory/SlitherlinkSolver.h</text>
</a>
</g>
</g>
<!-- Node2 -->
<g id="Node000002" class="node">
<title>Node2</title>
<g id="a_Node000002"><a xlink:href="_grid_8h.html" target="_top" xlink:title=" ">
<polygon fill="white" stroke="#666666" points="108.25,-74.5 0,-74.5 0,-55.25 108.25,-55.25 108.25,-74.5"/>
<text xml:space="preserve" text-anchor="middle" x="54.12" y="-61" font-family="Helvetica,sans-Serif" font-size="10.00">slitherlink/core/Grid.h</text>
</a>
</g>
</g>
<!-- Node1&#45;&gt;Node2 -->
<g id="edge1_Node000001_Node000002" class="edge">
<title>Node1&#45;&gt;Node2</title>
<g id="a_edge1_Node000001_Node000002"><a xlink:title=" ">
<path fill="none" stroke="#63b8ff" d="M766.69,-180.71C703.56,-170.55 605.3,-154.72 520.12,-141 377.37,-118 210.01,-91.01 119.79,-76.46"/>
<polygon fill="#63b8ff" stroke="#63b8ff" points="120.57,-73.05 110.14,-74.91 119.46,-79.96 120.57,-73.05"/>
</a>
</g>
</g>
<!-- Node4 -->
<g id="Node000004" class="node">
<title>Node4</title>
<g id="a_Node000004"><a xlink:href="_solver_8h.html" target="_top" xlink:title=" ">
<polygon fill="white" stroke="#666666" points="615.38,-141 528.88,-141 528.88,-110.5 615.38,-110.5 615.38,-141"/>
<text xml:space="preserve" text-anchor="start" x="536.88" y="-127.5" font-family="Helvetica,sans-Serif" font-size="10.00">slitherlink/solver</text>
<text xml:space="preserve" text-anchor="middle" x="572.12" y="-116.25" font-family="Helvetica,sans-Serif" font-size="10.00">/Solver.h</text>
</a>
</g>
</g>
<!-- Node1&#45;&gt;Node4 -->
<g id="edge3_Node000001_Node000004" class="edge">
<title>Node1&#45;&gt;Node4</title>
<g id="a_edge3_Node000001_Node000004"><a xlink:title=" ">
<path fill="none" stroke="#63b8ff" d="M772.8,-176.53C728.91,-165.65 669.58,-150.93 626.83,-140.32"/>
<polygon fill="#63b8ff" stroke="#63b8ff" points="627.81,-136.96 617.26,-137.95 626.12,-143.75 627.81,-136.96"/>
</a>
</g>
</g>
<!-- Node10 -->
<g id="Node000010" class="node">
<title>Node10</title>
<g id="a_Node000010"><a xlink:title=" ">
<polygon fill="#e0e0e0" stroke="#999999" points="844.75,-74.5 793.5,-74.5 793.5,-55.25 844.75,-55.25 844.75,-74.5"/>
<text xml:space="preserve" text-anchor="middle" x="819.12" y="-61" font-family="Helvetica,sans-Serif" font-size="10.00">memory</text>
</a>
</g>
</g>
<!-- Node1&#45;&gt;Node10 -->
<g id="edge23_Node000001_Node000010" class="edge">
<title>Node1&#45;&gt;Node10</title>
<g id="a_edge23_Node000001_Node000010"><a xlink:title=" ">
<path fill="none" stroke="#63b8ff" d="M824.27,-176.79C819.42,-167 813.65,-153.61 811.12,-141 807.42,-122.51 810.4,-101.1 813.72,-85.88"/>
<polygon fill="#63b8ff" stroke="#63b8ff" points="817.11,-86.76 816.1,-76.21 810.31,-85.09 817.11,-86.76"/>
</a>
</g>
</g>
<!-- Node14 -->
<g id="Node000014" class="node">
<title>Node14</title>
<g id="a_Node000014"><a xlink:href="_i_solution_collector_8h.html" target="_top" xlink:title=" ">
<polygon fill="white" stroke="#666666" points="924,-141 820.25,-141 820.25,-110.5 924,-110.5 924,-141"/>
<text xml:space="preserve" text-anchor="start" x="828.25" y="-127.5" font-family="Helvetica,sans-Serif" font-size="10.00">slitherlink/interfaces</text>
<text xml:space="preserve" text-anchor="middle" x="872.12" y="-116.25" font-family="Helvetica,sans-Serif" font-size="10.00">/ISolutionCollector.h</text>
</a>
</g>
</g>
<!-- Node1&#45;&gt;Node14 -->
<g id="edge17_Node000001_Node000014" class="edge">
<title>Node1&#45;&gt;Node14</title>
<g id="a_edge17_Node000001_Node000014"><a xlink:title=" ">
<path fill="none" stroke="#63b8ff" d="M841.2,-176.61C845.91,-169.03 851.78,-159.56 857.13,-150.93"/>
<polygon fill="#63b8ff" stroke="#63b8ff" points="859.99,-152.96 862.29,-142.61 854.04,-149.27 859.99,-152.96"/>
</a>
</g>
</g>
<!-- Node15 -->
<g id="Node000015" class="node">
<title>Node15</title>
<g id="a_Node000015"><a xlink:href="_i_solution_printer_8h.html" target="_top" xlink:title=" ">
<polygon fill="white" stroke="#666666" points="1044.62,-141 941.62,-141 941.62,-110.5 1044.62,-110.5 1044.62,-141"/>
<text xml:space="preserve" text-anchor="start" x="949.62" y="-127.5" font-family="Helvetica,sans-Serif" font-size="10.00">slitherlink/interfaces</text>
<text xml:space="preserve" text-anchor="middle" x="993.12" y="-116.25" font-family="Helvetica,sans-Serif" font-size="10.00">/ISolutionPrinter.h</text>
</a>
</g>
</g>
<!-- Node1&#45;&gt;Node15 -->
<g id="edge20_Node000001_Node000015" class="edge">
<title>Node1&#45;&gt;Node15</title>
<g id="a_edge20_Node000001_Node000015"><a xlink:title=" ">
<path fill="none" stroke="#63b8ff" d="M868.66,-176.61C891.53,-167.45 921.23,-155.55 945.88,-145.68"/>
<polygon fill="#63b8ff" stroke="#63b8ff" points="947.07,-148.97 955.05,-142 944.47,-142.47 947.07,-148.97"/>
</a>
</g>
</g>
<!-- Node16 -->
<g id="Node000016" class="node">
<title>Node16</title>
<g id="a_Node000016"><a xlink:title=" ">
<polygon fill="#e0e0e0" stroke="#999999" points="1097.75,-74.5 1046.5,-74.5 1046.5,-55.25 1097.75,-55.25 1097.75,-74.5"/>
<text xml:space="preserve" text-anchor="middle" x="1072.12" y="-61" font-family="Helvetica,sans-Serif" font-size="10.00">ostream</text>
</a>
</g>
</g>
<!-- Node1&#45;&gt;Node16 -->
<g id="edge24_Node000001_Node000016" class="edge">
<title>Node1&#45;&gt;Node16</title>
<g id="a_edge24_Node000001_Node000016"><a xlink:title=" ">
<path fill="none" stroke="#63b8ff" d="M897.52,-184.12C954.8,-176.54 1032.23,-162.62 1054.12,-141 1068.5,-126.81 1072.19,-103.31 1072.79,-86.37"/>
<polygon fill="#63b8ff" stroke="#63b8ff" points="1076.29,-86.47 1072.78,-76.47 1069.29,-86.48 1076.29,-86.47"/>
</a>
</g>
</g>
<!-- Node3 -->
<g id="Node000003" class="node">
<title>Node3</title>
<g id="a_Node000003"><a xlink:title=" ">
<polygon fill="#e0e0e0" stroke="#999999" points="786.62,-19.25 743.62,-19.25 743.62,0 786.62,0 786.62,-19.25"/>
<text xml:space="preserve" text-anchor="middle" x="765.12" y="-5.75" font-family="Helvetica,sans-Serif" font-size="10.00">vector</text>
</a>
</g>
</g>
<!-- Node2&#45;&gt;Node3 -->
<g id="edge2_Node000002_Node000003" class="edge">
<title>Node2&#45;&gt;Node3</title>
<g id="a_edge2_Node000002_Node000003"><a xlink:title=" ">
<path fill="none" stroke="#63b8ff" d="M108.56,-56.29C111.8,-55.92 115,-55.57 118.12,-55.25 352.6,-31.39 636.21,-16.71 731.83,-12.15"/>
<polygon fill="#63b8ff" stroke="#63b8ff" points="731.96,-15.65 741.79,-11.69 731.63,-8.66 731.96,-15.65"/>
</a>
</g>
</g>
<!-- Node4&#45;&gt;Node2 -->
<g id="edge5_Node000004_Node000002" class="edge">
<title>Node4&#45;&gt;Node2</title>
<g id="a_edge5_Node000004_Node000002"><a xlink:title=" ">
<path fill="none" stroke="#63b8ff" d="M528.58,-120.28C449.55,-112.09 277,-93.85 119.87,-74.68"/>
<polygon fill="#63b8ff" stroke="#63b8ff" points="120.43,-71.23 110.08,-73.49 119.58,-78.18 120.43,-71.23"/>
</a>
</g>
</g>
<!-- Node4&#45;&gt;Node3 -->
<g id="edge14_Node000004_Node000003" class="edge">
<title>Node4&#45;&gt;Node3</title>
<g id="a_edge14_Node000004_Node000003"><a xlink:title=" ">
<path fill="none" stroke="#63b8ff" d="M615.85,-123.48C655.04,-120.01 711.53,-108.82 746.12,-74.5 757.7,-63.02 762.29,-44.83 764.07,-30.8"/>
<polygon fill="#63b8ff" stroke="#63b8ff" points="767.56,-31.15 764.92,-20.89 760.58,-30.56 767.56,-31.15"/>
</a>
</g>
</g>
<!-- Node5 -->
<g id="Node000005" class="node">
<title>Node5</title>
<g id="a_Node000005"><a xlink:href="_edge_8h.html" target="_top" xlink:title=" ">
<polygon fill="white" stroke="#666666" points="239.5,-74.5 126.75,-74.5 126.75,-55.25 239.5,-55.25 239.5,-74.5"/>
<text xml:space="preserve" text-anchor="middle" x="183.12" y="-61" font-family="Helvetica,sans-Serif" font-size="10.00">slitherlink/core/Edge.h</text>
</a>
</g>
</g>
<!-- Node4&#45;&gt;Node5 -->
<g id="edge4_Node000004_Node000005" class="edge">
<title>Node4&#45;&gt;Node5</title>
<g id="a_edge4_Node000004_Node000005"><a xlink:title=" ">
<path fill="none" stroke="#63b8ff" d="M528.63,-118.17C461.13,-107.95 330.61,-88.2 250.74,-76.11"/>
<polygon fill="#63b8ff" stroke="#63b8ff" points="251.73,-72.72 241.31,-74.68 250.68,-79.64 251.73,-72.72"/>
</a>
</g>
</g>
<!-- Node6 -->
<g id="Node000006" class="node">
<title>Node6</title>
<g id="a_Node000006"><a xlink:href="_solution_8h.html" target="_top" xlink:title=" ">
<polygon fill="white" stroke="#666666" points="1026.88,-74.5 901.38,-74.5 901.38,-55.25 1026.88,-55.25 1026.88,-74.5"/>
<text xml:space="preserve" text-anchor="middle" x="964.12" y="-61" font-family="Helvetica,sans-Serif" font-size="10.00">slitherlink/core/Solution.h</text>
</a>
</g>
</g>
<!-- Node4&#45;&gt;Node6 -->
<g id="edge6_Node000004_Node000006" class="edge">
<title>Node4&#45;&gt;Node6</title>
<g id="a_edge6_Node000004_Node000006"><a xlink:title=" ">
<path fill="none" stroke="#63b8ff" d="M615.57,-118.22C682.49,-108.17 811.51,-88.8 892.42,-76.65"/>
<polygon fill="#63b8ff" stroke="#63b8ff" points="892.64,-80.15 902,-75.2 891.6,-73.23 892.64,-80.15"/>
</a>
</g>
</g>
<!-- Node8 -->
<g id="Node000008" class="node">
<title>Node8</title>
<g id="a_Node000008"><a xlink:href="_state_8h.html" target="_top" xlink:title=" ">
<polygon fill="white" stroke="#666666" points="370.88,-74.5 257.38,-74.5 257.38,-55.25 370.88,-55.25 370.88,-74.5"/>
<text xml:space="preserve" text-anchor="middle" x="314.12" y="-61" font-family="Helvetica,sans-Serif" font-size="10.00">slitherlink/core/State.h</text>
</a>
</g>
</g>
<!-- Node4&#45;&gt;Node8 -->
<g id="edge9_Node000004_Node000008" class="edge">
<title>Node4&#45;&gt;Node8</title>
<g id="a_edge9_Node000004_Node000008"><a xlink:title=" ">
<path fill="none" stroke="#63b8ff" d="M528.65,-114.83C483.45,-104.51 412.74,-88.38 364.98,-77.48"/>
<polygon fill="#63b8ff" stroke="#63b8ff" points="365.96,-74.11 355.43,-75.3 364.4,-80.94 365.96,-74.11"/>
</a>
</g>
</g>
<!-- Node9 -->
<g id="Node000009" class="node">
<title>Node9</title>
<g id="a_Node000009"><a xlink:title=" ">
<polygon fill="#e0e0e0" stroke="#999999" points="433.75,-74.5 388.5,-74.5 388.5,-55.25 433.75,-55.25 433.75,-74.5"/>
<text xml:space="preserve" text-anchor="middle" x="411.12" y="-61" font-family="Helvetica,sans-Serif" font-size="10.00">atomic</text>
</a>
</g>
</g>
<!-- Node4&#45;&gt;Node9 -->
<g id="edge11_Node000004_Node000009" class="edge">
<title>Node4&#45;&gt;Node9</title>
<g id="a_edge11_Node000004_Node000009"><a xlink:title=" ">
<path fill="none" stroke="#63b8ff" d="M531.91,-110.05C504.98,-100.2 469.93,-87.38 444.53,-78.09"/>
<polygon fill="#63b8ff" stroke="#63b8ff" points="445.96,-74.89 435.37,-74.74 443.56,-81.46 445.96,-74.89"/>
</a>
</g>
</g>
<!-- Node4&#45;&gt;Node10 -->
<g id="edge12_Node000004_Node000010" class="edge">
<title>Node4&#45;&gt;Node10</title>
<g id="a_edge12_Node000004_Node000010"><a xlink:title=" ">
<path fill="none" stroke="#63b8ff" d="M615.72,-114.36C662.88,-103.12 737.3,-85.38 781.85,-74.76"/>
<polygon fill="#63b8ff" stroke="#63b8ff" points="782.64,-78.17 791.56,-72.45 781.02,-71.36 782.64,-78.17"/>
</a>
</g>
</g>
<!-- Node11 -->
<g id="Node000011" class="node">
<title>Node11</title>
<g id="a_Node000011"><a xlink:title=" ">
<polygon fill="#e0e0e0" stroke="#999999" points="494.62,-74.5 451.62,-74.5 451.62,-55.25 494.62,-55.25 494.62,-74.5"/>
<text xml:space="preserve" text-anchor="middle" x="473.12" y="-61" font-family="Helvetica,sans-Serif" font-size="10.00">mutex</text>
</a>
</g>
</g>
<!-- Node4&#45;&gt;Node11 -->
<g id="edge13_Node000004_Node000011" class="edge">
<title>Node4&#45;&gt;Node11</title>
<g id="a_edge13_Node000004_Node000011"><a xlink:title=" ">
<path fill="none" stroke="#63b8ff" d="M547.4,-110.05C532.32,-101.08 513.11,-89.66 498.01,-80.67"/>
<polygon fill="#63b8ff" stroke="#63b8ff" points="499.99,-77.78 489.61,-75.68 496.41,-83.8 499.99,-77.78"/>
</a>
</g>
</g>
<!-- Node12 -->
<g id="Node000012" class="node">
<title>Node12</title>
<g id="a_Node000012"><a xlink:title=" ">
<polygon fill="#e0e0e0" stroke="#999999" points="631.12,-74.5 513.12,-74.5 513.12,-55.25 631.12,-55.25 631.12,-74.5"/>
<text xml:space="preserve" text-anchor="middle" x="572.12" y="-61" font-family="Helvetica,sans-Serif" font-size="10.00">tbb/concurrent_vector.h</text>
</a>
</g>
</g>
<!-- Node4&#45;&gt;Node12 -->
<g id="edge15_Node000004_Node000012" class="edge">
<title>Node4&#45;&gt;Node12</title>
<g id="a_edge15_Node000004_Node000012"><a xlink:title=" ">
<path fill="none" stroke="#63b8ff" d="M572.12,-110.2C572.12,-102.96 572.12,-94.09 572.12,-86.19"/>
<polygon fill="#63b8ff" stroke="#63b8ff" points="575.63,-86.46 572.13,-76.46 568.63,-86.46 575.63,-86.46"/>
</a>
</g>
</g>
<!-- Node13 -->
<g id="Node000013" class="node">
<title>Node13</title>
<g id="a_Node000013"><a xlink:title=" ">
<polygon fill="#e0e0e0" stroke="#999999" points="737.5,-74.5 648.75,-74.5 648.75,-55.25 737.5,-55.25 737.5,-74.5"/>
<text xml:space="preserve" text-anchor="middle" x="693.12" y="-61" font-family="Helvetica,sans-Serif" font-size="10.00">tbb/task_arena.h</text>
</a>
</g>
</g>
<!-- Node4&#45;&gt;Node13 -->
<g id="edge16_Node000004_Node000013" class="edge">
<title>Node4&#45;&gt;Node13</title>
<g id="a_edge16_Node000004_Node000013"><a xlink:title=" ">
<path fill="none" stroke="#63b8ff" d="M602.35,-110.05C621.31,-100.82 645.61,-89 664.3,-79.9"/>
<polygon fill="#63b8ff" stroke="#63b8ff" points="665.75,-83.09 673.21,-75.57 662.68,-76.79 665.75,-83.09"/>
</a>
</g>
</g>
<!-- Node6&#45;&gt;Node3 -->
<g id="edge8_Node000006_Node000003" class="edge">
<title>Node6&#45;&gt;Node3</title>
<g id="a_edge8_Node000006_Node000003"><a xlink:title=" ">
<path fill="none" stroke="#63b8ff" d="M930.37,-54.84C893.44,-44.96 834.66,-29.23 798.07,-19.44"/>
<polygon fill="#63b8ff" stroke="#63b8ff" points="799.05,-16.08 788.48,-16.87 797.24,-22.84 799.05,-16.08"/>
</a>
</g>
</g>
<!-- Node7 -->
<g id="Node000007" class="node">
<title>Node7</title>
<g id="a_Node000007"><a xlink:title=" ">
<polygon fill="#e0e0e0" stroke="#999999" points="983.75,-19.25 944.5,-19.25 944.5,0 983.75,0 983.75,-19.25"/>
<text xml:space="preserve" text-anchor="middle" x="964.12" y="-5.75" font-family="Helvetica,sans-Serif" font-size="10.00">utility</text>
</a>
</g>
</g>
<!-- Node6&#45;&gt;Node7 -->
<g id="edge7_Node000006_Node000007" class="edge">
<title>Node6&#45;&gt;Node7</title>
<g id="a_edge7_Node000006_Node000007"><a xlink:title=" ">
<path fill="none" stroke="#63b8ff" d="M964.12,-55.08C964.12,-48.57 964.12,-39.42 964.12,-31.12"/>
<polygon fill="#63b8ff" stroke="#63b8ff" points="967.63,-31.12 964.13,-21.12 960.63,-31.12 967.63,-31.12"/>
</a>
</g>
</g>
<!-- Node8&#45;&gt;Node3 -->
<g id="edge10_Node000008_Node000003" class="edge">
<title>Node8&#45;&gt;Node3</title>
<g id="a_edge10_Node000008_Node000003"><a xlink:title=" ">
<path fill="none" stroke="#63b8ff" d="M371.19,-56.25C373.87,-55.91 376.53,-55.57 379.12,-55.25 509.58,-39.05 665.1,-21.66 731.92,-14.27"/>
<polygon fill="#63b8ff" stroke="#63b8ff" points="732.28,-17.75 741.84,-13.18 731.52,-10.8 732.28,-17.75"/>
</a>
</g>
</g>
<!-- Node14&#45;&gt;Node3 -->
<g id="edge19_Node000014_Node000003" class="edge">
<title>Node14&#45;&gt;Node3</title>
<g id="a_edge19_Node000014_Node000003"><a xlink:title=" ">
<path fill="none" stroke="#63b8ff" d="M871.78,-110.15C870.7,-94.91 866.9,-71.05 854.12,-55.25 839.93,-37.69 817.05,-26.43 798.04,-19.62"/>
<polygon fill="#63b8ff" stroke="#63b8ff" points="799.14,-16.29 788.55,-16.49 796.95,-22.94 799.14,-16.29"/>
</a>
</g>
</g>
<!-- Node14&#45;&gt;Node6 -->
<g id="edge18_Node000014_Node000006" class="edge">
<title>Node14&#45;&gt;Node6</title>
<g id="a_edge18_Node000014_Node000006"><a xlink:title=" ">
<path fill="none" stroke="#63b8ff" d="M894.87,-110.2C908.74,-101.32 926.44,-89.99 940.48,-81.01"/>
<polygon fill="#63b8ff" stroke="#63b8ff" points="942.13,-84.11 948.67,-75.77 938.36,-78.21 942.13,-84.11"/>
</a>
</g>
</g>
<!-- Node15&#45;&gt;Node6 -->
<g id="edge21_Node000015_Node000006" class="edge">
<title>Node15&#45;&gt;Node6</title>
<g id="a_edge21_Node000015_Node000006"><a xlink:title=" ">
<path fill="none" stroke="#63b8ff" d="M985.96,-110.2C982.22,-102.61 977.6,-93.24 973.58,-85.07"/>
<polygon fill="#63b8ff" stroke="#63b8ff" points="976.82,-83.73 969.26,-76.31 970.54,-86.83 976.82,-83.73"/>
</a>
</g>
</g>
<!-- Node15&#45;&gt;Node16 -->
<g id="edge22_Node000015_Node000016" class="edge">
<title>Node15&#45;&gt;Node16</title>
<g id="a_edge22_Node000015_Node000016"><a xlink:title=" ">
<path fill="none" stroke="#63b8ff" d="M1012.65,-110.2C1024.22,-101.58 1038.88,-90.65 1050.76,-81.8"/>
<polygon fill="#63b8ff" stroke="#63b8ff" points="1052.81,-84.64 1058.73,-75.86 1048.62,-79.02 1052.81,-84.64"/>
</a>
</g>
</g>
</g>
</svg>
