<?xml version="1.0" encoding="UTF-8" standalone="no"?>
<!DOCTYPE svg PUBLIC "-//W3C//DTD SVG 1.1//EN"
 "http://www.w3.org/Graphics/SVG/1.1/DTD/svg11.dtd">
<!-- Generated by graphviz version 14.0.2 (20251019.1705)
 -->
<!-- Title: include/factory/SlitherlinkSolver.h Pages: 1 -->
<svg width="680pt" height="260pt"
 viewBox="0.00 0.00 680.00 260.00" xmlns="http://www.w3.org/2000/svg" xmlns:xlink="http://www.w3.org/1999/xlink">
<g id="graph0" class="graph" transform="scale(1 1) rotate(0) translate(4 255.5)">
<title>include/factory/SlitherlinkSolver.h</title>
<!-- Node1 -->
<g id="Node000001" class="node">
<title>Node1</title>
<g id="a_Node000001"><a xlink:title=" ">
<polygon fill="#999999" stroke="#666666" points="392.75,-251.5 267.25,-251.5 267.25,-221 392.75,-221 392.75,-251.5"/>
<text xml:space="preserve" text-anchor="start" x="275.25" y="-238" font-family="Helvetica,sans-Serif" font-size="10.00">include/factory/Slitherlink</text>
<text xml:space="preserve" text-anchor="middle" x="330" y="-226.75" font-family="Helvetica,sans-Serif" font-size="10.00">Solver.h</text>
</a>
</g>
</g>
<!-- Node2 -->
<g id="Node000002" class="node">
<title>Node2</title>
<g id="a_Node000002"><a xlink:href="_grid_8h.html" target="_top" xlink:title=" ">
<polygon fill="white" stroke="#666666" points="64,-129.75 0,-129.75 0,-110.5 64,-110.5 64,-129.75"/>
<text xml:space="preserve" text-anchor="middle" x="32" y="-116.25" font-family="Helvetica,sans-Serif" font-size="10.00">core/Grid.h</text>
</a>
</g>
</g>
<!-- Node1&#45;&gt;Node2 -->
<g id="edge1_Node000001_Node000002" class="edge">
<title>Node1&#45;&gt;Node2</title>
<g id="a_edge1_Node000001_Node000002"><a xlink:title=" ">
<path fill="none" stroke="#63b8ff" d="M291.65,-220.56C233,-198.1 121.93,-155.57 66,-134.15"/>
<polygon fill="#63b8ff" stroke="#63b8ff" points="67.58,-131 56.99,-130.7 65.08,-137.54 67.58,-131"/>
</a>
</g>
</g>
<!-- Node5 -->
<g id="Node000005" class="node">
<title>Node5</title>
<g id="a_Node000005"><a xlink:href="_solver_8h.html" target="_top" xlink:title=" ">
<polygon fill="white" stroke="#666666" points="336.25,-185 255.75,-185 255.75,-165.75 336.25,-165.75 336.25,-185"/>
<text xml:space="preserve" text-anchor="middle" x="296" y="-171.5" font-family="Helvetica,sans-Serif" font-size="10.00">solver/Solver.h</text>
</a>
</g>
</g>
<!-- Node1&#45;&gt;Node5 -->
<g id="edge4_Node000001_Node000005" class="edge">
<title>Node1&#45;&gt;Node5</title>
<g id="a_edge4_Node000001_Node000005"><a xlink:title=" ">
<path fill="none" stroke="#63b8ff" d="M321.6,-220.7C317.17,-213.03 311.68,-203.52 306.92,-195.29"/>
<polygon fill="#63b8ff" stroke="#63b8ff" points="310.03,-193.67 302,-186.76 303.97,-197.17 310.03,-193.67"/>
</a>
</g>
</g>
<!-- Node13 -->
<g id="Node000013" class="node">
<title>Node13</title>
<g id="a_Node000013"><a xlink:title=" ">
<polygon fill="#e0e0e0" stroke="#999999" points="671.62,-129.75 620.38,-129.75 620.38,-110.5 671.62,-110.5 671.62,-129.75"/>
<text xml:space="preserve" text-anchor="middle" x="646" y="-116.25" font-family="Helvetica,sans-Serif" font-size="10.00">memory</text>
</a>
</g>
</g>
<!-- Node1&#45;&gt;Node13 -->
<g id="edge21_Node000001_Node000013" class="edge">
<title>Node1&#45;&gt;Node13</title>
<g id="a_edge21_Node000001_Node000013"><a xlink:title=" ">
<path fill="none" stroke="#63b8ff" d="M336.87,-220.6C345.31,-204.35 361.23,-178.73 383,-165.75 468.38,-114.85 508.23,-147.92 608.82,-130.12"/>
<polygon fill="#63b8ff" stroke="#63b8ff" points="609.42,-133.57 618.58,-128.25 608.1,-126.7 609.42,-133.57"/>
</a>
</g>
</g>
<!-- Node15 -->
<g id="Node000015" class="node">
<title>Node15</title>
<g id="a_Node000015"><a xlink:title=" ">
<polygon fill="#e0e0e0" stroke="#999999" points="445.75,-185 392.25,-185 392.25,-165.75 445.75,-165.75 445.75,-185"/>
<text xml:space="preserve" text-anchor="middle" x="419" y="-171.5" font-family="Helvetica,sans-Serif" font-size="10.00">iostream</text>
</a>
</g>
</g>
<!-- Node1&#45;&gt;Node15 -->
<g id="edge22_Node000001_Node000015" class="edge">
<title>Node1&#45;&gt;Node15</title>
<g id="a_edge22_Node000001_Node000015"><a xlink:title=" ">
<path fill="none" stroke="#63b8ff" d="M352,-220.7C365.29,-211.9 382.21,-200.71 395.73,-191.77"/>
<polygon fill="#63b8ff" stroke="#63b8ff" points="397.61,-194.72 404.02,-186.29 393.75,-188.88 397.61,-194.72"/>
</a>
</g>
</g>
<!-- Node3 -->
<g id="Node000003" class="node">
<title>Node3</title>
<g id="a_Node000003"><a xlink:title=" ">
<polygon fill="#e0e0e0" stroke="#999999" points="194.5,-19.25 151.5,-19.25 151.5,0 194.5,0 194.5,-19.25"/>
<text xml:space="preserve" text-anchor="middle" x="173" y="-5.75" font-family="Helvetica,sans-Serif" font-size="10.00">vector</text>
</a>
</g>
</g>
<!-- Node2&#45;&gt;Node3 -->
<g id="edge2_Node000002_Node000003" class="edge">
<title>Node2&#45;&gt;Node3</title>
<g id="a_edge2_Node000002_Node000003"><a xlink:title=" ">
<path fill="none" stroke="#63b8ff" d="M25.4,-110.37C16.31,-97.16 2.4,-71.9 15,-55.25 30.02,-35.4 98.1,-21.86 139.84,-15.26"/>
<polygon fill="#63b8ff" stroke="#63b8ff" points="140.24,-18.74 149.6,-13.78 139.19,-11.82 140.24,-18.74"/>
</a>
</g>
</g>
<!-- Node4 -->
<g id="Node000004" class="node">
<title>Node4</title>
<g id="a_Node000004"><a xlink:title=" ">
<polygon fill="#e0e0e0" stroke="#999999" points="64,-74.5 24,-74.5 24,-55.25 64,-55.25 64,-74.5"/>
<text xml:space="preserve" text-anchor="middle" x="44" y="-61" font-family="Helvetica,sans-Serif" font-size="10.00">string</text>
</a>
</g>
</g>
<!-- Node2&#45;&gt;Node4 -->
<g id="edge3_Node000002_Node000004" class="edge">
<title>Node2&#45;&gt;Node4</title>
<g id="a_edge3_Node000002_Node000004"><a xlink:title=" ">
<path fill="none" stroke="#63b8ff" d="M33.98,-110.33C35.47,-103.74 37.56,-94.46 39.45,-86.07"/>
<polygon fill="#63b8ff" stroke="#63b8ff" points="42.86,-86.86 41.64,-76.34 36.03,-85.32 42.86,-86.86"/>
</a>
</g>
</g>
<!-- Node5&#45;&gt;Node2 -->
<g id="edge5_Node000005_Node000002" class="edge">
<title>Node5&#45;&gt;Node2</title>
<g id="a_edge5_Node000005_Node000002"><a xlink:title=" ">
<path fill="none" stroke="#63b8ff" d="M255.33,-166.17C206.62,-156.35 125.37,-139.96 75.46,-129.89"/>
<polygon fill="#63b8ff" stroke="#63b8ff" points="76.37,-126.5 65.88,-127.96 74.99,-133.37 76.37,-126.5"/>
</a>
</g>
</g>
<!-- Node5&#45;&gt;Node3 -->
<g id="edge18_Node000005_Node000003" class="edge">
<title>Node5&#45;&gt;Node3</title>
<g id="a_edge18_Node000005_Node000003"><a xlink:title=" ">
<path fill="none" stroke="#63b8ff" d="M255.42,-170.37C206.5,-164.62 128.63,-152.14 111,-129.75 84.95,-96.67 126.5,-50.98 153.25,-26.94"/>
<polygon fill="#63b8ff" stroke="#63b8ff" points="155.23,-29.85 160.49,-20.65 150.64,-24.56 155.23,-29.85"/>
</a>
</g>
</g>
<!-- Node6 -->
<g id="Node000006" class="node">
<title>Node6</title>
<g id="a_Node000006"><a xlink:href="_edge_8h.html" target="_top" xlink:title=" ">
<polygon fill="white" stroke="#666666" points="166.38,-129.75 119.62,-129.75 119.62,-110.5 166.38,-110.5 166.38,-129.75"/>
<text xml:space="preserve" text-anchor="middle" x="143" y="-116.25" font-family="Helvetica,sans-Serif" font-size="10.00">Edge.h</text>
</a>
</g>
</g>
<!-- Node5&#45;&gt;Node6 -->
<g id="edge6_Node000005_Node000006" class="edge">
<title>Node5&#45;&gt;Node6</title>
<g id="a_edge6_Node000005_Node000006"><a xlink:title=" ">
<path fill="none" stroke="#63b8ff" d="M270.05,-165.34C244.46,-156.44 205.21,-142.78 177.11,-133"/>
<polygon fill="#63b8ff" stroke="#63b8ff" points="178.59,-129.81 168,-129.82 176.29,-136.42 178.59,-129.81"/>
</a>
</g>
</g>
<!-- Node7 -->
<g id="Node000007" class="node">
<title>Node7</title>
<g id="a_Node000007"><a xlink:href="_state_8h.html" target="_top" xlink:title=" ">
<polygon fill="white" stroke="#666666" points="278.75,-74.5 231.25,-74.5 231.25,-55.25 278.75,-55.25 278.75,-74.5"/>
<text xml:space="preserve" text-anchor="middle" x="255" y="-61" font-family="Helvetica,sans-Serif" font-size="10.00">State.h</text>
</a>
</g>
</g>
<!-- Node5&#45;&gt;Node7 -->
<g id="edge7_Node000005_Node000007" class="edge">
<title>Node5&#45;&gt;Node7</title>
<g id="a_edge7_Node000005_Node000007"><a xlink:title=" ">
<path fill="none" stroke="#63b8ff" d="M262.13,-165.39C244.17,-158.71 223.66,-147.58 213,-129.75 203.08,-113.15 218.07,-94.74 232.82,-81.97"/>
<polygon fill="#63b8ff" stroke="#63b8ff" points="234.95,-84.75 240.57,-75.76 230.57,-79.29 234.95,-84.75"/>
</a>
</g>
</g>
<!-- Node8 -->
<g id="Node000008" class="node">
<title>Node8</title>
<g id="a_Node000008"><a xlink:href="_solution_8h.html" target="_top" xlink:title=" ">
<polygon fill="white" stroke="#666666" points="539.75,-129.75 480.25,-129.75 480.25,-110.5 539.75,-110.5 539.75,-129.75"/>
<text xml:space="preserve" text-anchor="middle" x="510" y="-116.25" font-family="Helvetica,sans-Serif" font-size="10.00">Solution.h</text>
</a>
</g>
</g>
<!-- Node5&#45;&gt;Node8 -->
<g id="edge9_Node000005_Node000008" class="edge">
<title>Node5&#45;&gt;Node8</title>
<g id="a_edge9_Node000005_Node000008"><a xlink:title=" ">
<path fill="none" stroke="#63b8ff" d="M332.3,-165.34C370.07,-155.94 429.12,-141.25 468.66,-131.41"/>
<polygon fill="#63b8ff" stroke="#63b8ff" points="469.43,-134.83 478.29,-129.02 467.74,-128.03 469.43,-134.83"/>
</a>
</g>
</g>
<!-- Node10 -->
<g id="Node000010" class="node">
<title>Node10</title>
<g id="a_Node000010"><a xlink:href="_i_heuristic_8h.html" target="_top" xlink:title=" ">
<polygon fill="white" stroke="#666666" points="288.12,-129.75 221.88,-129.75 221.88,-110.5 288.12,-110.5 288.12,-129.75"/>
<text xml:space="preserve" text-anchor="middle" x="255" y="-116.25" font-family="Helvetica,sans-Serif" font-size="10.00">IHeuristic.h</text>
</a>
</g>
</g>
<!-- Node5&#45;&gt;Node10 -->
<g id="edge12_Node000005_Node000010" class="edge">
<title>Node5&#45;&gt;Node10</title>
<g id="a_edge12_Node000005_Node000010"><a xlink:title=" ">
<path fill="none" stroke="#63b8ff" d="M289.23,-165.58C283.68,-158.38 275.66,-147.96 268.77,-139.01"/>
<polygon fill="#63b8ff" stroke="#63b8ff" points="271.71,-137.1 262.84,-131.31 266.17,-141.37 271.71,-137.1"/>
</a>
</g>
</g>
<!-- Node11 -->
<g id="Node000011" class="node">
<title>Node11</title>
<g id="a_Node000011"><a xlink:href="_i_validator_8h.html" target="_top" xlink:title=" ">
<polygon fill="white" stroke="#666666" points="370,-129.75 306,-129.75 306,-110.5 370,-110.5 370,-129.75"/>
<text xml:space="preserve" text-anchor="middle" x="338" y="-116.25" font-family="Helvetica,sans-Serif" font-size="10.00">IValidator.h</text>
</a>
</g>
</g>
<!-- Node5&#45;&gt;Node11 -->
<g id="edge14_Node000005_Node000011" class="edge">
<title>Node5&#45;&gt;Node11</title>
<g id="a_edge14_Node000005_Node000011"><a xlink:title=" ">
<path fill="none" stroke="#63b8ff" d="M302.94,-165.58C308.62,-158.38 316.84,-147.96 323.89,-139.01"/>
<polygon fill="#63b8ff" stroke="#63b8ff" points="326.53,-141.32 329.98,-131.3 321.04,-136.98 326.53,-141.32"/>
</a>
</g>
</g>
<!-- Node12 -->
<g id="Node000012" class="node">
<title>Node12</title>
<g id="a_Node000012"><a xlink:href="_i_propagator_8h.html" target="_top" xlink:title=" ">
<polygon fill="white" stroke="#666666" points="461.88,-129.75 388.12,-129.75 388.12,-110.5 461.88,-110.5 461.88,-129.75"/>
<text xml:space="preserve" text-anchor="middle" x="425" y="-116.25" font-family="Helvetica,sans-Serif" font-size="10.00">IPropagator.h</text>
</a>
</g>
</g>
<!-- Node5&#45;&gt;Node12 -->
<g id="edge16_Node000005_Node000012" class="edge">
<title>Node5&#45;&gt;Node12</title>
<g id="a_edge16_Node000005_Node000012"><a xlink:title=" ">
<path fill="none" stroke="#63b8ff" d="M317.88,-165.34C338.36,-156.89 369.21,-144.15 392.56,-134.52"/>
<polygon fill="#63b8ff" stroke="#63b8ff" points="393.7,-137.83 401.61,-130.78 391.03,-131.36 393.7,-137.83"/>
</a>
</g>
</g>
<!-- Node5&#45;&gt;Node13 -->
<g id="edge19_Node000005_Node000013" class="edge">
<title>Node5&#45;&gt;Node13</title>
<g id="a_edge19_Node000005_Node000013"><a xlink:title=" ">
<path fill="none" stroke="#63b8ff" d="M336.68,-167.78C341.17,-167.08 345.68,-166.39 350,-165.75 462.74,-149 494.71,-152.03 609.12,-130.14"/>
<polygon fill="#63b8ff" stroke="#63b8ff" points="609.44,-133.65 618.59,-128.31 608.11,-126.77 609.44,-133.65"/>
</a>
</g>
</g>
<!-- Node14 -->
<g id="Node000014" class="node">
<title>Node14</title>
<g id="a_Node000014"><a xlink:title=" ">
<polygon fill="#e0e0e0" stroke="#999999" points="602.62,-129.75 557.38,-129.75 557.38,-110.5 602.62,-110.5 602.62,-129.75"/>
<text xml:space="preserve" text-anchor="middle" x="580" y="-116.25" font-family="Helvetica,sans-Serif" font-size="10.00">atomic</text>
</a>
</g>
</g>
<!-- Node5&#45;&gt;Node14 -->
<g id="edge20_Node000005_Node000014" class="edge">
<title>Node5&#45;&gt;Node14</title>
<g id="a_edge20_Node000005_Node000014"><a xlink:title=" ">
<path fill="none" stroke="#63b8ff" d="M336.28,-167.76C392.75,-158.41 493.68,-141.39 546.03,-130.21"/>
<polygon fill="#63b8ff" stroke="#63b8ff" points="546.55,-133.68 555.56,-128.11 545.04,-126.85 546.55,-133.68"/>
</a>
</g>
</g>
<!-- Node7&#45;&gt;Node3 -->
<g id="edge8_Node000007_Node000003" class="edge">
<title>Node7&#45;&gt;Node3</title>
<g id="a_edge8_Node000007_Node000003"><a xlink:title=" ">
<path fill="none" stroke="#63b8ff" d="M241.09,-54.84C228.84,-46.89 210.75,-35.14 196.29,-25.75"/>
<polygon fill="#63b8ff" stroke="#63b8ff" points="198.54,-23.04 188.25,-20.53 194.73,-28.91 198.54,-23.04"/>
</a>
</g>
</g>
<!-- Node8&#45;&gt;Node3 -->
<g id="edge10_Node000008_Node000003" class="edge">
<title>Node8&#45;&gt;Node3</title>
<g id="a_edge10_Node000008_Node000003"><a xlink:title=" ">
<path fill="none" stroke="#63b8ff" d="M481.85,-110.06C419.79,-90.08 271.51,-42.34 205.57,-21.11"/>
<polygon fill="#63b8ff" stroke="#63b8ff" points="207.02,-17.9 196.43,-18.17 204.87,-24.56 207.02,-17.9"/>
</a>
</g>
</g>
<!-- Node9 -->
<g id="Node000009" class="node">
<title>Node9</title>
<g id="a_Node000009"><a xlink:title=" ">
<polygon fill="#e0e0e0" stroke="#999999" points="529.62,-74.5 490.38,-74.5 490.38,-55.25 529.62,-55.25 529.62,-74.5"/>
<text xml:space="preserve" text-anchor="middle" x="510" y="-61" font-family="Helvetica,sans-Serif" font-size="10.00">utility</text>
</a>
</g>
</g>
<!-- Node8&#45;&gt;Node9 -->
<g id="edge11_Node000008_Node000009" class="edge">
<title>Node8&#45;&gt;Node9</title>
<g id="a_edge11_Node000008_Node000009"><a xlink:title=" ">
<path fill="none" stroke="#63b8ff" d="M510,-110.33C510,-103.82 510,-94.67 510,-86.37"/>
<polygon fill="#63b8ff" stroke="#63b8ff" points="513.5,-86.37 510,-76.37 506.5,-86.37 513.5,-86.37"/>
</a>
</g>
</g>
<!-- Node10&#45;&gt;Node7 -->
<g id="edge13_Node000010_Node000007" class="edge">
<title>Node10&#45;&gt;Node7</title>
<g id="a_edge13_Node000010_Node000007"><a xlink:title=" ">
<path fill="none" stroke="#63b8ff" d="M255,-110.33C255,-103.82 255,-94.67 255,-86.37"/>
<polygon fill="#63b8ff" stroke="#63b8ff" points="258.5,-86.37 255,-76.37 251.5,-86.37 258.5,-86.37"/>
</a>
</g>
</g>
<!-- Node11&#45;&gt;Node7 -->
<g id="edge15_Node000011_Node000007" class="edge">
<title>Node11&#45;&gt;Node7</title>
<g id="a_edge15_Node000011_Node000007"><a xlink:title=" ">
<path fill="none" stroke="#63b8ff" d="M323.92,-110.09C311.52,-102.14 293.21,-90.39 278.57,-81"/>
<polygon fill="#63b8ff" stroke="#63b8ff" points="280.73,-78.22 270.42,-75.77 276.95,-84.12 280.73,-78.22"/>
</a>
</g>
</g>
<!-- Node12&#45;&gt;Node7 -->
<g id="edge17_Node000012_Node000007" class="edge">
<title>Node12&#45;&gt;Node7</title>
<g id="a_edge17_Node000012_Node000007"><a xlink:title=" ">
<path fill="none" stroke="#63b8ff" d="M396.16,-110.09C366.8,-100.9 321.26,-86.63 289.89,-76.8"/>
<polygon fill="#63b8ff" stroke="#63b8ff" points="291.06,-73.5 280.47,-73.85 288.97,-80.18 291.06,-73.5"/>
</a>
</g>
</g>
</g>
</svg>
