<?xml version="1.0" encoding="UTF-8" standalone="no"?>
<!DOCTYPE svg PUBLIC "-//W3C//DTD SVG 1.1//EN"
 "http://www.w3.org/Graphics/SVG/1.1/DTD/svg11.dtd">
<!-- Generated by graphviz version 14.0.2 (20251019.1705)
 -->
<!-- Title: include/slitherlink/core/Solution.h Pages: 1 -->
<svg width="914pt" height="305pt"
 viewBox="0.00 0.00 914.00 305.00" xmlns="http://www.w3.org/2000/svg" xmlns:xlink="http://www.w3.org/1999/xlink">
<g id="graph0" class="graph" transform="scale(1 1) rotate(0) translate(4 300.5)">
<title>include/slitherlink/core/Solution.h</title>
<!-- Node1 -->
<g id="Node000001" class="node">
<title>Node1</title>
<g id="a_Node000001"><a xlink:title=" ">
<polygon fill="#999999" stroke="#666666" points="692.12,-296.5 601.12,-296.5 601.12,-266 692.12,-266 692.12,-296.5"/>
<text xml:space="preserve" text-anchor="start" x="609.12" y="-283" font-family="Helvetica,sans-Serif" font-size="10.00">include/slitherlink</text>
<text xml:space="preserve" text-anchor="middle" x="646.62" y="-271.75" font-family="Helvetica,sans-Serif" font-size="10.00">/core/Solution.h</text>
</a>
</g>
</g>
<!-- Node2 -->
<g id="Node000002" class="node">
<title>Node2</title>
<g id="a_Node000002"><a xlink:href="_slitherlink_8h.html" target="_top" xlink:title=" ">
<polygon fill="white" stroke="#666666" points="743.12,-30.5 652.12,-30.5 652.12,0 743.12,0 743.12,-30.5"/>
<text xml:space="preserve" text-anchor="start" x="660.12" y="-17" font-family="Helvetica,sans-Serif" font-size="10.00">include/slitherlink</text>
<text xml:space="preserve" text-anchor="middle" x="697.62" y="-5.75" font-family="Helvetica,sans-Serif" font-size="10.00">/Slitherlink.h</text>
</a>
</g>
</g>
<!-- Node1&#45;&gt;Node2 -->
<g id="edge1_Node000001_Node000002" class="edge">
<title>Node1&#45;&gt;Node2</title>
<g id="a_edge1_Node000001_Node000002"><a xlink:title=" ">
<path fill="none" stroke="#63b8ff" d="M677.62,-258.66C686.79,-250.71 695.89,-240.94 701.62,-230 736.76,-162.93 713.36,-67.02 702.4,-30.82"/>
<polygon fill="#63b8ff" stroke="#63b8ff" points="675.67,-255.74 670.1,-264.75 680.07,-261.18 675.67,-255.74"/>
</a>
</g>
</g>
<!-- Node3 -->
<g id="Node000003" class="node">
<title>Node3</title>
<g id="a_Node000003"><a xlink:href="_i_solution_collector_8h.html" target="_top" xlink:title=" ">
<polygon fill="white" stroke="#666666" points="424.38,-230 274.88,-230 274.88,-199.5 424.38,-199.5 424.38,-230"/>
<text xml:space="preserve" text-anchor="start" x="282.88" y="-216.5" font-family="Helvetica,sans-Serif" font-size="10.00">include/slitherlink</text>
<text xml:space="preserve" text-anchor="middle" x="349.62" y="-205.25" font-family="Helvetica,sans-Serif" font-size="10.00">/interfaces/ISolutionCollector.h</text>
</a>
</g>
</g>
<!-- Node1&#45;&gt;Node3 -->
<g id="edge2_Node000001_Node000003" class="edge">
<title>Node1&#45;&gt;Node3</title>
<g id="a_edge2_Node000001_Node000003"><a xlink:title=" ">
<path fill="none" stroke="#63b8ff" d="M589.81,-267.91C540.7,-257.25 469.61,-241.81 417.51,-230.49"/>
<polygon fill="#63b8ff" stroke="#63b8ff" points="588.88,-271.29 599.39,-269.99 590.36,-264.45 588.88,-271.29"/>
</a>
</g>
</g>
<!-- Node11 -->
<g id="Node000011" class="node">
<title>Node11</title>
<g id="a_Node000011"><a xlink:href="_i_solution_printer_8h.html" target="_top" xlink:title=" ">
<polygon fill="white" stroke="#666666" points="581.12,-230 442.12,-230 442.12,-199.5 581.12,-199.5 581.12,-230"/>
<text xml:space="preserve" text-anchor="start" x="450.12" y="-216.5" font-family="Helvetica,sans-Serif" font-size="10.00">include/slitherlink</text>
<text xml:space="preserve" text-anchor="middle" x="511.62" y="-205.25" font-family="Helvetica,sans-Serif" font-size="10.00">/interfaces/ISolutionPrinter.h</text>
</a>
</g>
</g>
<!-- Node1&#45;&gt;Node11 -->
<g id="edge13_Node000001_Node000011" class="edge">
<title>Node1&#45;&gt;Node11</title>
<g id="a_edge13_Node000001_Node000011"><a xlink:title=" ">
<path fill="none" stroke="#63b8ff" d="M605.7,-260.7C585.25,-250.93 560.93,-239.31 542.14,-230.33"/>
<polygon fill="#63b8ff" stroke="#63b8ff" points="604.09,-263.81 614.63,-264.96 607.11,-257.49 604.09,-263.81"/>
</a>
</g>
</g>
<!-- Node14 -->
<g id="Node000014" class="node">
<title>Node14</title>
<g id="a_Node000014"><a xlink:href="_i_solution_validator_8h.html" target="_top" xlink:title=" ">
<polygon fill="white" stroke="#666666" points="905.62,-230 757.62,-230 757.62,-199.5 905.62,-199.5 905.62,-230"/>
<text xml:space="preserve" text-anchor="start" x="765.62" y="-216.5" font-family="Helvetica,sans-Serif" font-size="10.00">include/slitherlink</text>
<text xml:space="preserve" text-anchor="middle" x="831.62" y="-205.25" font-family="Helvetica,sans-Serif" font-size="10.00">/interfaces/ISolutionValidator.h</text>
</a>
</g>
</g>
<!-- Node1&#45;&gt;Node14 -->
<g id="edge18_Node000001_Node000014" class="edge">
<title>Node1&#45;&gt;Node14</title>
<g id="a_edge18_Node000001_Node000014"><a xlink:title=" ">
<path fill="none" stroke="#63b8ff" d="M699.23,-261.91C727.82,-251.94 762.71,-239.78 789.49,-230.44"/>
<polygon fill="#63b8ff" stroke="#63b8ff" points="698.32,-258.52 690.03,-265.12 700.63,-265.13 698.32,-258.52"/>
</a>
</g>
</g>
<!-- Node15 -->
<g id="Node000015" class="node">
<title>Node15</title>
<g id="a_Node000015"><a xlink:href="_solver_8h.html" target="_top" xlink:title=" ">
<polygon fill="white" stroke="#666666" points="692.12,-230 601.12,-230 601.12,-199.5 692.12,-199.5 692.12,-230"/>
<text xml:space="preserve" text-anchor="start" x="609.12" y="-216.5" font-family="Helvetica,sans-Serif" font-size="10.00">include/slitherlink</text>
<text xml:space="preserve" text-anchor="middle" x="646.62" y="-205.25" font-family="Helvetica,sans-Serif" font-size="10.00">/solver/Solver.h</text>
</a>
</g>
</g>
<!-- Node1&#45;&gt;Node15 -->
<g id="edge19_Node000001_Node000015" class="edge">
<title>Node1&#45;&gt;Node15</title>
<g id="a_edge19_Node000001_Node000015"><a xlink:title=" ">
<path fill="none" stroke="#63b8ff" d="M646.62,-254.31C646.62,-246.14 646.62,-237.41 646.62,-230.33"/>
<polygon fill="#63b8ff" stroke="#63b8ff" points="643.13,-254.1 646.63,-264.1 650.13,-254.1 643.13,-254.1"/>
</a>
</g>
</g>
<!-- Node4 -->
<g id="Node000004" class="node">
<title>Node4</title>
<g id="a_Node000004"><a xlink:href="_slitherlink_solver_8h.html" target="_top" xlink:title=" ">
<polygon fill="white" stroke="#666666" points="575.62,-163.5 445.62,-163.5 445.62,-133 575.62,-133 575.62,-163.5"/>
<text xml:space="preserve" text-anchor="start" x="453.62" y="-150" font-family="Helvetica,sans-Serif" font-size="10.00">include/slitherlink</text>
<text xml:space="preserve" text-anchor="middle" x="510.62" y="-138.75" font-family="Helvetica,sans-Serif" font-size="10.00">/factory/SlitherlinkSolver.h</text>
</a>
</g>
</g>
<!-- Node3&#45;&gt;Node4 -->
<g id="edge3_Node000003_Node000004" class="edge">
<title>Node3&#45;&gt;Node4</title>
<g id="a_edge3_Node000003_Node000004"><a xlink:title=" ">
<path fill="none" stroke="#63b8ff" d="M396.72,-194.88C421.35,-185.01 451.06,-173.11 473.96,-163.94"/>
<polygon fill="#63b8ff" stroke="#63b8ff" points="395.54,-191.58 387.56,-198.55 398.15,-198.08 395.54,-191.58"/>
</a>
</g>
</g>
<!-- Node9 -->
<g id="Node000009" class="node">
<title>Node9</title>
<g id="a_Node000009"><a xlink:href="_solution_collector_8h.html" target="_top" xlink:title=" ">
<polygon fill="white" stroke="#666666" points="219.25,-163.5 108,-163.5 108,-133 219.25,-133 219.25,-163.5"/>
<text xml:space="preserve" text-anchor="start" x="116" y="-150" font-family="Helvetica,sans-Serif" font-size="10.00">include/slitherlink</text>
<text xml:space="preserve" text-anchor="middle" x="163.62" y="-138.75" font-family="Helvetica,sans-Serif" font-size="10.00">/io/SolutionCollector.h</text>
</a>
</g>
</g>
<!-- Node3&#45;&gt;Node9 -->
<g id="edge10_Node000003_Node000009" class="edge">
<title>Node3&#45;&gt;Node9</title>
<g id="a_edge10_Node000003_Node000009"><a xlink:title=" ">
<path fill="none" stroke="#63b8ff" d="M296.74,-195.41C267.99,-185.44 232.91,-173.28 205.99,-163.94"/>
<polygon fill="#63b8ff" stroke="#63b8ff" points="295.39,-198.65 305.99,-198.62 297.69,-192.03 295.39,-198.65"/>
</a>
</g>
</g>
<!-- Node4&#45;&gt;Node2 -->
<g id="edge4_Node000004_Node000002" class="edge">
<title>Node4&#45;&gt;Node2</title>
<g id="a_edge4_Node000004_Node000002"><a xlink:title=" ">
<path fill="none" stroke="#63b8ff" d="M586.97,-130.78C622.61,-121.69 659.94,-109.69 672.62,-97 690.47,-79.15 695.62,-48.83 697.08,-30.86"/>
<polygon fill="#63b8ff" stroke="#63b8ff" points="586.33,-127.33 577.47,-133.14 588.02,-134.13 586.33,-127.33"/>
</a>
</g>
</g>
<!-- Node5 -->
<g id="Node000005" class="node">
<title>Node5</title>
<g id="a_Node000005"><a xlink:href="_solver_factory_8h.html" target="_top" xlink:title=" ">
<polygon fill="white" stroke="#666666" points="663.38,-97 543.88,-97 543.88,-66.5 663.38,-66.5 663.38,-97"/>
<text xml:space="preserve" text-anchor="start" x="551.88" y="-83.5" font-family="Helvetica,sans-Serif" font-size="10.00">include/slitherlink</text>
<text xml:space="preserve" text-anchor="middle" x="603.62" y="-72.25" font-family="Helvetica,sans-Serif" font-size="10.00">/factory/SolverFactory.h</text>
</a>
</g>
</g>
<!-- Node4&#45;&gt;Node5 -->
<g id="edge5_Node000004_Node000005" class="edge">
<title>Node4&#45;&gt;Node5</title>
<g id="a_edge5_Node000004_Node000005"><a xlink:title=" ">
<path fill="none" stroke="#63b8ff" d="M541.17,-126.07C554.74,-116.66 570.37,-105.81 582.61,-97.33"/>
<polygon fill="#63b8ff" stroke="#63b8ff" points="539.19,-123.18 532.97,-131.75 543.18,-128.93 539.19,-123.18"/>
</a>
</g>
</g>
<!-- Node8 -->
<g id="Node000008" class="node">
<title>Node8</title>
<g id="a_Node000008"><a xlink:href="_slitherlink_solver_8cpp.html" target="_top" xlink:title=" ">
<polygon fill="white" stroke="#666666" points="525.62,-91.38 371.62,-91.38 371.62,-72.12 525.62,-72.12 525.62,-91.38"/>
<text xml:space="preserve" text-anchor="middle" x="448.62" y="-77.88" font-family="Helvetica,sans-Serif" font-size="10.00">src/factory/SlitherlinkSolver.cpp</text>
</a>
</g>
</g>
<!-- Node4&#45;&gt;Node8 -->
<g id="edge9_Node000004_Node000008" class="edge">
<title>Node4&#45;&gt;Node8</title>
<g id="a_edge9_Node000004_Node000008"><a xlink:title=" ">
<path fill="none" stroke="#63b8ff" d="M488.64,-124.37C477.73,-113.03 465.2,-99.99 457.11,-91.57"/>
<polygon fill="#63b8ff" stroke="#63b8ff" points="486.05,-126.74 495.51,-131.52 491.1,-121.89 486.05,-126.74"/>
</a>
</g>
</g>
<!-- Node5&#45;&gt;Node2 -->
<g id="edge6_Node000005_Node000002" class="edge">
<title>Node5&#45;&gt;Node2</title>
<g id="a_edge6_Node000005_Node000002"><a xlink:title=" ">
<path fill="none" stroke="#63b8ff" d="M634.1,-59.84C647.91,-50.37 663.9,-39.39 676.38,-30.83"/>
<polygon fill="#63b8ff" stroke="#63b8ff" points="632.47,-56.71 626.2,-65.26 636.43,-62.49 632.47,-56.71"/>
</a>
</g>
</g>
<!-- Node6 -->
<g id="Node000006" class="node">
<title>Node6</title>
<g id="a_Node000006"><a xlink:href="_solver_factory_8cpp.html" target="_top" xlink:title=" ">
<polygon fill="white" stroke="#666666" points="273.38,-24.88 129.88,-24.88 129.88,-5.63 273.38,-5.63 273.38,-24.88"/>
<text xml:space="preserve" text-anchor="middle" x="201.62" y="-11.38" font-family="Helvetica,sans-Serif" font-size="10.00">src/factory/SolverFactory.cpp</text>
</a>
</g>
</g>
<!-- Node5&#45;&gt;Node6 -->
<g id="edge7_Node000005_Node000006" class="edge">
<title>Node5&#45;&gt;Node6</title>
<g id="a_edge7_Node000005_Node000006"><a xlink:title=" ">
<path fill="none" stroke="#63b8ff" d="M532.24,-66.13C435.12,-48.99 333.98,-34.34 269.09,-25.34"/>
<polygon fill="#63b8ff" stroke="#63b8ff" points="531.5,-69.55 541.96,-67.86 532.73,-62.66 531.5,-69.55"/>
</a>
</g>
</g>
<!-- Node7 -->
<g id="Node000007" class="node">
<title>Node7</title>
<g id="a_Node000007"><a xlink:href="src_2main_8cpp.html" target="_top" xlink:title=" ">
<polygon fill="white" stroke="#666666" points="633.75,-24.88 561.5,-24.88 561.5,-5.63 633.75,-5.63 633.75,-24.88"/>
<text xml:space="preserve" text-anchor="middle" x="597.62" y="-11.38" font-family="Helvetica,sans-Serif" font-size="10.00">src/main.cpp</text>
</a>
</g>
</g>
<!-- Node5&#45;&gt;Node7 -->
<g id="edge8_Node000005_Node000007" class="edge">
<title>Node5&#45;&gt;Node7</title>
<g id="a_edge8_Node000005_Node000007"><a xlink:title=" ">
<path fill="none" stroke="#63b8ff" d="M601.21,-54.84C600.23,-44.26 599.16,-32.75 598.45,-25.07"/>
<polygon fill="#63b8ff" stroke="#63b8ff" points="597.71,-54.97 602.12,-64.61 604.68,-54.33 597.71,-54.97"/>
</a>
</g>
</g>
<!-- Node9&#45;&gt;Node6 -->
<g id="edge11_Node000009_Node000006" class="edge">
<title>Node9&#45;&gt;Node6</title>
<g id="a_edge11_Node000009_Node000006"><a xlink:title=" ">
<path fill="none" stroke="#63b8ff" d="M170.94,-122.02C179.51,-92.48 193.26,-45.1 198.98,-25.35"/>
<polygon fill="#63b8ff" stroke="#63b8ff" points="167.68,-120.7 168.26,-131.28 174.41,-122.65 167.68,-120.7"/>
</a>
</g>
</g>
<!-- Node10 -->
<g id="Node000010" class="node">
<title>Node10</title>
<g id="a_Node000010"><a xlink:href="_solution_collector_8cpp.html" target="_top" xlink:title=" ">
<polygon fill="white" stroke="#666666" points="135.25,-91.38 0,-91.38 0,-72.12 135.25,-72.12 135.25,-91.38"/>
<text xml:space="preserve" text-anchor="middle" x="67.62" y="-77.88" font-family="Helvetica,sans-Serif" font-size="10.00">src/io/SolutionCollector.cpp</text>
</a>
</g>
</g>
<!-- Node9&#45;&gt;Node10 -->
<g id="edge12_Node000009_Node000010" class="edge">
<title>Node9&#45;&gt;Node10</title>
<g id="a_edge12_Node000009_Node000010"><a xlink:title=" ">
<path fill="none" stroke="#63b8ff" d="M132.59,-126.4C115.17,-114.69 94.33,-100.69 81.03,-91.76"/>
<polygon fill="#63b8ff" stroke="#63b8ff" points="130.33,-129.1 140.58,-131.77 134.24,-123.29 130.33,-129.1"/>
</a>
</g>
</g>
<!-- Node11&#45;&gt;Node4 -->
<g id="edge14_Node000011_Node000004" class="edge">
<title>Node11&#45;&gt;Node4</title>
<g id="a_edge14_Node000011_Node000004"><a xlink:title=" ">
<path fill="none" stroke="#63b8ff" d="M511.22,-187.81C511.1,-179.64 510.96,-170.91 510.85,-163.83"/>
<polygon fill="#63b8ff" stroke="#63b8ff" points="507.72,-187.66 511.37,-197.6 514.72,-187.55 507.72,-187.66"/>
</a>
</g>
</g>
<!-- Node12 -->
<g id="Node000012" class="node">
<title>Node12</title>
<g id="a_Node000012"><a xlink:href="_solution_printer_8h.html" target="_top" xlink:title=" ">
<polygon fill="white" stroke="#666666" points="342,-163.5 241.25,-163.5 241.25,-133 342,-133 342,-163.5"/>
<text xml:space="preserve" text-anchor="start" x="249.25" y="-150" font-family="Helvetica,sans-Serif" font-size="10.00">include/slitherlink</text>
<text xml:space="preserve" text-anchor="middle" x="291.62" y="-138.75" font-family="Helvetica,sans-Serif" font-size="10.00">/io/SolutionPrinter.h</text>
</a>
</g>
</g>
<!-- Node11&#45;&gt;Node12 -->
<g id="edge15_Node000011_Node000012" class="edge">
<title>Node11&#45;&gt;Node12</title>
<g id="a_edge15_Node000011_Node000012"><a xlink:title=" ">
<path fill="none" stroke="#63b8ff" d="M450.59,-195.85C416.26,-185.79 373.95,-173.39 341.61,-163.9"/>
<polygon fill="#63b8ff" stroke="#63b8ff" points="449.4,-199.15 459.98,-198.61 451.36,-192.44 449.4,-199.15"/>
</a>
</g>
</g>
<!-- Node12&#45;&gt;Node6 -->
<g id="edge16_Node000012_Node000006" class="edge">
<title>Node12&#45;&gt;Node6</title>
<g id="a_edge16_Node000012_Node000006"><a xlink:title=" ">
<path fill="none" stroke="#63b8ff" d="M252.04,-126.62C240.37,-118.79 228.6,-108.84 220.62,-97 205.41,-74.43 202.31,-41.17 201.72,-25.31"/>
<polygon fill="#63b8ff" stroke="#63b8ff" points="250.12,-129.55 260.45,-131.9 253.84,-123.62 250.12,-129.55"/>
</a>
</g>
</g>
<!-- Node13 -->
<g id="Node000013" class="node">
<title>Node13</title>
<g id="a_Node000013"><a xlink:href="_solution_printer_8cpp.html" target="_top" xlink:title=" ">
<polygon fill="white" stroke="#666666" points="354,-91.38 229.25,-91.38 229.25,-72.12 354,-72.12 354,-91.38"/>
<text xml:space="preserve" text-anchor="middle" x="291.62" y="-77.88" font-family="Helvetica,sans-Serif" font-size="10.00">src/io/SolutionPrinter.cpp</text>
</a>
</g>
</g>
<!-- Node12&#45;&gt;Node13 -->
<g id="edge17_Node000012_Node000013" class="edge">
<title>Node12&#45;&gt;Node13</title>
<g id="a_edge17_Node000012_Node000013"><a xlink:title=" ">
<path fill="none" stroke="#63b8ff" d="M291.62,-121.34C291.62,-110.76 291.62,-99.25 291.62,-91.57"/>
<polygon fill="#63b8ff" stroke="#63b8ff" points="288.13,-121.1 291.63,-131.1 295.13,-121.1 288.13,-121.1"/>
</a>
</g>
</g>
<!-- Node15&#45;&gt;Node4 -->
<g id="edge20_Node000015_Node000004" class="edge">
<title>Node15&#45;&gt;Node4</title>
<g id="a_edge20_Node000015_Node000004"><a xlink:title=" ">
<path fill="none" stroke="#63b8ff" d="M605.4,-194.2C584.8,-184.43 560.29,-172.81 541.36,-163.83"/>
<polygon fill="#63b8ff" stroke="#63b8ff" points="603.86,-197.34 614.4,-198.47 606.86,-191.02 603.86,-197.34"/>
</a>
</g>
</g>
<!-- Node16 -->
<g id="Node000016" class="node">
<title>Node16</title>
<g id="a_Node000016"><a xlink:href="_solver_8cpp.html" target="_top" xlink:title=" ">
<polygon fill="white" stroke="#666666" points="701.38,-157.88 593.88,-157.88 593.88,-138.62 701.38,-138.62 701.38,-157.88"/>
<text xml:space="preserve" text-anchor="middle" x="647.62" y="-144.38" font-family="Helvetica,sans-Serif" font-size="10.00">src/solver/Solver.cpp</text>
</a>
</g>
</g>
<!-- Node15&#45;&gt;Node16 -->
<g id="edge21_Node000015_Node000016" class="edge">
<title>Node15&#45;&gt;Node16</title>
<g id="a_edge21_Node000015_Node000016"><a xlink:title=" ">
<path fill="none" stroke="#63b8ff" d="M647.03,-187.84C647.19,-177.26 647.37,-165.75 647.49,-158.07"/>
<polygon fill="#63b8ff" stroke="#63b8ff" points="643.53,-187.55 646.88,-197.6 650.53,-187.66 643.53,-187.55"/>
</a>
</g>
</g>
</g>
</svg>
