<?xml version="1.0" encoding="UTF-8" standalone="no"?>
<!DOCTYPE svg PUBLIC "-//W3C//DTD SVG 1.1//EN"
 "http://www.w3.org/Graphics/SVG/1.1/DTD/svg11.dtd">
<!-- Generated by graphviz version 14.0.2 (20251019.1705)
 -->
<!-- Title: include/io/SolutionPrinter.h Pages: 1 -->
<svg width="333pt" height="138pt"
 viewBox="0.00 0.00 333.00 138.00" xmlns="http://www.w3.org/2000/svg" xmlns:xlink="http://www.w3.org/1999/xlink">
<g id="graph0" class="graph" transform="scale(1 1) rotate(0) translate(4 133.75)">
<title>include/io/SolutionPrinter.h</title>
<!-- Node1 -->
<g id="Node000001" class="node">
<title>Node1</title>
<g id="a_Node000001"><a xlink:title=" ">
<polygon fill="#999999" stroke="#666666" points="226.75,-129.75 95.25,-129.75 95.25,-110.5 226.75,-110.5 226.75,-129.75"/>
<text xml:space="preserve" text-anchor="middle" x="161" y="-116.25" font-family="Helvetica,sans-Serif" font-size="10.00">include/io/SolutionPrinter.h</text>
</a>
</g>
</g>
<!-- Node2 -->
<g id="Node000002" class="node">
<title>Node2</title>
<g id="a_Node000002"><a xlink:href="_grid_8h.html" target="_top" xlink:title=" ">
<polygon fill="white" stroke="#666666" points="64,-74.5 0,-74.5 0,-55.25 64,-55.25 64,-74.5"/>
<text xml:space="preserve" text-anchor="middle" x="32" y="-61" font-family="Helvetica,sans-Serif" font-size="10.00">core/Grid.h</text>
</a>
</g>
</g>
<!-- Node1&#45;&gt;Node2 -->
<g id="edge1_Node000001_Node000002" class="edge">
<title>Node1&#45;&gt;Node2</title>
<g id="a_edge1_Node000001_Node000002"><a xlink:title=" ">
<path fill="none" stroke="#63b8ff" d="M139.12,-110.09C118.64,-101.64 87.79,-88.9 64.44,-79.27"/>
<polygon fill="#63b8ff" stroke="#63b8ff" points="65.97,-76.11 55.39,-75.53 63.3,-82.58 65.97,-76.11"/>
</a>
</g>
</g>
<!-- Node3 -->
<g id="Node000003" class="node">
<title>Node3</title>
<g id="a_Node000003"><a xlink:title=" ">
<polygon fill="#e0e0e0" stroke="#999999" points="113.5,-19.25 70.5,-19.25 70.5,0 113.5,0 113.5,-19.25"/>
<text xml:space="preserve" text-anchor="middle" x="92" y="-5.75" font-family="Helvetica,sans-Serif" font-size="10.00">vector</text>
</a>
</g>
</g>
<!-- Node1&#45;&gt;Node3 -->
<g id="edge8_Node000001_Node000003" class="edge">
<title>Node1&#45;&gt;Node3</title>
<g id="a_edge8_Node000001_Node000003"><a xlink:title=" ">
<path fill="none" stroke="#63b8ff" d="M147.19,-110.09C135.91,-102.02 120.35,-89.23 111,-74.5 102.54,-61.18 97.7,-43.92 95.03,-30.7"/>
<polygon fill="#63b8ff" stroke="#63b8ff" points="98.5,-30.26 93.34,-21.01 91.61,-31.47 98.5,-30.26"/>
</a>
</g>
</g>
<!-- Node5 -->
<g id="Node000005" class="node">
<title>Node5</title>
<g id="a_Node000005"><a xlink:href="_solution_8h.html" target="_top" xlink:title=" ">
<polygon fill="white" stroke="#666666" points="201.62,-74.5 120.38,-74.5 120.38,-55.25 201.62,-55.25 201.62,-74.5"/>
<text xml:space="preserve" text-anchor="middle" x="161" y="-61" font-family="Helvetica,sans-Serif" font-size="10.00">core/Solution.h</text>
</a>
</g>
</g>
<!-- Node1&#45;&gt;Node5 -->
<g id="edge4_Node000001_Node000005" class="edge">
<title>Node1&#45;&gt;Node5</title>
<g id="a_edge4_Node000001_Node000005"><a xlink:title=" ">
<path fill="none" stroke="#63b8ff" d="M161,-110.33C161,-103.82 161,-94.67 161,-86.37"/>
<polygon fill="#63b8ff" stroke="#63b8ff" points="164.5,-86.37 161,-76.37 157.5,-86.37 164.5,-86.37"/>
</a>
</g>
</g>
<!-- Node7 -->
<g id="Node000007" class="node">
<title>Node7</title>
<g id="a_Node000007"><a xlink:title=" ">
<polygon fill="#e0e0e0" stroke="#999999" points="272.75,-74.5 219.25,-74.5 219.25,-55.25 272.75,-55.25 272.75,-74.5"/>
<text xml:space="preserve" text-anchor="middle" x="246" y="-61" font-family="Helvetica,sans-Serif" font-size="10.00">iostream</text>
</a>
</g>
</g>
<!-- Node1&#45;&gt;Node7 -->
<g id="edge7_Node000001_Node000007" class="edge">
<title>Node1&#45;&gt;Node7</title>
<g id="a_edge7_Node000001_Node000007"><a xlink:title=" ">
<path fill="none" stroke="#63b8ff" d="M175.42,-110.09C188.12,-102.14 206.87,-90.39 221.86,-81"/>
<polygon fill="#63b8ff" stroke="#63b8ff" points="223.61,-84.03 230.23,-75.76 219.9,-78.1 223.61,-84.03"/>
</a>
</g>
</g>
<!-- Node8 -->
<g id="Node000008" class="node">
<title>Node8</title>
<g id="a_Node000008"><a xlink:title=" ">
<polygon fill="#e0e0e0" stroke="#999999" points="325.38,-74.5 290.62,-74.5 290.62,-55.25 325.38,-55.25 325.38,-74.5"/>
<text xml:space="preserve" text-anchor="middle" x="308" y="-61" font-family="Helvetica,sans-Serif" font-size="10.00">map</text>
</a>
</g>
</g>
<!-- Node1&#45;&gt;Node8 -->
<g id="edge9_Node000001_Node000008" class="edge">
<title>Node1&#45;&gt;Node8</title>
<g id="a_edge9_Node000001_Node000008"><a xlink:title=" ">
<path fill="none" stroke="#63b8ff" d="M185.94,-110.09C211.88,-100.69 252.44,-86 279.6,-76.16"/>
<polygon fill="#63b8ff" stroke="#63b8ff" points="280.71,-79.48 288.92,-72.79 278.33,-72.9 280.71,-79.48"/>
</a>
</g>
</g>
<!-- Node2&#45;&gt;Node3 -->
<g id="edge2_Node000002_Node000003" class="edge">
<title>Node2&#45;&gt;Node3</title>
<g id="a_edge2_Node000002_Node000003"><a xlink:title=" ">
<path fill="none" stroke="#63b8ff" d="M42.18,-54.84C50.76,-47.22 63.27,-36.12 73.6,-26.95"/>
<polygon fill="#63b8ff" stroke="#63b8ff" points="75.68,-29.79 80.84,-20.53 71.04,-24.55 75.68,-29.79"/>
</a>
</g>
</g>
<!-- Node4 -->
<g id="Node000004" class="node">
<title>Node4</title>
<g id="a_Node000004"><a xlink:title=" ">
<polygon fill="#e0e0e0" stroke="#999999" points="52,-19.25 12,-19.25 12,0 52,0 52,-19.25"/>
<text xml:space="preserve" text-anchor="middle" x="32" y="-5.75" font-family="Helvetica,sans-Serif" font-size="10.00">string</text>
</a>
</g>
</g>
<!-- Node2&#45;&gt;Node4 -->
<g id="edge3_Node000002_Node000004" class="edge">
<title>Node2&#45;&gt;Node4</title>
<g id="a_edge3_Node000002_Node000004"><a xlink:title=" ">
<path fill="none" stroke="#63b8ff" d="M32,-55.08C32,-48.57 32,-39.42 32,-31.12"/>
<polygon fill="#63b8ff" stroke="#63b8ff" points="35.5,-31.12 32,-21.12 28.5,-31.12 35.5,-31.12"/>
</a>
</g>
</g>
<!-- Node5&#45;&gt;Node3 -->
<g id="edge5_Node000005_Node000003" class="edge">
<title>Node5&#45;&gt;Node3</title>
<g id="a_edge5_Node000005_Node000003"><a xlink:title=" ">
<path fill="none" stroke="#63b8ff" d="M149.3,-54.84C139.22,-47.07 124.46,-35.67 112.44,-26.4"/>
<polygon fill="#63b8ff" stroke="#63b8ff" points="114.79,-23.79 104.73,-20.45 110.51,-29.33 114.79,-23.79"/>
</a>
</g>
</g>
<!-- Node6 -->
<g id="Node000006" class="node">
<title>Node6</title>
<g id="a_Node000006"><a xlink:title=" ">
<polygon fill="#e0e0e0" stroke="#999999" points="180.62,-19.25 141.38,-19.25 141.38,0 180.62,0 180.62,-19.25"/>
<text xml:space="preserve" text-anchor="middle" x="161" y="-5.75" font-family="Helvetica,sans-Serif" font-size="10.00">utility</text>
</a>
</g>
</g>
<!-- Node5&#45;&gt;Node6 -->
<g id="edge6_Node000005_Node000006" class="edge">
<title>Node5&#45;&gt;Node6</title>
<g id="a_edge6_Node000005_Node000006"><a xlink:title=" ">
<path fill="none" stroke="#63b8ff" d="M161,-55.08C161,-48.57 161,-39.42 161,-31.12"/>
<polygon fill="#63b8ff" stroke="#63b8ff" points="164.5,-31.12 161,-21.12 157.5,-31.12 164.5,-31.12"/>
</a>
</g>
</g>
</g>
</svg>
