<?xml version="1.0" encoding="UTF-8" standalone="no"?>
<!DOCTYPE svg PUBLIC "-//W3C//DTD SVG 1.1//EN"
 "http://www.w3.org/Graphics/SVG/1.1/DTD/svg11.dtd">
<!-- Generated by graphviz version 14.0.2 (20251019.1705)
 -->
<!-- Title: src/factory/SolverFactory.cpp Pages: 1 -->
<!--zoomable 359 -->

<svg id="main" version="1.1" xmlns="http://www.w3.org/2000/svg" xmlns:xlink="http://www.w3.org/1999/xlink" xml:space="preserve" onload="init(evt)">

<style type="text/css"><![CDATA[
.node, .edge {opacity: 0.7;}
.node.selected, .edge.selected {opacity: 1;}
.edge:hover path { stroke: red; }
.edge:hover polygon { stroke: red; fill: red; }
]]></style>

<defs>
  <circle id="rim" cx="0" cy="0" r="7"/>
  <circle id="rim2" cx="0" cy="0" r="3.5"/>
  <g id="zoomPlus">
    <use xlink:href="#rim" fill="#404040"><set attributeName="fill" to="#808080" begin="zoomplus.mouseover" end="zoomplus.mouseout"/></use>
    <path d="M-4,0h8M0,-4v8" fill="none" stroke="white" stroke-width="1.5" pointer-events="none"/>
  </g>
  <g id="zoomMin">
    <use xlink:href="#rim" fill="#404040"><set attributeName="fill" to="#808080" begin="zoomminus.mouseover" end="zoomminus.mouseout"/></use>
    <path d="M-4,0h8" fill="none" stroke="white" stroke-width="1.5" pointer-events="none"/>
  </g>
  <g id="arrowUp" transform="translate(30 24)">
    <use xlink:href="#rim"/>
    <path pointer-events="none" fill="none" stroke="white" stroke-width="1.5" d="M0,-3.0v7 M-2.5,-0.5L0,-3.0L2.5,-0.5"/>
  </g>
  <g id="arrowRight" transform="rotate(90) translate(36 -43)">
    <use xlink:href="#rim"/>
    <path pointer-events="none" fill="none" stroke="white" stroke-width="1.5" d="M0,-3.0v7 M-2.5,-0.5L0,-3.0L2.5,-0.5"/>
  </g>
  <g id="arrowDown" transform="rotate(180) translate(-30 -48)">
    <use xlink:href="#rim"/>
    <path pointer-events="none" fill="none" stroke="white" stroke-width="1.5" d="M0,-3.0v7 M-2.5,-0.5L0,-3.0L2.5,-0.5"/>
  </g>
  <g id="arrowLeft" transform="rotate(270) translate(-36 17)">
    <use xlink:href="#rim"/>
    <path pointer-events="none" fill="none" stroke="white" stroke-width="1.5" d="M0,-3.0v7 M-2.5,-0.5L0,-3.0L2.5,-0.5"/>
  </g>
  <g id="resetDef">
    <use xlink:href="#rim2" fill="#404040"><set attributeName="fill" to="#808080" begin="reset.mouseover" end="reset.mouseout"/></use>
  </g>
</defs>
<script type="application/ecmascript">
var viewWidth = 894;
var viewHeight = 359;
var sectionId = 'dynsection-0';
</script>
<script type="application/ecmascript" xlink:href="svg.min.js"/>
<svg id="graph" class="graph">
<g id="viewport">
<title>src/factory/SolverFactory.cpp</title>
<!-- Node1 -->
<g id="Node000001" class="node">
<title>Node1</title>
<g id="a_Node000001"><a xlink:title=" ">
<polygon fill="#999999" stroke="#666666" points="332.25,-350.75 188.75,-350.75 188.75,-331.5 332.25,-331.5 332.25,-350.75"/>
<text xml:space="preserve" text-anchor="middle" x="260.5" y="-337.25" font-family="Helvetica,sans-Serif" font-size="10.00">src/factory/SolverFactory.cpp</text>
</a>
</g>
</g>
<!-- Node2 -->
<g id="Node000002" class="node">
<title>Node2</title>
<g id="a_Node000002"><a xlink:href="_solver_factory_8h.html" target="_top" xlink:title=" ">
<polygon fill="white" stroke="#666666" points="380.75,-295.5 264.25,-295.5 264.25,-276.25 380.75,-276.25 380.75,-295.5"/>
<text xml:space="preserve" text-anchor="middle" x="322.5" y="-282" font-family="Helvetica,sans-Serif" font-size="10.00">factory/SolverFactory.h</text>
</a>
</g>
</g>
<!-- Node1&#45;&gt;Node2 -->
<g id="edge1_Node000001_Node000002" class="edge">
<title>Node1&#45;&gt;Node2</title>
<g id="a_edge1_Node000001_Node000002"><a xlink:title=" ">
<path fill="none" stroke="#63b8ff" d="M271.02,-331.09C279.89,-323.47 292.81,-312.37 303.49,-303.2"/>
<polygon fill="#63b8ff" stroke="#63b8ff" points="305.68,-305.93 310.99,-296.76 301.12,-300.62 305.68,-305.93"/>
</a>
</g>
</g>
<!-- Node18 -->
<g id="Node000018" class="node">
<title>Node18</title>
<g id="a_Node000018"><a xlink:href="_solution_collector_8h.html" target="_top" xlink:title=" ">
<polygon fill="white" stroke="#666666" points="880.62,-185 772.38,-185 772.38,-165.75 880.62,-165.75 880.62,-185"/>
<text xml:space="preserve" text-anchor="middle" x="826.5" y="-171.5" font-family="Helvetica,sans-Serif" font-size="10.00">io/SolutionCollector.h</text>
</a>
</g>
</g>
<!-- Node1&#45;&gt;Node18 -->
<g id="edge27_Node000001_Node000018" class="edge">
<title>Node1&#45;&gt;Node18</title>
<g id="a_edge27_Node000001_Node000018"><a xlink:title=" ">
<path fill="none" stroke="#63b8ff" d="M291.74,-331.09C387.2,-303.47 675.2,-220.15 784.14,-188.63"/>
<polygon fill="#63b8ff" stroke="#63b8ff" points="784.92,-192.05 793.56,-185.91 782.98,-185.32 784.92,-192.05"/>
</a>
</g>
</g>
<!-- Node19 -->
<g id="Node000019" class="node">
<title>Node19</title>
<g id="a_Node000019"><a xlink:href="_solution_printer_8h.html" target="_top" xlink:title=" ">
<polygon fill="white" stroke="#666666" points="224.38,-185 126.62,-185 126.62,-165.75 224.38,-165.75 224.38,-185"/>
<text xml:space="preserve" text-anchor="middle" x="175.5" y="-171.5" font-family="Helvetica,sans-Serif" font-size="10.00">io/SolutionPrinter.h</text>
</a>
</g>
</g>
<!-- Node1&#45;&gt;Node19 -->
<g id="edge31_Node000001_Node000019" class="edge">
<title>Node1&#45;&gt;Node19</title>
<g id="a_edge31_Node000001_Node000019"><a xlink:title=" ">
<path fill="none" stroke="#63b8ff" d="M255.93,-331.32C242.61,-305.67 203.62,-230.55 185.27,-195.19"/>
<polygon fill="#63b8ff" stroke="#63b8ff" points="188.5,-193.83 180.79,-186.57 182.29,-197.05 188.5,-193.83"/>
</a>
</g>
</g>
<!-- Node21 -->
<g id="Node000021" class="node">
<title>Node21</title>
<g id="a_Node000021"><a xlink:href="_graph_builder_8h.html" target="_top" xlink:title=" ">
<polygon fill="white" stroke="#666666" points="109,-185 0,-185 0,-165.75 109,-165.75 109,-185"/>
<text xml:space="preserve" text-anchor="middle" x="54.5" y="-171.5" font-family="Helvetica,sans-Serif" font-size="10.00">solver/GraphBuilder.h</text>
</a>
</g>
</g>
<!-- Node1&#45;&gt;Node21 -->
<g id="edge37_Node000001_Node000021" class="edge">
<title>Node1&#45;&gt;Node21</title>
<g id="a_edge37_Node000001_Node000021"><a xlink:title=" ">
<path fill="none" stroke="#63b8ff" d="M249.13,-331.09C215.72,-304.53 117.5,-226.45 74.75,-192.48"/>
<polygon fill="#63b8ff" stroke="#63b8ff" points="77.02,-189.81 67.02,-186.33 72.67,-195.29 77.02,-189.81"/>
</a>
</g>
</g>
<!-- Node3 -->
<g id="Node000003" class="node">
<title>Node3</title>
<g id="a_Node000003"><a xlink:href="_grid_8h.html" target="_top" xlink:title=" ">
<polygon fill="white" stroke="#666666" points="191.5,-129.75 127.5,-129.75 127.5,-110.5 191.5,-110.5 191.5,-129.75"/>
<text xml:space="preserve" text-anchor="middle" x="159.5" y="-116.25" font-family="Helvetica,sans-Serif" font-size="10.00">core/Grid.h</text>
</a>
</g>
</g>
<!-- Node2&#45;&gt;Node3 -->
<g id="edge2_Node000002_Node000003" class="edge">
<title>Node2&#45;&gt;Node3</title>
<g id="a_edge2_Node000002_Node000003"><a xlink:title=" ">
<path fill="none" stroke="#63b8ff" d="M310.26,-276C299.37,-267.66 283.52,-254.38 272.5,-240.25 249.52,-210.78 259.12,-192.96 233.5,-165.75 221.58,-153.09 205.29,-142.75 191.03,-135.22"/>
<polygon fill="#63b8ff" stroke="#63b8ff" points="192.96,-132.27 182.45,-130.92 189.82,-138.53 192.96,-132.27"/>
</a>
</g>
</g>
<!-- Node6 -->
<g id="Node000006" class="node">
<title>Node6</title>
<g id="a_Node000006"><a xlink:href="_slitherlink_solver_8h.html" target="_top" xlink:title=" ">
<polygon fill="white" stroke="#666666" points="408,-240.25 281,-240.25 281,-221 408,-221 408,-240.25"/>
<text xml:space="preserve" text-anchor="middle" x="344.5" y="-226.75" font-family="Helvetica,sans-Serif" font-size="10.00">factory/SlitherlinkSolver.h</text>
</a>
</g>
</g>
<!-- Node2&#45;&gt;Node6 -->
<g id="edge5_Node000002_Node000006" class="edge">
<title>Node2&#45;&gt;Node6</title>
<g id="a_edge5_Node000002_Node000006"><a xlink:title=" ">
<path fill="none" stroke="#63b8ff" d="M326.13,-276.08C328.92,-269.34 332.87,-259.77 336.4,-251.24"/>
<polygon fill="#63b8ff" stroke="#63b8ff" points="339.63,-252.59 340.21,-242.01 333.16,-249.91 339.63,-252.59"/>
</a>
</g>
</g>
<!-- Node15 -->
<g id="Node000015" class="node">
<title>Node15</title>
<g id="a_Node000015"><a xlink:title=" ">
<polygon fill="#e0e0e0" stroke="#999999" points="872.12,-129.75 820.88,-129.75 820.88,-110.5 872.12,-110.5 872.12,-129.75"/>
<text xml:space="preserve" text-anchor="middle" x="846.5" y="-116.25" font-family="Helvetica,sans-Serif" font-size="10.00">memory</text>
</a>
</g>
</g>
<!-- Node2&#45;&gt;Node15 -->
<g id="edge26_Node000002_Node000015" class="edge">
<title>Node2&#45;&gt;Node15</title>
<g id="a_edge26_Node000002_Node000015"><a xlink:title=" ">
<path fill="none" stroke="#63b8ff" d="M351.42,-275.84C440.47,-248.01 710.5,-163.62 809.56,-132.67"/>
<polygon fill="#63b8ff" stroke="#63b8ff" points="810.55,-136.03 819.05,-129.7 808.47,-129.34 810.55,-136.03"/>
</a>
</g>
</g>
<!-- Node4 -->
<g id="Node000004" class="node">
<title>Node4</title>
<g id="a_Node000004"><a xlink:title=" ">
<polygon fill="#e0e0e0" stroke="#999999" points="376,-19.25 333,-19.25 333,0 376,0 376,-19.25"/>
<text xml:space="preserve" text-anchor="middle" x="354.5" y="-5.75" font-family="Helvetica,sans-Serif" font-size="10.00">vector</text>
</a>
</g>
</g>
<!-- Node3&#45;&gt;Node4 -->
<g id="edge3_Node000003_Node000004" class="edge">
<title>Node3&#45;&gt;Node4</title>
<g id="a_edge3_Node000003_Node000004"><a xlink:title=" ">
<path fill="none" stroke="#63b8ff" d="M159.52,-110.31C160.05,-96.54 163.14,-69.99 178.5,-55.25 217.14,-18.16 282.03,-10.64 321.29,-9.79"/>
<polygon fill="#63b8ff" stroke="#63b8ff" points="321.11,-13.29 331.08,-9.72 321.06,-6.29 321.11,-13.29"/>
</a>
</g>
</g>
<!-- Node5 -->
<g id="Node000005" class="node">
<title>Node5</title>
<g id="a_Node000005"><a xlink:title=" ">
<polygon fill="#e0e0e0" stroke="#999999" points="227.5,-74.5 187.5,-74.5 187.5,-55.25 227.5,-55.25 227.5,-74.5"/>
<text xml:space="preserve" text-anchor="middle" x="207.5" y="-61" font-family="Helvetica,sans-Serif" font-size="10.00">string</text>
</a>
</g>
</g>
<!-- Node3&#45;&gt;Node5 -->
<g id="edge4_Node000003_Node000005" class="edge">
<title>Node3&#45;&gt;Node5</title>
<g id="a_edge4_Node000003_Node000005"><a xlink:title=" ">
<path fill="none" stroke="#63b8ff" d="M167.43,-110.33C174.06,-102.98 183.72,-92.26 191.89,-83.19"/>
<polygon fill="#63b8ff" stroke="#63b8ff" points="194.29,-85.75 198.39,-75.98 189.09,-81.07 194.29,-85.75"/>
</a>
</g>
</g>
<!-- Node6&#45;&gt;Node3 -->
<g id="edge6_Node000006_Node000003" class="edge">
<title>Node6&#45;&gt;Node3</title>
<g id="a_edge6_Node000006_Node000003"><a xlink:title=" ">
<path fill="none" stroke="#63b8ff" d="M335.56,-220.81C321.71,-207.51 293.81,-182.15 266.5,-165.75 245,-152.84 219.08,-141.93 198.13,-134.12"/>
<polygon fill="#63b8ff" stroke="#63b8ff" points="199.4,-130.86 188.8,-130.74 197.01,-137.44 199.4,-130.86"/>
</a>
</g>
</g>
<!-- Node7 -->
<g id="Node000007" class="node">
<title>Node7</title>
<g id="a_Node000007"><a xlink:href="_solver_8h.html" target="_top" xlink:title=" ">
<polygon fill="white" stroke="#666666" points="542.75,-185 462.25,-185 462.25,-165.75 542.75,-165.75 542.75,-185"/>
<text xml:space="preserve" text-anchor="middle" x="502.5" y="-171.5" font-family="Helvetica,sans-Serif" font-size="10.00">solver/Solver.h</text>
</a>
</g>
</g>
<!-- Node6&#45;&gt;Node7 -->
<g id="edge7_Node000006_Node000007" class="edge">
<title>Node6&#45;&gt;Node7</title>
<g id="a_edge7_Node000006_Node000007"><a xlink:title=" ">
<path fill="none" stroke="#63b8ff" d="M371.3,-220.59C396.95,-211.95 435.89,-198.82 464.69,-189.12"/>
<polygon fill="#63b8ff" stroke="#63b8ff" points="465.77,-192.45 474.13,-185.94 463.54,-185.81 465.77,-192.45"/>
</a>
</g>
</g>
<!-- Node6&#45;&gt;Node15 -->
<g id="edge24_Node000006_Node000015" class="edge">
<title>Node6&#45;&gt;Node15</title>
<g id="a_edge24_Node000006_Node000015"><a xlink:title=" ">
<path fill="none" stroke="#63b8ff" d="M389.81,-220.56C471.63,-204.04 649.74,-167.51 809.55,-130.38"/>
<polygon fill="#63b8ff" stroke="#63b8ff" points="810.12,-133.84 819.06,-128.16 808.53,-127.02 810.12,-133.84"/>
</a>
</g>
</g>
<!-- Node17 -->
<g id="Node000017" class="node">
<title>Node17</title>
<g id="a_Node000017"><a xlink:title=" ">
<polygon fill="#e0e0e0" stroke="#999999" points="263.25,-129.75 209.75,-129.75 209.75,-110.5 263.25,-110.5 263.25,-129.75"/>
<text xml:space="preserve" text-anchor="middle" x="236.5" y="-116.25" font-family="Helvetica,sans-Serif" font-size="10.00">iostream</text>
</a>
</g>
</g>
<!-- Node6&#45;&gt;Node17 -->
<g id="edge25_Node000006_Node000017" class="edge">
<title>Node6&#45;&gt;Node17</title>
<g id="a_edge25_Node000006_Node000017"><a xlink:title=" ">
<path fill="none" stroke="#63b8ff" d="M341.23,-220.89C335.97,-207.7 324.54,-182.47 308.5,-165.75 296.66,-153.4 280.71,-143.06 266.83,-135.45"/>
<polygon fill="#63b8ff" stroke="#63b8ff" points="268.55,-132.4 258.07,-130.88 265.31,-138.61 268.55,-132.4"/>
</a>
</g>
</g>
<!-- Node7&#45;&gt;Node3 -->
<g id="edge8_Node000007_Node000003" class="edge">
<title>Node7&#45;&gt;Node3</title>
<g id="a_edge8_Node000007_Node000003"><a xlink:title=" ">
<path fill="none" stroke="#63b8ff" d="M461.83,-169.16C405.81,-161.81 301.51,-147.49 202.77,-130.06"/>
<polygon fill="#63b8ff" stroke="#63b8ff" points="203.64,-126.66 193.18,-128.36 202.41,-133.55 203.64,-126.66"/>
</a>
</g>
</g>
<!-- Node7&#45;&gt;Node4 -->
<g id="edge21_Node000007_Node000004" class="edge">
<title>Node7&#45;&gt;Node4</title>
<g id="a_edge21_Node000007_Node000004"><a xlink:title=" ">
<path fill="none" stroke="#63b8ff" d="M462.01,-167.85C437.54,-161.89 407.52,-150.67 388.5,-129.75 363.37,-102.11 356.69,-57.15 354.99,-31.09"/>
<polygon fill="#63b8ff" stroke="#63b8ff" points="358.49,-31.02 354.56,-21.19 351.5,-31.33 358.49,-31.02"/>
</a>
</g>
</g>
<!-- Node8 -->
<g id="Node000008" class="node">
<title>Node8</title>
<g id="a_Node000008"><a xlink:href="_edge_8h.html" target="_top" xlink:title=" ">
<polygon fill="white" stroke="#666666" points="525.88,-129.75 479.12,-129.75 479.12,-110.5 525.88,-110.5 525.88,-129.75"/>
<text xml:space="preserve" text-anchor="middle" x="502.5" y="-116.25" font-family="Helvetica,sans-Serif" font-size="10.00">Edge.h</text>
</a>
</g>
</g>
<!-- Node7&#45;&gt;Node8 -->
<g id="edge9_Node000007_Node000008" class="edge">
<title>Node7&#45;&gt;Node8</title>
<g id="a_edge9_Node000007_Node000008"><a xlink:title=" ">
<path fill="none" stroke="#63b8ff" d="M502.5,-165.58C502.5,-159.07 502.5,-149.92 502.5,-141.62"/>
<polygon fill="#63b8ff" stroke="#63b8ff" points="506,-141.62 502.5,-131.62 499,-141.62 506,-141.62"/>
</a>
</g>
</g>
<!-- Node9 -->
<g id="Node000009" class="node">
<title>Node9</title>
<g id="a_Node000009"><a xlink:href="_state_8h.html" target="_top" xlink:title=" ">
<polygon fill="white" stroke="#666666" points="604.25,-74.5 556.75,-74.5 556.75,-55.25 604.25,-55.25 604.25,-74.5"/>
<text xml:space="preserve" text-anchor="middle" x="580.5" y="-61" font-family="Helvetica,sans-Serif" font-size="10.00">State.h</text>
</a>
</g>
</g>
<!-- Node7&#45;&gt;Node9 -->
<g id="edge10_Node000007_Node000009" class="edge">
<title>Node7&#45;&gt;Node9</title>
<g id="a_edge10_Node000007_Node000009"><a xlink:title=" ">
<path fill="none" stroke="#63b8ff" d="M542.95,-171.57C571.45,-167.23 607.75,-156.42 626.5,-129.75 638.17,-113.15 620.82,-94.31 604.2,-81.42"/>
<polygon fill="#63b8ff" stroke="#63b8ff" points="606.6,-78.84 596.45,-75.81 602.49,-84.51 606.6,-78.84"/>
</a>
</g>
</g>
<!-- Node10 -->
<g id="Node000010" class="node">
<title>Node10</title>
<g id="a_Node000010"><a xlink:href="_solution_8h.html" target="_top" xlink:title=" ">
<polygon fill="white" stroke="#666666" points="341.25,-129.75 281.75,-129.75 281.75,-110.5 341.25,-110.5 341.25,-129.75"/>
<text xml:space="preserve" text-anchor="middle" x="311.5" y="-116.25" font-family="Helvetica,sans-Serif" font-size="10.00">Solution.h</text>
</a>
</g>
</g>
<!-- Node7&#45;&gt;Node10 -->
<g id="edge12_Node000007_Node000010" class="edge">
<title>Node7&#45;&gt;Node10</title>
<g id="a_edge12_Node000007_Node000010"><a xlink:title=" ">
<path fill="none" stroke="#63b8ff" d="M470.1,-165.34C437.64,-156.29 387.57,-142.33 352.39,-132.53"/>
<polygon fill="#63b8ff" stroke="#63b8ff" points="353.57,-129.22 343,-129.91 351.69,-135.96 353.57,-129.22"/>
</a>
</g>
</g>
<!-- Node12 -->
<g id="Node000012" class="node">
<title>Node12</title>
<g id="a_Node000012"><a xlink:href="_i_heuristic_8h.html" target="_top" xlink:title=" ">
<polygon fill="white" stroke="#666666" points="739.62,-129.75 673.38,-129.75 673.38,-110.5 739.62,-110.5 739.62,-129.75"/>
<text xml:space="preserve" text-anchor="middle" x="706.5" y="-116.25" font-family="Helvetica,sans-Serif" font-size="10.00">IHeuristic.h</text>
</a>
</g>
</g>
<!-- Node7&#45;&gt;Node12 -->
<g id="edge15_Node000007_Node000012" class="edge">
<title>Node7&#45;&gt;Node12</title>
<g id="a_edge15_Node000007_Node000012"><a xlink:title=" ">
<path fill="none" stroke="#63b8ff" d="M537.11,-165.34C571.51,-156.36 624.44,-142.54 661.97,-132.75"/>
<polygon fill="#63b8ff" stroke="#63b8ff" points="662.82,-136.14 671.62,-130.23 661.06,-129.37 662.82,-136.14"/>
</a>
</g>
</g>
<!-- Node13 -->
<g id="Node000013" class="node">
<title>Node13</title>
<g id="a_Node000013"><a xlink:href="_i_validator_8h.html" target="_top" xlink:title=" ">
<polygon fill="white" stroke="#666666" points="461.5,-129.75 397.5,-129.75 397.5,-110.5 461.5,-110.5 461.5,-129.75"/>
<text xml:space="preserve" text-anchor="middle" x="429.5" y="-116.25" font-family="Helvetica,sans-Serif" font-size="10.00">IValidator.h</text>
</a>
</g>
</g>
<!-- Node7&#45;&gt;Node13 -->
<g id="edge17_Node000007_Node000013" class="edge">
<title>Node7&#45;&gt;Node13</title>
<g id="a_edge17_Node000007_Node000013"><a xlink:title=" ">
<path fill="none" stroke="#63b8ff" d="M490.12,-165.34C479.35,-157.49 463.53,-145.95 450.75,-136.62"/>
<polygon fill="#63b8ff" stroke="#63b8ff" points="453.06,-133.98 442.92,-130.92 448.94,-139.64 453.06,-133.98"/>
</a>
</g>
</g>
<!-- Node14 -->
<g id="Node000014" class="node">
<title>Node14</title>
<g id="a_Node000014"><a xlink:href="_i_propagator_8h.html" target="_top" xlink:title=" ">
<polygon fill="white" stroke="#666666" points="617.38,-129.75 543.62,-129.75 543.62,-110.5 617.38,-110.5 617.38,-129.75"/>
<text xml:space="preserve" text-anchor="middle" x="580.5" y="-116.25" font-family="Helvetica,sans-Serif" font-size="10.00">IPropagator.h</text>
</a>
</g>
</g>
<!-- Node7&#45;&gt;Node14 -->
<g id="edge19_Node000007_Node000014" class="edge">
<title>Node7&#45;&gt;Node14</title>
<g id="a_edge19_Node000007_Node000014"><a xlink:title=" ">
<path fill="none" stroke="#63b8ff" d="M515.73,-165.34C527.27,-157.46 544.27,-145.86 557.95,-136.52"/>
<polygon fill="#63b8ff" stroke="#63b8ff" points="559.67,-139.58 565.95,-131.06 555.72,-133.8 559.67,-139.58"/>
</a>
</g>
</g>
<!-- Node7&#45;&gt;Node15 -->
<g id="edge22_Node000007_Node000015" class="edge">
<title>Node7&#45;&gt;Node15</title>
<g id="a_edge22_Node000007_Node000015"><a xlink:title=" ">
<path fill="none" stroke="#63b8ff" d="M542.86,-169.94C600.15,-163.35 708.53,-149.78 809.56,-130.17"/>
<polygon fill="#63b8ff" stroke="#63b8ff" points="809.95,-133.66 819.09,-128.29 808.6,-126.79 809.95,-133.66"/>
</a>
</g>
</g>
<!-- Node16 -->
<g id="Node000016" class="node">
<title>Node16</title>
<g id="a_Node000016"><a xlink:title=" ">
<polygon fill="#e0e0e0" stroke="#999999" points="803.12,-129.75 757.88,-129.75 757.88,-110.5 803.12,-110.5 803.12,-129.75"/>
<text xml:space="preserve" text-anchor="middle" x="780.5" y="-116.25" font-family="Helvetica,sans-Serif" font-size="10.00">atomic</text>
</a>
</g>
</g>
<!-- Node7&#45;&gt;Node16 -->
<g id="edge23_Node000007_Node000016" class="edge">
<title>Node7&#45;&gt;Node16</title>
<g id="a_edge23_Node000007_Node000016"><a xlink:title=" ">
<path fill="none" stroke="#63b8ff" d="M543.19,-168.07C589.95,-160.58 669.2,-147.18 746.58,-130.02"/>
<polygon fill="#63b8ff" stroke="#63b8ff" points="747.02,-133.51 756.01,-127.91 745.48,-126.68 747.02,-133.51"/>
</a>
</g>
</g>
<!-- Node9&#45;&gt;Node4 -->
<g id="edge11_Node000009_Node000004" class="edge">
<title>Node9&#45;&gt;Node4</title>
<g id="a_edge11_Node000009_Node000004"><a xlink:title=" ">
<path fill="none" stroke="#63b8ff" d="M556.31,-58.18C515.57,-48.58 433.19,-29.17 387.28,-18.35"/>
<polygon fill="#63b8ff" stroke="#63b8ff" points="388.19,-14.97 377.65,-16.08 386.58,-21.78 388.19,-14.97"/>
</a>
</g>
</g>
<!-- Node10&#45;&gt;Node4 -->
<g id="edge13_Node000010_Node000004" class="edge">
<title>Node10&#45;&gt;Node4</title>
<g id="a_edge13_Node000010_Node000004"><a xlink:title=" ">
<path fill="none" stroke="#63b8ff" d="M315.02,-110.25C321.92,-92.84 337.36,-53.87 346.76,-30.16"/>
<polygon fill="#63b8ff" stroke="#63b8ff" points="349.94,-31.62 350.37,-21.03 343.44,-29.04 349.94,-31.62"/>
</a>
</g>
</g>
<!-- Node11 -->
<g id="Node000011" class="node">
<title>Node11</title>
<g id="a_Node000011"><a xlink:title=" ">
<polygon fill="#e0e0e0" stroke="#999999" points="294.12,-74.5 254.88,-74.5 254.88,-55.25 294.12,-55.25 294.12,-74.5"/>
<text xml:space="preserve" text-anchor="middle" x="274.5" y="-61" font-family="Helvetica,sans-Serif" font-size="10.00">utility</text>
</a>
</g>
</g>
<!-- Node10&#45;&gt;Node11 -->
<g id="edge14_Node000010_Node000011" class="edge">
<title>Node10&#45;&gt;Node11</title>
<g id="a_edge14_Node000010_Node000011"><a xlink:title=" ">
<path fill="none" stroke="#63b8ff" d="M305.39,-110.33C300.44,-103.21 293.3,-92.93 287.13,-84.05"/>
<polygon fill="#63b8ff" stroke="#63b8ff" points="290.19,-82.32 281.61,-76.1 284.44,-86.31 290.19,-82.32"/>
</a>
</g>
</g>
<!-- Node12&#45;&gt;Node9 -->
<g id="edge16_Node000012_Node000009" class="edge">
<title>Node12&#45;&gt;Node9</title>
<g id="a_edge16_Node000012_Node000009"><a xlink:title=" ">
<path fill="none" stroke="#63b8ff" d="M685.13,-110.09C665.21,-101.68 635.26,-89.02 612.5,-79.4"/>
<polygon fill="#63b8ff" stroke="#63b8ff" points="613.95,-76.21 603.37,-75.54 611.22,-82.66 613.95,-76.21"/>
</a>
</g>
</g>
<!-- Node13&#45;&gt;Node9 -->
<g id="edge18_Node000013_Node000009" class="edge">
<title>Node13&#45;&gt;Node9</title>
<g id="a_edge18_Node000013_Node000009"><a xlink:title=" ">
<path fill="none" stroke="#63b8ff" d="M455.12,-110.09C479.96,-101.33 517.86,-87.96 545.49,-78.22"/>
<polygon fill="#63b8ff" stroke="#63b8ff" points="546.57,-81.55 554.83,-74.93 544.24,-74.95 546.57,-81.55"/>
</a>
</g>
</g>
<!-- Node14&#45;&gt;Node9 -->
<g id="edge20_Node000014_Node000009" class="edge">
<title>Node14&#45;&gt;Node9</title>
<g id="a_edge20_Node000014_Node000009"><a xlink:title=" ">
<path fill="none" stroke="#63b8ff" d="M580.5,-110.33C580.5,-103.82 580.5,-94.67 580.5,-86.37"/>
<polygon fill="#63b8ff" stroke="#63b8ff" points="584,-86.37 580.5,-76.37 577,-86.37 584,-86.37"/>
</a>
</g>
</g>
<!-- Node18&#45;&gt;Node4 -->
<g id="edge29_Node000018_Node000004" class="edge">
<title>Node18&#45;&gt;Node4</title>
<g id="a_edge29_Node000018_Node000004"><a xlink:title=" ">
<path fill="none" stroke="#63b8ff" d="M844.02,-165.41C865.67,-153.17 897.77,-130.47 881.5,-110.5 818.63,-33.34 493.31,-15.4 387.67,-11.58"/>
<polygon fill="#63b8ff" stroke="#63b8ff" points="388.09,-8.1 377.98,-11.25 387.85,-15.09 388.09,-8.1"/>
</a>
</g>
</g>
<!-- Node18&#45;&gt;Node10 -->
<g id="edge28_Node000018_Node000010" class="edge">
<title>Node18&#45;&gt;Node10</title>
<g id="a_edge28_Node000018_Node000010"><a xlink:title=" ">
<path fill="none" stroke="#63b8ff" d="M772.2,-169.02C689.4,-160.81 526.63,-144.52 388.5,-129.75 376.86,-128.51 364.24,-127.11 352.65,-125.81"/>
<polygon fill="#63b8ff" stroke="#63b8ff" points="353.31,-122.36 342.98,-124.72 352.53,-129.32 353.31,-122.36"/>
</a>
</g>
</g>
<!-- Node18&#45;&gt;Node15 -->
<g id="edge30_Node000018_Node000015" class="edge">
<title>Node18&#45;&gt;Node15</title>
<g id="a_edge30_Node000018_Node000015"><a xlink:title=" ">
<path fill="none" stroke="#63b8ff" d="M829.8,-165.58C832.33,-158.84 835.93,-149.27 839.13,-140.74"/>
<polygon fill="#63b8ff" stroke="#63b8ff" points="842.35,-142.12 842.59,-131.53 835.8,-139.66 842.35,-142.12"/>
</a>
</g>
</g>
<!-- Node19&#45;&gt;Node3 -->
<g id="edge32_Node000019_Node000003" class="edge">
<title>Node19&#45;&gt;Node3</title>
<g id="a_edge32_Node000019_Node000003"><a xlink:title=" ">
<path fill="none" stroke="#63b8ff" d="M172.86,-165.58C170.86,-158.92 168.02,-149.49 165.48,-141.03"/>
<polygon fill="#63b8ff" stroke="#63b8ff" points="168.86,-140.13 162.64,-131.56 162.16,-142.14 168.86,-140.13"/>
</a>
</g>
</g>
<!-- Node19&#45;&gt;Node4 -->
<g id="edge35_Node000019_Node000004" class="edge">
<title>Node19&#45;&gt;Node4</title>
<g id="a_edge35_Node000019_Node000004"><a xlink:title=" ">
<path fill="none" stroke="#63b8ff" d="M156.31,-165.25C143,-157.77 126.32,-145.79 118.5,-129.75 101.66,-95.18 129.99,-75.78 162.5,-55.25 211.9,-24.05 280.81,-14.62 321.24,-11.79"/>
<polygon fill="#63b8ff" stroke="#63b8ff" points="321.28,-15.3 331.06,-11.22 320.87,-8.31 321.28,-15.3"/>
</a>
</g>
</g>
<!-- Node19&#45;&gt;Node10 -->
<g id="edge33_Node000019_Node000010" class="edge">
<title>Node19&#45;&gt;Node10</title>
<g id="a_edge33_Node000019_Node000010"><a xlink:title=" ">
<path fill="none" stroke="#63b8ff" d="M198.57,-165.34C220.26,-156.85 252.98,-144.04 277.63,-134.39"/>
<polygon fill="#63b8ff" stroke="#63b8ff" points="278.87,-137.66 286.91,-130.75 276.32,-131.14 278.87,-137.66"/>
</a>
</g>
</g>
<!-- Node19&#45;&gt;Node17 -->
<g id="edge34_Node000019_Node000017" class="edge">
<title>Node19&#45;&gt;Node17</title>
<g id="a_edge34_Node000019_Node000017"><a xlink:title=" ">
<path fill="none" stroke="#63b8ff" d="M185.85,-165.34C194.58,-157.72 207.29,-146.62 217.8,-137.45"/>
<polygon fill="#63b8ff" stroke="#63b8ff" points="219.93,-140.23 225.16,-131.02 215.33,-134.96 219.93,-140.23"/>
</a>
</g>
</g>
<!-- Node20 -->
<g id="Node000020" class="node">
<title>Node20</title>
<g id="a_Node000020"><a xlink:title=" ">
<polygon fill="#e0e0e0" stroke="#999999" points="71.88,-129.75 37.12,-129.75 37.12,-110.5 71.88,-110.5 71.88,-129.75"/>
<text xml:space="preserve" text-anchor="middle" x="54.5" y="-116.25" font-family="Helvetica,sans-Serif" font-size="10.00">map</text>
</a>
</g>
</g>
<!-- Node19&#45;&gt;Node20 -->
<g id="edge36_Node000019_Node000020" class="edge">
<title>Node19&#45;&gt;Node20</title>
<g id="a_edge36_Node000019_Node000020"><a xlink:title=" ">
<path fill="none" stroke="#63b8ff" d="M154.97,-165.34C135.13,-156.61 104.91,-143.31 82.79,-133.57"/>
<polygon fill="#63b8ff" stroke="#63b8ff" points="84.31,-130.42 73.75,-129.6 81.49,-136.83 84.31,-130.42"/>
</a>
</g>
</g>
<!-- Node21&#45;&gt;Node3 -->
<g id="edge38_Node000021_Node000003" class="edge">
<title>Node21&#45;&gt;Node3</title>
<g id="a_edge38_Node000021_Node000003"><a xlink:title=" ">
<path fill="none" stroke="#63b8ff" d="M72.31,-165.34C88.53,-157.12 112.74,-144.84 131.53,-135.31"/>
<polygon fill="#63b8ff" stroke="#63b8ff" points="132.92,-138.53 140.25,-130.89 129.75,-132.29 132.92,-138.53"/>
</a>
</g>
</g>
<!-- Node21&#45;&gt;Node11 -->
<g id="edge40_Node000021_Node000011" class="edge">
<title>Node21&#45;&gt;Node11</title>
<g id="a_edge40_Node000021_Node000011"><a xlink:title=" ">
<path fill="none" stroke="#63b8ff" d="M45.72,-165.63C33.53,-152.42 14.47,-127.17 28.5,-110.5 58.71,-74.61 190.5,-83.69 236.5,-74.5 238.69,-74.06 240.95,-73.59 243.21,-73.11"/>
<polygon fill="#63b8ff" stroke="#63b8ff" points="243.94,-76.54 252.95,-70.96 242.43,-69.7 243.94,-76.54"/>
</a>
</g>
</g>
<!-- Node21&#45;&gt;Node20 -->
<g id="edge39_Node000021_Node000020" class="edge">
<title>Node21&#45;&gt;Node20</title>
<g id="a_edge39_Node000021_Node000020"><a xlink:title=" ">
<path fill="none" stroke="#63b8ff" d="M54.5,-165.58C54.5,-159.07 54.5,-149.92 54.5,-141.62"/>
<polygon fill="#63b8ff" stroke="#63b8ff" points="58,-141.62 54.5,-131.62 51,-141.62 58,-141.62"/>
</a>
</g>
</g>
</g>
</svg>

<g id="navigator" transform="translate(0 0)" fill="#404254">
  <rect fill="#f2f5e9" fill-opacity="0.5" stroke="#606060" stroke-width=".5" x="0" y="0" width="60" height="60"/>
  <use id="zoomplus" xlink:href="#zoomPlus" x="17" y="9" onmousedown="handleZoom(evt,'in')"/>
  <use id="zoomminus" xlink:href="#zoomMin" x="42" y="9" onmousedown="handleZoom(evt,'out')"/>
  <use id="reset" xlink:href="#resetDef" x="30" y="36" onmousedown="handleReset()"/>
   <use id="arrowup" xlink:href="#arrowUp" x="0" y="0" onmousedown="handlePan(0,-1)"/>
  <use id="arrowright" xlink:href="#arrowRight" x="0" y="0" onmousedown="handlePan(1,0)"/>
  <use id="arrowdown" xlink:href="#arrowDown" x="0" y="0" onmousedown="handlePan(0,1)"/>
  <use id="arrowleft" xlink:href="#arrowLeft" x="0" y="0" onmousedown="handlePan(-1,0)"/>
</g>
<svg viewBox="0 0 15 15" width="100%" height="30px" preserveAspectRatio="xMaxYMin meet">
 <g id="arrow_out" transform="scale(0.3 0.3)">
  <a xlink:href="_solver_factory_8cpp__incl_org.svg" target="_base">
   <rect id="button" ry="5" rx="5" y="6" x="6" height="38" width="38"
        fill="#f2f5e9" fill-opacity="0.5" stroke="#606060" stroke-width="1.0"/>
   <path id="arrow"
     d="M 11.500037,31.436501 C 11.940474,20.09759 22.043105,11.32322 32.158766,21.979434 L 37.068811,17.246167 C 37.068811,17.246167 37.088388,32 37.088388,32 L 22.160133,31.978069 C 22.160133,31.978069 26.997745,27.140456 26.997745,27.140456 C 18.528582,18.264221 13.291696,25.230495 11.500037,31.436501 z"
     style="fill:#404040;"/>
  </a>
 </g>
</svg>

<style type='text/css'>
<![CDATA[
[data-mouse-over-selected='false'] { opacity: 0.7; }
[data-mouse-over-selected='true']  { opacity: 1.0; }
]]>
</style>
<script type="application/ecmascript"><![CDATA[
document.addEventListener('DOMContentLoaded', (event) => {
  highlightEdges();
  highlightAdjacentNodes();
});
]]></script>
</svg>
