<?xml version="1.0" encoding="UTF-8" standalone="no"?>
<!DOCTYPE svg PUBLIC "-//W3C//DTD SVG 1.1//EN"
 "http://www.w3.org/Graphics/SVG/1.1/DTD/svg11.dtd">
<!-- Generated by graphviz version 14.0.2 (20251019.1705)
 -->
<!-- Title: include/core/Solution.h Pages: 1 -->
<svg width="123pt" height="83pt"
 viewBox="0.00 0.00 123.00 83.00" xmlns="http://www.w3.org/2000/svg" xmlns:xlink="http://www.w3.org/1999/xlink">
<g id="graph0" class="graph" transform="scale(1 1) rotate(0) translate(4 78.5)">
<title>include/core/Solution.h</title>
<!-- Node1 -->
<g id="Node000001" class="node">
<title>Node1</title>
<g id="a_Node000001"><a xlink:title=" ">
<polygon fill="#999999" stroke="#666666" points="115,-74.5 0,-74.5 0,-55.25 115,-55.25 115,-74.5"/>
<text xml:space="preserve" text-anchor="middle" x="57.5" y="-61" font-family="Helvetica,sans-Serif" font-size="10.00">include/core/Solution.h</text>
</a>
</g>
</g>
<!-- Node2 -->
<g id="Node000002" class="node">
<title>Node2</title>
<g id="a_Node000002"><a xlink:title=" ">
<polygon fill="#e0e0e0" stroke="#999999" points="50,-19.25 7,-19.25 7,0 50,0 50,-19.25"/>
<text xml:space="preserve" text-anchor="middle" x="28.5" y="-5.75" font-family="Helvetica,sans-Serif" font-size="10.00">vector</text>
</a>
</g>
</g>
<!-- Node1&#45;&gt;Node2 -->
<g id="edge1_Node000001_Node000002" class="edge">
<title>Node1&#45;&gt;Node2</title>
<g id="a_edge1_Node000001_Node000002"><a xlink:title=" ">
<path fill="none" stroke="#63b8ff" d="M52.71,-55.08C48.96,-48.19 43.59,-38.34 38.87,-29.66"/>
<polygon fill="#63b8ff" stroke="#63b8ff" points="41.97,-28.05 34.12,-20.94 35.83,-31.39 41.97,-28.05"/>
</a>
</g>
</g>
<!-- Node3 -->
<g id="Node000003" class="node">
<title>Node3</title>
<g id="a_Node000003"><a xlink:title=" ">
<polygon fill="#e0e0e0" stroke="#999999" points="107.12,-19.25 67.88,-19.25 67.88,0 107.12,0 107.12,-19.25"/>
<text xml:space="preserve" text-anchor="middle" x="87.5" y="-5.75" font-family="Helvetica,sans-Serif" font-size="10.00">utility</text>
</a>
</g>
</g>
<!-- Node1&#45;&gt;Node3 -->
<g id="edge2_Node000001_Node000003" class="edge">
<title>Node1&#45;&gt;Node3</title>
<g id="a_edge2_Node000001_Node000003"><a xlink:title=" ">
<path fill="none" stroke="#63b8ff" d="M62.45,-55.08C66.38,-48.11 72.01,-38.12 76.94,-29.37"/>
<polygon fill="#63b8ff" stroke="#63b8ff" points="79.84,-31.36 81.7,-20.93 73.74,-27.92 79.84,-31.36"/>
</a>
</g>
</g>
</g>
</svg>
