<?xml version="1.0" encoding="UTF-8" standalone="no"?>
<!DOCTYPE svg PUBLIC "-//W3C//DTD SVG 1.1//EN"
 "http://www.w3.org/Graphics/SVG/1.1/DTD/svg11.dtd">
<!-- Generated by graphviz version 14.0.2 (20251019.1705)
 -->
<!-- Title: include/slitherlink/io/SolutionPrinter.h Pages: 1 -->
<svg width="294pt" height="94pt"
 viewBox="0.00 0.00 294.00 94.00" xmlns="http://www.w3.org/2000/svg" xmlns:xlink="http://www.w3.org/1999/xlink">
<g id="graph0" class="graph" transform="scale(1 1) rotate(0) translate(4 89.75)">
<title>include/slitherlink/io/SolutionPrinter.h</title>
<!-- Node1 -->
<g id="Node000001" class="node">
<title>Node1</title>
<g id="a_Node000001"><a xlink:title=" ">
<polygon fill="#999999" stroke="#666666" points="198.12,-85.75 97.38,-85.75 97.38,-55.25 198.12,-55.25 198.12,-85.75"/>
<text xml:space="preserve" text-anchor="start" x="105.38" y="-72.25" font-family="Helvetica,sans-Serif" font-size="10.00">include/slitherlink</text>
<text xml:space="preserve" text-anchor="middle" x="147.75" y="-61" font-family="Helvetica,sans-Serif" font-size="10.00">/io/SolutionPrinter.h</text>
</a>
</g>
</g>
<!-- Node2 -->
<g id="Node000002" class="node">
<title>Node2</title>
<g id="a_Node000002"><a xlink:href="_solver_factory_8cpp.html" target="_top" xlink:title=" ">
<polygon fill="white" stroke="#666666" points="143.5,-19.25 0,-19.25 0,0 143.5,0 143.5,-19.25"/>
<text xml:space="preserve" text-anchor="middle" x="71.75" y="-5.75" font-family="Helvetica,sans-Serif" font-size="10.00">src/factory/SolverFactory.cpp</text>
</a>
</g>
</g>
<!-- Node1&#45;&gt;Node2 -->
<g id="edge1_Node000001_Node000002" class="edge">
<title>Node1&#45;&gt;Node2</title>
<g id="a_edge1_Node000001_Node000002"><a xlink:title=" ">
<path fill="none" stroke="#63b8ff" d="M120.15,-48.12C107.52,-38.33 93.22,-27.26 83.47,-19.7"/>
<polygon fill="#63b8ff" stroke="#63b8ff" points="117.72,-50.66 127.77,-54.02 122,-45.13 117.72,-50.66"/>
</a>
</g>
</g>
<!-- Node3 -->
<g id="Node000003" class="node">
<title>Node3</title>
<g id="a_Node000003"><a xlink:href="_solution_printer_8cpp.html" target="_top" xlink:title=" ">
<polygon fill="white" stroke="#666666" points="286.12,-19.25 161.38,-19.25 161.38,0 286.12,0 286.12,-19.25"/>
<text xml:space="preserve" text-anchor="middle" x="223.75" y="-5.75" font-family="Helvetica,sans-Serif" font-size="10.00">src/io/SolutionPrinter.cpp</text>
</a>
</g>
</g>
<!-- Node1&#45;&gt;Node3 -->
<g id="edge2_Node000001_Node000003" class="edge">
<title>Node1&#45;&gt;Node3</title>
<g id="a_edge2_Node000001_Node000003"><a xlink:title=" ">
<path fill="none" stroke="#63b8ff" d="M175.35,-48.12C187.98,-38.33 202.28,-27.26 212.03,-19.7"/>
<polygon fill="#63b8ff" stroke="#63b8ff" points="173.5,-45.13 167.73,-54.02 177.78,-50.66 173.5,-45.13"/>
</a>
</g>
</g>
</g>
</svg>
