<?xml version="1.0" encoding="UTF-8" standalone="no"?>
<!DOCTYPE svg PUBLIC "-//W3C//DTD SVG 1.1//EN"
 "http://www.w3.org/Graphics/SVG/1.1/DTD/svg11.dtd">
<!-- Generated by graphviz version 14.0.2 (20251019.1705)
 -->
<!-- Title: include/core/Solution.h Pages: 1 -->
<svg width="681pt" height="260pt"
 viewBox="0.00 0.00 681.00 260.00" xmlns="http://www.w3.org/2000/svg" xmlns:xlink="http://www.w3.org/1999/xlink">
<g id="graph0" class="graph" transform="scale(1 1) rotate(0) translate(4 255.5)">
<title>include/core/Solution.h</title>
<!-- Node1 -->
<g id="Node000001" class="node">
<title>Node1</title>
<g id="a_Node000001"><a xlink:title=" ">
<polygon fill="#999999" stroke="#666666" points="356.78,-251.5 241.78,-251.5 241.78,-232.25 356.78,-232.25 356.78,-251.5"/>
<text xml:space="preserve" text-anchor="middle" x="299.28" y="-238" font-family="Helvetica,sans-Serif" font-size="10.00">include/core/Solution.h</text>
</a>
</g>
</g>
<!-- Node2 -->
<g id="Node000002" class="node">
<title>Node2</title>
<g id="a_Node000002"><a xlink:href="_solution_collector_8h.html" target="_top" xlink:title=" ">
<polygon fill="white" stroke="#666666" points="211.28,-135.38 69.28,-135.38 69.28,-116.12 211.28,-116.12 211.28,-135.38"/>
<text xml:space="preserve" text-anchor="middle" x="140.28" y="-121.88" font-family="Helvetica,sans-Serif" font-size="10.00">include/io/SolutionCollector.h</text>
</a>
</g>
</g>
<!-- Node1&#45;&gt;Node2 -->
<g id="edge1_Node000001_Node000002" class="edge">
<title>Node1&#45;&gt;Node2</title>
<g id="a_edge1_Node000001_Node000002"><a xlink:title=" ">
<path fill="none" stroke="#63b8ff" d="M277.77,-225.43C244.02,-201.21 179.7,-155.04 152.7,-135.66"/>
<polygon fill="#63b8ff" stroke="#63b8ff" points="275.41,-228.05 285.58,-231.04 279.49,-222.36 275.41,-228.05"/>
</a>
</g>
</g>
<!-- Node6 -->
<g id="Node000006" class="node">
<title>Node6</title>
<g id="a_Node000006"><a xlink:href="_solution_printer_8h.html" target="_top" xlink:title=" ">
<polygon fill="white" stroke="#666666" points="365.03,-135.38 233.53,-135.38 233.53,-116.12 365.03,-116.12 365.03,-135.38"/>
<text xml:space="preserve" text-anchor="middle" x="299.28" y="-121.88" font-family="Helvetica,sans-Serif" font-size="10.00">include/io/SolutionPrinter.h</text>
</a>
</g>
</g>
<!-- Node1&#45;&gt;Node6 -->
<g id="edge5_Node000001_Node000006" class="edge">
<title>Node1&#45;&gt;Node6</title>
<g id="a_edge5_Node000001_Node000006"><a xlink:title=" ">
<path fill="none" stroke="#63b8ff" d="M299.28,-220.5C299.28,-195.38 299.28,-153.79 299.28,-135.66"/>
<polygon fill="#63b8ff" stroke="#63b8ff" points="295.78,-220.41 299.28,-230.41 302.78,-220.41 295.78,-220.41"/>
</a>
</g>
</g>
<!-- Node8 -->
<g id="Node000008" class="node">
<title>Node8</title>
<g id="a_Node000008"><a xlink:href="_solver_8h.html" target="_top" xlink:title=" ">
<polygon fill="white" stroke="#666666" points="503.41,-196.25 389.16,-196.25 389.16,-177 503.41,-177 503.41,-196.25"/>
<text xml:space="preserve" text-anchor="middle" x="446.28" y="-182.75" font-family="Helvetica,sans-Serif" font-size="10.00">include/solver/Solver.h</text>
</a>
</g>
</g>
<!-- Node1&#45;&gt;Node8 -->
<g id="edge9_Node000001_Node000008" class="edge">
<title>Node1&#45;&gt;Node8</title>
<g id="a_edge9_Node000001_Node000008"><a xlink:title=" ">
<path fill="none" stroke="#63b8ff" d="M335.04,-227.92C361.73,-218.25 397.53,-205.29 421.22,-196.7"/>
<polygon fill="#63b8ff" stroke="#63b8ff" points="333.85,-224.63 325.64,-231.33 336.24,-231.21 333.85,-224.63"/>
</a>
</g>
</g>
<!-- Node3 -->
<g id="Node000003" class="node">
<title>Node3</title>
<g id="a_Node000003"><a xlink:href="_slitherlink_solver_8cpp.html" target="_top" xlink:title=" ">
<polygon fill="white" stroke="#666666" points="324.28,-74.5 170.28,-74.5 170.28,-55.25 324.28,-55.25 324.28,-74.5"/>
<text xml:space="preserve" text-anchor="middle" x="247.28" y="-61" font-family="Helvetica,sans-Serif" font-size="10.00">src/factory/SlitherlinkSolver.cpp</text>
</a>
</g>
</g>
<!-- Node2&#45;&gt;Node3 -->
<g id="edge2_Node000002_Node000003" class="edge">
<title>Node2&#45;&gt;Node3</title>
<g id="a_edge2_Node000002_Node000003"><a xlink:title=" ">
<path fill="none" stroke="#63b8ff" d="M166.6,-110.27C186.7,-99.21 213.77,-84.31 230.88,-74.9"/>
<polygon fill="#63b8ff" stroke="#63b8ff" points="164.93,-107.19 157.86,-115.08 168.31,-113.32 164.93,-107.19"/>
</a>
</g>
</g>
<!-- Node4 -->
<g id="Node000004" class="node">
<title>Node4</title>
<g id="a_Node000004"><a xlink:href="_solver_factory_8cpp.html" target="_top" xlink:title=" ">
<polygon fill="white" stroke="#666666" points="424.03,-19.25 280.53,-19.25 280.53,0 424.03,0 424.03,-19.25"/>
<text xml:space="preserve" text-anchor="middle" x="352.28" y="-5.75" font-family="Helvetica,sans-Serif" font-size="10.00">src/factory/SolverFactory.cpp</text>
</a>
</g>
</g>
<!-- Node2&#45;&gt;Node4 -->
<g id="edge3_Node000002_Node000004" class="edge">
<title>Node2&#45;&gt;Node4</title>
<g id="a_edge3_Node000002_Node000004"><a xlink:title=" ">
<path fill="none" stroke="#63b8ff" d="M74.2,-113.2C29.24,-102.52 -17.9,-83.9 7.28,-55.25 25,-35.09 184.44,-21.41 280.25,-14.93"/>
<polygon fill="#63b8ff" stroke="#63b8ff" points="73.24,-116.57 83.76,-115.35 74.77,-109.74 73.24,-116.57"/>
</a>
</g>
</g>
<!-- Node5 -->
<g id="Node000005" class="node">
<title>Node5</title>
<g id="a_Node000005"><a xlink:href="_solution_collector_8cpp.html" target="_top" xlink:title=" ">
<polygon fill="white" stroke="#666666" points="151.91,-74.5 16.66,-74.5 16.66,-55.25 151.91,-55.25 151.91,-74.5"/>
<text xml:space="preserve" text-anchor="middle" x="84.28" y="-61" font-family="Helvetica,sans-Serif" font-size="10.00">src/io/SolutionCollector.cpp</text>
</a>
</g>
</g>
<!-- Node2&#45;&gt;Node5 -->
<g id="edge4_Node000002_Node000005" class="edge">
<title>Node2&#45;&gt;Node5</title>
<g id="a_edge4_Node000002_Node000005"><a xlink:title=" ">
<path fill="none" stroke="#63b8ff" d="M123.97,-107.61C113.8,-96.91 101.12,-83.58 92.87,-74.9"/>
<polygon fill="#63b8ff" stroke="#63b8ff" points="121.31,-109.88 130.73,-114.71 126.38,-105.05 121.31,-109.88"/>
</a>
</g>
</g>
<!-- Node6&#45;&gt;Node3 -->
<g id="edge6_Node000006_Node000003" class="edge">
<title>Node6&#45;&gt;Node3</title>
<g id="a_edge6_Node000006_Node000003"><a xlink:title=" ">
<path fill="none" stroke="#63b8ff" d="M283.86,-107.28C274.46,-96.64 262.84,-83.49 255.25,-74.9"/>
<polygon fill="#63b8ff" stroke="#63b8ff" points="281.14,-109.5 290.38,-114.67 286.39,-104.86 281.14,-109.5"/>
</a>
</g>
</g>
<!-- Node6&#45;&gt;Node4 -->
<g id="edge7_Node000006_Node000004" class="edge">
<title>Node6&#45;&gt;Node4</title>
<g id="a_edge7_Node000006_Node000004"><a xlink:title=" ">
<path fill="none" stroke="#63b8ff" d="M313.47,-106.71C320.2,-97.48 327.92,-85.83 333.28,-74.5 342.09,-55.89 347.84,-32.28 350.52,-19.62"/>
<polygon fill="#63b8ff" stroke="#63b8ff" points="310.87,-104.34 307.63,-114.43 316.45,-108.57 310.87,-104.34"/>
</a>
</g>
</g>
<!-- Node7 -->
<g id="Node000007" class="node">
<title>Node7</title>
<g id="a_Node000007"><a xlink:href="_solution_printer_8cpp.html" target="_top" xlink:title=" ">
<polygon fill="white" stroke="#666666" points="504.66,-74.5 379.91,-74.5 379.91,-55.25 504.66,-55.25 504.66,-74.5"/>
<text xml:space="preserve" text-anchor="middle" x="442.28" y="-61" font-family="Helvetica,sans-Serif" font-size="10.00">src/io/SolutionPrinter.cpp</text>
</a>
</g>
</g>
<!-- Node6&#45;&gt;Node7 -->
<g id="edge8_Node000006_Node000007" class="edge">
<title>Node6&#45;&gt;Node7</title>
<g id="a_edge8_Node000006_Node000007"><a xlink:title=" ">
<path fill="none" stroke="#63b8ff" d="M331.85,-111.34C358.97,-100.17 396.86,-84.58 420.46,-74.86"/>
<polygon fill="#63b8ff" stroke="#63b8ff" points="330.63,-108.06 322.71,-115.1 333.29,-114.53 330.63,-108.06"/>
</a>
</g>
</g>
<!-- Node9 -->
<g id="Node000009" class="node">
<title>Node9</title>
<g id="a_Node000009"><a xlink:href="_slitherlink_solver_8h.html" target="_top" xlink:title=" ">
<polygon fill="white" stroke="#666666" points="509.03,-141 383.53,-141 383.53,-110.5 509.03,-110.5 509.03,-141"/>
<text xml:space="preserve" text-anchor="start" x="391.53" y="-127.5" font-family="Helvetica,sans-Serif" font-size="10.00">include/factory/Slitherlink</text>
<text xml:space="preserve" text-anchor="middle" x="446.28" y="-116.25" font-family="Helvetica,sans-Serif" font-size="10.00">Solver.h</text>
</a>
</g>
</g>
<!-- Node8&#45;&gt;Node9 -->
<g id="edge10_Node000008_Node000009" class="edge">
<title>Node8&#45;&gt;Node9</title>
<g id="a_edge10_Node000008_Node000009"><a xlink:title=" ">
<path fill="none" stroke="#63b8ff" d="M446.28,-165.42C446.28,-157.49 446.28,-148.56 446.28,-141.28"/>
<polygon fill="#63b8ff" stroke="#63b8ff" points="442.78,-165.17 446.28,-175.17 449.78,-165.17 442.78,-165.17"/>
</a>
</g>
</g>
<!-- Node11 -->
<g id="Node000011" class="node">
<title>Node11</title>
<g id="a_Node000011"><a xlink:href="_solver_8cpp.html" target="_top" xlink:title=" ">
<polygon fill="white" stroke="#666666" points="635.03,-135.38 527.53,-135.38 527.53,-116.12 635.03,-116.12 635.03,-135.38"/>
<text xml:space="preserve" text-anchor="middle" x="581.28" y="-121.88" font-family="Helvetica,sans-Serif" font-size="10.00">src/solver/Solver.cpp</text>
</a>
</g>
</g>
<!-- Node8&#45;&gt;Node11 -->
<g id="edge14_Node000008_Node000011" class="edge">
<title>Node8&#45;&gt;Node11</title>
<g id="a_edge14_Node000008_Node000011"><a xlink:title=" ">
<path fill="none" stroke="#63b8ff" d="M477.37,-172.07C502.95,-160.91 538.5,-145.41 560.68,-135.73"/>
<polygon fill="#63b8ff" stroke="#63b8ff" points="476.23,-168.74 468.47,-175.95 479.03,-175.16 476.23,-168.74"/>
</a>
</g>
</g>
<!-- Node9&#45;&gt;Node3 -->
<g id="edge13_Node000009_Node000003" class="edge">
<title>Node9&#45;&gt;Node3</title>
<g id="a_edge13_Node000009_Node000003"><a xlink:title=" ">
<path fill="none" stroke="#63b8ff" d="M385.82,-106.86C350.24,-96.33 306.75,-83.47 278.09,-74.99"/>
<polygon fill="#63b8ff" stroke="#63b8ff" points="384.55,-110.13 395.13,-109.62 386.53,-103.42 384.55,-110.13"/>
</a>
</g>
</g>
<!-- Node10 -->
<g id="Node000010" class="node">
<title>Node10</title>
<g id="a_Node000010"><a xlink:href="_solver_factory_8h.html" target="_top" xlink:title=" ">
<polygon fill="white" stroke="#666666" points="673.41,-74.5 523.16,-74.5 523.16,-55.25 673.41,-55.25 673.41,-74.5"/>
<text xml:space="preserve" text-anchor="middle" x="598.28" y="-61" font-family="Helvetica,sans-Serif" font-size="10.00">include/factory/SolverFactory.h</text>
</a>
</g>
</g>
<!-- Node9&#45;&gt;Node10 -->
<g id="edge11_Node000009_Node000010" class="edge">
<title>Node9&#45;&gt;Node10</title>
<g id="a_edge11_Node000009_Node000010"><a xlink:title=" ">
<path fill="none" stroke="#63b8ff" d="M494.98,-105.89C521.76,-95.52 553.76,-83.12 574.97,-74.9"/>
<polygon fill="#63b8ff" stroke="#63b8ff" points="493.72,-102.62 485.66,-109.5 496.25,-109.15 493.72,-102.62"/>
</a>
</g>
</g>
<!-- Node10&#45;&gt;Node4 -->
<g id="edge12_Node000010_Node000004" class="edge">
<title>Node10&#45;&gt;Node4</title>
<g id="a_edge12_Node000010_Node000004"><a xlink:title=" ">
<path fill="none" stroke="#63b8ff" d="M545.2,-52.38C499.95,-42.59 435.8,-28.7 394.12,-19.68"/>
<polygon fill="#63b8ff" stroke="#63b8ff" points="544.28,-55.77 554.79,-54.46 545.76,-48.92 544.28,-55.77"/>
</a>
</g>
</g>
</g>
</svg>
