<?xml version="1.0" encoding="UTF-8" standalone="no"?>
<!DOCTYPE svg PUBLIC "-//W3C//DTD SVG 1.1//EN"
 "http://www.w3.org/Graphics/SVG/1.1/DTD/svg11.dtd">
<!-- Generated by graphviz version 14.0.2 (20251019.1705)
 -->
<!-- Title: include/slitherlink/factory/SolverFactory.h Pages: 1 -->
<!--zoomable 282 -->

<svg id="main" version="1.1" xmlns="http://www.w3.org/2000/svg" xmlns:xlink="http://www.w3.org/1999/xlink" xml:space="preserve" onload="init(evt)">

<style type="text/css"><![CDATA[
.node, .edge {opacity: 0.7;}
.node.selected, .edge.selected {opacity: 1;}
.edge:hover path { stroke: red; }
.edge:hover polygon { stroke: red; fill: red; }
]]></style>

<defs>
  <circle id="rim" cx="0" cy="0" r="7"/>
  <circle id="rim2" cx="0" cy="0" r="3.5"/>
  <g id="zoomPlus">
    <use xlink:href="#rim" fill="#404040"><set attributeName="fill" to="#808080" begin="zoomplus.mouseover" end="zoomplus.mouseout"/></use>
    <path d="M-4,0h8M0,-4v8" fill="none" stroke="white" stroke-width="1.5" pointer-events="none"/>
  </g>
  <g id="zoomMin">
    <use xlink:href="#rim" fill="#404040"><set attributeName="fill" to="#808080" begin="zoomminus.mouseover" end="zoomminus.mouseout"/></use>
    <path d="M-4,0h8" fill="none" stroke="white" stroke-width="1.5" pointer-events="none"/>
  </g>
  <g id="arrowUp" transform="translate(30 24)">
    <use xlink:href="#rim"/>
    <path pointer-events="none" fill="none" stroke="white" stroke-width="1.5" d="M0,-3.0v7 M-2.5,-0.5L0,-3.0L2.5,-0.5"/>
  </g>
  <g id="arrowRight" transform="rotate(90) translate(36 -43)">
    <use xlink:href="#rim"/>
    <path pointer-events="none" fill="none" stroke="white" stroke-width="1.5" d="M0,-3.0v7 M-2.5,-0.5L0,-3.0L2.5,-0.5"/>
  </g>
  <g id="arrowDown" transform="rotate(180) translate(-30 -48)">
    <use xlink:href="#rim"/>
    <path pointer-events="none" fill="none" stroke="white" stroke-width="1.5" d="M0,-3.0v7 M-2.5,-0.5L0,-3.0L2.5,-0.5"/>
  </g>
  <g id="arrowLeft" transform="rotate(270) translate(-36 17)">
    <use xlink:href="#rim"/>
    <path pointer-events="none" fill="none" stroke="white" stroke-width="1.5" d="M0,-3.0v7 M-2.5,-0.5L0,-3.0L2.5,-0.5"/>
  </g>
  <g id="resetDef">
    <use xlink:href="#rim2" fill="#404040"><set attributeName="fill" to="#808080" begin="reset.mouseover" end="reset.mouseout"/></use>
  </g>
</defs>
<script type="application/ecmascript">
var viewWidth = 1168;
var viewHeight = 282;
var sectionId = 'dynsection-0';
</script>
<script type="application/ecmascript" xlink:href="svg.min.js"/>
<svg id="graph" class="graph">
<g id="viewport">
<title>include/slitherlink/factory/SolverFactory.h</title>
<!-- Node1 -->
<g id="Node000001" class="node">
<title>Node1</title>
<g id="a_Node000001"><a xlink:title=" ">
<polygon fill="#999999" stroke="#666666" points="1051.38,-274 931.88,-274 931.88,-243.5 1051.38,-243.5 1051.38,-274"/>
<text xml:space="preserve" text-anchor="start" x="939.88" y="-260.5" font-family="Helvetica,sans-Serif" font-size="10.00">include/slitherlink</text>
<text xml:space="preserve" text-anchor="middle" x="991.62" y="-249.25" font-family="Helvetica,sans-Serif" font-size="10.00">/factory/SolverFactory.h</text>
</a>
</g>
</g>
<!-- Node2 -->
<g id="Node000002" class="node">
<title>Node2</title>
<g id="a_Node000002"><a xlink:href="_slitherlink_solver_8h.html" target="_top" xlink:title=" ">
<polygon fill="white" stroke="#666666" points="638.12,-207.5 541.12,-207.5 541.12,-177 638.12,-177 638.12,-207.5"/>
<text xml:space="preserve" text-anchor="start" x="549.12" y="-194" font-family="Helvetica,sans-Serif" font-size="10.00">slitherlink/factory</text>
<text xml:space="preserve" text-anchor="middle" x="589.62" y="-182.75" font-family="Helvetica,sans-Serif" font-size="10.00">/SlitherlinkSolver.h</text>
</a>
</g>
</g>
<!-- Node1&#45;&gt;Node2 -->
<g id="edge1_Node000001_Node000002" class="edge">
<title>Node1&#45;&gt;Node2</title>
<g id="a_edge1_Node000001_Node000002"><a xlink:title=" ">
<path fill="none" stroke="#63b8ff" d="M931.44,-248.09C855.5,-235.91 725.67,-215.08 649.76,-202.9"/>
<polygon fill="#63b8ff" stroke="#63b8ff" points="650.43,-199.46 640,-201.33 649.32,-206.37 650.43,-199.46"/>
</a>
</g>
</g>
<!-- Node3 -->
<g id="Node000003" class="node">
<title>Node3</title>
<g id="a_Node000003"><a xlink:href="_grid_8h.html" target="_top" xlink:title=" ">
<polygon fill="white" stroke="#666666" points="1026.75,-74.5 918.5,-74.5 918.5,-55.25 1026.75,-55.25 1026.75,-74.5"/>
<text xml:space="preserve" text-anchor="middle" x="972.62" y="-61" font-family="Helvetica,sans-Serif" font-size="10.00">slitherlink/core/Grid.h</text>
</a>
</g>
</g>
<!-- Node1&#45;&gt;Node3 -->
<g id="edge26_Node000001_Node000003" class="edge">
<title>Node1&#45;&gt;Node3</title>
<g id="a_edge26_Node000001_Node000003"><a xlink:title=" ">
<path fill="none" stroke="#63b8ff" d="M990.17,-243.01C986.79,-208.95 978.45,-124.74 974.62,-85.98"/>
<polygon fill="#63b8ff" stroke="#63b8ff" points="978.12,-85.83 973.65,-76.23 971.15,-86.52 978.12,-85.83"/>
</a>
</g>
</g>
<!-- Node11 -->
<g id="Node000011" class="node">
<title>Node11</title>
<g id="a_Node000011"><a xlink:title=" ">
<polygon fill="#e0e0e0" stroke="#999999" points="1096.25,-74.5 1045,-74.5 1045,-55.25 1096.25,-55.25 1096.25,-74.5"/>
<text xml:space="preserve" text-anchor="middle" x="1070.62" y="-61" font-family="Helvetica,sans-Serif" font-size="10.00">memory</text>
</a>
</g>
</g>
<!-- Node1&#45;&gt;Node11 -->
<g id="edge30_Node000001_Node000011" class="edge">
<title>Node1&#45;&gt;Node11</title>
<g id="a_edge30_Node000001_Node000011"><a xlink:title=" ">
<path fill="none" stroke="#63b8ff" d="M995.9,-243.19C1003.98,-216.35 1022.68,-157.53 1044.62,-110.5 1048.74,-101.67 1054.05,-92.3 1058.79,-84.44"/>
<polygon fill="#63b8ff" stroke="#63b8ff" points="1061.65,-86.47 1063.95,-76.13 1055.7,-82.78 1061.65,-86.47"/>
</a>
</g>
</g>
<!-- Node18 -->
<g id="Node000018" class="node">
<title>Node18</title>
<g id="a_Node000018"><a xlink:href="_config_8h.html" target="_top" xlink:title=" ">
<polygon fill="white" stroke="#666666" points="1136.12,-201.88 1039.12,-201.88 1039.12,-182.62 1136.12,-182.62 1136.12,-201.88"/>
<text xml:space="preserve" text-anchor="middle" x="1087.62" y="-188.38" font-family="Helvetica,sans-Serif" font-size="10.00">slitherlink/Config.h</text>
</a>
</g>
</g>
<!-- Node1&#45;&gt;Node18 -->
<g id="edge27_Node000001_Node000018" class="edge">
<title>Node1&#45;&gt;Node18</title>
<g id="a_edge27_Node000001_Node000018"><a xlink:title=" ">
<path fill="none" stroke="#63b8ff" d="M1013.41,-243.11C1028.75,-232.81 1049.24,-219.04 1064.8,-208.58"/>
<polygon fill="#63b8ff" stroke="#63b8ff" points="1066.61,-211.59 1072.96,-203.1 1062.71,-205.78 1066.61,-211.59"/>
</a>
</g>
</g>
<!-- Node2&#45;&gt;Node3 -->
<g id="edge2_Node000002_Node000003" class="edge">
<title>Node2&#45;&gt;Node3</title>
<g id="a_edge2_Node000002_Node000003"><a xlink:title=" ">
<path fill="none" stroke="#63b8ff" d="M634.31,-176.62C710.17,-151.79 862.84,-101.81 934.21,-78.45"/>
<polygon fill="#63b8ff" stroke="#63b8ff" points="935.09,-81.84 943.51,-75.41 932.91,-75.19 935.09,-81.84"/>
</a>
</g>
</g>
<!-- Node5 -->
<g id="Node000005" class="node">
<title>Node5</title>
<g id="a_Node000005"><a xlink:href="_solver_8h.html" target="_top" xlink:title=" ">
<polygon fill="white" stroke="#666666" points="632.88,-141 546.38,-141 546.38,-110.5 632.88,-110.5 632.88,-141"/>
<text xml:space="preserve" text-anchor="start" x="554.38" y="-127.5" font-family="Helvetica,sans-Serif" font-size="10.00">slitherlink/solver</text>
<text xml:space="preserve" text-anchor="middle" x="589.62" y="-116.25" font-family="Helvetica,sans-Serif" font-size="10.00">/Solver.h</text>
</a>
</g>
</g>
<!-- Node2&#45;&gt;Node5 -->
<g id="edge4_Node000002_Node000005" class="edge">
<title>Node2&#45;&gt;Node5</title>
<g id="a_edge4_Node000002_Node000005"><a xlink:title=" ">
<path fill="none" stroke="#63b8ff" d="M589.62,-176.61C589.62,-169.52 589.62,-160.79 589.62,-152.63"/>
<polygon fill="#63b8ff" stroke="#63b8ff" points="593.13,-152.84 589.63,-142.84 586.13,-152.84 593.13,-152.84"/>
</a>
</g>
</g>
<!-- Node2&#45;&gt;Node11 -->
<g id="edge24_Node000002_Node000011" class="edge">
<title>Node2&#45;&gt;Node11</title>
<g id="a_edge24_Node000002_Node000011"><a xlink:title=" ">
<path fill="none" stroke="#63b8ff" d="M638.36,-180.19C681.21,-170.34 745.2,-155.3 800.62,-141 884.28,-119.41 981.79,-91.63 1033.68,-76.63"/>
<polygon fill="#63b8ff" stroke="#63b8ff" points="1034.56,-80.02 1043.19,-73.87 1032.62,-73.29 1034.56,-80.02"/>
</a>
</g>
</g>
<!-- Node15 -->
<g id="Node000015" class="node">
<title>Node15</title>
<g id="a_Node000015"><a xlink:href="_i_solution_collector_8h.html" target="_top" xlink:title=" ">
<polygon fill="white" stroke="#666666" points="291.5,-141 187.75,-141 187.75,-110.5 291.5,-110.5 291.5,-141"/>
<text xml:space="preserve" text-anchor="start" x="195.75" y="-127.5" font-family="Helvetica,sans-Serif" font-size="10.00">slitherlink/interfaces</text>
<text xml:space="preserve" text-anchor="middle" x="239.62" y="-116.25" font-family="Helvetica,sans-Serif" font-size="10.00">/ISolutionCollector.h</text>
</a>
</g>
</g>
<!-- Node2&#45;&gt;Node15 -->
<g id="edge18_Node000002_Node000015" class="edge">
<title>Node2&#45;&gt;Node15</title>
<g id="a_edge18_Node000002_Node000015"><a xlink:title=" ">
<path fill="none" stroke="#63b8ff" d="M540.96,-182.28C478.86,-170.84 371.32,-151.02 302.92,-138.41"/>
<polygon fill="#63b8ff" stroke="#63b8ff" points="303.83,-135.02 293.36,-136.65 302.56,-141.91 303.83,-135.02"/>
</a>
</g>
</g>
<!-- Node16 -->
<g id="Node000016" class="node">
<title>Node16</title>
<g id="a_Node000016"><a xlink:href="_i_solution_printer_8h.html" target="_top" xlink:title=" ">
<polygon fill="white" stroke="#666666" points="170.12,-141 67.12,-141 67.12,-110.5 170.12,-110.5 170.12,-141"/>
<text xml:space="preserve" text-anchor="start" x="75.12" y="-127.5" font-family="Helvetica,sans-Serif" font-size="10.00">slitherlink/interfaces</text>
<text xml:space="preserve" text-anchor="middle" x="118.62" y="-116.25" font-family="Helvetica,sans-Serif" font-size="10.00">/ISolutionPrinter.h</text>
</a>
</g>
</g>
<!-- Node2&#45;&gt;Node16 -->
<g id="edge21_Node000002_Node000016" class="edge">
<title>Node2&#45;&gt;Node16</title>
<g id="a_edge21_Node000002_Node000016"><a xlink:title=" ">
<path fill="none" stroke="#63b8ff" d="M540.65,-187.04C465.38,-180.19 316.58,-165.1 181.52,-141.41"/>
<polygon fill="#63b8ff" stroke="#63b8ff" points="182.53,-138.03 172.07,-139.73 181.31,-144.93 182.53,-138.03"/>
</a>
</g>
</g>
<!-- Node17 -->
<g id="Node000017" class="node">
<title>Node17</title>
<g id="a_Node000017"><a xlink:title=" ">
<polygon fill="#e0e0e0" stroke="#999999" points="51.25,-74.5 0,-74.5 0,-55.25 51.25,-55.25 51.25,-74.5"/>
<text xml:space="preserve" text-anchor="middle" x="25.62" y="-61" font-family="Helvetica,sans-Serif" font-size="10.00">ostream</text>
</a>
</g>
</g>
<!-- Node2&#45;&gt;Node17 -->
<g id="edge25_Node000002_Node000017" class="edge">
<title>Node2&#45;&gt;Node17</title>
<g id="a_edge25_Node000002_Node000017"><a xlink:title=" ">
<path fill="none" stroke="#63b8ff" d="M540.63,-189.46C416.4,-184.51 96.15,-169.16 57.62,-141 40.03,-128.14 32.03,-103.65 28.44,-86.12"/>
<polygon fill="#63b8ff" stroke="#63b8ff" points="31.91,-85.62 26.79,-76.35 25.01,-86.79 31.91,-85.62"/>
</a>
</g>
</g>
<!-- Node4 -->
<g id="Node000004" class="node">
<title>Node4</title>
<g id="a_Node000004"><a xlink:title=" ">
<polygon fill="#e0e0e0" stroke="#999999" points="649.12,-19.25 606.12,-19.25 606.12,0 649.12,0 649.12,-19.25"/>
<text xml:space="preserve" text-anchor="middle" x="627.62" y="-5.75" font-family="Helvetica,sans-Serif" font-size="10.00">vector</text>
</a>
</g>
</g>
<!-- Node3&#45;&gt;Node4 -->
<g id="edge3_Node000003_Node000004" class="edge">
<title>Node3&#45;&gt;Node4</title>
<g id="a_edge3_Node000003_Node000004"><a xlink:title=" ">
<path fill="none" stroke="#63b8ff" d="M918.34,-55.5C846.09,-44.34 720.51,-24.96 660.89,-15.76"/>
<polygon fill="#63b8ff" stroke="#63b8ff" points="661.46,-12.31 651.04,-14.24 660.39,-19.22 661.46,-12.31"/>
</a>
</g>
</g>
<!-- Node5&#45;&gt;Node3 -->
<g id="edge6_Node000005_Node000003" class="edge">
<title>Node5&#45;&gt;Node3</title>
<g id="a_edge6_Node000005_Node000003"><a xlink:title=" ">
<path fill="none" stroke="#63b8ff" d="M633.13,-117.9C648.17,-115.55 665.14,-112.9 680.62,-110.5 758.47,-98.46 848.02,-84.8 907.21,-75.8"/>
<polygon fill="#63b8ff" stroke="#63b8ff" points="907.4,-79.31 916.76,-74.35 906.35,-72.39 907.4,-79.31"/>
</a>
</g>
</g>
<!-- Node5&#45;&gt;Node4 -->
<g id="edge15_Node000005_Node000004" class="edge">
<title>Node5&#45;&gt;Node4</title>
<g id="a_edge15_Node000005_Node000004"><a xlink:title=" ">
<path fill="none" stroke="#63b8ff" d="M595.39,-110.34C599.31,-100.35 604.51,-86.7 608.62,-74.5 613.61,-59.71 618.62,-42.77 622.24,-30.06"/>
<polygon fill="#63b8ff" stroke="#63b8ff" points="625.5,-31.4 624.83,-20.82 618.76,-29.51 625.5,-31.4"/>
</a>
</g>
</g>
<!-- Node6 -->
<g id="Node000006" class="node">
<title>Node6</title>
<g id="a_Node000006"><a xlink:href="_edge_8h.html" target="_top" xlink:title=" ">
<polygon fill="white" stroke="#666666" points="900,-74.5 787.25,-74.5 787.25,-55.25 900,-55.25 900,-74.5"/>
<text xml:space="preserve" text-anchor="middle" x="843.62" y="-61" font-family="Helvetica,sans-Serif" font-size="10.00">slitherlink/core/Edge.h</text>
</a>
</g>
</g>
<!-- Node5&#45;&gt;Node6 -->
<g id="edge5_Node000005_Node000006" class="edge">
<title>Node5&#45;&gt;Node6</title>
<g id="a_edge5_Node000005_Node000006"><a xlink:title=" ">
<path fill="none" stroke="#63b8ff" d="M633.29,-114.63C677.71,-104.33 746.49,-88.39 793.2,-77.56"/>
<polygon fill="#63b8ff" stroke="#63b8ff" points="793.85,-81 802.81,-75.34 792.27,-74.19 793.85,-81"/>
</a>
</g>
</g>
<!-- Node7 -->
<g id="Node000007" class="node">
<title>Node7</title>
<g id="a_Node000007"><a xlink:href="_solution_8h.html" target="_top" xlink:title=" ">
<polygon fill="white" stroke="#666666" points="194.38,-74.5 68.88,-74.5 68.88,-55.25 194.38,-55.25 194.38,-74.5"/>
<text xml:space="preserve" text-anchor="middle" x="131.62" y="-61" font-family="Helvetica,sans-Serif" font-size="10.00">slitherlink/core/Solution.h</text>
</a>
</g>
</g>
<!-- Node5&#45;&gt;Node7 -->
<g id="edge7_Node000005_Node000007" class="edge">
<title>Node5&#45;&gt;Node7</title>
<g id="a_edge7_Node000005_Node000007"><a xlink:title=" ">
<path fill="none" stroke="#63b8ff" d="M546.12,-119.16C467.84,-109.09 302.39,-87.83 205.87,-75.42"/>
<polygon fill="#63b8ff" stroke="#63b8ff" points="206.61,-71.99 196.24,-74.18 205.72,-78.93 206.61,-71.99"/>
</a>
</g>
</g>
<!-- Node9 -->
<g id="Node000009" class="node">
<title>Node9</title>
<g id="a_Node000009"><a xlink:href="_state_8h.html" target="_top" xlink:title=" ">
<polygon fill="white" stroke="#666666" points="769.38,-74.5 655.88,-74.5 655.88,-55.25 769.38,-55.25 769.38,-74.5"/>
<text xml:space="preserve" text-anchor="middle" x="712.62" y="-61" font-family="Helvetica,sans-Serif" font-size="10.00">slitherlink/core/State.h</text>
</a>
</g>
</g>
<!-- Node5&#45;&gt;Node9 -->
<g id="edge10_Node000005_Node000009" class="edge">
<title>Node5&#45;&gt;Node9</title>
<g id="a_edge10_Node000005_Node000009"><a xlink:title=" ">
<path fill="none" stroke="#63b8ff" d="M620.35,-110.05C639.71,-100.78 664.55,-88.88 683.59,-79.77"/>
<polygon fill="#63b8ff" stroke="#63b8ff" points="684.89,-83.03 692.4,-75.56 681.87,-76.72 684.89,-83.03"/>
</a>
</g>
</g>
<!-- Node10 -->
<g id="Node000010" class="node">
<title>Node10</title>
<g id="a_Node000010"><a xlink:title=" ">
<polygon fill="#e0e0e0" stroke="#999999" points="296.25,-74.5 251,-74.5 251,-55.25 296.25,-55.25 296.25,-74.5"/>
<text xml:space="preserve" text-anchor="middle" x="273.62" y="-61" font-family="Helvetica,sans-Serif" font-size="10.00">atomic</text>
</a>
</g>
</g>
<!-- Node5&#45;&gt;Node10 -->
<g id="edge12_Node000005_Node000010" class="edge">
<title>Node5&#45;&gt;Node10</title>
<g id="a_edge12_Node000005_Node000010"><a xlink:title=" ">
<path fill="none" stroke="#63b8ff" d="M545.91,-118.39C491.99,-110.25 397.36,-95 307.77,-75.05"/>
<polygon fill="#63b8ff" stroke="#63b8ff" points="308.59,-71.65 298.06,-72.86 307.05,-78.48 308.59,-71.65"/>
</a>
</g>
</g>
<!-- Node5&#45;&gt;Node11 -->
<g id="edge13_Node000005_Node000011" class="edge">
<title>Node5&#45;&gt;Node11</title>
<g id="a_edge13_Node000005_Node000011"><a xlink:title=" ">
<path fill="none" stroke="#63b8ff" d="M633.26,-121.72C711.54,-115.87 881.12,-101.36 1033.75,-74.6"/>
<polygon fill="#63b8ff" stroke="#63b8ff" points="1033.99,-78.12 1043.22,-72.92 1032.76,-71.23 1033.99,-78.12"/>
</a>
</g>
</g>
<!-- Node12 -->
<g id="Node000012" class="node">
<title>Node12</title>
<g id="a_Node000012"><a xlink:title=" ">
<polygon fill="#e0e0e0" stroke="#999999" points="357.12,-74.5 314.12,-74.5 314.12,-55.25 357.12,-55.25 357.12,-74.5"/>
<text xml:space="preserve" text-anchor="middle" x="335.62" y="-61" font-family="Helvetica,sans-Serif" font-size="10.00">mutex</text>
</a>
</g>
</g>
<!-- Node5&#45;&gt;Node12 -->
<g id="edge14_Node000005_Node000012" class="edge">
<title>Node5&#45;&gt;Node12</title>
<g id="a_edge14_Node000005_Node000012"><a xlink:title=" ">
<path fill="none" stroke="#63b8ff" d="M545.89,-115.57C503.1,-106.43 435.85,-91.69 368.42,-74.85"/>
<polygon fill="#63b8ff" stroke="#63b8ff" points="369.62,-71.55 359.07,-72.5 367.92,-78.34 369.62,-71.55"/>
</a>
</g>
</g>
<!-- Node13 -->
<g id="Node000013" class="node">
<title>Node13</title>
<g id="a_Node000013"><a xlink:title=" ">
<polygon fill="#e0e0e0" stroke="#999999" points="493.62,-74.5 375.62,-74.5 375.62,-55.25 493.62,-55.25 493.62,-74.5"/>
<text xml:space="preserve" text-anchor="middle" x="434.62" y="-61" font-family="Helvetica,sans-Serif" font-size="10.00">tbb/concurrent_vector.h</text>
</a>
</g>
</g>
<!-- Node5&#45;&gt;Node13 -->
<g id="edge16_Node000005_Node000013" class="edge">
<title>Node5&#45;&gt;Node13</title>
<g id="a_edge16_Node000005_Node000013"><a xlink:title=" ">
<path fill="none" stroke="#63b8ff" d="M550.91,-110.05C525.72,-100.48 493.16,-88.11 468.9,-78.89"/>
<polygon fill="#63b8ff" stroke="#63b8ff" points="470.4,-75.72 459.81,-75.44 467.92,-82.26 470.4,-75.72"/>
</a>
</g>
</g>
<!-- Node14 -->
<g id="Node000014" class="node">
<title>Node14</title>
<g id="a_Node000014"><a xlink:title=" ">
<polygon fill="#e0e0e0" stroke="#999999" points="600,-74.5 511.25,-74.5 511.25,-55.25 600,-55.25 600,-74.5"/>
<text xml:space="preserve" text-anchor="middle" x="555.62" y="-61" font-family="Helvetica,sans-Serif" font-size="10.00">tbb/task_arena.h</text>
</a>
</g>
</g>
<!-- Node5&#45;&gt;Node14 -->
<g id="edge17_Node000005_Node000014" class="edge">
<title>Node5&#45;&gt;Node14</title>
<g id="a_edge17_Node000005_Node000014"><a xlink:title=" ">
<path fill="none" stroke="#63b8ff" d="M581.22,-110.2C576.79,-102.53 571.3,-93.02 566.55,-84.79"/>
<polygon fill="#63b8ff" stroke="#63b8ff" points="569.66,-83.17 561.62,-76.26 563.59,-86.67 569.66,-83.17"/>
</a>
</g>
</g>
<!-- Node7&#45;&gt;Node4 -->
<g id="edge9_Node000007_Node000004" class="edge">
<title>Node7&#45;&gt;Node4</title>
<g id="a_edge9_Node000007_Node000004"><a xlink:title=" ">
<path fill="none" stroke="#63b8ff" d="M194.65,-56.79C199.38,-56.26 204.08,-55.75 208.62,-55.25 352.3,-39.55 523.77,-21.51 594.56,-14.08"/>
<polygon fill="#63b8ff" stroke="#63b8ff" points="594.72,-17.59 604.31,-13.06 594,-10.62 594.72,-17.59"/>
</a>
</g>
</g>
<!-- Node8 -->
<g id="Node000008" class="node">
<title>Node8</title>
<g id="a_Node000008"><a xlink:title=" ">
<polygon fill="#e0e0e0" stroke="#999999" points="151.25,-19.25 112,-19.25 112,0 151.25,0 151.25,-19.25"/>
<text xml:space="preserve" text-anchor="middle" x="131.62" y="-5.75" font-family="Helvetica,sans-Serif" font-size="10.00">utility</text>
</a>
</g>
</g>
<!-- Node7&#45;&gt;Node8 -->
<g id="edge8_Node000007_Node000008" class="edge">
<title>Node7&#45;&gt;Node8</title>
<g id="a_edge8_Node000007_Node000008"><a xlink:title=" ">
<path fill="none" stroke="#63b8ff" d="M131.62,-55.08C131.62,-48.57 131.62,-39.42 131.62,-31.12"/>
<polygon fill="#63b8ff" stroke="#63b8ff" points="135.13,-31.12 131.63,-21.12 128.13,-31.12 135.13,-31.12"/>
</a>
</g>
</g>
<!-- Node9&#45;&gt;Node4 -->
<g id="edge11_Node000009_Node000004" class="edge">
<title>Node9&#45;&gt;Node4</title>
<g id="a_edge11_Node000009_Node000004"><a xlink:title=" ">
<path fill="none" stroke="#63b8ff" d="M698.21,-54.84C685.51,-46.89 666.75,-35.14 651.77,-25.75"/>
<polygon fill="#63b8ff" stroke="#63b8ff" points="653.73,-22.85 643.4,-20.51 650.01,-28.78 653.73,-22.85"/>
</a>
</g>
</g>
<!-- Node15&#45;&gt;Node4 -->
<g id="edge20_Node000015_Node000004" class="edge">
<title>Node15&#45;&gt;Node4</title>
<g id="a_edge20_Node000015_Node000004"><a xlink:title=" ">
<path fill="none" stroke="#63b8ff" d="M235.1,-110.21C231.22,-94.56 228.16,-69.93 241.62,-55.25 265.33,-29.41 505.2,-16.1 594.43,-12.02"/>
<polygon fill="#63b8ff" stroke="#63b8ff" points="594.4,-15.53 604.23,-11.58 594.08,-8.53 594.4,-15.53"/>
</a>
</g>
</g>
<!-- Node15&#45;&gt;Node7 -->
<g id="edge19_Node000015_Node000007" class="edge">
<title>Node15&#45;&gt;Node7</title>
<g id="a_edge19_Node000015_Node000007"><a xlink:title=" ">
<path fill="none" stroke="#63b8ff" d="M212.65,-110.05C196.05,-100.99 174.85,-89.44 158.3,-80.41"/>
<polygon fill="#63b8ff" stroke="#63b8ff" points="159.97,-77.34 149.52,-75.63 156.62,-83.49 159.97,-77.34"/>
</a>
</g>
</g>
<!-- Node16&#45;&gt;Node7 -->
<g id="edge22_Node000016_Node000007" class="edge">
<title>Node16&#45;&gt;Node7</title>
<g id="a_edge22_Node000016_Node000007"><a xlink:title=" ">
<path fill="none" stroke="#63b8ff" d="M121.84,-110.2C123.44,-102.96 125.4,-94.09 127.14,-86.19"/>
<polygon fill="#63b8ff" stroke="#63b8ff" points="130.56,-86.95 129.29,-76.43 123.72,-85.44 130.56,-86.95"/>
</a>
</g>
</g>
<!-- Node16&#45;&gt;Node17 -->
<g id="edge23_Node000016_Node000017" class="edge">
<title>Node16&#45;&gt;Node17</title>
<g id="a_edge23_Node000016_Node000017"><a xlink:title=" ">
<path fill="none" stroke="#63b8ff" d="M95.64,-110.2C81.61,-101.32 63.72,-89.99 49.53,-81.01"/>
<polygon fill="#63b8ff" stroke="#63b8ff" points="51.56,-78.15 41.24,-75.76 47.82,-84.07 51.56,-78.15"/>
</a>
</g>
</g>
<!-- Node19 -->
<g id="Node000019" class="node">
<title>Node19</title>
<g id="a_Node000019"><a xlink:title=" ">
<polygon fill="#e0e0e0" stroke="#999999" points="1093.62,-135.38 1053.62,-135.38 1053.62,-116.12 1093.62,-116.12 1093.62,-135.38"/>
<text xml:space="preserve" text-anchor="middle" x="1073.62" y="-121.88" font-family="Helvetica,sans-Serif" font-size="10.00">string</text>
</a>
</g>
</g>
<!-- Node18&#45;&gt;Node19 -->
<g id="edge28_Node000018_Node000019" class="edge">
<title>Node18&#45;&gt;Node19</title>
<g id="a_edge28_Node000018_Node000019"><a xlink:title=" ">
<path fill="none" stroke="#63b8ff" d="M1085.68,-182.28C1083.69,-173.14 1080.55,-158.64 1077.97,-146.75"/>
<polygon fill="#63b8ff" stroke="#63b8ff" points="1081.42,-146.15 1075.88,-137.12 1074.58,-147.64 1081.42,-146.15"/>
</a>
</g>
</g>
<!-- Node20 -->
<g id="Node000020" class="node">
<title>Node20</title>
<g id="a_Node000020"><a xlink:title=" ">
<polygon fill="#e0e0e0" stroke="#999999" points="1159.75,-135.38 1111.5,-135.38 1111.5,-116.12 1159.75,-116.12 1159.75,-135.38"/>
<text xml:space="preserve" text-anchor="middle" x="1135.62" y="-121.88" font-family="Helvetica,sans-Serif" font-size="10.00">cstddef</text>
</a>
</g>
</g>
<!-- Node18&#45;&gt;Node20 -->
<g id="edge29_Node000018_Node000020" class="edge">
<title>Node18&#45;&gt;Node20</title>
<g id="a_edge29_Node000018_Node000020"><a xlink:title=" ">
<path fill="none" stroke="#63b8ff" d="M1094.3,-182.28C1101.54,-172.56 1113.27,-156.79 1122.39,-144.53"/>
<polygon fill="#63b8ff" stroke="#63b8ff" points="1124.94,-146.97 1128.1,-136.86 1119.33,-142.79 1124.94,-146.97"/>
</a>
</g>
</g>
</g>
</svg>

<g id="navigator" transform="translate(0 0)" fill="#404254">
  <rect fill="#f2f5e9" fill-opacity="0.5" stroke="#606060" stroke-width=".5" x="0" y="0" width="60" height="60"/>
  <use id="zoomplus" xlink:href="#zoomPlus" x="17" y="9" onmousedown="handleZoom(evt,'in')"/>
  <use id="zoomminus" xlink:href="#zoomMin" x="42" y="9" onmousedown="handleZoom(evt,'out')"/>
  <use id="reset" xlink:href="#resetDef" x="30" y="36" onmousedown="handleReset()"/>
   <use id="arrowup" xlink:href="#arrowUp" x="0" y="0" onmousedown="handlePan(0,-1)"/>
  <use id="arrowright" xlink:href="#arrowRight" x="0" y="0" onmousedown="handlePan(1,0)"/>
  <use id="arrowdown" xlink:href="#arrowDown" x="0" y="0" onmousedown="handlePan(0,1)"/>
  <use id="arrowleft" xlink:href="#arrowLeft" x="0" y="0" onmousedown="handlePan(-1,0)"/>
</g>
<svg viewBox="0 0 15 15" width="100%" height="30px" preserveAspectRatio="xMaxYMin meet">
 <g id="arrow_out" transform="scale(0.3 0.3)">
  <a xlink:href="_solver_factory_8h__incl_org.svg" target="_base">
   <rect id="button" ry="5" rx="5" y="6" x="6" height="38" width="38"
        fill="#f2f5e9" fill-opacity="0.5" stroke="#606060" stroke-width="1.0"/>
   <path id="arrow"
     d="M 11.500037,31.436501 C 11.940474,20.09759 22.043105,11.32322 32.158766,21.979434 L 37.068811,17.246167 C 37.068811,17.246167 37.088388,32 37.088388,32 L 22.160133,31.978069 C 22.160133,31.978069 26.997745,27.140456 26.997745,27.140456 C 18.528582,18.264221 13.291696,25.230495 11.500037,31.436501 z"
     style="fill:#404040;"/>
  </a>
 </g>
</svg>

<style type='text/css'>
<![CDATA[
[data-mouse-over-selected='false'] { opacity: 0.7; }
[data-mouse-over-selected='true']  { opacity: 1.0; }
]]>
</style>
<script type="application/ecmascript"><![CDATA[
document.addEventListener('DOMContentLoaded', (event) => {
  highlightEdges();
  highlightAdjacentNodes();
});
]]></script>
</svg>
