<?xml version="1.0" encoding="UTF-8" standalone="no"?>
<!DOCTYPE svg PUBLIC "-//W3C//DTD SVG 1.1//EN"
 "http://www.w3.org/Graphics/SVG/1.1/DTD/svg11.dtd">
<!-- Generated by graphviz version 14.0.2 (20251019.1705)
 -->
<!-- Title: include/solver/Solver.h Pages: 1 -->
<svg width="357pt" height="204pt"
 viewBox="0.00 0.00 357.00 204.00" xmlns="http://www.w3.org/2000/svg" xmlns:xlink="http://www.w3.org/1999/xlink">
<g id="graph0" class="graph" transform="scale(1 1) rotate(0) translate(4 200.25)">
<title>include/solver/Solver.h</title>
<!-- Node1 -->
<g id="Node000001" class="node">
<title>Node1</title>
<g id="a_Node000001"><a xlink:title=" ">
<polygon fill="#999999" stroke="#666666" points="284.25,-196.25 170,-196.25 170,-177 284.25,-177 284.25,-196.25"/>
<text xml:space="preserve" text-anchor="middle" x="227.12" y="-182.75" font-family="Helvetica,sans-Serif" font-size="10.00">include/solver/Solver.h</text>
</a>
</g>
</g>
<!-- Node2 -->
<g id="Node000002" class="node">
<title>Node2</title>
<g id="a_Node000002"><a xlink:href="_slitherlink_solver_8h.html" target="_top" xlink:title=" ">
<polygon fill="white" stroke="#666666" points="222.88,-141 97.38,-141 97.38,-110.5 222.88,-110.5 222.88,-141"/>
<text xml:space="preserve" text-anchor="start" x="105.38" y="-127.5" font-family="Helvetica,sans-Serif" font-size="10.00">include/factory/Slitherlink</text>
<text xml:space="preserve" text-anchor="middle" x="160.12" y="-116.25" font-family="Helvetica,sans-Serif" font-size="10.00">Solver.h</text>
</a>
</g>
</g>
<!-- Node1&#45;&gt;Node2 -->
<g id="edge1_Node000001_Node000002" class="edge">
<title>Node1&#45;&gt;Node2</title>
<g id="a_edge1_Node000001_Node000002"><a xlink:title=" ">
<path fill="none" stroke="#63b8ff" d="M208.53,-169.29C198.54,-160.51 186.32,-149.77 176.66,-141.28"/>
<polygon fill="#63b8ff" stroke="#63b8ff" points="205.99,-171.71 215.81,-175.68 210.61,-166.45 205.99,-171.71"/>
</a>
</g>
</g>
<!-- Node6 -->
<g id="Node000006" class="node">
<title>Node6</title>
<g id="a_Node000006"><a xlink:href="_solver_8cpp.html" target="_top" xlink:title=" ">
<polygon fill="white" stroke="#666666" points="348.88,-135.38 241.38,-135.38 241.38,-116.12 348.88,-116.12 348.88,-135.38"/>
<text xml:space="preserve" text-anchor="middle" x="295.12" y="-121.88" font-family="Helvetica,sans-Serif" font-size="10.00">src/solver/Solver.cpp</text>
</a>
</g>
</g>
<!-- Node1&#45;&gt;Node6 -->
<g id="edge5_Node000001_Node000006" class="edge">
<title>Node1&#45;&gt;Node6</title>
<g id="a_edge5_Node000001_Node000006"><a xlink:title=" ">
<path fill="none" stroke="#63b8ff" d="M245.82,-169.44C258.35,-158.59 274.38,-144.71 284.7,-135.78"/>
<polygon fill="#63b8ff" stroke="#63b8ff" points="243.87,-166.5 238.6,-175.69 248.45,-171.79 243.87,-166.5"/>
</a>
</g>
</g>
<!-- Node3 -->
<g id="Node000003" class="node">
<title>Node3</title>
<g id="a_Node000003"><a xlink:href="_solver_factory_8h.html" target="_top" xlink:title=" ">
<polygon fill="white" stroke="#666666" points="150.25,-74.5 0,-74.5 0,-55.25 150.25,-55.25 150.25,-74.5"/>
<text xml:space="preserve" text-anchor="middle" x="75.12" y="-61" font-family="Helvetica,sans-Serif" font-size="10.00">include/factory/SolverFactory.h</text>
</a>
</g>
</g>
<!-- Node2&#45;&gt;Node3 -->
<g id="edge2_Node000002_Node000003" class="edge">
<title>Node2&#45;&gt;Node3</title>
<g id="a_edge2_Node000002_Node000003"><a xlink:title=" ">
<path fill="none" stroke="#63b8ff" d="M129.67,-103.65C115.44,-93.8 99.25,-82.58 88.23,-74.95"/>
<polygon fill="#63b8ff" stroke="#63b8ff" points="127.66,-106.52 137.87,-109.33 131.64,-100.76 127.66,-106.52"/>
</a>
</g>
</g>
<!-- Node5 -->
<g id="Node000005" class="node">
<title>Node5</title>
<g id="a_Node000005"><a xlink:href="_slitherlink_solver_8cpp.html" target="_top" xlink:title=" ">
<polygon fill="white" stroke="#666666" points="322.12,-74.5 168.12,-74.5 168.12,-55.25 322.12,-55.25 322.12,-74.5"/>
<text xml:space="preserve" text-anchor="middle" x="245.12" y="-61" font-family="Helvetica,sans-Serif" font-size="10.00">src/factory/SlitherlinkSolver.cpp</text>
</a>
</g>
</g>
<!-- Node2&#45;&gt;Node5 -->
<g id="edge4_Node000002_Node000005" class="edge">
<title>Node2&#45;&gt;Node5</title>
<g id="a_edge4_Node000002_Node000005"><a xlink:title=" ">
<path fill="none" stroke="#63b8ff" d="M190.58,-103.65C204.81,-93.8 221,-82.58 232.02,-74.95"/>
<polygon fill="#63b8ff" stroke="#63b8ff" points="188.61,-100.76 182.38,-109.33 192.59,-106.52 188.61,-100.76"/>
</a>
</g>
</g>
<!-- Node4 -->
<g id="Node000004" class="node">
<title>Node4</title>
<g id="a_Node000004"><a xlink:href="_solver_factory_8cpp.html" target="_top" xlink:title=" ">
<polygon fill="white" stroke="#666666" points="146.88,-19.25 3.38,-19.25 3.38,0 146.88,0 146.88,-19.25"/>
<text xml:space="preserve" text-anchor="middle" x="75.12" y="-5.75" font-family="Helvetica,sans-Serif" font-size="10.00">src/factory/SolverFactory.cpp</text>
</a>
</g>
</g>
<!-- Node3&#45;&gt;Node4 -->
<g id="edge3_Node000003_Node000004" class="edge">
<title>Node3&#45;&gt;Node4</title>
<g id="a_edge3_Node000003_Node000004"><a xlink:title=" ">
<path fill="none" stroke="#63b8ff" d="M75.12,-43.63C75.12,-35.34 75.12,-26.17 75.12,-19.61"/>
<polygon fill="#63b8ff" stroke="#63b8ff" points="71.63,-43.57 75.13,-53.57 78.63,-43.57 71.63,-43.57"/>
</a>
</g>
</g>
</g>
</svg>
