<?xml version="1.0" encoding="UTF-8" standalone="no"?>
<!DOCTYPE svg PUBLIC "-//W3C//DTD SVG 1.1//EN"
 "http://www.w3.org/Graphics/SVG/1.1/DTD/svg11.dtd">
<!-- Generated by graphviz version 14.0.2 (20251019.1705)
 -->
<!-- Title: include/solver/Solver.h Pages: 1 -->
<svg width="669pt" height="193pt"
 viewBox="0.00 0.00 669.00 193.00" xmlns="http://www.w3.org/2000/svg" xmlns:xlink="http://www.w3.org/1999/xlink">
<g id="graph0" class="graph" transform="scale(1 1) rotate(0) translate(4 189)">
<title>include/solver/Solver.h</title>
<!-- Node1 -->
<g id="Node000001" class="node">
<title>Node1</title>
<g id="a_Node000001"><a xlink:title=" ">
<polygon fill="#999999" stroke="#666666" points="342.68,-185 228.43,-185 228.43,-165.75 342.68,-165.75 342.68,-185"/>
<text xml:space="preserve" text-anchor="middle" x="285.55" y="-171.5" font-family="Helvetica,sans-Serif" font-size="10.00">include/solver/Solver.h</text>
</a>
</g>
</g>
<!-- Node2 -->
<g id="Node000002" class="node">
<title>Node2</title>
<g id="a_Node000002"><a xlink:href="_grid_8h.html" target="_top" xlink:title=" ">
<polygon fill="white" stroke="#666666" points="53.68,-129.75 11.43,-129.75 11.43,-110.5 53.68,-110.5 53.68,-129.75"/>
<text xml:space="preserve" text-anchor="middle" x="32.55" y="-116.25" font-family="Helvetica,sans-Serif" font-size="10.00">Grid.h</text>
</a>
</g>
</g>
<!-- Node1&#45;&gt;Node2 -->
<g id="edge1_Node000001_Node000002" class="edge">
<title>Node1&#45;&gt;Node2</title>
<g id="a_edge1_Node000001_Node000002"><a xlink:title=" ">
<path fill="none" stroke="#63b8ff" d="M238.24,-165.25C194,-156.59 126.16,-142.96 67.55,-129.75 66.73,-129.56 65.9,-129.37 65.05,-129.18"/>
<polygon fill="#63b8ff" stroke="#63b8ff" points="66,-125.81 55.47,-126.9 64.39,-132.62 66,-125.81"/>
</a>
</g>
</g>
<!-- Node3 -->
<g id="Node000003" class="node">
<title>Node3</title>
<g id="a_Node000003"><a xlink:title=" ">
<polygon fill="#e0e0e0" stroke="#999999" points="184.05,-19.25 141.05,-19.25 141.05,0 184.05,0 184.05,-19.25"/>
<text xml:space="preserve" text-anchor="middle" x="162.55" y="-5.75" font-family="Helvetica,sans-Serif" font-size="10.00">vector</text>
</a>
</g>
</g>
<!-- Node1&#45;&gt;Node3 -->
<g id="edge16_Node000001_Node000003" class="edge">
<title>Node1&#45;&gt;Node3</title>
<g id="a_edge16_Node000001_Node000003"><a xlink:title=" ">
<path fill="none" stroke="#63b8ff" d="M228.35,-168.29C180.04,-161.83 116.29,-149.74 100.55,-129.75 74.51,-96.67 116.06,-50.98 142.8,-26.94"/>
<polygon fill="#63b8ff" stroke="#63b8ff" points="144.78,-29.85 150.04,-20.65 140.19,-24.56 144.78,-29.85"/>
</a>
</g>
</g>
<!-- Node5 -->
<g id="Node000005" class="node">
<title>Node5</title>
<g id="a_Node000005"><a xlink:href="_edge_8h.html" target="_top" xlink:title=" ">
<polygon fill="white" stroke="#666666" points="155.93,-129.75 109.18,-129.75 109.18,-110.5 155.93,-110.5 155.93,-129.75"/>
<text xml:space="preserve" text-anchor="middle" x="132.55" y="-116.25" font-family="Helvetica,sans-Serif" font-size="10.00">Edge.h</text>
</a>
</g>
</g>
<!-- Node1&#45;&gt;Node5 -->
<g id="edge4_Node000001_Node000005" class="edge">
<title>Node1&#45;&gt;Node5</title>
<g id="a_edge4_Node000001_Node000005"><a xlink:title=" ">
<path fill="none" stroke="#63b8ff" d="M259.6,-165.34C234.01,-156.44 194.76,-142.78 166.66,-133"/>
<polygon fill="#63b8ff" stroke="#63b8ff" points="168.14,-129.81 157.55,-129.82 165.84,-136.42 168.14,-129.81"/>
</a>
</g>
</g>
<!-- Node6 -->
<g id="Node000006" class="node">
<title>Node6</title>
<g id="a_Node000006"><a xlink:href="_state_8h.html" target="_top" xlink:title=" ">
<polygon fill="white" stroke="#666666" points="268.3,-74.5 220.8,-74.5 220.8,-55.25 268.3,-55.25 268.3,-74.5"/>
<text xml:space="preserve" text-anchor="middle" x="244.55" y="-61" font-family="Helvetica,sans-Serif" font-size="10.00">State.h</text>
</a>
</g>
</g>
<!-- Node1&#45;&gt;Node6 -->
<g id="edge5_Node000001_Node000006" class="edge">
<title>Node1&#45;&gt;Node6</title>
<g id="a_edge5_Node000001_Node000006"><a xlink:title=" ">
<path fill="none" stroke="#63b8ff" d="M251.69,-165.39C233.72,-158.71 213.21,-147.58 202.55,-129.75 192.63,-113.15 207.62,-94.74 222.37,-81.97"/>
<polygon fill="#63b8ff" stroke="#63b8ff" points="224.51,-84.75 230.12,-75.76 220.13,-79.29 224.51,-84.75"/>
</a>
</g>
</g>
<!-- Node7 -->
<g id="Node000007" class="node">
<title>Node7</title>
<g id="a_Node000007"><a xlink:href="_solution_8h.html" target="_top" xlink:title=" ">
<polygon fill="white" stroke="#666666" points="529.3,-129.75 469.8,-129.75 469.8,-110.5 529.3,-110.5 529.3,-129.75"/>
<text xml:space="preserve" text-anchor="middle" x="499.55" y="-116.25" font-family="Helvetica,sans-Serif" font-size="10.00">Solution.h</text>
</a>
</g>
</g>
<!-- Node1&#45;&gt;Node7 -->
<g id="edge7_Node000001_Node000007" class="edge">
<title>Node1&#45;&gt;Node7</title>
<g id="a_edge7_Node000001_Node000007"><a xlink:title=" ">
<path fill="none" stroke="#63b8ff" d="M321.86,-165.34C359.63,-155.94 418.67,-141.25 458.21,-131.41"/>
<polygon fill="#63b8ff" stroke="#63b8ff" points="458.98,-134.83 467.84,-129.02 457.29,-128.03 458.98,-134.83"/>
</a>
</g>
</g>
<!-- Node9 -->
<g id="Node000009" class="node">
<title>Node9</title>
<g id="a_Node000009"><a xlink:href="_i_heuristic_8h.html" target="_top" xlink:title=" ">
<polygon fill="white" stroke="#666666" points="277.68,-129.75 211.43,-129.75 211.43,-110.5 277.68,-110.5 277.68,-129.75"/>
<text xml:space="preserve" text-anchor="middle" x="244.55" y="-116.25" font-family="Helvetica,sans-Serif" font-size="10.00">IHeuristic.h</text>
</a>
</g>
</g>
<!-- Node1&#45;&gt;Node9 -->
<g id="edge10_Node000001_Node000009" class="edge">
<title>Node1&#45;&gt;Node9</title>
<g id="a_edge10_Node000001_Node000009"><a xlink:title=" ">
<path fill="none" stroke="#63b8ff" d="M278.78,-165.58C273.24,-158.38 265.21,-147.96 258.33,-139.01"/>
<polygon fill="#63b8ff" stroke="#63b8ff" points="261.27,-137.1 252.4,-131.31 255.72,-141.37 261.27,-137.1"/>
</a>
</g>
</g>
<!-- Node10 -->
<g id="Node000010" class="node">
<title>Node10</title>
<g id="a_Node000010"><a xlink:href="_i_validator_8h.html" target="_top" xlink:title=" ">
<polygon fill="white" stroke="#666666" points="359.55,-129.75 295.55,-129.75 295.55,-110.5 359.55,-110.5 359.55,-129.75"/>
<text xml:space="preserve" text-anchor="middle" x="327.55" y="-116.25" font-family="Helvetica,sans-Serif" font-size="10.00">IValidator.h</text>
</a>
</g>
</g>
<!-- Node1&#45;&gt;Node10 -->
<g id="edge12_Node000001_Node000010" class="edge">
<title>Node1&#45;&gt;Node10</title>
<g id="a_edge12_Node000001_Node000010"><a xlink:title=" ">
<path fill="none" stroke="#63b8ff" d="M292.49,-165.58C298.17,-158.38 306.39,-147.96 313.45,-139.01"/>
<polygon fill="#63b8ff" stroke="#63b8ff" points="316.09,-141.32 319.53,-131.3 310.59,-136.98 316.09,-141.32"/>
</a>
</g>
</g>
<!-- Node11 -->
<g id="Node000011" class="node">
<title>Node11</title>
<g id="a_Node000011"><a xlink:href="_i_propagator_8h.html" target="_top" xlink:title=" ">
<polygon fill="white" stroke="#666666" points="451.43,-129.75 377.68,-129.75 377.68,-110.5 451.43,-110.5 451.43,-129.75"/>
<text xml:space="preserve" text-anchor="middle" x="414.55" y="-116.25" font-family="Helvetica,sans-Serif" font-size="10.00">IPropagator.h</text>
</a>
</g>
</g>
<!-- Node1&#45;&gt;Node11 -->
<g id="edge14_Node000001_Node000011" class="edge">
<title>Node1&#45;&gt;Node11</title>
<g id="a_edge14_Node000001_Node000011"><a xlink:title=" ">
<path fill="none" stroke="#63b8ff" d="M307.44,-165.34C327.92,-156.89 358.77,-144.15 382.11,-134.52"/>
<polygon fill="#63b8ff" stroke="#63b8ff" points="383.26,-137.83 391.16,-130.78 380.59,-131.36 383.26,-137.83"/>
</a>
</g>
</g>
<!-- Node12 -->
<g id="Node000012" class="node">
<title>Node12</title>
<g id="a_Node000012"><a xlink:title=" ">
<polygon fill="#e0e0e0" stroke="#999999" points="598.18,-129.75 546.93,-129.75 546.93,-110.5 598.18,-110.5 598.18,-129.75"/>
<text xml:space="preserve" text-anchor="middle" x="572.55" y="-116.25" font-family="Helvetica,sans-Serif" font-size="10.00">memory</text>
</a>
</g>
</g>
<!-- Node1&#45;&gt;Node12 -->
<g id="edge17_Node000001_Node000012" class="edge">
<title>Node1&#45;&gt;Node12</title>
<g id="a_edge17_Node000001_Node000012"><a xlink:title=" ">
<path fill="none" stroke="#63b8ff" d="M343.06,-165.47C391.98,-157.62 464.34,-145.35 535.64,-130.26"/>
<polygon fill="#63b8ff" stroke="#63b8ff" points="536.09,-133.75 545.13,-128.23 534.62,-126.9 536.09,-133.75"/>
</a>
</g>
</g>
<!-- Node13 -->
<g id="Node000013" class="node">
<title>Node13</title>
<g id="a_Node000013"><a xlink:title=" ">
<polygon fill="#e0e0e0" stroke="#999999" points="661.18,-129.75 615.93,-129.75 615.93,-110.5 661.18,-110.5 661.18,-129.75"/>
<text xml:space="preserve" text-anchor="middle" x="638.55" y="-116.25" font-family="Helvetica,sans-Serif" font-size="10.00">atomic</text>
</a>
</g>
</g>
<!-- Node1&#45;&gt;Node13 -->
<g id="edge18_Node000001_Node000013" class="edge">
<title>Node1&#45;&gt;Node13</title>
<g id="a_edge18_Node000001_Node000013"><a xlink:title=" ">
<path fill="none" stroke="#63b8ff" d="M342.95,-168.76C405.26,-162.15 507.85,-149.74 604.47,-130.17"/>
<polygon fill="#63b8ff" stroke="#63b8ff" points="605.04,-133.63 614.13,-128.18 603.63,-126.77 605.04,-133.63"/>
</a>
</g>
</g>
<!-- Node2&#45;&gt;Node3 -->
<g id="edge2_Node000002_Node000003" class="edge">
<title>Node2&#45;&gt;Node3</title>
<g id="a_edge2_Node000002_Node000003"><a xlink:title=" ">
<path fill="none" stroke="#63b8ff" d="M23.14,-110.17C10.59,-97.15 -8.6,-72.63 4.55,-55.25 19.58,-35.4 87.65,-21.86 129.39,-15.26"/>
<polygon fill="#63b8ff" stroke="#63b8ff" points="129.8,-18.74 139.16,-13.78 128.75,-11.82 129.8,-18.74"/>
</a>
</g>
</g>
<!-- Node4 -->
<g id="Node000004" class="node">
<title>Node4</title>
<g id="a_Node000004"><a xlink:title=" ">
<polygon fill="#e0e0e0" stroke="#999999" points="53.55,-74.5 13.55,-74.5 13.55,-55.25 53.55,-55.25 53.55,-74.5"/>
<text xml:space="preserve" text-anchor="middle" x="33.55" y="-61" font-family="Helvetica,sans-Serif" font-size="10.00">string</text>
</a>
</g>
</g>
<!-- Node2&#45;&gt;Node4 -->
<g id="edge3_Node000002_Node000004" class="edge">
<title>Node2&#45;&gt;Node4</title>
<g id="a_edge3_Node000002_Node000004"><a xlink:title=" ">
<path fill="none" stroke="#63b8ff" d="M32.72,-110.33C32.84,-103.82 33.01,-94.67 33.17,-86.37"/>
<polygon fill="#63b8ff" stroke="#63b8ff" points="36.67,-86.44 33.36,-76.37 29.67,-86.3 36.67,-86.44"/>
</a>
</g>
</g>
<!-- Node6&#45;&gt;Node3 -->
<g id="edge6_Node000006_Node000003" class="edge">
<title>Node6&#45;&gt;Node3</title>
<g id="a_edge6_Node000006_Node000003"><a xlink:title=" ">
<path fill="none" stroke="#63b8ff" d="M230.64,-54.84C218.39,-46.89 200.3,-35.14 185.84,-25.75"/>
<polygon fill="#63b8ff" stroke="#63b8ff" points="188.1,-23.04 177.8,-20.53 184.28,-28.91 188.1,-23.04"/>
</a>
</g>
</g>
<!-- Node7&#45;&gt;Node3 -->
<g id="edge8_Node000007_Node000003" class="edge">
<title>Node7&#45;&gt;Node3</title>
<g id="a_edge8_Node000007_Node000003"><a xlink:title=" ">
<path fill="none" stroke="#63b8ff" d="M471.4,-110.06C409.34,-90.08 261.06,-42.34 195.13,-21.11"/>
<polygon fill="#63b8ff" stroke="#63b8ff" points="196.57,-17.9 185.98,-18.17 194.43,-24.56 196.57,-17.9"/>
</a>
</g>
</g>
<!-- Node8 -->
<g id="Node000008" class="node">
<title>Node8</title>
<g id="a_Node000008"><a xlink:title=" ">
<polygon fill="#e0e0e0" stroke="#999999" points="519.18,-74.5 479.93,-74.5 479.93,-55.25 519.18,-55.25 519.18,-74.5"/>
<text xml:space="preserve" text-anchor="middle" x="499.55" y="-61" font-family="Helvetica,sans-Serif" font-size="10.00">utility</text>
</a>
</g>
</g>
<!-- Node7&#45;&gt;Node8 -->
<g id="edge9_Node000007_Node000008" class="edge">
<title>Node7&#45;&gt;Node8</title>
<g id="a_edge9_Node000007_Node000008"><a xlink:title=" ">
<path fill="none" stroke="#63b8ff" d="M499.55,-110.33C499.55,-103.82 499.55,-94.67 499.55,-86.37"/>
<polygon fill="#63b8ff" stroke="#63b8ff" points="503.05,-86.37 499.55,-76.37 496.05,-86.37 503.05,-86.37"/>
</a>
</g>
</g>
<!-- Node9&#45;&gt;Node6 -->
<g id="edge11_Node000009_Node000006" class="edge">
<title>Node9&#45;&gt;Node6</title>
<g id="a_edge11_Node000009_Node000006"><a xlink:title=" ">
<path fill="none" stroke="#63b8ff" d="M244.55,-110.33C244.55,-103.82 244.55,-94.67 244.55,-86.37"/>
<polygon fill="#63b8ff" stroke="#63b8ff" points="248.05,-86.37 244.55,-76.37 241.05,-86.37 248.05,-86.37"/>
</a>
</g>
</g>
<!-- Node10&#45;&gt;Node6 -->
<g id="edge13_Node000010_Node000006" class="edge">
<title>Node10&#45;&gt;Node6</title>
<g id="a_edge13_Node000010_Node000006"><a xlink:title=" ">
<path fill="none" stroke="#63b8ff" d="M313.47,-110.09C301.07,-102.14 282.76,-90.39 268.13,-81"/>
<polygon fill="#63b8ff" stroke="#63b8ff" points="270.28,-78.22 259.98,-75.77 266.5,-84.12 270.28,-78.22"/>
</a>
</g>
</g>
<!-- Node11&#45;&gt;Node6 -->
<g id="edge15_Node000011_Node000006" class="edge">
<title>Node11&#45;&gt;Node6</title>
<g id="a_edge15_Node000011_Node000006"><a xlink:title=" ">
<path fill="none" stroke="#63b8ff" d="M385.72,-110.09C356.36,-100.9 310.81,-86.63 279.44,-76.8"/>
<polygon fill="#63b8ff" stroke="#63b8ff" points="280.61,-73.5 270.02,-73.85 278.52,-80.18 280.61,-73.5"/>
</a>
</g>
</g>
</g>
</svg>
