<?xml version="1.0" encoding="UTF-8" standalone="no"?>
<!DOCTYPE svg PUBLIC "-//W3C//DTD SVG 1.1//EN"
 "http://www.w3.org/Graphics/SVG/1.1/DTD/svg11.dtd">
<!-- Generated by graphviz version 14.0.2 (20251019.1705)
 -->
<!-- Title: src/io/SolutionPrinter.cpp Pages: 1 -->
<svg width="333pt" height="193pt"
 viewBox="0.00 0.00 333.00 193.00" xmlns="http://www.w3.org/2000/svg" xmlns:xlink="http://www.w3.org/1999/xlink">
<g id="graph0" class="graph" transform="scale(1 1) rotate(0) translate(4 189)">
<title>src/io/SolutionPrinter.cpp</title>
<!-- Node1 -->
<g id="Node000001" class="node">
<title>Node1</title>
<g id="a_Node000001"><a xlink:title=" ">
<polygon fill="#999999" stroke="#666666" points="275.38,-185 150.62,-185 150.62,-165.75 275.38,-165.75 275.38,-185"/>
<text xml:space="preserve" text-anchor="middle" x="213" y="-171.5" font-family="Helvetica,sans-Serif" font-size="10.00">src/io/SolutionPrinter.cpp</text>
</a>
</g>
</g>
<!-- Node2 -->
<g id="Node000002" class="node">
<title>Node2</title>
<g id="a_Node000002"><a xlink:href="_solution_printer_8h.html" target="_top" xlink:title=" ">
<polygon fill="white" stroke="#666666" points="223.88,-129.75 126.12,-129.75 126.12,-110.5 223.88,-110.5 223.88,-129.75"/>
<text xml:space="preserve" text-anchor="middle" x="175" y="-116.25" font-family="Helvetica,sans-Serif" font-size="10.00">io/SolutionPrinter.h</text>
</a>
</g>
</g>
<!-- Node1&#45;&gt;Node2 -->
<g id="edge1_Node000001_Node000002" class="edge">
<title>Node1&#45;&gt;Node2</title>
<g id="a_edge1_Node000001_Node000002"><a xlink:title=" ">
<path fill="none" stroke="#63b8ff" d="M206.73,-165.58C201.64,-158.46 194.3,-148.18 187.97,-139.3"/>
<polygon fill="#63b8ff" stroke="#63b8ff" points="190.95,-137.45 182.29,-131.34 185.25,-141.51 190.95,-137.45"/>
</a>
</g>
</g>
<!-- Node8 -->
<g id="Node000008" class="node">
<title>Node8</title>
<g id="a_Node000008"><a xlink:title=" ">
<polygon fill="#e0e0e0" stroke="#999999" points="324.75,-74.5 271.25,-74.5 271.25,-55.25 324.75,-55.25 324.75,-74.5"/>
<text xml:space="preserve" text-anchor="middle" x="298" y="-61" font-family="Helvetica,sans-Serif" font-size="10.00">iostream</text>
</a>
</g>
</g>
<!-- Node1&#45;&gt;Node8 -->
<g id="edge11_Node000001_Node000008" class="edge">
<title>Node1&#45;&gt;Node8</title>
<g id="a_edge11_Node000001_Node000008"><a xlink:title=" ">
<path fill="none" stroke="#63b8ff" d="M219.96,-165.5C233.9,-147.69 265.52,-107.33 283.95,-83.81"/>
<polygon fill="#63b8ff" stroke="#63b8ff" points="286.6,-86.1 290.01,-76.07 281.09,-81.78 286.6,-86.1"/>
</a>
</g>
</g>
<!-- Node3 -->
<g id="Node000003" class="node">
<title>Node3</title>
<g id="a_Node000003"><a xlink:href="_grid_8h.html" target="_top" xlink:title=" ">
<polygon fill="white" stroke="#666666" points="64,-74.5 0,-74.5 0,-55.25 64,-55.25 64,-74.5"/>
<text xml:space="preserve" text-anchor="middle" x="32" y="-61" font-family="Helvetica,sans-Serif" font-size="10.00">core/Grid.h</text>
</a>
</g>
</g>
<!-- Node2&#45;&gt;Node3 -->
<g id="edge2_Node000002_Node000003" class="edge">
<title>Node2&#45;&gt;Node3</title>
<g id="a_edge2_Node000002_Node000003"><a xlink:title=" ">
<path fill="none" stroke="#63b8ff" d="M150.74,-110.09C127.73,-101.52 92.91,-88.56 66.92,-78.88"/>
<polygon fill="#63b8ff" stroke="#63b8ff" points="68.39,-75.69 57.8,-75.48 65.95,-82.25 68.39,-75.69"/>
</a>
</g>
</g>
<!-- Node4 -->
<g id="Node000004" class="node">
<title>Node4</title>
<g id="a_Node000004"><a xlink:title=" ">
<polygon fill="#e0e0e0" stroke="#999999" points="113.5,-19.25 70.5,-19.25 70.5,0 113.5,0 113.5,-19.25"/>
<text xml:space="preserve" text-anchor="middle" x="92" y="-5.75" font-family="Helvetica,sans-Serif" font-size="10.00">vector</text>
</a>
</g>
</g>
<!-- Node2&#45;&gt;Node4 -->
<g id="edge9_Node000002_Node000004" class="edge">
<title>Node2&#45;&gt;Node4</title>
<g id="a_edge9_Node000002_Node000004"><a xlink:title=" ">
<path fill="none" stroke="#63b8ff" d="M155.53,-110.05C141.24,-102.46 122.42,-90.31 111,-74.5 101.76,-61.71 96.97,-44.41 94.52,-31.04"/>
<polygon fill="#63b8ff" stroke="#63b8ff" points="97.98,-30.57 93.03,-21.2 91.06,-31.61 97.98,-30.57"/>
</a>
</g>
</g>
<!-- Node6 -->
<g id="Node000006" class="node">
<title>Node6</title>
<g id="a_Node000006"><a xlink:href="_solution_8h.html" target="_top" xlink:title=" ">
<polygon fill="white" stroke="#666666" points="253.62,-74.5 172.38,-74.5 172.38,-55.25 253.62,-55.25 253.62,-74.5"/>
<text xml:space="preserve" text-anchor="middle" x="213" y="-61" font-family="Helvetica,sans-Serif" font-size="10.00">core/Solution.h</text>
</a>
</g>
</g>
<!-- Node2&#45;&gt;Node6 -->
<g id="edge5_Node000002_Node000006" class="edge">
<title>Node2&#45;&gt;Node6</title>
<g id="a_edge5_Node000002_Node000006"><a xlink:title=" ">
<path fill="none" stroke="#63b8ff" d="M181.27,-110.33C186.36,-103.21 193.7,-92.93 200.03,-84.05"/>
<polygon fill="#63b8ff" stroke="#63b8ff" points="202.75,-86.26 205.71,-76.09 197.05,-82.2 202.75,-86.26"/>
</a>
</g>
</g>
<!-- Node2&#45;&gt;Node8 -->
<g id="edge8_Node000002_Node000008" class="edge">
<title>Node2&#45;&gt;Node8</title>
<g id="a_edge8_Node000002_Node000008"><a xlink:title=" ">
<path fill="none" stroke="#63b8ff" d="M195.87,-110.09C215.3,-101.68 244.54,-89.02 266.76,-79.4"/>
<polygon fill="#63b8ff" stroke="#63b8ff" points="267.86,-82.74 275.64,-75.55 265.08,-76.31 267.86,-82.74"/>
</a>
</g>
</g>
<!-- Node9 -->
<g id="Node000009" class="node">
<title>Node9</title>
<g id="a_Node000009"><a xlink:title=" ">
<polygon fill="#e0e0e0" stroke="#999999" points="154.38,-74.5 119.62,-74.5 119.62,-55.25 154.38,-55.25 154.38,-74.5"/>
<text xml:space="preserve" text-anchor="middle" x="137" y="-61" font-family="Helvetica,sans-Serif" font-size="10.00">map</text>
</a>
</g>
</g>
<!-- Node2&#45;&gt;Node9 -->
<g id="edge10_Node000002_Node000009" class="edge">
<title>Node2&#45;&gt;Node9</title>
<g id="a_edge10_Node000002_Node000009"><a xlink:title=" ">
<path fill="none" stroke="#63b8ff" d="M168.73,-110.33C163.64,-103.21 156.3,-92.93 149.97,-84.05"/>
<polygon fill="#63b8ff" stroke="#63b8ff" points="152.95,-82.2 144.29,-76.09 147.25,-86.26 152.95,-82.2"/>
</a>
</g>
</g>
<!-- Node3&#45;&gt;Node4 -->
<g id="edge3_Node000003_Node000004" class="edge">
<title>Node3&#45;&gt;Node4</title>
<g id="a_edge3_Node000003_Node000004"><a xlink:title=" ">
<path fill="none" stroke="#63b8ff" d="M42.18,-54.84C50.76,-47.22 63.27,-36.12 73.6,-26.95"/>
<polygon fill="#63b8ff" stroke="#63b8ff" points="75.68,-29.79 80.84,-20.53 71.04,-24.55 75.68,-29.79"/>
</a>
</g>
</g>
<!-- Node5 -->
<g id="Node000005" class="node">
<title>Node5</title>
<g id="a_Node000005"><a xlink:title=" ">
<polygon fill="#e0e0e0" stroke="#999999" points="52,-19.25 12,-19.25 12,0 52,0 52,-19.25"/>
<text xml:space="preserve" text-anchor="middle" x="32" y="-5.75" font-family="Helvetica,sans-Serif" font-size="10.00">string</text>
</a>
</g>
</g>
<!-- Node3&#45;&gt;Node5 -->
<g id="edge4_Node000003_Node000005" class="edge">
<title>Node3&#45;&gt;Node5</title>
<g id="a_edge4_Node000003_Node000005"><a xlink:title=" ">
<path fill="none" stroke="#63b8ff" d="M32,-55.08C32,-48.57 32,-39.42 32,-31.12"/>
<polygon fill="#63b8ff" stroke="#63b8ff" points="35.5,-31.12 32,-21.12 28.5,-31.12 35.5,-31.12"/>
</a>
</g>
</g>
<!-- Node6&#45;&gt;Node4 -->
<g id="edge6_Node000006_Node000004" class="edge">
<title>Node6&#45;&gt;Node4</title>
<g id="a_edge6_Node000006_Node000004"><a xlink:title=" ">
<path fill="none" stroke="#63b8ff" d="M192.47,-54.84C173.44,-46.47 144.85,-33.88 123.03,-24.28"/>
<polygon fill="#63b8ff" stroke="#63b8ff" points="124.57,-21.14 114.01,-20.31 121.76,-27.54 124.57,-21.14"/>
</a>
</g>
</g>
<!-- Node7 -->
<g id="Node000007" class="node">
<title>Node7</title>
<g id="a_Node000007"><a xlink:title=" ">
<polygon fill="#e0e0e0" stroke="#999999" points="232.62,-19.25 193.38,-19.25 193.38,0 232.62,0 232.62,-19.25"/>
<text xml:space="preserve" text-anchor="middle" x="213" y="-5.75" font-family="Helvetica,sans-Serif" font-size="10.00">utility</text>
</a>
</g>
</g>
<!-- Node6&#45;&gt;Node7 -->
<g id="edge7_Node000006_Node000007" class="edge">
<title>Node6&#45;&gt;Node7</title>
<g id="a_edge7_Node000006_Node000007"><a xlink:title=" ">
<path fill="none" stroke="#63b8ff" d="M213,-55.08C213,-48.57 213,-39.42 213,-31.12"/>
<polygon fill="#63b8ff" stroke="#63b8ff" points="216.5,-31.12 213,-21.12 209.5,-31.12 216.5,-31.12"/>
</a>
</g>
</g>
</g>
</svg>
