<?xml version="1.0" encoding="UTF-8" standalone="no"?>
<!DOCTYPE svg PUBLIC "-//W3C//DTD SVG 1.1//EN"
 "http://www.w3.org/Graphics/SVG/1.1/DTD/svg11.dtd">
<!-- Generated by graphviz version 14.0.2 (20251019.1705)
 -->
<!-- Title: include/slitherlink/core/Solution.h Pages: 1 -->
<svg width="108pt" height="94pt"
 viewBox="0.00 0.00 108.00 94.00" xmlns="http://www.w3.org/2000/svg" xmlns:xlink="http://www.w3.org/1999/xlink">
<g id="graph0" class="graph" transform="scale(1 1) rotate(0) translate(4 89.75)">
<title>include/slitherlink/core/Solution.h</title>
<!-- Node1 -->
<g id="Node000001" class="node">
<title>Node1</title>
<g id="a_Node000001"><a xlink:title=" ">
<polygon fill="#999999" stroke="#666666" points="94.12,-85.75 3.12,-85.75 3.12,-55.25 94.12,-55.25 94.12,-85.75"/>
<text xml:space="preserve" text-anchor="start" x="11.12" y="-72.25" font-family="Helvetica,sans-Serif" font-size="10.00">include/slitherlink</text>
<text xml:space="preserve" text-anchor="middle" x="48.62" y="-61" font-family="Helvetica,sans-Serif" font-size="10.00">/core/Solution.h</text>
</a>
</g>
</g>
<!-- Node2 -->
<g id="Node000002" class="node">
<title>Node2</title>
<g id="a_Node000002"><a xlink:title=" ">
<polygon fill="#e0e0e0" stroke="#999999" points="39.25,-19.25 0,-19.25 0,0 39.25,0 39.25,-19.25"/>
<text xml:space="preserve" text-anchor="middle" x="19.62" y="-5.75" font-family="Helvetica,sans-Serif" font-size="10.00">utility</text>
</a>
</g>
</g>
<!-- Node1&#45;&gt;Node2 -->
<g id="edge1_Node000001_Node000002" class="edge">
<title>Node1&#45;&gt;Node2</title>
<g id="a_edge1_Node000001_Node000002"><a xlink:title=" ">
<path fill="none" stroke="#63b8ff" d="M41.46,-54.95C37.72,-47.36 33.1,-37.99 29.08,-29.82"/>
<polygon fill="#63b8ff" stroke="#63b8ff" points="32.32,-28.48 24.76,-21.06 26.04,-31.58 32.32,-28.48"/>
</a>
</g>
</g>
<!-- Node3 -->
<g id="Node000003" class="node">
<title>Node3</title>
<g id="a_Node000003"><a xlink:title=" ">
<polygon fill="#e0e0e0" stroke="#999999" points="100.12,-19.25 57.12,-19.25 57.12,0 100.12,0 100.12,-19.25"/>
<text xml:space="preserve" text-anchor="middle" x="78.62" y="-5.75" font-family="Helvetica,sans-Serif" font-size="10.00">vector</text>
</a>
</g>
</g>
<!-- Node1&#45;&gt;Node3 -->
<g id="edge2_Node000001_Node000003" class="edge">
<title>Node1&#45;&gt;Node3</title>
<g id="a_edge2_Node000001_Node000003"><a xlink:title=" ">
<path fill="none" stroke="#63b8ff" d="M56.04,-54.95C59.91,-47.36 64.68,-37.99 68.85,-29.82"/>
<polygon fill="#63b8ff" stroke="#63b8ff" points="71.89,-31.55 73.31,-21.05 65.65,-28.37 71.89,-31.55"/>
</a>
</g>
</g>
</g>
</svg>
