<?xml version="1.0" encoding="UTF-8" standalone="no"?>
<!DOCTYPE svg PUBLIC "-//W3C//DTD SVG 1.1//EN"
 "http://www.w3.org/Graphics/SVG/1.1/DTD/svg11.dtd">
<!-- Generated by graphviz version 14.0.2 (20251019.1705)
 -->
<!-- Title: src/io/SolutionPrinter.cpp Pages: 1 -->
<svg width="374pt" height="260pt"
 viewBox="0.00 0.00 374.00 260.00" xmlns="http://www.w3.org/2000/svg" xmlns:xlink="http://www.w3.org/1999/xlink">

<svg id="main" version="1.1" xmlns="http://www.w3.org/2000/svg" xmlns:xlink="http://www.w3.org/1999/xlink" xml:space="preserve">

<style type="text/css"><![CDATA[
.node, .edge {opacity: 0.7;}
.node.selected, .edge.selected {opacity: 1;}
.edge:hover path { stroke: red; }
.edge:hover polygon { stroke: red; fill: red; }
]]></style>
<script type="application/ecmascript" xlink:href="svg.min.js"/>
<svg id="graph" class="graph">
<g id="graph0" class="graph" transform="scale(1 1) rotate(0) translate(4 255.5)">
<title>src/io/SolutionPrinter.cpp</title>
<!-- Node1 -->
<g id="Node000001" class="node">
<title>Node1</title>
<g id="a_Node000001"><a xlink:title=" ">
<polygon fill="#999999" stroke="#666666" points="343.12,-251.5 218.38,-251.5 218.38,-232.25 343.12,-232.25 343.12,-251.5"/>
<text xml:space="preserve" text-anchor="middle" x="280.75" y="-238" font-family="Helvetica,sans-Serif" font-size="10.00">src/io/SolutionPrinter.cpp</text>
</a>
</g>
</g>
<!-- Node2 -->
<g id="Node000002" class="node">
<title>Node2</title>
<g id="a_Node000002"><a xlink:href="_solution_printer_8h.html" target="_top" xlink:title=" ">
<polygon fill="white" stroke="#666666" points="293.75,-196.25 151.75,-196.25 151.75,-177 293.75,-177 293.75,-196.25"/>
<text xml:space="preserve" text-anchor="middle" x="222.75" y="-182.75" font-family="Helvetica,sans-Serif" font-size="10.00">slitherlink/io/SolutionPrinter.h</text>
</a>
</g>
</g>
<!-- Node1&#45;&gt;Node2 -->
<g id="edge1_Node000001_Node000002" class="edge">
<title>Node1&#45;&gt;Node2</title>
<g id="a_edge1_Node000001_Node000002"><a xlink:title=" ">
<path fill="none" stroke="#63b8ff" d="M270.91,-231.84C262.7,-224.3 250.77,-213.35 240.84,-204.23"/>
<polygon fill="#63b8ff" stroke="#63b8ff" points="243.29,-201.73 233.56,-197.55 238.56,-206.89 243.29,-201.73"/>
</a>
</g>
</g>
<!-- Node9 -->
<g id="Node000009" class="node">
<title>Node9</title>
<g id="a_Node000009"><a xlink:title=" ">
<polygon fill="#e0e0e0" stroke="#999999" points="365.5,-196.25 312,-196.25 312,-177 365.5,-177 365.5,-196.25"/>
<text xml:space="preserve" text-anchor="middle" x="338.75" y="-182.75" font-family="Helvetica,sans-Serif" font-size="10.00">iostream</text>
</a>
</g>
</g>
<!-- Node1&#45;&gt;Node9 -->
<g id="edge10_Node000001_Node000009" class="edge">
<title>Node1&#45;&gt;Node9</title>
<g id="a_edge10_Node000001_Node000009"><a xlink:title=" ">
<path fill="none" stroke="#63b8ff" d="M290.59,-231.84C298.8,-224.3 310.73,-213.35 320.66,-204.23"/>
<polygon fill="#63b8ff" stroke="#63b8ff" points="322.94,-206.89 327.94,-197.55 318.21,-201.73 322.94,-206.89"/>
</a>
</g>
</g>
<!-- Node3 -->
<g id="Node000003" class="node">
<title>Node3</title>
<g id="a_Node000003"><a xlink:href="_i_solution_printer_8h.html" target="_top" xlink:title=" ">
<polygon fill="white" stroke="#666666" points="194.25,-141 91.25,-141 91.25,-110.5 194.25,-110.5 194.25,-141"/>
<text xml:space="preserve" text-anchor="start" x="99.25" y="-127.5" font-family="Helvetica,sans-Serif" font-size="10.00">slitherlink/interfaces</text>
<text xml:space="preserve" text-anchor="middle" x="142.75" y="-116.25" font-family="Helvetica,sans-Serif" font-size="10.00">/ISolutionPrinter.h</text>
</a>
</g>
</g>
<!-- Node2&#45;&gt;Node3 -->
<g id="edge2_Node000002_Node000003" class="edge">
<title>Node2&#45;&gt;Node3</title>
<g id="a_edge2_Node000002_Node000003"><a xlink:title=" ">
<path fill="none" stroke="#63b8ff" d="M210.6,-176.68C200.23,-169.05 184.9,-157.77 171.44,-147.86"/>
<polygon fill="#63b8ff" stroke="#63b8ff" points="173.84,-145.29 163.72,-142.18 169.69,-150.93 173.84,-145.29"/>
</a>
</g>
</g>
<!-- Node6 -->
<g id="Node000006" class="node">
<title>Node6</title>
<g id="a_Node000006"><a xlink:title=" ">
<polygon fill="#e0e0e0" stroke="#999999" points="244.25,-19.25 201.25,-19.25 201.25,0 244.25,0 244.25,-19.25"/>
<text xml:space="preserve" text-anchor="middle" x="222.75" y="-5.75" font-family="Helvetica,sans-Serif" font-size="10.00">vector</text>
</a>
</g>
</g>
<!-- Node2&#45;&gt;Node6 -->
<g id="edge9_Node000002_Node000006" class="edge">
<title>Node2&#45;&gt;Node6</title>
<g id="a_edge9_Node000002_Node000006"><a xlink:title=" ">
<path fill="none" stroke="#63b8ff" d="M222.75,-176.71C222.75,-149.8 222.75,-68.94 222.75,-30.87"/>
<polygon fill="#63b8ff" stroke="#63b8ff" points="226.25,-31.25 222.75,-21.25 219.25,-31.25 226.25,-31.25"/>
</a>
</g>
</g>
<!-- Node8 -->
<g id="Node000008" class="node">
<title>Node8</title>
<g id="a_Node000008"><a xlink:href="_grid_8h.html" target="_top" xlink:title=" ">
<polygon fill="white" stroke="#666666" points="358.88,-135.38 250.62,-135.38 250.62,-116.12 358.88,-116.12 358.88,-135.38"/>
<text xml:space="preserve" text-anchor="middle" x="304.75" y="-121.88" font-family="Helvetica,sans-Serif" font-size="10.00">slitherlink/core/Grid.h</text>
</a>
</g>
</g>
<!-- Node2&#45;&gt;Node8 -->
<g id="edge7_Node000002_Node000008" class="edge">
<title>Node2&#45;&gt;Node8</title>
<g id="a_edge7_Node000002_Node000008"><a xlink:title=" ">
<path fill="none" stroke="#63b8ff" d="M235.2,-176.68C247.85,-167.61 267.68,-153.37 282.94,-142.41"/>
<polygon fill="#63b8ff" stroke="#63b8ff" points="284.87,-145.33 290.95,-136.66 280.78,-139.65 284.87,-145.33"/>
</a>
</g>
</g>
<!-- Node4 -->
<g id="Node000004" class="node">
<title>Node4</title>
<g id="a_Node000004"><a xlink:href="_solution_8h.html" target="_top" xlink:title=" ">
<polygon fill="white" stroke="#666666" points="125.5,-74.5 0,-74.5 0,-55.25 125.5,-55.25 125.5,-74.5"/>
<text xml:space="preserve" text-anchor="middle" x="62.75" y="-61" font-family="Helvetica,sans-Serif" font-size="10.00">slitherlink/core/Solution.h</text>
</a>
</g>
</g>
<!-- Node3&#45;&gt;Node4 -->
<g id="edge3_Node000003_Node000004" class="edge">
<title>Node3&#45;&gt;Node4</title>
<g id="a_edge3_Node000003_Node000004"><a xlink:title=" ">
<path fill="none" stroke="#63b8ff" d="M122.97,-110.2C111.15,-101.49 96.11,-90.43 84.03,-81.53"/>
<polygon fill="#63b8ff" stroke="#63b8ff" points="86.43,-78.96 76.3,-75.85 82.28,-84.59 86.43,-78.96"/>
</a>
</g>
</g>
<!-- Node7 -->
<g id="Node000007" class="node">
<title>Node7</title>
<g id="a_Node000007"><a xlink:title=" ">
<polygon fill="#e0e0e0" stroke="#999999" points="194.38,-74.5 143.12,-74.5 143.12,-55.25 194.38,-55.25 194.38,-74.5"/>
<text xml:space="preserve" text-anchor="middle" x="168.75" y="-61" font-family="Helvetica,sans-Serif" font-size="10.00">ostream</text>
</a>
</g>
</g>
<!-- Node3&#45;&gt;Node7 -->
<g id="edge6_Node000003_Node000007" class="edge">
<title>Node3&#45;&gt;Node7</title>
<g id="a_edge6_Node000003_Node000007"><a xlink:title=" ">
<path fill="none" stroke="#63b8ff" d="M149.18,-110.2C152.49,-102.7 156.57,-93.45 160.15,-85.35"/>
<polygon fill="#63b8ff" stroke="#63b8ff" points="163.29,-86.9 164.13,-76.34 156.89,-84.07 163.29,-86.9"/>
</a>
</g>
</g>
<!-- Node5 -->
<g id="Node000005" class="node">
<title>Node5</title>
<g id="a_Node000005"><a xlink:title=" ">
<polygon fill="#e0e0e0" stroke="#999999" points="82.38,-19.25 43.12,-19.25 43.12,0 82.38,0 82.38,-19.25"/>
<text xml:space="preserve" text-anchor="middle" x="62.75" y="-5.75" font-family="Helvetica,sans-Serif" font-size="10.00">utility</text>
</a>
</g>
</g>
<!-- Node4&#45;&gt;Node5 -->
<g id="edge4_Node000004_Node000005" class="edge">
<title>Node4&#45;&gt;Node5</title>
<g id="a_edge4_Node000004_Node000005"><a xlink:title=" ">
<path fill="none" stroke="#63b8ff" d="M62.75,-55.08C62.75,-48.57 62.75,-39.42 62.75,-31.12"/>
<polygon fill="#63b8ff" stroke="#63b8ff" points="66.25,-31.12 62.75,-21.12 59.25,-31.12 66.25,-31.12"/>
</a>
</g>
</g>
<!-- Node4&#45;&gt;Node6 -->
<g id="edge5_Node000004_Node000006" class="edge">
<title>Node4&#45;&gt;Node6</title>
<g id="a_edge5_Node000004_Node000006"><a xlink:title=" ">
<path fill="none" stroke="#63b8ff" d="M89.89,-54.84C117.72,-45.58 160.99,-31.18 190.54,-21.35"/>
<polygon fill="#63b8ff" stroke="#63b8ff" points="191.31,-24.78 199.69,-18.3 189.1,-18.14 191.31,-24.78"/>
</a>
</g>
</g>
<!-- Node8&#45;&gt;Node6 -->
<g id="edge8_Node000008_Node000006" class="edge">
<title>Node8&#45;&gt;Node6</title>
<g id="a_edge8_Node000008_Node000006"><a xlink:title=" ">
<path fill="none" stroke="#63b8ff" d="M298.32,-115.79C284.84,-97.04 253.45,-53.35 235.65,-28.58"/>
<polygon fill="#63b8ff" stroke="#63b8ff" points="238.72,-26.85 230.04,-20.77 233.03,-30.93 238.72,-26.85"/>
</a>
</g>
</g>
</g>
</svg>
</svg>

<style type='text/css'>
<![CDATA[
[data-mouse-over-selected='false'] { opacity: 0.7; }
[data-mouse-over-selected='true']  { opacity: 1.0; }
]]>
</style>
<script type="application/ecmascript"><![CDATA[
document.addEventListener('DOMContentLoaded', (event) => {
  highlightEdges();
  highlightAdjacentNodes();
});
]]></script>
</svg>
