<?xml version="1.0" encoding="UTF-8" standalone="no"?>
<!DOCTYPE svg PUBLIC "-//W3C//DTD SVG 1.1//EN"
 "http://www.w3.org/Graphics/SVG/1.1/DTD/svg11.dtd">
<!-- Generated by graphviz version 14.0.2 (20251019.1705)
 -->
<!-- Title: src/solver/Solver.cpp Pages: 1 -->
<!--zoomable 204 -->

<svg id="main" version="1.1" xmlns="http://www.w3.org/2000/svg" xmlns:xlink="http://www.w3.org/1999/xlink" xml:space="preserve" onload="init(evt)">

<style type="text/css"><![CDATA[
.node, .edge {opacity: 0.7;}
.node.selected, .edge.selected {opacity: 1;}
.edge:hover path { stroke: red; }
.edge:hover polygon { stroke: red; fill: red; }
]]></style>

<defs>
  <circle id="rim" cx="0" cy="0" r="7"/>
  <circle id="rim2" cx="0" cy="0" r="3.5"/>
  <g id="zoomPlus">
    <use xlink:href="#rim" fill="#404040"><set attributeName="fill" to="#808080" begin="zoomplus.mouseover" end="zoomplus.mouseout"/></use>
    <path d="M-4,0h8M0,-4v8" fill="none" stroke="white" stroke-width="1.5" pointer-events="none"/>
  </g>
  <g id="zoomMin">
    <use xlink:href="#rim" fill="#404040"><set attributeName="fill" to="#808080" begin="zoomminus.mouseover" end="zoomminus.mouseout"/></use>
    <path d="M-4,0h8" fill="none" stroke="white" stroke-width="1.5" pointer-events="none"/>
  </g>
  <g id="arrowUp" transform="translate(30 24)">
    <use xlink:href="#rim"/>
    <path pointer-events="none" fill="none" stroke="white" stroke-width="1.5" d="M0,-3.0v7 M-2.5,-0.5L0,-3.0L2.5,-0.5"/>
  </g>
  <g id="arrowRight" transform="rotate(90) translate(36 -43)">
    <use xlink:href="#rim"/>
    <path pointer-events="none" fill="none" stroke="white" stroke-width="1.5" d="M0,-3.0v7 M-2.5,-0.5L0,-3.0L2.5,-0.5"/>
  </g>
  <g id="arrowDown" transform="rotate(180) translate(-30 -48)">
    <use xlink:href="#rim"/>
    <path pointer-events="none" fill="none" stroke="white" stroke-width="1.5" d="M0,-3.0v7 M-2.5,-0.5L0,-3.0L2.5,-0.5"/>
  </g>
  <g id="arrowLeft" transform="rotate(270) translate(-36 17)">
    <use xlink:href="#rim"/>
    <path pointer-events="none" fill="none" stroke="white" stroke-width="1.5" d="M0,-3.0v7 M-2.5,-0.5L0,-3.0L2.5,-0.5"/>
  </g>
  <g id="resetDef">
    <use xlink:href="#rim2" fill="#404040"><set attributeName="fill" to="#808080" begin="reset.mouseover" end="reset.mouseout"/></use>
  </g>
</defs>
<script type="application/ecmascript">
var viewWidth = 1484;
var viewHeight = 204;
var sectionId = 'dynsection-0';
</script>
<script type="application/ecmascript" xlink:href="svg.min.js"/>
<svg id="graph" class="graph">
<g id="viewport">
<title>src/solver/Solver.cpp</title>
<!-- Node1 -->
<g id="Node000001" class="node">
<title>Node1</title>
<g id="a_Node000001"><a xlink:title=" ">
<polygon fill="#999999" stroke="#666666" points="940.12,-196.25 832.62,-196.25 832.62,-177 940.12,-177 940.12,-196.25"/>
<text xml:space="preserve" text-anchor="middle" x="886.38" y="-182.75" font-family="Helvetica,sans-Serif" font-size="10.00">src/solver/Solver.cpp</text>
</a>
</g>
</g>
<!-- Node2 -->
<g id="Node000002" class="node">
<title>Node2</title>
<g id="a_Node000002"><a xlink:href="_solver_8h.html" target="_top" xlink:title=" ">
<polygon fill="white" stroke="#666666" points="584.62,-141 498.12,-141 498.12,-110.5 584.62,-110.5 584.62,-141"/>
<text xml:space="preserve" text-anchor="start" x="506.12" y="-127.5" font-family="Helvetica,sans-Serif" font-size="10.00">slitherlink/solver</text>
<text xml:space="preserve" text-anchor="middle" x="541.38" y="-116.25" font-family="Helvetica,sans-Serif" font-size="10.00">/Solver.h</text>
</a>
</g>
</g>
<!-- Node1&#45;&gt;Node2 -->
<g id="edge1_Node000001_Node000002" class="edge">
<title>Node1&#45;&gt;Node2</title>
<g id="a_edge1_Node000001_Node000002"><a xlink:title=" ">
<path fill="none" stroke="#63b8ff" d="M832.3,-179.3C775.67,-172.26 683.95,-159.65 596.21,-141.46"/>
<polygon fill="#63b8ff" stroke="#63b8ff" points="596.97,-138.04 586.46,-139.41 595.52,-144.89 596.97,-138.04"/>
</a>
</g>
</g>
<!-- Node14 -->
<g id="Node000014" class="node">
<title>Node14</title>
<g id="a_Node000014"><a xlink:title=" ">
<polygon fill="#e0e0e0" stroke="#999999" points="658.25,-135.38 602.5,-135.38 602.5,-116.12 658.25,-116.12 658.25,-135.38"/>
<text xml:space="preserve" text-anchor="middle" x="630.38" y="-121.88" font-family="Helvetica,sans-Serif" font-size="10.00">algorithm</text>
</a>
</g>
</g>
<!-- Node1&#45;&gt;Node14 -->
<g id="edge16_Node000001_Node000014" class="edge">
<title>Node1&#45;&gt;Node14</title>
<g id="a_edge16_Node000001_Node000014"><a xlink:title=" ">
<path fill="none" stroke="#63b8ff" d="M832.21,-177.18C787.52,-169.59 722.68,-157.16 667.38,-141 665.81,-140.54 664.21,-140.05 662.6,-139.52"/>
<polygon fill="#63b8ff" stroke="#63b8ff" points="664.1,-136.34 653.51,-136.31 661.77,-142.94 664.1,-136.34"/>
</a>
</g>
</g>
<!-- Node15 -->
<g id="Node000015" class="node">
<title>Node15</title>
<g id="a_Node000015"><a xlink:title=" ">
<polygon fill="#e0e0e0" stroke="#999999" points="716.75,-135.38 676,-135.38 676,-116.12 716.75,-116.12 716.75,-135.38"/>
<text xml:space="preserve" text-anchor="middle" x="696.38" y="-121.88" font-family="Helvetica,sans-Serif" font-size="10.00">future</text>
</a>
</g>
</g>
<!-- Node1&#45;&gt;Node15 -->
<g id="edge17_Node000001_Node000015" class="edge">
<title>Node1&#45;&gt;Node15</title>
<g id="a_edge17_Node000001_Node000015"><a xlink:title=" ">
<path fill="none" stroke="#63b8ff" d="M845.68,-176.57C812.72,-168.71 765.36,-156.21 725.38,-141 724.75,-140.76 724.13,-140.52 723.5,-140.26"/>
<polygon fill="#63b8ff" stroke="#63b8ff" points="725.26,-137.22 714.7,-136.35 722.41,-143.61 725.26,-137.22"/>
</a>
</g>
</g>
<!-- Node16 -->
<g id="Node000016" class="node">
<title>Node16</title>
<g id="a_Node000016"><a xlink:title=" ">
<polygon fill="#e0e0e0" stroke="#999999" points="788.12,-135.38 734.62,-135.38 734.62,-116.12 788.12,-116.12 788.12,-135.38"/>
<text xml:space="preserve" text-anchor="middle" x="761.38" y="-121.88" font-family="Helvetica,sans-Serif" font-size="10.00">iostream</text>
</a>
</g>
</g>
<!-- Node1&#45;&gt;Node16 -->
<g id="edge18_Node000001_Node000016" class="edge">
<title>Node1&#45;&gt;Node16</title>
<g id="a_edge18_Node000001_Node000016"><a xlink:title=" ">
<path fill="none" stroke="#63b8ff" d="M867.12,-176.55C846.69,-166.93 814.17,-151.62 790.58,-140.51"/>
<polygon fill="#63b8ff" stroke="#63b8ff" points="792.36,-137.47 781.82,-136.38 789.37,-143.81 792.36,-137.47"/>
</a>
</g>
</g>
<!-- Node17 -->
<g id="Node000017" class="node">
<title>Node17</title>
<g id="a_Node000017"><a xlink:title=" ">
<polygon fill="#e0e0e0" stroke="#999999" points="846.38,-135.38 806.38,-135.38 806.38,-116.12 846.38,-116.12 846.38,-135.38"/>
<text xml:space="preserve" text-anchor="middle" x="826.38" y="-121.88" font-family="Helvetica,sans-Serif" font-size="10.00">stack</text>
</a>
</g>
</g>
<!-- Node1&#45;&gt;Node17 -->
<g id="edge19_Node000001_Node000017" class="edge">
<title>Node1&#45;&gt;Node17</title>
<g id="a_edge19_Node000001_Node000017"><a xlink:title=" ">
<path fill="none" stroke="#63b8ff" d="M877.26,-176.68C868.36,-167.95 854.6,-154.44 843.63,-143.68"/>
<polygon fill="#63b8ff" stroke="#63b8ff" points="846.24,-141.34 836.65,-136.84 841.34,-146.34 846.24,-141.34"/>
</a>
</g>
</g>
<!-- Node18 -->
<g id="Node000018" class="node">
<title>Node18</title>
<g id="a_Node000018"><a xlink:title=" ">
<polygon fill="#e0e0e0" stroke="#999999" points="907.88,-135.38 864.88,-135.38 864.88,-116.12 907.88,-116.12 907.88,-135.38"/>
<text xml:space="preserve" text-anchor="middle" x="886.38" y="-121.88" font-family="Helvetica,sans-Serif" font-size="10.00">thread</text>
</a>
</g>
</g>
<!-- Node1&#45;&gt;Node18 -->
<g id="edge20_Node000001_Node000018" class="edge">
<title>Node1&#45;&gt;Node18</title>
<g id="a_edge20_Node000001_Node000018"><a xlink:title=" ">
<path fill="none" stroke="#63b8ff" d="M886.38,-176.68C886.38,-168.9 886.38,-157.33 886.38,-147.28"/>
<polygon fill="#63b8ff" stroke="#63b8ff" points="889.88,-147.29 886.38,-137.29 882.88,-147.29 889.88,-147.29"/>
</a>
</g>
</g>
<!-- Node19 -->
<g id="Node000019" class="node">
<title>Node19</title>
<g id="a_Node000019"><a xlink:title=" ">
<polygon fill="#e0e0e0" stroke="#999999" points="1029.25,-135.38 925.5,-135.38 925.5,-116.12 1029.25,-116.12 1029.25,-135.38"/>
<text xml:space="preserve" text-anchor="middle" x="977.38" y="-121.88" font-family="Helvetica,sans-Serif" font-size="10.00">tbb/blocked_range.h</text>
</a>
</g>
</g>
<!-- Node1&#45;&gt;Node19 -->
<g id="edge21_Node000001_Node000019" class="edge">
<title>Node1&#45;&gt;Node19</title>
<g id="a_edge21_Node000001_Node000019"><a xlink:title=" ">
<path fill="none" stroke="#63b8ff" d="M900.2,-176.68C914.49,-167.43 937.08,-152.82 954.13,-141.79"/>
<polygon fill="#63b8ff" stroke="#63b8ff" points="955.66,-144.97 962.15,-136.6 951.86,-139.09 955.66,-144.97"/>
</a>
</g>
</g>
<!-- Node20 -->
<g id="Node000020" class="node">
<title>Node20</title>
<g id="a_Node000020"><a xlink:title=" ">
<polygon fill="#e0e0e0" stroke="#999999" points="1135,-135.38 1047.75,-135.38 1047.75,-116.12 1135,-116.12 1135,-135.38"/>
<text xml:space="preserve" text-anchor="middle" x="1091.38" y="-121.88" font-family="Helvetica,sans-Serif" font-size="10.00">tbb/parallel_for.h</text>
</a>
</g>
</g>
<!-- Node1&#45;&gt;Node20 -->
<g id="edge22_Node000001_Node000020" class="edge">
<title>Node1&#45;&gt;Node20</title>
<g id="a_edge22_Node000001_Node000020"><a xlink:title=" ">
<path fill="none" stroke="#63b8ff" d="M917.96,-176.55C953.02,-166.49 1009.8,-150.18 1048.77,-138.99"/>
<polygon fill="#63b8ff" stroke="#63b8ff" points="1049.66,-142.37 1058.3,-136.25 1047.72,-135.64 1049.66,-142.37"/>
</a>
</g>
</g>
<!-- Node21 -->
<g id="Node000021" class="node">
<title>Node21</title>
<g id="a_Node000021"><a xlink:title=" ">
<polygon fill="#e0e0e0" stroke="#999999" points="1259.38,-135.38 1153.38,-135.38 1153.38,-116.12 1259.38,-116.12 1259.38,-135.38"/>
<text xml:space="preserve" text-anchor="middle" x="1206.38" y="-121.88" font-family="Helvetica,sans-Serif" font-size="10.00">tbb/parallel_reduce.h</text>
</a>
</g>
</g>
<!-- Node1&#45;&gt;Node21 -->
<g id="edge23_Node000001_Node000021" class="edge">
<title>Node1&#45;&gt;Node21</title>
<g id="a_edge23_Node000001_Node000021"><a xlink:title=" ">
<path fill="none" stroke="#63b8ff" d="M940.4,-177.16C992.71,-168.76 1074.19,-155.12 1144.38,-141 1148.64,-140.14 1153.06,-139.21 1157.48,-138.25"/>
<polygon fill="#63b8ff" stroke="#63b8ff" points="1157.93,-141.74 1166.93,-136.15 1156.41,-134.9 1157.93,-141.74"/>
</a>
</g>
</g>
<!-- Node22 -->
<g id="Node000022" class="node">
<title>Node22</title>
<g id="a_Node000022"><a xlink:title=" ">
<polygon fill="#e0e0e0" stroke="#999999" points="1368.88,-135.38 1277.88,-135.38 1277.88,-116.12 1368.88,-116.12 1368.88,-135.38"/>
<text xml:space="preserve" text-anchor="middle" x="1323.38" y="-121.88" font-family="Helvetica,sans-Serif" font-size="10.00">tbb/spin_mutex.h</text>
</a>
</g>
</g>
<!-- Node1&#45;&gt;Node22 -->
<g id="edge24_Node000001_Node000022" class="edge">
<title>Node1&#45;&gt;Node22</title>
<g id="a_edge24_Node000001_Node000022"><a xlink:title=" ">
<path fill="none" stroke="#63b8ff" d="M940.5,-181.66C1014.84,-175.67 1152.53,-162.67 1268.38,-141 1272.22,-140.28 1276.2,-139.44 1280.18,-138.54"/>
<polygon fill="#63b8ff" stroke="#63b8ff" points="1280.89,-141.96 1289.79,-136.22 1279.25,-135.16 1280.89,-141.96"/>
</a>
</g>
</g>
<!-- Node23 -->
<g id="Node000023" class="node">
<title>Node23</title>
<g id="a_Node000023"><a xlink:title=" ">
<polygon fill="#e0e0e0" stroke="#999999" points="1475.75,-135.38 1387,-135.38 1387,-116.12 1475.75,-116.12 1475.75,-135.38"/>
<text xml:space="preserve" text-anchor="middle" x="1431.38" y="-121.88" font-family="Helvetica,sans-Serif" font-size="10.00">tbb/task_group.h</text>
</a>
</g>
</g>
<!-- Node1&#45;&gt;Node23 -->
<g id="edge25_Node000001_Node000023" class="edge">
<title>Node1&#45;&gt;Node23</title>
<g id="a_edge25_Node000001_Node000023"><a xlink:title=" ">
<path fill="none" stroke="#63b8ff" d="M940.29,-183.77C1031.25,-179.97 1220.69,-169.13 1378.38,-141 1382.2,-140.32 1386.14,-139.49 1390.08,-138.59"/>
<polygon fill="#63b8ff" stroke="#63b8ff" points="1390.7,-142.04 1399.56,-136.23 1389.01,-135.25 1390.7,-142.04"/>
</a>
</g>
</g>
<!-- Node3 -->
<g id="Node000003" class="node">
<title>Node3</title>
<g id="a_Node000003"><a xlink:href="_edge_8h.html" target="_top" xlink:title=" ">
<polygon fill="white" stroke="#666666" points="112.75,-74.5 0,-74.5 0,-55.25 112.75,-55.25 112.75,-74.5"/>
<text xml:space="preserve" text-anchor="middle" x="56.38" y="-61" font-family="Helvetica,sans-Serif" font-size="10.00">slitherlink/core/Edge.h</text>
</a>
</g>
</g>
<!-- Node2&#45;&gt;Node3 -->
<g id="edge2_Node000002_Node000003" class="edge">
<title>Node2&#45;&gt;Node3</title>
<g id="a_edge2_Node000002_Node000003"><a xlink:title=" ">
<path fill="none" stroke="#63b8ff" d="M497.93,-119.69C423.74,-111.02 267.6,-92.64 124.08,-74.7"/>
<polygon fill="#63b8ff" stroke="#63b8ff" points="124.75,-71.26 114.4,-73.49 123.89,-78.2 124.75,-71.26"/>
</a>
</g>
</g>
<!-- Node4 -->
<g id="Node000004" class="node">
<title>Node4</title>
<g id="a_Node000004"><a xlink:href="_grid_8h.html" target="_top" xlink:title=" ">
<polygon fill="white" stroke="#666666" points="239.5,-74.5 131.25,-74.5 131.25,-55.25 239.5,-55.25 239.5,-74.5"/>
<text xml:space="preserve" text-anchor="middle" x="185.38" y="-61" font-family="Helvetica,sans-Serif" font-size="10.00">slitherlink/core/Grid.h</text>
</a>
</g>
</g>
<!-- Node2&#45;&gt;Node4 -->
<g id="edge3_Node000002_Node000004" class="edge">
<title>Node2&#45;&gt;Node4</title>
<g id="a_edge3_Node000002_Node000004"><a xlink:title=" ">
<path fill="none" stroke="#63b8ff" d="M497.72,-117.53C436.04,-107.33 322.89,-88.62 251.04,-76.74"/>
<polygon fill="#63b8ff" stroke="#63b8ff" points="251.81,-73.31 241.37,-75.14 250.67,-80.22 251.81,-73.31"/>
</a>
</g>
</g>
<!-- Node5 -->
<g id="Node000005" class="node">
<title>Node5</title>
<g id="a_Node000005"><a xlink:title=" ">
<polygon fill="#e0e0e0" stroke="#999999" points="331.88,-19.25 288.88,-19.25 288.88,0 331.88,0 331.88,-19.25"/>
<text xml:space="preserve" text-anchor="middle" x="310.38" y="-5.75" font-family="Helvetica,sans-Serif" font-size="10.00">vector</text>
</a>
</g>
</g>
<!-- Node2&#45;&gt;Node5 -->
<g id="edge13_Node000002_Node000005" class="edge">
<title>Node2&#45;&gt;Node5</title>
<g id="a_edge13_Node000002_Node000005"><a xlink:title=" ">
<path fill="none" stroke="#63b8ff" d="M497.66,-122.62C431.96,-118.4 312.63,-106.44 286.38,-74.5 275.36,-61.1 284.8,-42.13 294.9,-28.34"/>
<polygon fill="#63b8ff" stroke="#63b8ff" points="297.62,-30.55 301.14,-20.56 292.15,-26.17 297.62,-30.55"/>
</a>
</g>
</g>
<!-- Node6 -->
<g id="Node000006" class="node">
<title>Node6</title>
<g id="a_Node000006"><a xlink:href="_solution_8h.html" target="_top" xlink:title=" ">
<polygon fill="white" stroke="#666666" points="553.12,-74.5 427.62,-74.5 427.62,-55.25 553.12,-55.25 553.12,-74.5"/>
<text xml:space="preserve" text-anchor="middle" x="490.38" y="-61" font-family="Helvetica,sans-Serif" font-size="10.00">slitherlink/core/Solution.h</text>
</a>
</g>
</g>
<!-- Node2&#45;&gt;Node6 -->
<g id="edge5_Node000002_Node000006" class="edge">
<title>Node2&#45;&gt;Node6</title>
<g id="a_edge5_Node000002_Node000006"><a xlink:title=" ">
<path fill="none" stroke="#63b8ff" d="M528.77,-110.2C521.75,-102.09 512.96,-91.95 505.57,-83.41"/>
<polygon fill="#63b8ff" stroke="#63b8ff" points="508.42,-81.36 499.23,-76.1 503.13,-85.95 508.42,-81.36"/>
</a>
</g>
</g>
<!-- Node8 -->
<g id="Node000008" class="node">
<title>Node8</title>
<g id="a_Node000008"><a xlink:href="_state_8h.html" target="_top" xlink:title=" ">
<polygon fill="white" stroke="#666666" points="409.12,-74.5 295.62,-74.5 295.62,-55.25 409.12,-55.25 409.12,-74.5"/>
<text xml:space="preserve" text-anchor="middle" x="352.38" y="-61" font-family="Helvetica,sans-Serif" font-size="10.00">slitherlink/core/State.h</text>
</a>
</g>
</g>
<!-- Node2&#45;&gt;Node8 -->
<g id="edge8_Node000002_Node000008" class="edge">
<title>Node2&#45;&gt;Node8</title>
<g id="a_edge8_Node000002_Node000008"><a xlink:title=" ">
<path fill="none" stroke="#63b8ff" d="M498.01,-111.24C466.18,-101.33 423.26,-87.96 392.27,-78.3"/>
<polygon fill="#63b8ff" stroke="#63b8ff" points="393.47,-75.01 382.88,-75.38 391.39,-81.69 393.47,-75.01"/>
</a>
</g>
</g>
<!-- Node9 -->
<g id="Node000009" class="node">
<title>Node9</title>
<g id="a_Node000009"><a xlink:title=" ">
<polygon fill="#e0e0e0" stroke="#999999" points="616,-74.5 570.75,-74.5 570.75,-55.25 616,-55.25 616,-74.5"/>
<text xml:space="preserve" text-anchor="middle" x="593.38" y="-61" font-family="Helvetica,sans-Serif" font-size="10.00">atomic</text>
</a>
</g>
</g>
<!-- Node2&#45;&gt;Node9 -->
<g id="edge10_Node000002_Node000009" class="edge">
<title>Node2&#45;&gt;Node9</title>
<g id="a_edge10_Node000002_Node000009"><a xlink:title=" ">
<path fill="none" stroke="#63b8ff" d="M554.23,-110.2C561.39,-102.09 570.34,-91.95 577.89,-83.41"/>
<polygon fill="#63b8ff" stroke="#63b8ff" points="580.36,-85.9 584.36,-76.09 575.11,-81.26 580.36,-85.9"/>
</a>
</g>
</g>
<!-- Node10 -->
<g id="Node000010" class="node">
<title>Node10</title>
<g id="a_Node000010"><a xlink:title=" ">
<polygon fill="#e0e0e0" stroke="#999999" points="685,-74.5 633.75,-74.5 633.75,-55.25 685,-55.25 685,-74.5"/>
<text xml:space="preserve" text-anchor="middle" x="659.38" y="-61" font-family="Helvetica,sans-Serif" font-size="10.00">memory</text>
</a>
</g>
</g>
<!-- Node2&#45;&gt;Node10 -->
<g id="edge11_Node000002_Node000010" class="edge">
<title>Node2&#45;&gt;Node10</title>
<g id="a_edge11_Node000002_Node000010"><a xlink:title=" ">
<path fill="none" stroke="#63b8ff" d="M570.85,-110.05C589.25,-100.86 612.82,-89.11 631.01,-80.03"/>
<polygon fill="#63b8ff" stroke="#63b8ff" points="632.54,-83.18 639.92,-75.58 629.41,-76.91 632.54,-83.18"/>
</a>
</g>
</g>
<!-- Node11 -->
<g id="Node000011" class="node">
<title>Node11</title>
<g id="a_Node000011"><a xlink:title=" ">
<polygon fill="#e0e0e0" stroke="#999999" points="745.88,-74.5 702.88,-74.5 702.88,-55.25 745.88,-55.25 745.88,-74.5"/>
<text xml:space="preserve" text-anchor="middle" x="724.38" y="-61" font-family="Helvetica,sans-Serif" font-size="10.00">mutex</text>
</a>
</g>
</g>
<!-- Node2&#45;&gt;Node11 -->
<g id="edge12_Node000002_Node000011" class="edge">
<title>Node2&#45;&gt;Node11</title>
<g id="a_edge12_Node000002_Node000011"><a xlink:title=" ">
<path fill="none" stroke="#63b8ff" d="M584.74,-110.8C617.55,-100.24 661.89,-85.98 691.72,-76.38"/>
<polygon fill="#63b8ff" stroke="#63b8ff" points="692.51,-79.8 700.95,-73.41 690.36,-73.14 692.51,-79.8"/>
</a>
</g>
</g>
<!-- Node12 -->
<g id="Node000012" class="node">
<title>Node12</title>
<g id="a_Node000012"><a xlink:title=" ">
<polygon fill="#e0e0e0" stroke="#999999" points="882.38,-74.5 764.38,-74.5 764.38,-55.25 882.38,-55.25 882.38,-74.5"/>
<text xml:space="preserve" text-anchor="middle" x="823.38" y="-61" font-family="Helvetica,sans-Serif" font-size="10.00">tbb/concurrent_vector.h</text>
</a>
</g>
</g>
<!-- Node2&#45;&gt;Node12 -->
<g id="edge14_Node000002_Node000012" class="edge">
<title>Node2&#45;&gt;Node12</title>
<g id="a_edge14_Node000002_Node000012"><a xlink:title=" ">
<path fill="none" stroke="#63b8ff" d="M585.01,-112.54C587.83,-111.82 590.64,-111.14 593.38,-110.5 649.18,-97.46 713.22,-85.26 759.53,-76.92"/>
<polygon fill="#63b8ff" stroke="#63b8ff" points="759.89,-80.41 769.12,-75.2 758.66,-73.52 759.89,-80.41"/>
</a>
</g>
</g>
<!-- Node13 -->
<g id="Node000013" class="node">
<title>Node13</title>
<g id="a_Node000013"><a xlink:title=" ">
<polygon fill="#e0e0e0" stroke="#999999" points="988.75,-74.5 900,-74.5 900,-55.25 988.75,-55.25 988.75,-74.5"/>
<text xml:space="preserve" text-anchor="middle" x="944.38" y="-61" font-family="Helvetica,sans-Serif" font-size="10.00">tbb/task_arena.h</text>
</a>
</g>
</g>
<!-- Node2&#45;&gt;Node13 -->
<g id="edge15_Node000002_Node000013" class="edge">
<title>Node2&#45;&gt;Node13</title>
<g id="a_edge15_Node000002_Node000013"><a xlink:title=" ">
<path fill="none" stroke="#63b8ff" d="M584.96,-112.31C587.8,-111.65 590.62,-111.04 593.38,-110.5 720.7,-85.5 757.3,-92.78 888.3,-74.87"/>
<polygon fill="#63b8ff" stroke="#63b8ff" points="888.66,-78.35 898.08,-73.51 887.69,-71.42 888.66,-78.35"/>
</a>
</g>
</g>
<!-- Node4&#45;&gt;Node5 -->
<g id="edge4_Node000004_Node000005" class="edge">
<title>Node4&#45;&gt;Node5</title>
<g id="a_edge4_Node000004_Node000005"><a xlink:title=" ">
<path fill="none" stroke="#63b8ff" d="M206.58,-54.84C226.33,-46.43 256.05,-33.77 278.63,-24.15"/>
<polygon fill="#63b8ff" stroke="#63b8ff" points="279.85,-27.43 287.67,-20.3 277.1,-20.99 279.85,-27.43"/>
</a>
</g>
</g>
<!-- Node6&#45;&gt;Node5 -->
<g id="edge7_Node000006_Node000005" class="edge">
<title>Node6&#45;&gt;Node5</title>
<g id="a_edge7_Node000006_Node000005"><a xlink:title=" ">
<path fill="none" stroke="#63b8ff" d="M459.84,-54.84C427.45,-45.26 376.46,-30.18 343.22,-20.34"/>
<polygon fill="#63b8ff" stroke="#63b8ff" points="344.29,-17.01 333.71,-17.53 342.31,-23.72 344.29,-17.01"/>
</a>
</g>
</g>
<!-- Node7 -->
<g id="Node000007" class="node">
<title>Node7</title>
<g id="a_Node000007"><a xlink:title=" ">
<polygon fill="#e0e0e0" stroke="#999999" points="510,-19.25 470.75,-19.25 470.75,0 510,0 510,-19.25"/>
<text xml:space="preserve" text-anchor="middle" x="490.38" y="-5.75" font-family="Helvetica,sans-Serif" font-size="10.00">utility</text>
</a>
</g>
</g>
<!-- Node6&#45;&gt;Node7 -->
<g id="edge6_Node000006_Node000007" class="edge">
<title>Node6&#45;&gt;Node7</title>
<g id="a_edge6_Node000006_Node000007"><a xlink:title=" ">
<path fill="none" stroke="#63b8ff" d="M490.38,-55.08C490.38,-48.57 490.38,-39.42 490.38,-31.12"/>
<polygon fill="#63b8ff" stroke="#63b8ff" points="493.88,-31.12 490.38,-21.12 486.88,-31.12 493.88,-31.12"/>
</a>
</g>
</g>
<!-- Node8&#45;&gt;Node5 -->
<g id="edge9_Node000008_Node000005" class="edge">
<title>Node8&#45;&gt;Node5</title>
<g id="a_edge9_Node000008_Node000005"><a xlink:title=" ">
<path fill="none" stroke="#63b8ff" d="M345.44,-55.08C339.76,-47.88 331.54,-37.46 324.48,-28.51"/>
<polygon fill="#63b8ff" stroke="#63b8ff" points="327.34,-26.48 318.4,-20.8 321.84,-30.82 327.34,-26.48"/>
</a>
</g>
</g>
</g>
</svg>

<g id="navigator" transform="translate(0 0)" fill="#404254">
  <rect fill="#f2f5e9" fill-opacity="0.5" stroke="#606060" stroke-width=".5" x="0" y="0" width="60" height="60"/>
  <use id="zoomplus" xlink:href="#zoomPlus" x="17" y="9" onmousedown="handleZoom(evt,'in')"/>
  <use id="zoomminus" xlink:href="#zoomMin" x="42" y="9" onmousedown="handleZoom(evt,'out')"/>
  <use id="reset" xlink:href="#resetDef" x="30" y="36" onmousedown="handleReset()"/>
   <use id="arrowup" xlink:href="#arrowUp" x="0" y="0" onmousedown="handlePan(0,-1)"/>
  <use id="arrowright" xlink:href="#arrowRight" x="0" y="0" onmousedown="handlePan(1,0)"/>
  <use id="arrowdown" xlink:href="#arrowDown" x="0" y="0" onmousedown="handlePan(0,1)"/>
  <use id="arrowleft" xlink:href="#arrowLeft" x="0" y="0" onmousedown="handlePan(-1,0)"/>
</g>
<svg viewBox="0 0 15 15" width="100%" height="30px" preserveAspectRatio="xMaxYMin meet">
 <g id="arrow_out" transform="scale(0.3 0.3)">
  <a xlink:href="_solver_8cpp__incl_org.svg" target="_base">
   <rect id="button" ry="5" rx="5" y="6" x="6" height="38" width="38"
        fill="#f2f5e9" fill-opacity="0.5" stroke="#606060" stroke-width="1.0"/>
   <path id="arrow"
     d="M 11.500037,31.436501 C 11.940474,20.09759 22.043105,11.32322 32.158766,21.979434 L 37.068811,17.246167 C 37.068811,17.246167 37.088388,32 37.088388,32 L 22.160133,31.978069 C 22.160133,31.978069 26.997745,27.140456 26.997745,27.140456 C 18.528582,18.264221 13.291696,25.230495 11.500037,31.436501 z"
     style="fill:#404040;"/>
  </a>
 </g>
</svg>

<style type='text/css'>
<![CDATA[
[data-mouse-over-selected='false'] { opacity: 0.7; }
[data-mouse-over-selected='true']  { opacity: 1.0; }
]]>
</style>
<script type="application/ecmascript"><![CDATA[
document.addEventListener('DOMContentLoaded', (event) => {
  highlightEdges();
  highlightAdjacentNodes();
});
]]></script>
</svg>
