<?xml version="1.0" encoding="UTF-8" standalone="no"?>
<!DOCTYPE svg PUBLIC "-//W3C//DTD SVG 1.1//EN"
 "http://www.w3.org/Graphics/SVG/1.1/DTD/svg11.dtd">
<!-- Generated by graphviz version 14.0.2 (20251019.1705)
 -->
<!-- Title: include/slitherlink/io/SolutionCollector.h Pages: 1 -->
<svg width="292pt" height="216pt"
 viewBox="0.00 0.00 292.00 216.00" xmlns="http://www.w3.org/2000/svg" xmlns:xlink="http://www.w3.org/1999/xlink">

<svg id="main" version="1.1" xmlns="http://www.w3.org/2000/svg" xmlns:xlink="http://www.w3.org/1999/xlink" xml:space="preserve">

<style type="text/css"><![CDATA[
.node, .edge {opacity: 0.7;}
.node.selected, .edge.selected {opacity: 1;}
.edge:hover path { stroke: red; }
.edge:hover polygon { stroke: red; fill: red; }
]]></style>
<script type="application/ecmascript" xlink:href="svg.min.js"/>
<svg id="graph" class="graph">
<g id="graph0" class="graph" transform="scale(1 1) rotate(0) translate(4 211.5)">
<title>include/slitherlink/io/SolutionCollector.h</title>
<!-- Node1 -->
<g id="Node000001" class="node">
<title>Node1</title>
<g id="a_Node000001"><a xlink:title=" ">
<polygon fill="#999999" stroke="#666666" points="256.38,-207.5 145.12,-207.5 145.12,-177 256.38,-177 256.38,-207.5"/>
<text xml:space="preserve" text-anchor="start" x="153.12" y="-194" font-family="Helvetica,sans-Serif" font-size="10.00">include/slitherlink</text>
<text xml:space="preserve" text-anchor="middle" x="200.75" y="-182.75" font-family="Helvetica,sans-Serif" font-size="10.00">/io/SolutionCollector.h</text>
</a>
</g>
</g>
<!-- Node2 -->
<g id="Node000002" class="node">
<title>Node2</title>
<g id="a_Node000002"><a xlink:href="_i_solution_collector_8h.html" target="_top" xlink:title=" ">
<polygon fill="white" stroke="#666666" points="159.62,-141 55.88,-141 55.88,-110.5 159.62,-110.5 159.62,-141"/>
<text xml:space="preserve" text-anchor="start" x="63.88" y="-127.5" font-family="Helvetica,sans-Serif" font-size="10.00">slitherlink/interfaces</text>
<text xml:space="preserve" text-anchor="middle" x="107.75" y="-116.25" font-family="Helvetica,sans-Serif" font-size="10.00">/ISolutionCollector.h</text>
</a>
</g>
</g>
<!-- Node1&#45;&gt;Node2 -->
<g id="edge1_Node000001_Node000002" class="edge">
<title>Node1&#45;&gt;Node2</title>
<g id="a_edge1_Node000001_Node000002"><a xlink:title=" ">
<path fill="none" stroke="#63b8ff" d="M179.65,-176.61C167.4,-168.12 151.76,-157.27 138.2,-147.87"/>
<polygon fill="#63b8ff" stroke="#63b8ff" points="140.23,-145.01 130.01,-142.19 136.24,-150.77 140.23,-145.01"/>
</a>
</g>
</g>
<!-- Node6 -->
<g id="Node000006" class="node">
<title>Node6</title>
<g id="a_Node000006"><a xlink:title=" ">
<polygon fill="#e0e0e0" stroke="#999999" points="223.38,-135.38 178.12,-135.38 178.12,-116.12 223.38,-116.12 223.38,-135.38"/>
<text xml:space="preserve" text-anchor="middle" x="200.75" y="-121.88" font-family="Helvetica,sans-Serif" font-size="10.00">atomic</text>
</a>
</g>
</g>
<!-- Node1&#45;&gt;Node6 -->
<g id="edge6_Node000001_Node000006" class="edge">
<title>Node1&#45;&gt;Node6</title>
<g id="a_edge6_Node000001_Node000006"><a xlink:title=" ">
<path fill="none" stroke="#63b8ff" d="M200.75,-176.61C200.75,-167.83 200.75,-156.52 200.75,-146.9"/>
<polygon fill="#63b8ff" stroke="#63b8ff" points="204.25,-147.09 200.75,-137.09 197.25,-147.09 204.25,-147.09"/>
</a>
</g>
</g>
<!-- Node7 -->
<g id="Node000007" class="node">
<title>Node7</title>
<g id="a_Node000007"><a xlink:title=" ">
<polygon fill="#e0e0e0" stroke="#999999" points="284.25,-135.38 241.25,-135.38 241.25,-116.12 284.25,-116.12 284.25,-135.38"/>
<text xml:space="preserve" text-anchor="middle" x="262.75" y="-121.88" font-family="Helvetica,sans-Serif" font-size="10.00">mutex</text>
</a>
</g>
</g>
<!-- Node1&#45;&gt;Node7 -->
<g id="edge7_Node000001_Node000007" class="edge">
<title>Node1&#45;&gt;Node7</title>
<g id="a_edge7_Node000001_Node000007"><a xlink:title=" ">
<path fill="none" stroke="#63b8ff" d="M214.82,-176.61C224.21,-166.84 236.6,-153.95 246.43,-143.73"/>
<polygon fill="#63b8ff" stroke="#63b8ff" points="248.81,-146.3 253.22,-136.66 243.77,-141.45 248.81,-146.3"/>
</a>
</g>
</g>
<!-- Node3 -->
<g id="Node000003" class="node">
<title>Node3</title>
<g id="a_Node000003"><a xlink:href="_solution_8h.html" target="_top" xlink:title=" ">
<polygon fill="white" stroke="#666666" points="125.5,-74.5 0,-74.5 0,-55.25 125.5,-55.25 125.5,-74.5"/>
<text xml:space="preserve" text-anchor="middle" x="62.75" y="-61" font-family="Helvetica,sans-Serif" font-size="10.00">slitherlink/core/Solution.h</text>
</a>
</g>
</g>
<!-- Node2&#45;&gt;Node3 -->
<g id="edge2_Node000002_Node000003" class="edge">
<title>Node2&#45;&gt;Node3</title>
<g id="a_edge2_Node000002_Node000003"><a xlink:title=" ">
<path fill="none" stroke="#63b8ff" d="M96.63,-110.2C90.57,-102.27 83.01,-92.38 76.57,-83.96"/>
<polygon fill="#63b8ff" stroke="#63b8ff" points="79.46,-81.97 70.61,-76.15 73.9,-86.22 79.46,-81.97"/>
</a>
</g>
</g>
<!-- Node5 -->
<g id="Node000005" class="node">
<title>Node5</title>
<g id="a_Node000005"><a xlink:title=" ">
<polygon fill="#e0e0e0" stroke="#999999" points="159.25,-19.25 116.25,-19.25 116.25,0 159.25,0 159.25,-19.25"/>
<text xml:space="preserve" text-anchor="middle" x="137.75" y="-5.75" font-family="Helvetica,sans-Serif" font-size="10.00">vector</text>
</a>
</g>
</g>
<!-- Node2&#45;&gt;Node5 -->
<g id="edge5_Node000002_Node000005" class="edge">
<title>Node2&#45;&gt;Node5</title>
<g id="a_edge5_Node000002_Node000005"><a xlink:title=" ">
<path fill="none" stroke="#63b8ff" d="M117.89,-110.1C123.98,-100.46 131.21,-87.29 134.75,-74.5 138.7,-60.22 139.35,-43.46 139.06,-30.69"/>
<polygon fill="#63b8ff" stroke="#63b8ff" points="142.57,-30.84 138.62,-21.01 135.58,-31.16 142.57,-30.84"/>
</a>
</g>
</g>
<!-- Node4 -->
<g id="Node000004" class="node">
<title>Node4</title>
<g id="a_Node000004"><a xlink:title=" ">
<polygon fill="#e0e0e0" stroke="#999999" points="82.38,-19.25 43.12,-19.25 43.12,0 82.38,0 82.38,-19.25"/>
<text xml:space="preserve" text-anchor="middle" x="62.75" y="-5.75" font-family="Helvetica,sans-Serif" font-size="10.00">utility</text>
</a>
</g>
</g>
<!-- Node3&#45;&gt;Node4 -->
<g id="edge3_Node000003_Node000004" class="edge">
<title>Node3&#45;&gt;Node4</title>
<g id="a_edge3_Node000003_Node000004"><a xlink:title=" ">
<path fill="none" stroke="#63b8ff" d="M62.75,-55.08C62.75,-48.57 62.75,-39.42 62.75,-31.12"/>
<polygon fill="#63b8ff" stroke="#63b8ff" points="66.25,-31.12 62.75,-21.12 59.25,-31.12 66.25,-31.12"/>
</a>
</g>
</g>
<!-- Node3&#45;&gt;Node5 -->
<g id="edge4_Node000003_Node000005" class="edge">
<title>Node3&#45;&gt;Node5</title>
<g id="a_edge4_Node000003_Node000005"><a xlink:title=" ">
<path fill="none" stroke="#63b8ff" d="M75.47,-54.84C86.46,-47.04 102.59,-35.59 115.68,-26.29"/>
<polygon fill="#63b8ff" stroke="#63b8ff" points="117.6,-29.22 123.73,-20.58 113.55,-23.51 117.6,-29.22"/>
</a>
</g>
</g>
</g>
</svg>
</svg>

<style type='text/css'>
<![CDATA[
[data-mouse-over-selected='false'] { opacity: 0.7; }
[data-mouse-over-selected='true']  { opacity: 1.0; }
]]>
</style>
<script type="application/ecmascript"><![CDATA[
document.addEventListener('DOMContentLoaded', (event) => {
  highlightEdges();
  highlightAdjacentNodes();
});
]]></script>
</svg>
