<?xml version="1.0" encoding="UTF-8" standalone="no"?>
<!DOCTYPE svg PUBLIC "-//W3C//DTD SVG 1.1//EN"
 "http://www.w3.org/Graphics/SVG/1.1/DTD/svg11.dtd">
<!-- Generated by graphviz version 14.0.2 (20251019.1705)
 -->
<!-- Title: src/io/SolutionCollector.cpp Pages: 1 -->
<svg width="219pt" height="193pt"
 viewBox="0.00 0.00 219.00 193.00" xmlns="http://www.w3.org/2000/svg" xmlns:xlink="http://www.w3.org/1999/xlink">

<svg id="main" version="1.1" xmlns="http://www.w3.org/2000/svg" xmlns:xlink="http://www.w3.org/1999/xlink" xml:space="preserve">

<style type="text/css"><![CDATA[
.node, .edge {opacity: 0.7;}
.node.selected, .edge.selected {opacity: 1;}
.edge:hover path { stroke: red; }
.edge:hover polygon { stroke: red; fill: red; }
]]></style>
<script type="application/ecmascript" xlink:href="svg.min.js"/>
<svg id="graph" class="graph">
<g id="graph0" class="graph" transform="scale(1 1) rotate(0) translate(4 189)">
<title>src/io/SolutionCollector.cpp</title>
<!-- Node1 -->
<g id="Node000001" class="node">
<title>Node1</title>
<g id="a_Node000001"><a xlink:title=" ">
<polygon fill="#999999" stroke="#666666" points="202.12,-185 66.88,-185 66.88,-165.75 202.12,-165.75 202.12,-185"/>
<text xml:space="preserve" text-anchor="middle" x="134.5" y="-171.5" font-family="Helvetica,sans-Serif" font-size="10.00">src/io/SolutionCollector.cpp</text>
</a>
</g>
</g>
<!-- Node2 -->
<g id="Node000002" class="node">
<title>Node2</title>
<g id="a_Node000002"><a xlink:href="_solution_collector_8h.html" target="_top" xlink:title=" ">
<polygon fill="white" stroke="#666666" points="139.62,-129.75 31.38,-129.75 31.38,-110.5 139.62,-110.5 139.62,-129.75"/>
<text xml:space="preserve" text-anchor="middle" x="85.5" y="-116.25" font-family="Helvetica,sans-Serif" font-size="10.00">io/SolutionCollector.h</text>
</a>
</g>
</g>
<!-- Node1&#45;&gt;Node2 -->
<g id="edge1_Node000001_Node000002" class="edge">
<title>Node1&#45;&gt;Node2</title>
<g id="a_edge1_Node000001_Node000002"><a xlink:title=" ">
<path fill="none" stroke="#63b8ff" d="M126.41,-165.58C119.64,-158.23 109.78,-147.51 101.44,-138.44"/>
<polygon fill="#63b8ff" stroke="#63b8ff" points="104.14,-136.21 94.79,-131.22 98.99,-140.95 104.14,-136.21"/>
</a>
</g>
</g>
<!-- Node7 -->
<g id="Node000007" class="node">
<title>Node7</title>
<g id="a_Node000007"><a xlink:title=" ">
<polygon fill="#e0e0e0" stroke="#999999" points="211.25,-129.75 157.75,-129.75 157.75,-110.5 211.25,-110.5 211.25,-129.75"/>
<text xml:space="preserve" text-anchor="middle" x="184.5" y="-116.25" font-family="Helvetica,sans-Serif" font-size="10.00">iostream</text>
</a>
</g>
</g>
<!-- Node1&#45;&gt;Node7 -->
<g id="edge7_Node000001_Node000007" class="edge">
<title>Node1&#45;&gt;Node7</title>
<g id="a_edge7_Node000001_Node000007"><a xlink:title=" ">
<path fill="none" stroke="#63b8ff" d="M142.76,-165.58C149.66,-158.23 159.72,-147.51 168.24,-138.44"/>
<polygon fill="#63b8ff" stroke="#63b8ff" points="170.73,-140.9 175.03,-131.21 165.63,-136.11 170.73,-140.9"/>
</a>
</g>
</g>
<!-- Node3 -->
<g id="Node000003" class="node">
<title>Node3</title>
<g id="a_Node000003"><a xlink:href="_solution_8h.html" target="_top" xlink:title=" ">
<polygon fill="white" stroke="#666666" points="126.12,-74.5 44.88,-74.5 44.88,-55.25 126.12,-55.25 126.12,-74.5"/>
<text xml:space="preserve" text-anchor="middle" x="85.5" y="-61" font-family="Helvetica,sans-Serif" font-size="10.00">core/Solution.h</text>
</a>
</g>
</g>
<!-- Node2&#45;&gt;Node3 -->
<g id="edge2_Node000002_Node000003" class="edge">
<title>Node2&#45;&gt;Node3</title>
<g id="a_edge2_Node000002_Node000003"><a xlink:title=" ">
<path fill="none" stroke="#63b8ff" d="M85.5,-110.33C85.5,-103.82 85.5,-94.67 85.5,-86.37"/>
<polygon fill="#63b8ff" stroke="#63b8ff" points="89,-86.37 85.5,-76.37 82,-86.37 89,-86.37"/>
</a>
</g>
</g>
<!-- Node4 -->
<g id="Node000004" class="node">
<title>Node4</title>
<g id="a_Node000004"><a xlink:title=" ">
<polygon fill="#e0e0e0" stroke="#999999" points="43,-19.25 0,-19.25 0,0 43,0 43,-19.25"/>
<text xml:space="preserve" text-anchor="middle" x="21.5" y="-5.75" font-family="Helvetica,sans-Serif" font-size="10.00">vector</text>
</a>
</g>
</g>
<!-- Node2&#45;&gt;Node4 -->
<g id="edge5_Node000002_Node000004" class="edge">
<title>Node2&#45;&gt;Node4</title>
<g id="a_edge5_Node000002_Node000004"><a xlink:title=" ">
<path fill="none" stroke="#63b8ff" d="M71.41,-110.26C59.96,-102.3 44.31,-89.57 35.5,-74.5 27.69,-61.13 24.22,-43.87 22.7,-30.67"/>
<polygon fill="#63b8ff" stroke="#63b8ff" points="26.21,-30.68 21.87,-21.01 19.23,-31.28 26.21,-30.68"/>
</a>
</g>
</g>
<!-- Node6 -->
<g id="Node000006" class="node">
<title>Node6</title>
<g id="a_Node000006"><a xlink:title=" ">
<polygon fill="#e0e0e0" stroke="#999999" points="195.12,-74.5 143.88,-74.5 143.88,-55.25 195.12,-55.25 195.12,-74.5"/>
<text xml:space="preserve" text-anchor="middle" x="169.5" y="-61" font-family="Helvetica,sans-Serif" font-size="10.00">memory</text>
</a>
</g>
</g>
<!-- Node2&#45;&gt;Node6 -->
<g id="edge6_Node000002_Node000006" class="edge">
<title>Node2&#45;&gt;Node6</title>
<g id="a_edge6_Node000002_Node000006"><a xlink:title=" ">
<path fill="none" stroke="#63b8ff" d="M99.75,-110.09C112.3,-102.14 130.83,-90.39 145.64,-81"/>
<polygon fill="#63b8ff" stroke="#63b8ff" points="147.33,-84.07 153.9,-75.76 143.58,-78.16 147.33,-84.07"/>
</a>
</g>
</g>
<!-- Node3&#45;&gt;Node4 -->
<g id="edge3_Node000003_Node000004" class="edge">
<title>Node3&#45;&gt;Node4</title>
<g id="a_edge3_Node000003_Node000004"><a xlink:title=" ">
<path fill="none" stroke="#63b8ff" d="M74.64,-54.84C65.39,-47.15 51.88,-35.9 40.79,-26.68"/>
<polygon fill="#63b8ff" stroke="#63b8ff" points="43.29,-24.2 33.36,-20.49 38.81,-29.58 43.29,-24.2"/>
</a>
</g>
</g>
<!-- Node5 -->
<g id="Node000005" class="node">
<title>Node5</title>
<g id="a_Node000005"><a xlink:title=" ">
<polygon fill="#e0e0e0" stroke="#999999" points="105.12,-19.25 65.88,-19.25 65.88,0 105.12,0 105.12,-19.25"/>
<text xml:space="preserve" text-anchor="middle" x="85.5" y="-5.75" font-family="Helvetica,sans-Serif" font-size="10.00">utility</text>
</a>
</g>
</g>
<!-- Node3&#45;&gt;Node5 -->
<g id="edge4_Node000003_Node000005" class="edge">
<title>Node3&#45;&gt;Node5</title>
<g id="a_edge4_Node000003_Node000005"><a xlink:title=" ">
<path fill="none" stroke="#63b8ff" d="M85.5,-55.08C85.5,-48.57 85.5,-39.42 85.5,-31.12"/>
<polygon fill="#63b8ff" stroke="#63b8ff" points="89,-31.12 85.5,-21.12 82,-31.12 89,-31.12"/>
</a>
</g>
</g>
</g>
</svg>
</svg>

<style type='text/css'>
<![CDATA[
[data-mouse-over-selected='false'] { opacity: 0.7; }
[data-mouse-over-selected='true']  { opacity: 1.0; }
]]>
</style>
<script type="application/ecmascript"><![CDATA[
document.addEventListener('DOMContentLoaded', (event) => {
  highlightEdges();
  highlightAdjacentNodes();
});
]]></script>
</svg>
