<?xml version="1.0" encoding="UTF-8" standalone="no"?>
<!DOCTYPE svg PUBLIC "-//W3C//DTD SVG 1.1//EN"
 "http://www.w3.org/Graphics/SVG/1.1/DTD/svg11.dtd">
<!-- Generated by graphviz version 14.0.2 (20251019.1705)
 -->
<!-- Title: src/factory/SolverFactory.cpp Pages: 1 -->
<svg width="1244pt" height="337pt"
 viewBox="0.00 0.00 1244.00 337.00" xmlns="http://www.w3.org/2000/svg" xmlns:xlink="http://www.w3.org/1999/xlink">
<g id="graph0" class="graph" transform="scale(1 1) rotate(0) translate(4 333.25)">
<title>src/factory/SolverFactory.cpp</title>
<!-- Node1 -->
<g id="Node000001" class="node">
<title>Node1</title>
<g id="a_Node000001"><a xlink:title=" ">
<polygon fill="#999999" stroke="#666666" points="935.75,-329.25 792.25,-329.25 792.25,-310 935.75,-310 935.75,-329.25"/>
<text xml:space="preserve" text-anchor="middle" x="864" y="-315.75" font-family="Helvetica,sans-Serif" font-size="10.00">src/factory/SolverFactory.cpp</text>
</a>
</g>
</g>
<!-- Node2 -->
<g id="Node000002" class="node">
<title>Node2</title>
<g id="a_Node000002"><a xlink:href="_solver_factory_8h.html" target="_top" xlink:title=" ">
<polygon fill="white" stroke="#666666" points="408.12,-274 317.88,-274 317.88,-243.5 408.12,-243.5 408.12,-274"/>
<text xml:space="preserve" text-anchor="start" x="325.88" y="-260.5" font-family="Helvetica,sans-Serif" font-size="10.00">slitherlink/factory</text>
<text xml:space="preserve" text-anchor="middle" x="363" y="-249.25" font-family="Helvetica,sans-Serif" font-size="10.00">/SolverFactory.h</text>
</a>
</g>
</g>
<!-- Node1&#45;&gt;Node2 -->
<g id="edge1_Node000001_Node000002" class="edge">
<title>Node1&#45;&gt;Node2</title>
<g id="a_edge1_Node000001_Node000002"><a xlink:title=" ">
<path fill="none" stroke="#63b8ff" d="M791.95,-310.16C691.46,-298.35 511.27,-277.17 419.73,-266.42"/>
<polygon fill="#63b8ff" stroke="#63b8ff" points="420.32,-262.96 409.98,-265.27 419.51,-269.91 420.32,-262.96"/>
</a>
</g>
</g>
<!-- Node22 -->
<g id="Node000022" class="node">
<title>Node22</title>
<g id="a_Node000022"><a xlink:href="_solution_collector_8h.html" target="_top" xlink:title=" ">
<polygon fill="white" stroke="#666666" points="880.25,-201.88 727.75,-201.88 727.75,-182.62 880.25,-182.62 880.25,-201.88"/>
<text xml:space="preserve" text-anchor="middle" x="804" y="-188.38" font-family="Helvetica,sans-Serif" font-size="10.00">slitherlink/io/SolutionCollector.h</text>
</a>
</g>
</g>
<!-- Node1&#45;&gt;Node22 -->
<g id="edge32_Node000001_Node000022" class="edge">
<title>Node1&#45;&gt;Node22</title>
<g id="a_edge32_Node000001_Node000022"><a xlink:title=" ">
<path fill="none" stroke="#63b8ff" d="M859.68,-309.61C850,-289.37 826.35,-239.94 813.2,-212.47"/>
<polygon fill="#63b8ff" stroke="#63b8ff" points="816.4,-211.06 808.93,-203.55 810.09,-214.08 816.4,-211.06"/>
</a>
</g>
</g>
<!-- Node23 -->
<g id="Node000023" class="node">
<title>Node23</title>
<g id="a_Node000023"><a xlink:href="_solution_printer_8h.html" target="_top" xlink:title=" ">
<polygon fill="white" stroke="#666666" points="1083,-201.88 941,-201.88 941,-182.62 1083,-182.62 1083,-201.88"/>
<text xml:space="preserve" text-anchor="middle" x="1012" y="-188.38" font-family="Helvetica,sans-Serif" font-size="10.00">slitherlink/io/SolutionPrinter.h</text>
</a>
</g>
</g>
<!-- Node1&#45;&gt;Node23 -->
<g id="edge36_Node000001_Node000023" class="edge">
<title>Node1&#45;&gt;Node23</title>
<g id="a_edge36_Node000001_Node000023"><a xlink:title=" ">
<path fill="none" stroke="#63b8ff" d="M874.64,-309.61C899.39,-288.64 961.09,-236.38 992.69,-209.61"/>
<polygon fill="#63b8ff" stroke="#63b8ff" points="994.93,-212.3 1000.3,-203.16 990.41,-206.96 994.93,-212.3"/>
</a>
</g>
</g>
<!-- Node24 -->
<g id="Node000024" class="node">
<title>Node24</title>
<g id="a_Node000024"><a xlink:href="_graph_builder_8h.html" target="_top" xlink:title=" ">
<polygon fill="white" stroke="#666666" points="1199.25,-207.5 1112.75,-207.5 1112.75,-177 1199.25,-177 1199.25,-207.5"/>
<text xml:space="preserve" text-anchor="start" x="1120.75" y="-194" font-family="Helvetica,sans-Serif" font-size="10.00">slitherlink/solver</text>
<text xml:space="preserve" text-anchor="middle" x="1156" y="-182.75" font-family="Helvetica,sans-Serif" font-size="10.00">/GraphBuilder.h</text>
</a>
</g>
</g>
<!-- Node1&#45;&gt;Node24 -->
<g id="edge40_Node000001_Node000024" class="edge">
<title>Node1&#45;&gt;Node24</title>
<g id="a_edge40_Node000001_Node000024"><a xlink:title=" ">
<path fill="none" stroke="#63b8ff" d="M885,-309.61C932.22,-289.33 1047.64,-239.78 1111.57,-212.33"/>
<polygon fill="#63b8ff" stroke="#63b8ff" points="1112.92,-215.56 1120.73,-208.39 1110.16,-209.12 1112.92,-215.56"/>
</a>
</g>
</g>
<!-- Node3 -->
<g id="Node000003" class="node">
<title>Node3</title>
<g id="a_Node000003"><a xlink:href="_slitherlink_solver_8h.html" target="_top" xlink:title=" ">
<polygon fill="white" stroke="#666666" points="411.5,-207.5 314.5,-207.5 314.5,-177 411.5,-177 411.5,-207.5"/>
<text xml:space="preserve" text-anchor="start" x="322.5" y="-194" font-family="Helvetica,sans-Serif" font-size="10.00">slitherlink/factory</text>
<text xml:space="preserve" text-anchor="middle" x="363" y="-182.75" font-family="Helvetica,sans-Serif" font-size="10.00">/SlitherlinkSolver.h</text>
</a>
</g>
</g>
<!-- Node2&#45;&gt;Node3 -->
<g id="edge2_Node000002_Node000003" class="edge">
<title>Node2&#45;&gt;Node3</title>
<g id="a_edge2_Node000002_Node000003"><a xlink:title=" ">
<path fill="none" stroke="#63b8ff" d="M363,-243.11C363,-236.02 363,-227.29 363,-219.13"/>
<polygon fill="#63b8ff" stroke="#63b8ff" points="366.5,-219.34 363,-209.34 359.5,-219.34 366.5,-219.34"/>
</a>
</g>
</g>
<!-- Node4 -->
<g id="Node000004" class="node">
<title>Node4</title>
<g id="a_Node000004"><a xlink:href="_grid_8h.html" target="_top" xlink:title=" ">
<polygon fill="white" stroke="#666666" points="1066.12,-74.5 957.88,-74.5 957.88,-55.25 1066.12,-55.25 1066.12,-74.5"/>
<text xml:space="preserve" text-anchor="middle" x="1012" y="-61" font-family="Helvetica,sans-Serif" font-size="10.00">slitherlink/core/Grid.h</text>
</a>
</g>
</g>
<!-- Node2&#45;&gt;Node4 -->
<g id="edge27_Node000002_Node000004" class="edge">
<title>Node2&#45;&gt;Node4</title>
<g id="a_edge27_Node000002_Node000004"><a xlink:title=" ">
<path fill="none" stroke="#63b8ff" d="M408.58,-257.68C520.49,-256.83 805.71,-250.38 889,-207.5 943.39,-179.5 984.19,-116.33 1002.05,-84.69"/>
<polygon fill="#63b8ff" stroke="#63b8ff" points="1004.94,-86.7 1006.68,-76.25 998.8,-83.34 1004.94,-86.7"/>
</a>
</g>
</g>
<!-- Node12 -->
<g id="Node000012" class="node">
<title>Node12</title>
<g id="a_Node000012"><a xlink:title=" ">
<polygon fill="#e0e0e0" stroke="#999999" points="153.62,-74.5 102.38,-74.5 102.38,-55.25 153.62,-55.25 153.62,-74.5"/>
<text xml:space="preserve" text-anchor="middle" x="128" y="-61" font-family="Helvetica,sans-Serif" font-size="10.00">memory</text>
</a>
</g>
</g>
<!-- Node2&#45;&gt;Node12 -->
<g id="edge31_Node000002_Node000012" class="edge">
<title>Node2&#45;&gt;Node12</title>
<g id="a_edge31_Node000002_Node000012"><a xlink:title=" ">
<path fill="none" stroke="#63b8ff" d="M327.58,-243.12C285.78,-224.44 216.13,-188.73 170,-141 154.29,-124.74 142.48,-101.47 135.45,-85.14"/>
<polygon fill="#63b8ff" stroke="#63b8ff" points="138.77,-84.02 131.76,-76.09 132.29,-86.67 138.77,-84.02"/>
</a>
</g>
</g>
<!-- Node19 -->
<g id="Node000019" class="node">
<title>Node19</title>
<g id="a_Node000019"><a xlink:href="_config_8h.html" target="_top" xlink:title=" ">
<polygon fill="white" stroke="#666666" points="118.5,-201.88 21.5,-201.88 21.5,-182.62 118.5,-182.62 118.5,-201.88"/>
<text xml:space="preserve" text-anchor="middle" x="70" y="-188.38" font-family="Helvetica,sans-Serif" font-size="10.00">slitherlink/Config.h</text>
</a>
</g>
</g>
<!-- Node2&#45;&gt;Node19 -->
<g id="edge28_Node000002_Node000019" class="edge">
<title>Node2&#45;&gt;Node19</title>
<g id="a_edge28_Node000002_Node000019"><a xlink:title=" ">
<path fill="none" stroke="#63b8ff" d="M317.59,-247.93C271.18,-237.87 197.04,-221.74 133,-207.5 129.16,-206.65 125.19,-205.76 121.2,-204.86"/>
<polygon fill="#63b8ff" stroke="#63b8ff" points="121.98,-201.45 111.46,-202.67 120.45,-208.28 121.98,-201.45"/>
</a>
</g>
</g>
<!-- Node3&#45;&gt;Node4 -->
<g id="edge3_Node000003_Node000004" class="edge">
<title>Node3&#45;&gt;Node4</title>
<g id="a_edge3_Node000003_Node000004"><a xlink:title=" ">
<path fill="none" stroke="#63b8ff" d="M411.75,-186.37C481.72,-178.95 614.48,-163.28 726,-141 814.54,-123.31 916.42,-94.47 971.51,-78.14"/>
<polygon fill="#63b8ff" stroke="#63b8ff" points="972.18,-81.6 980.77,-75.39 970.18,-74.89 972.18,-81.6"/>
</a>
</g>
</g>
<!-- Node6 -->
<g id="Node000006" class="node">
<title>Node6</title>
<g id="a_Node000006"><a xlink:href="_solver_8h.html" target="_top" xlink:title=" ">
<polygon fill="white" stroke="#666666" points="717.25,-141 630.75,-141 630.75,-110.5 717.25,-110.5 717.25,-141"/>
<text xml:space="preserve" text-anchor="start" x="638.75" y="-127.5" font-family="Helvetica,sans-Serif" font-size="10.00">slitherlink/solver</text>
<text xml:space="preserve" text-anchor="middle" x="674" y="-116.25" font-family="Helvetica,sans-Serif" font-size="10.00">/Solver.h</text>
</a>
</g>
</g>
<!-- Node3&#45;&gt;Node6 -->
<g id="edge5_Node000003_Node000006" class="edge">
<title>Node3&#45;&gt;Node6</title>
<g id="a_edge5_Node000003_Node000006"><a xlink:title=" ">
<path fill="none" stroke="#63b8ff" d="M411.94,-181.1C468.22,-169.43 560.41,-150.31 619.1,-138.14"/>
<polygon fill="#63b8ff" stroke="#63b8ff" points="619.81,-141.56 628.89,-136.11 618.38,-134.71 619.81,-141.56"/>
</a>
</g>
</g>
<!-- Node3&#45;&gt;Node12 -->
<g id="edge25_Node000003_Node000012" class="edge">
<title>Node3&#45;&gt;Node12</title>
<g id="a_edge25_Node000003_Node000012"><a xlink:title=" ">
<path fill="none" stroke="#63b8ff" d="M314.01,-179.73C284.17,-171.5 245.97,-158.72 215,-141 187.23,-125.11 160.13,-99.66 143.74,-82.86"/>
<polygon fill="#63b8ff" stroke="#63b8ff" points="146.28,-80.45 136.85,-75.62 141.21,-85.28 146.28,-80.45"/>
</a>
</g>
</g>
<!-- Node16 -->
<g id="Node000016" class="node">
<title>Node16</title>
<g id="a_Node000016"><a xlink:href="_i_solution_collector_8h.html" target="_top" xlink:title=" ">
<polygon fill="white" stroke="#666666" points="475.88,-141 372.12,-141 372.12,-110.5 475.88,-110.5 475.88,-141"/>
<text xml:space="preserve" text-anchor="start" x="380.12" y="-127.5" font-family="Helvetica,sans-Serif" font-size="10.00">slitherlink/interfaces</text>
<text xml:space="preserve" text-anchor="middle" x="424" y="-116.25" font-family="Helvetica,sans-Serif" font-size="10.00">/ISolutionCollector.h</text>
</a>
</g>
</g>
<!-- Node3&#45;&gt;Node16 -->
<g id="edge19_Node000003_Node000016" class="edge">
<title>Node3&#45;&gt;Node16</title>
<g id="a_edge19_Node000003_Node000016"><a xlink:title=" ">
<path fill="none" stroke="#63b8ff" d="M376.84,-176.61C384.41,-168.61 393.94,-158.53 402.46,-149.53"/>
<polygon fill="#63b8ff" stroke="#63b8ff" points="404.84,-152.1 409.17,-142.43 399.76,-147.29 404.84,-152.1"/>
</a>
</g>
</g>
<!-- Node17 -->
<g id="Node000017" class="node">
<title>Node17</title>
<g id="a_Node000017"><a xlink:href="_i_solution_printer_8h.html" target="_top" xlink:title=" ">
<polygon fill="white" stroke="#666666" points="354.5,-141 251.5,-141 251.5,-110.5 354.5,-110.5 354.5,-141"/>
<text xml:space="preserve" text-anchor="start" x="259.5" y="-127.5" font-family="Helvetica,sans-Serif" font-size="10.00">slitherlink/interfaces</text>
<text xml:space="preserve" text-anchor="middle" x="303" y="-116.25" font-family="Helvetica,sans-Serif" font-size="10.00">/ISolutionPrinter.h</text>
</a>
</g>
</g>
<!-- Node3&#45;&gt;Node17 -->
<g id="edge22_Node000003_Node000017" class="edge">
<title>Node3&#45;&gt;Node17</title>
<g id="a_edge22_Node000003_Node000017"><a xlink:title=" ">
<path fill="none" stroke="#63b8ff" d="M349.39,-176.61C341.94,-168.61 332.56,-158.53 324.19,-149.53"/>
<polygon fill="#63b8ff" stroke="#63b8ff" points="326.97,-147.37 317.59,-142.44 321.84,-152.14 326.97,-147.37"/>
</a>
</g>
</g>
<!-- Node18 -->
<g id="Node000018" class="node">
<title>Node18</title>
<g id="a_Node000018"><a xlink:title=" ">
<polygon fill="#e0e0e0" stroke="#999999" points="222.62,-74.5 171.38,-74.5 171.38,-55.25 222.62,-55.25 222.62,-74.5"/>
<text xml:space="preserve" text-anchor="middle" x="197" y="-61" font-family="Helvetica,sans-Serif" font-size="10.00">ostream</text>
</a>
</g>
</g>
<!-- Node3&#45;&gt;Node18 -->
<g id="edge26_Node000003_Node000018" class="edge">
<title>Node3&#45;&gt;Node18</title>
<g id="a_edge26_Node000003_Node000018"><a xlink:title=" ">
<path fill="none" stroke="#63b8ff" d="M314.21,-178.51C290.76,-170.59 263.4,-158.5 243,-141 225.27,-125.79 212.32,-101.99 204.76,-85.26"/>
<polygon fill="#63b8ff" stroke="#63b8ff" points="208.12,-84.22 200.99,-76.39 201.68,-86.96 208.12,-84.22"/>
</a>
</g>
</g>
<!-- Node5 -->
<g id="Node000005" class="node">
<title>Node5</title>
<g id="a_Node000005"><a xlink:title=" ">
<polygon fill="#e0e0e0" stroke="#999999" points="780.5,-19.25 737.5,-19.25 737.5,0 780.5,0 780.5,-19.25"/>
<text xml:space="preserve" text-anchor="middle" x="759" y="-5.75" font-family="Helvetica,sans-Serif" font-size="10.00">vector</text>
</a>
</g>
</g>
<!-- Node4&#45;&gt;Node5 -->
<g id="edge4_Node000004_Node000005" class="edge">
<title>Node4&#45;&gt;Node5</title>
<g id="a_edge4_Node000004_Node000005"><a xlink:title=" ">
<path fill="none" stroke="#63b8ff" d="M968.8,-54.78C918.79,-44.26 837.51,-27.15 792.2,-17.61"/>
<polygon fill="#63b8ff" stroke="#63b8ff" points="792.95,-14.19 782.45,-15.56 791.51,-21.04 792.95,-14.19"/>
</a>
</g>
</g>
<!-- Node6&#45;&gt;Node4 -->
<g id="edge7_Node000006_Node000004" class="edge">
<title>Node6&#45;&gt;Node4</title>
<g id="a_edge7_Node000006_Node000004"><a xlink:title=" ">
<path fill="none" stroke="#63b8ff" d="M717.5,-117.17C776.15,-106.96 881.01,-88.69 948.49,-76.94"/>
<polygon fill="#63b8ff" stroke="#63b8ff" points="949.06,-80.39 958.32,-75.23 947.86,-73.49 949.06,-80.39"/>
</a>
</g>
</g>
<!-- Node6&#45;&gt;Node5 -->
<g id="edge16_Node000006_Node000005" class="edge">
<title>Node6&#45;&gt;Node5</title>
<g id="a_edge16_Node000006_Node000005"><a xlink:title=" ">
<path fill="none" stroke="#63b8ff" d="M675.03,-110.18C676.73,-95.18 681.2,-71.72 693,-55.25 702.09,-42.56 715.99,-32.39 728.69,-24.98"/>
<polygon fill="#63b8ff" stroke="#63b8ff" points="730.07,-28.21 737.18,-20.36 726.72,-22.07 730.07,-28.21"/>
</a>
</g>
</g>
<!-- Node7 -->
<g id="Node000007" class="node">
<title>Node7</title>
<g id="a_Node000007"><a xlink:href="_edge_8h.html" target="_top" xlink:title=" ">
<polygon fill="white" stroke="#666666" points="1197.38,-74.5 1084.62,-74.5 1084.62,-55.25 1197.38,-55.25 1197.38,-74.5"/>
<text xml:space="preserve" text-anchor="middle" x="1141" y="-61" font-family="Helvetica,sans-Serif" font-size="10.00">slitherlink/core/Edge.h</text>
</a>
</g>
</g>
<!-- Node6&#45;&gt;Node7 -->
<g id="edge6_Node000006_Node000007" class="edge">
<title>Node6&#45;&gt;Node7</title>
<g id="a_edge6_Node000006_Node000007"><a xlink:title=" ">
<path fill="none" stroke="#63b8ff" d="M717.62,-119.36C789.35,-110.48 936.98,-92.14 1073.42,-74.7"/>
<polygon fill="#63b8ff" stroke="#63b8ff" points="1073.5,-78.21 1082.98,-73.47 1072.61,-71.27 1073.5,-78.21"/>
</a>
</g>
</g>
<!-- Node8 -->
<g id="Node000008" class="node">
<title>Node8</title>
<g id="a_Node000008"><a xlink:href="_solution_8h.html" target="_top" xlink:title=" ">
<polygon fill="white" stroke="#666666" points="365.75,-74.5 240.25,-74.5 240.25,-55.25 365.75,-55.25 365.75,-74.5"/>
<text xml:space="preserve" text-anchor="middle" x="303" y="-61" font-family="Helvetica,sans-Serif" font-size="10.00">slitherlink/core/Solution.h</text>
</a>
</g>
</g>
<!-- Node6&#45;&gt;Node8 -->
<g id="edge8_Node000006_Node000008" class="edge">
<title>Node6&#45;&gt;Node8</title>
<g id="a_edge8_Node000006_Node000008"><a xlink:title=" ">
<path fill="none" stroke="#63b8ff" d="M630.35,-117.82C566.58,-107.7 447.34,-88.78 371.73,-76.78"/>
<polygon fill="#63b8ff" stroke="#63b8ff" points="372.36,-73.34 361.94,-75.23 371.27,-80.25 372.36,-73.34"/>
</a>
</g>
</g>
<!-- Node10 -->
<g id="Node000010" class="node">
<title>Node10</title>
<g id="a_Node000010"><a xlink:href="_state_8h.html" target="_top" xlink:title=" ">
<polygon fill="white" stroke="#666666" points="815.75,-74.5 702.25,-74.5 702.25,-55.25 815.75,-55.25 815.75,-74.5"/>
<text xml:space="preserve" text-anchor="middle" x="759" y="-61" font-family="Helvetica,sans-Serif" font-size="10.00">slitherlink/core/State.h</text>
</a>
</g>
</g>
<!-- Node6&#45;&gt;Node10 -->
<g id="edge11_Node000006_Node000010" class="edge">
<title>Node6&#45;&gt;Node10</title>
<g id="a_edge11_Node000006_Node000010"><a xlink:title=" ">
<path fill="none" stroke="#63b8ff" d="M695.01,-110.2C707.7,-101.4 723.87,-90.21 736.77,-81.27"/>
<polygon fill="#63b8ff" stroke="#63b8ff" points="738.42,-84.38 744.65,-75.81 734.44,-78.63 738.42,-84.38"/>
</a>
</g>
</g>
<!-- Node11 -->
<g id="Node000011" class="node">
<title>Node11</title>
<g id="a_Node000011"><a xlink:title=" ">
<polygon fill="#e0e0e0" stroke="#999999" points="878.62,-74.5 833.38,-74.5 833.38,-55.25 878.62,-55.25 878.62,-74.5"/>
<text xml:space="preserve" text-anchor="middle" x="856" y="-61" font-family="Helvetica,sans-Serif" font-size="10.00">atomic</text>
</a>
</g>
</g>
<!-- Node6&#45;&gt;Node11 -->
<g id="edge13_Node000006_Node000011" class="edge">
<title>Node6&#45;&gt;Node11</title>
<g id="a_edge13_Node000006_Node000011"><a xlink:title=" ">
<path fill="none" stroke="#63b8ff" d="M717.59,-110.65C749.86,-100.21 793.15,-86.21 822.67,-76.66"/>
<polygon fill="#63b8ff" stroke="#63b8ff" points="823.38,-80.1 831.82,-73.7 821.23,-73.44 823.38,-80.1"/>
</a>
</g>
</g>
<!-- Node6&#45;&gt;Node12 -->
<g id="edge14_Node000006_Node000012" class="edge">
<title>Node6&#45;&gt;Node12</title>
<g id="a_edge14_Node000006_Node000012"><a xlink:title=" ">
<path fill="none" stroke="#63b8ff" d="M630.32,-121.31C527.44,-113.09 271.17,-91.81 165.17,-74.77"/>
<polygon fill="#63b8ff" stroke="#63b8ff" points="165.84,-71.33 155.39,-73.12 164.67,-78.24 165.84,-71.33"/>
</a>
</g>
</g>
<!-- Node13 -->
<g id="Node000013" class="node">
<title>Node13</title>
<g id="a_Node000013"><a xlink:title=" ">
<polygon fill="#e0e0e0" stroke="#999999" points="939.5,-74.5 896.5,-74.5 896.5,-55.25 939.5,-55.25 939.5,-74.5"/>
<text xml:space="preserve" text-anchor="middle" x="918" y="-61" font-family="Helvetica,sans-Serif" font-size="10.00">mutex</text>
</a>
</g>
</g>
<!-- Node6&#45;&gt;Node13 -->
<g id="edge15_Node000006_Node000013" class="edge">
<title>Node6&#45;&gt;Node13</title>
<g id="a_edge15_Node000006_Node000013"><a xlink:title=" ">
<path fill="none" stroke="#63b8ff" d="M717.6,-115.17C758.58,-106.03 821.89,-91.52 885.11,-75.17"/>
<polygon fill="#63b8ff" stroke="#63b8ff" points="885.82,-78.6 894.61,-72.69 884.06,-71.83 885.82,-78.6"/>
</a>
</g>
</g>
<!-- Node14 -->
<g id="Node000014" class="node">
<title>Node14</title>
<g id="a_Node000014"><a xlink:title=" ">
<polygon fill="#e0e0e0" stroke="#999999" points="646,-74.5 528,-74.5 528,-55.25 646,-55.25 646,-74.5"/>
<text xml:space="preserve" text-anchor="middle" x="587" y="-61" font-family="Helvetica,sans-Serif" font-size="10.00">tbb/concurrent_vector.h</text>
</a>
</g>
</g>
<!-- Node6&#45;&gt;Node14 -->
<g id="edge17_Node000006_Node000014" class="edge">
<title>Node6&#45;&gt;Node14</title>
<g id="a_edge17_Node000006_Node000014"><a xlink:title=" ">
<path fill="none" stroke="#63b8ff" d="M652.49,-110.2C639.5,-101.4 622.96,-90.21 609.75,-81.27"/>
<polygon fill="#63b8ff" stroke="#63b8ff" points="611.91,-78.51 601.67,-75.8 607.99,-84.3 611.91,-78.51"/>
</a>
</g>
</g>
<!-- Node15 -->
<g id="Node000015" class="node">
<title>Node15</title>
<g id="a_Node000015"><a xlink:title=" ">
<polygon fill="#e0e0e0" stroke="#999999" points="510.38,-74.5 421.62,-74.5 421.62,-55.25 510.38,-55.25 510.38,-74.5"/>
<text xml:space="preserve" text-anchor="middle" x="466" y="-61" font-family="Helvetica,sans-Serif" font-size="10.00">tbb/task_arena.h</text>
</a>
</g>
</g>
<!-- Node6&#45;&gt;Node15 -->
<g id="edge18_Node000006_Node000015" class="edge">
<title>Node6&#45;&gt;Node15</title>
<g id="a_edge18_Node000006_Node000015"><a xlink:title=" ">
<path fill="none" stroke="#63b8ff" d="M630.4,-112.41C594.71,-102.31 544.5,-88.1 508.98,-78.04"/>
<polygon fill="#63b8ff" stroke="#63b8ff" points="510.04,-74.7 499.46,-75.35 508.13,-81.44 510.04,-74.7"/>
</a>
</g>
</g>
<!-- Node8&#45;&gt;Node5 -->
<g id="edge10_Node000008_Node000005" class="edge">
<title>Node8&#45;&gt;Node5</title>
<g id="a_edge10_Node000008_Node000005"><a xlink:title=" ">
<path fill="none" stroke="#63b8ff" d="M365.93,-56.53C464.26,-45.04 650.88,-23.25 726.23,-14.45"/>
<polygon fill="#63b8ff" stroke="#63b8ff" points="726.31,-17.97 735.83,-13.33 725.5,-11.01 726.31,-17.97"/>
</a>
</g>
</g>
<!-- Node9 -->
<g id="Node000009" class="node">
<title>Node9</title>
<g id="a_Node000009"><a xlink:title=" ">
<polygon fill="#e0e0e0" stroke="#999999" points="322.62,-19.25 283.38,-19.25 283.38,0 322.62,0 322.62,-19.25"/>
<text xml:space="preserve" text-anchor="middle" x="303" y="-5.75" font-family="Helvetica,sans-Serif" font-size="10.00">utility</text>
</a>
</g>
</g>
<!-- Node8&#45;&gt;Node9 -->
<g id="edge9_Node000008_Node000009" class="edge">
<title>Node8&#45;&gt;Node9</title>
<g id="a_edge9_Node000008_Node000009"><a xlink:title=" ">
<path fill="none" stroke="#63b8ff" d="M303,-55.08C303,-48.57 303,-39.42 303,-31.12"/>
<polygon fill="#63b8ff" stroke="#63b8ff" points="306.5,-31.12 303,-21.12 299.5,-31.12 306.5,-31.12"/>
</a>
</g>
</g>
<!-- Node10&#45;&gt;Node5 -->
<g id="edge12_Node000010_Node000005" class="edge">
<title>Node10&#45;&gt;Node5</title>
<g id="a_edge12_Node000010_Node000005"><a xlink:title=" ">
<path fill="none" stroke="#63b8ff" d="M759,-55.08C759,-48.57 759,-39.42 759,-31.12"/>
<polygon fill="#63b8ff" stroke="#63b8ff" points="762.5,-31.12 759,-21.12 755.5,-31.12 762.5,-31.12"/>
</a>
</g>
</g>
<!-- Node16&#45;&gt;Node5 -->
<g id="edge21_Node000016_Node000005" class="edge">
<title>Node16&#45;&gt;Node5</title>
<g id="a_edge21_Node000016_Node000005"><a xlink:title=" ">
<path fill="none" stroke="#63b8ff" d="M415.63,-110.1C408.01,-94.59 399.77,-70.3 413,-55.25 433.49,-31.95 642.94,-17.35 725.66,-12.46"/>
<polygon fill="#63b8ff" stroke="#63b8ff" points="725.83,-15.96 735.62,-11.88 725.43,-8.97 725.83,-15.96"/>
</a>
</g>
</g>
<!-- Node16&#45;&gt;Node8 -->
<g id="edge20_Node000016_Node000008" class="edge">
<title>Node16&#45;&gt;Node8</title>
<g id="a_edge20_Node000016_Node000008"><a xlink:title=" ">
<path fill="none" stroke="#63b8ff" d="M393.78,-110.05C374.82,-100.82 350.52,-89 331.83,-79.9"/>
<polygon fill="#63b8ff" stroke="#63b8ff" points="333.44,-76.79 322.92,-75.57 330.38,-83.09 333.44,-76.79"/>
</a>
</g>
</g>
<!-- Node17&#45;&gt;Node8 -->
<g id="edge23_Node000017_Node000008" class="edge">
<title>Node17&#45;&gt;Node8</title>
<g id="a_edge23_Node000017_Node000008"><a xlink:title=" ">
<path fill="none" stroke="#63b8ff" d="M303,-110.2C303,-102.96 303,-94.09 303,-86.19"/>
<polygon fill="#63b8ff" stroke="#63b8ff" points="306.5,-86.46 303,-76.46 299.5,-86.46 306.5,-86.46"/>
</a>
</g>
</g>
<!-- Node17&#45;&gt;Node18 -->
<g id="edge24_Node000017_Node000018" class="edge">
<title>Node17&#45;&gt;Node18</title>
<g id="a_edge24_Node000017_Node000018"><a xlink:title=" ">
<path fill="none" stroke="#63b8ff" d="M276.53,-110.05C260.23,-100.99 239.42,-89.44 223.18,-80.41"/>
<polygon fill="#63b8ff" stroke="#63b8ff" points="225.02,-77.43 214.58,-75.64 221.62,-83.55 225.02,-77.43"/>
</a>
</g>
</g>
<!-- Node20 -->
<g id="Node000020" class="node">
<title>Node20</title>
<g id="a_Node000020"><a xlink:title=" ">
<polygon fill="#e0e0e0" stroke="#999999" points="40,-135.38 0,-135.38 0,-116.12 40,-116.12 40,-135.38"/>
<text xml:space="preserve" text-anchor="middle" x="20" y="-121.88" font-family="Helvetica,sans-Serif" font-size="10.00">string</text>
</a>
</g>
</g>
<!-- Node19&#45;&gt;Node20 -->
<g id="edge29_Node000019_Node000020" class="edge">
<title>Node19&#45;&gt;Node20</title>
<g id="a_edge29_Node000019_Node000020"><a xlink:title=" ">
<path fill="none" stroke="#63b8ff" d="M63.05,-182.28C55.51,-172.56 43.29,-156.79 33.79,-144.53"/>
<polygon fill="#63b8ff" stroke="#63b8ff" points="36.71,-142.6 27.82,-136.84 31.18,-146.89 36.71,-142.6"/>
</a>
</g>
</g>
<!-- Node21 -->
<g id="Node000021" class="node">
<title>Node21</title>
<g id="a_Node000021"><a xlink:title=" ">
<polygon fill="#e0e0e0" stroke="#999999" points="106.12,-135.38 57.88,-135.38 57.88,-116.12 106.12,-116.12 106.12,-135.38"/>
<text xml:space="preserve" text-anchor="middle" x="82" y="-121.88" font-family="Helvetica,sans-Serif" font-size="10.00">cstddef</text>
</a>
</g>
</g>
<!-- Node19&#45;&gt;Node21 -->
<g id="edge30_Node000019_Node000021" class="edge">
<title>Node19&#45;&gt;Node21</title>
<g id="a_edge30_Node000019_Node000021"><a xlink:title=" ">
<path fill="none" stroke="#63b8ff" d="M71.67,-182.28C73.37,-173.14 76.07,-158.64 78.28,-146.75"/>
<polygon fill="#63b8ff" stroke="#63b8ff" points="81.68,-147.6 80.07,-137.13 74.8,-146.32 81.68,-147.6"/>
</a>
</g>
</g>
<!-- Node22&#45;&gt;Node11 -->
<g id="edge34_Node000022_Node000011" class="edge">
<title>Node22&#45;&gt;Node11</title>
<g id="a_edge34_Node000022_Node000011"><a xlink:title=" ">
<path fill="none" stroke="#63b8ff" d="M807.74,-182.23C816.13,-161.99 836.63,-112.57 848.03,-85.09"/>
<polygon fill="#63b8ff" stroke="#63b8ff" points="851.12,-86.79 851.71,-76.21 844.65,-84.1 851.12,-86.79"/>
</a>
</g>
</g>
<!-- Node22&#45;&gt;Node13 -->
<g id="edge35_Node000022_Node000013" class="edge">
<title>Node22&#45;&gt;Node13</title>
<g id="a_edge35_Node000022_Node000013"><a xlink:title=" ">
<path fill="none" stroke="#63b8ff" d="M812.2,-182.23C831.01,-161.54 877.56,-110.35 902.17,-83.29"/>
<polygon fill="#63b8ff" stroke="#63b8ff" points="904.72,-85.68 908.86,-75.93 899.54,-80.97 904.72,-85.68"/>
</a>
</g>
</g>
<!-- Node22&#45;&gt;Node16 -->
<g id="edge33_Node000022_Node000016" class="edge">
<title>Node22&#45;&gt;Node16</title>
<g id="a_edge33_Node000022_Node000016"><a xlink:title=" ">
<path fill="none" stroke="#63b8ff" d="M750.36,-182.15C681.09,-170.39 560.69,-149.95 487.1,-137.46"/>
<polygon fill="#63b8ff" stroke="#63b8ff" points="488.08,-134.08 477.64,-135.85 486.91,-140.98 488.08,-134.08"/>
</a>
</g>
</g>
<!-- Node23&#45;&gt;Node4 -->
<g id="edge38_Node000023_Node000004" class="edge">
<title>Node23&#45;&gt;Node4</title>
<g id="a_edge38_Node000023_Node000004"><a xlink:title=" ">
<path fill="none" stroke="#63b8ff" d="M1012,-182.23C1012,-162.26 1012,-113.89 1012,-86.21"/>
<polygon fill="#63b8ff" stroke="#63b8ff" points="1015.5,-86.32 1012,-76.32 1008.5,-86.32 1015.5,-86.32"/>
</a>
</g>
</g>
<!-- Node23&#45;&gt;Node5 -->
<g id="edge39_Node000023_Node000005" class="edge">
<title>Node23&#45;&gt;Node5</title>
<g id="a_edge39_Node000023_Node000005"><a xlink:title=" ">
<path fill="none" stroke="#63b8ff" d="M1018.88,-182.38C1032.1,-165.92 1062.71,-130.5 1096,-110.5 1142.9,-82.33 1242.71,-95.81 1206,-55.25 1178.3,-24.65 890.81,-14.14 792.08,-11.42"/>
<polygon fill="#63b8ff" stroke="#63b8ff" points="792.34,-7.93 782.25,-11.16 792.16,-14.93 792.34,-7.93"/>
</a>
</g>
</g>
<!-- Node23&#45;&gt;Node17 -->
<g id="edge37_Node000023_Node000017" class="edge">
<title>Node23&#45;&gt;Node17</title>
<g id="a_edge37_Node000023_Node000017"><a xlink:title=" ">
<path fill="none" stroke="#63b8ff" d="M940.51,-182.39C923.64,-180.46 905.7,-178.54 889,-177 659.31,-155.85 596.62,-175.56 366.04,-141.31"/>
<polygon fill="#63b8ff" stroke="#63b8ff" points="366.84,-137.89 356.43,-139.86 365.8,-144.81 366.84,-137.89"/>
</a>
</g>
</g>
<!-- Node24&#45;&gt;Node4 -->
<g id="edge42_Node000024_Node000004" class="edge">
<title>Node24&#45;&gt;Node4</title>
<g id="a_edge42_Node000024_Node000004"><a xlink:title=" ">
<path fill="none" stroke="#63b8ff" d="M1138.28,-176.67C1126.27,-166.72 1110.07,-153.18 1096,-141 1073.03,-121.12 1047.03,-97.72 1030.12,-82.39"/>
<polygon fill="#63b8ff" stroke="#63b8ff" points="1032.61,-79.92 1022.86,-75.79 1027.9,-85.1 1032.61,-79.92"/>
</a>
</g>
</g>
<!-- Node24&#45;&gt;Node5 -->
<g id="edge45_Node000024_Node000005" class="edge">
<title>Node24&#45;&gt;Node5</title>
<g id="a_edge45_Node000024_Node000005"><a xlink:title=" ">
<path fill="none" stroke="#63b8ff" d="M1193.2,-176.58C1208.4,-168.51 1224.41,-156.86 1233,-141 1242.11,-124.18 1226.54,-57.63 1224,-55.25 1192.57,-25.82 893.29,-14.51 792.18,-11.51"/>
<polygon fill="#63b8ff" stroke="#63b8ff" points="792.47,-8.01 782.38,-11.23 792.27,-15.01 792.47,-8.01"/>
</a>
</g>
</g>
<!-- Node24&#45;&gt;Node7 -->
<g id="edge41_Node000024_Node000007" class="edge">
<title>Node24&#45;&gt;Node7</title>
<g id="a_edge41_Node000024_Node000007"><a xlink:title=" ">
<path fill="none" stroke="#63b8ff" d="M1183.09,-176.59C1195.9,-168.06 1209.92,-156.01 1217,-141 1222.78,-128.74 1223.73,-122.26 1217,-110.5 1208.99,-96.5 1194.69,-86.47 1180.64,-79.5"/>
<polygon fill="#63b8ff" stroke="#63b8ff" points="1182.48,-76.49 1171.92,-75.58 1179.61,-82.88 1182.48,-76.49"/>
</a>
</g>
</g>
<!-- Node25 -->
<g id="Node000025" class="node">
<title>Node25</title>
<g id="a_Node000025"><a xlink:href="_i_graph_builder_8h.html" target="_top" xlink:title=" ">
<polygon fill="white" stroke="#666666" points="1207.5,-141 1104.5,-141 1104.5,-110.5 1207.5,-110.5 1207.5,-141"/>
<text xml:space="preserve" text-anchor="start" x="1112.5" y="-127.5" font-family="Helvetica,sans-Serif" font-size="10.00">slitherlink/interfaces</text>
<text xml:space="preserve" text-anchor="middle" x="1156" y="-116.25" font-family="Helvetica,sans-Serif" font-size="10.00">/IGraphBuilder.h</text>
</a>
</g>
</g>
<!-- Node24&#45;&gt;Node25 -->
<g id="edge43_Node000024_Node000025" class="edge">
<title>Node24&#45;&gt;Node25</title>
<g id="a_edge43_Node000024_Node000025"><a xlink:title=" ">
<path fill="none" stroke="#63b8ff" d="M1156,-176.61C1156,-169.52 1156,-160.79 1156,-152.63"/>
<polygon fill="#63b8ff" stroke="#63b8ff" points="1159.5,-152.84 1156,-142.84 1152.5,-152.84 1159.5,-152.84"/>
</a>
</g>
</g>
<!-- Node25&#45;&gt;Node4 -->
<g id="edge44_Node000025_Node000004" class="edge">
<title>Node25&#45;&gt;Node4</title>
<g id="a_edge44_Node000025_Node000004"><a xlink:title=" ">
<path fill="none" stroke="#63b8ff" d="M1120.03,-110.05C1096.84,-100.56 1066.92,-88.33 1044.45,-79.14"/>
<polygon fill="#63b8ff" stroke="#63b8ff" points="1046.07,-76.02 1035.48,-75.48 1043.42,-82.5 1046.07,-76.02"/>
</a>
</g>
</g>
</g>
</svg>
