<?xml version="1.0" encoding="UTF-8" standalone="no"?>
<!DOCTYPE svg PUBLIC "-//W3C//DTD SVG 1.1//EN"
 "http://www.w3.org/Graphics/SVG/1.1/DTD/svg11.dtd">
<!-- Generated by graphviz version 14.0.2 (20251019.1705)
 -->
<!-- Title: include/core/State.h Pages: 1 -->
<!--zoomable 337 -->

<svg id="main" version="1.1" xmlns="http://www.w3.org/2000/svg" xmlns:xlink="http://www.w3.org/1999/xlink" xml:space="preserve" onload="init(evt)">

<style type="text/css"><![CDATA[
.node, .edge {opacity: 0.7;}
.node.selected, .edge.selected {opacity: 1;}
.edge:hover path { stroke: red; }
.edge:hover polygon { stroke: red; fill: red; }
]]></style>

<defs>
  <circle id="rim" cx="0" cy="0" r="7"/>
  <circle id="rim2" cx="0" cy="0" r="3.5"/>
  <g id="zoomPlus">
    <use xlink:href="#rim" fill="#404040"><set attributeName="fill" to="#808080" begin="zoomplus.mouseover" end="zoomplus.mouseout"/></use>
    <path d="M-4,0h8M0,-4v8" fill="none" stroke="white" stroke-width="1.5" pointer-events="none"/>
  </g>
  <g id="zoomMin">
    <use xlink:href="#rim" fill="#404040"><set attributeName="fill" to="#808080" begin="zoomminus.mouseover" end="zoomminus.mouseout"/></use>
    <path d="M-4,0h8" fill="none" stroke="white" stroke-width="1.5" pointer-events="none"/>
  </g>
  <g id="arrowUp" transform="translate(30 24)">
    <use xlink:href="#rim"/>
    <path pointer-events="none" fill="none" stroke="white" stroke-width="1.5" d="M0,-3.0v7 M-2.5,-0.5L0,-3.0L2.5,-0.5"/>
  </g>
  <g id="arrowRight" transform="rotate(90) translate(36 -43)">
    <use xlink:href="#rim"/>
    <path pointer-events="none" fill="none" stroke="white" stroke-width="1.5" d="M0,-3.0v7 M-2.5,-0.5L0,-3.0L2.5,-0.5"/>
  </g>
  <g id="arrowDown" transform="rotate(180) translate(-30 -48)">
    <use xlink:href="#rim"/>
    <path pointer-events="none" fill="none" stroke="white" stroke-width="1.5" d="M0,-3.0v7 M-2.5,-0.5L0,-3.0L2.5,-0.5"/>
  </g>
  <g id="arrowLeft" transform="rotate(270) translate(-36 17)">
    <use xlink:href="#rim"/>
    <path pointer-events="none" fill="none" stroke="white" stroke-width="1.5" d="M0,-3.0v7 M-2.5,-0.5L0,-3.0L2.5,-0.5"/>
  </g>
  <g id="resetDef">
    <use xlink:href="#rim2" fill="#404040"><set attributeName="fill" to="#808080" begin="reset.mouseover" end="reset.mouseout"/></use>
  </g>
</defs>
<script type="application/ecmascript">
var viewWidth = 787;
var viewHeight = 337;
var sectionId = 'dynsection-1';
</script>
<script type="application/ecmascript" xlink:href="svg.min.js"/>
<svg id="graph" class="graph">
<g id="viewport">
<title>include/core/State.h</title>
<!-- Node1 -->
<g id="Node000001" class="node">
<title>Node1</title>
<g id="a_Node000001"><a xlink:title=" ">
<polygon fill="#999999" stroke="#666666" points="552.38,-329.25 449.38,-329.25 449.38,-310 552.38,-310 552.38,-329.25"/>
<text xml:space="preserve" text-anchor="middle" x="500.88" y="-315.75" font-family="Helvetica,sans-Serif" font-size="10.00">include/core/State.h</text>
</a>
</g>
</g>
<!-- Node2 -->
<g id="Node000002" class="node">
<title>Node2</title>
<g id="a_Node000002"><a xlink:href="_i_heuristic_8h.html" target="_top" xlink:title=" ">
<polygon fill="white" stroke="#666666" points="325.12,-274 232.62,-274 232.62,-243.5 325.12,-243.5 325.12,-274"/>
<text xml:space="preserve" text-anchor="start" x="240.62" y="-260.5" font-family="Helvetica,sans-Serif" font-size="10.00">include/interfaces</text>
<text xml:space="preserve" text-anchor="middle" x="278.88" y="-249.25" font-family="Helvetica,sans-Serif" font-size="10.00">/IHeuristic.h</text>
</a>
</g>
</g>
<!-- Node1&#45;&gt;Node2 -->
<g id="edge1_Node000001_Node000002" class="edge">
<title>Node1&#45;&gt;Node2</title>
<g id="a_edge1_Node000001_Node000002"><a xlink:title=" ">
<path fill="none" stroke="#63b8ff" d="M455.94,-306.71C418.01,-296.65 363.89,-282.3 325.49,-272.11"/>
<polygon fill="#63b8ff" stroke="#63b8ff" points="454.65,-309.99 465.21,-309.17 456.44,-303.22 454.65,-309.99"/>
</a>
</g>
</g>
<!-- Node5 -->
<g id="Node000005" class="node">
<title>Node5</title>
<g id="a_Node000005"><a xlink:href="_solver_8h.html" target="_top" xlink:title=" ">
<polygon fill="white" stroke="#666666" points="410,-201.88 295.75,-201.88 295.75,-182.62 410,-182.62 410,-201.88"/>
<text xml:space="preserve" text-anchor="middle" x="352.88" y="-188.38" font-family="Helvetica,sans-Serif" font-size="10.00">include/solver/Solver.h</text>
</a>
</g>
</g>
<!-- Node1&#45;&gt;Node5 -->
<g id="edge19_Node000001_Node000005" class="edge">
<title>Node1&#45;&gt;Node5</title>
<g id="a_edge19_Node000001_Node000005"><a xlink:title=" ">
<path fill="none" stroke="#63b8ff" d="M437.95,-310.01C414.21,-303.71 388.88,-292.83 371.88,-274 353.44,-253.58 351.94,-218.68 352.36,-202.28"/>
<polygon fill="#63b8ff" stroke="#63b8ff" points="437.05,-313.39 447.59,-312.31 438.68,-306.58 437.05,-313.39"/>
</a>
</g>
</g>
<!-- Node11 -->
<g id="Node000011" class="node">
<title>Node11</title>
<g id="a_Node000011"><a xlink:href="_i_propagator_8h.html" target="_top" xlink:title=" ">
<polygon fill="white" stroke="#666666" points="473.12,-274 380.62,-274 380.62,-243.5 473.12,-243.5 473.12,-274"/>
<text xml:space="preserve" text-anchor="start" x="388.62" y="-260.5" font-family="Helvetica,sans-Serif" font-size="10.00">include/interfaces</text>
<text xml:space="preserve" text-anchor="middle" x="426.88" y="-249.25" font-family="Helvetica,sans-Serif" font-size="10.00">/IPropagator.h</text>
</a>
</g>
</g>
<!-- Node1&#45;&gt;Node11 -->
<g id="edge10_Node000001_Node000011" class="edge">
<title>Node1&#45;&gt;Node11</title>
<g id="a_edge10_Node000001_Node000011"><a xlink:title=" ">
<path fill="none" stroke="#63b8ff" d="M480.68,-302.56C469.58,-293.73 455.92,-282.86 445.14,-274.28"/>
<polygon fill="#63b8ff" stroke="#63b8ff" points="478.45,-305.25 488.45,-308.74 482.81,-299.78 478.45,-305.25"/>
</a>
</g>
</g>
<!-- Node12 -->
<g id="Node000012" class="node">
<title>Node12</title>
<g id="a_Node000012"><a xlink:href="_optimized_propagator_8h.html" target="_top" xlink:title=" ">
<polygon fill="white" stroke="#666666" points="557.5,-207.5 434.25,-207.5 434.25,-177 557.5,-177 557.5,-207.5"/>
<text xml:space="preserve" text-anchor="start" x="442.25" y="-194" font-family="Helvetica,sans-Serif" font-size="10.00">include/solver/Optimized</text>
<text xml:space="preserve" text-anchor="middle" x="495.88" y="-182.75" font-family="Helvetica,sans-Serif" font-size="10.00">Propagator.h</text>
</a>
</g>
</g>
<!-- Node1&#45;&gt;Node12 -->
<g id="edge18_Node000001_Node000012" class="edge">
<title>Node1&#45;&gt;Node12</title>
<g id="a_edge18_Node000001_Node000012"><a xlink:title=" ">
<path fill="none" stroke="#63b8ff" d="M500.07,-298.44C499.06,-273.07 497.35,-230.17 496.46,-207.8"/>
<polygon fill="#63b8ff" stroke="#63b8ff" points="496.56,-298.24 500.46,-308.1 503.55,-297.96 496.56,-298.24"/>
</a>
</g>
</g>
<!-- Node14 -->
<g id="Node000014" class="node">
<title>Node14</title>
<g id="a_Node000014"><a xlink:href="_i_validator_8h.html" target="_top" xlink:title=" ">
<polygon fill="white" stroke="#666666" points="621.12,-274 528.62,-274 528.62,-243.5 621.12,-243.5 621.12,-274"/>
<text xml:space="preserve" text-anchor="start" x="536.62" y="-260.5" font-family="Helvetica,sans-Serif" font-size="10.00">include/interfaces</text>
<text xml:space="preserve" text-anchor="middle" x="574.88" y="-249.25" font-family="Helvetica,sans-Serif" font-size="10.00">/IValidator.h</text>
</a>
</g>
</g>
<!-- Node1&#45;&gt;Node14 -->
<g id="edge14_Node000001_Node000014" class="edge">
<title>Node1&#45;&gt;Node14</title>
<g id="a_edge14_Node000001_Node000014"><a xlink:title=" ">
<path fill="none" stroke="#63b8ff" d="M521.07,-302.56C532.17,-293.73 545.83,-282.86 556.61,-274.28"/>
<polygon fill="#63b8ff" stroke="#63b8ff" points="518.94,-299.78 513.3,-308.74 523.3,-305.25 518.94,-299.78"/>
</a>
</g>
</g>
<!-- Node15 -->
<g id="Node000015" class="node">
<title>Node15</title>
<g id="a_Node000015"><a xlink:href="_standard_validator_8h.html" target="_top" xlink:title=" ">
<polygon fill="white" stroke="#666666" points="738.38,-201.88 575.38,-201.88 575.38,-182.62 738.38,-182.62 738.38,-201.88"/>
<text xml:space="preserve" text-anchor="middle" x="656.88" y="-188.38" font-family="Helvetica,sans-Serif" font-size="10.00">include/solver/StandardValidator.h</text>
</a>
</g>
</g>
<!-- Node1&#45;&gt;Node15 -->
<g id="edge20_Node000001_Node000015" class="edge">
<title>Node1&#45;&gt;Node15</title>
<g id="a_edge20_Node000001_Node000015"><a xlink:title=" ">
<path fill="none" stroke="#63b8ff" d="M563.8,-308.96C587.17,-302.52 612.25,-291.81 629.88,-274 649.74,-253.93 654.99,-218.86 656.38,-202.34"/>
<polygon fill="#63b8ff" stroke="#63b8ff" points="563.18,-305.51 554.34,-311.34 564.89,-312.3 563.18,-305.51"/>
</a>
</g>
</g>
<!-- Node17 -->
<g id="Node000017" class="node">
<title>Node17</title>
<g id="a_Node000017"><a xlink:href="_state_8cpp.html" target="_top" xlink:title=" ">
<polygon fill="white" stroke="#666666" points="773,-268.38 676.75,-268.38 676.75,-249.12 773,-249.12 773,-268.38"/>
<text xml:space="preserve" text-anchor="middle" x="724.88" y="-254.88" font-family="Helvetica,sans-Serif" font-size="10.00">src/core/State.cpp</text>
</a>
</g>
</g>
<!-- Node1&#45;&gt;Node17 -->
<g id="edge21_Node000001_Node000017" class="edge">
<title>Node1&#45;&gt;Node17</title>
<g id="a_edge21_Node000001_Node000017"><a xlink:title=" ">
<path fill="none" stroke="#63b8ff" d="M546.29,-306.69C588.89,-295.49 651.67,-278.99 690.33,-268.83"/>
<polygon fill="#63b8ff" stroke="#63b8ff" points="545.63,-303.24 536.85,-309.17 547.41,-310.01 545.63,-303.24"/>
</a>
</g>
</g>
<!-- Node3 -->
<g id="Node000003" class="node">
<title>Node3</title>
<g id="a_Node000003"><a xlink:href="_smart_heuristic_8h.html" target="_top" xlink:title=" ">
<polygon fill="white" stroke="#666666" points="214.12,-201.88 61.62,-201.88 61.62,-182.62 214.12,-182.62 214.12,-201.88"/>
<text xml:space="preserve" text-anchor="middle" x="137.88" y="-188.38" font-family="Helvetica,sans-Serif" font-size="10.00">include/solver/SmartHeuristic.h</text>
</a>
</g>
</g>
<!-- Node2&#45;&gt;Node3 -->
<g id="edge2_Node000002_Node000003" class="edge">
<title>Node2&#45;&gt;Node3</title>
<g id="a_edge2_Node000002_Node000003"><a xlink:title=" ">
<path fill="none" stroke="#63b8ff" d="M236.46,-238.35C210.27,-226.37 177.91,-211.56 157.57,-202.26"/>
<polygon fill="#63b8ff" stroke="#63b8ff" points="234.95,-241.51 245.5,-242.48 237.87,-235.14 234.95,-241.51"/>
</a>
</g>
</g>
<!-- Node2&#45;&gt;Node5 -->
<g id="edge4_Node000002_Node000005" class="edge">
<title>Node2&#45;&gt;Node5</title>
<g id="a_edge4_Node000002_Node000005"><a xlink:title=" ">
<path fill="none" stroke="#63b8ff" d="M303.98,-235.87C317.25,-224.3 332.81,-210.74 342.75,-202.07"/>
<polygon fill="#63b8ff" stroke="#63b8ff" points="302.05,-232.91 296.81,-242.12 306.65,-238.19 302.05,-232.91"/>
</a>
</g>
</g>
<!-- Node4 -->
<g id="Node000004" class="node">
<title>Node4</title>
<g id="a_Node000004"><a xlink:href="_smart_heuristic_8cpp.html" target="_top" xlink:title=" ">
<polygon fill="white" stroke="#666666" points="145.75,-135.38 0,-135.38 0,-116.12 145.75,-116.12 145.75,-135.38"/>
<text xml:space="preserve" text-anchor="middle" x="72.88" y="-121.88" font-family="Helvetica,sans-Serif" font-size="10.00">src/solver/SmartHeuristic.cpp</text>
</a>
</g>
</g>
<!-- Node3&#45;&gt;Node4 -->
<g id="edge3_Node000003_Node000004" class="edge">
<title>Node3&#45;&gt;Node4</title>
<g id="a_edge3_Node000003_Node000004"><a xlink:title=" ">
<path fill="none" stroke="#63b8ff" d="M120.95,-174.45C108.44,-162.04 91.89,-145.62 81.84,-135.64"/>
<polygon fill="#63b8ff" stroke="#63b8ff" points="118.2,-176.66 127.76,-181.22 123.13,-171.69 118.2,-176.66"/>
</a>
</g>
</g>
<!-- Node6 -->
<g id="Node000006" class="node">
<title>Node6</title>
<g id="a_Node000006"><a xlink:href="_slitherlink_solver_8h.html" target="_top" xlink:title=" ">
<polygon fill="white" stroke="#666666" points="415.62,-141 290.12,-141 290.12,-110.5 415.62,-110.5 415.62,-141"/>
<text xml:space="preserve" text-anchor="start" x="298.12" y="-127.5" font-family="Helvetica,sans-Serif" font-size="10.00">include/factory/Slitherlink</text>
<text xml:space="preserve" text-anchor="middle" x="352.88" y="-116.25" font-family="Helvetica,sans-Serif" font-size="10.00">Solver.h</text>
</a>
</g>
</g>
<!-- Node5&#45;&gt;Node6 -->
<g id="edge5_Node000005_Node000006" class="edge">
<title>Node5&#45;&gt;Node6</title>
<g id="a_edge5_Node000005_Node000006"><a xlink:title=" ">
<path fill="none" stroke="#63b8ff" d="M352.88,-170.87C352.88,-161.19 352.88,-149.85 352.88,-141.09"/>
<polygon fill="#63b8ff" stroke="#63b8ff" points="349.38,-170.77 352.88,-180.77 356.38,-170.77 349.38,-170.77"/>
</a>
</g>
</g>
<!-- Node10 -->
<g id="Node000010" class="node">
<title>Node10</title>
<g id="a_Node000010"><a xlink:href="_solver_8cpp.html" target="_top" xlink:title=" ">
<polygon fill="white" stroke="#666666" points="271.62,-135.38 164.12,-135.38 164.12,-116.12 271.62,-116.12 271.62,-135.38"/>
<text xml:space="preserve" text-anchor="middle" x="217.88" y="-121.88" font-family="Helvetica,sans-Serif" font-size="10.00">src/solver/Solver.cpp</text>
</a>
</g>
</g>
<!-- Node5&#45;&gt;Node10 -->
<g id="edge9_Node000005_Node000010" class="edge">
<title>Node5&#45;&gt;Node10</title>
<g id="a_edge9_Node000005_Node000010"><a xlink:title=" ">
<path fill="none" stroke="#63b8ff" d="M323.67,-177.3C297.34,-164.72 259.4,-146.59 236.83,-135.81"/>
<polygon fill="#63b8ff" stroke="#63b8ff" points="321.92,-180.34 332.45,-181.49 324.94,-174.02 321.92,-180.34"/>
</a>
</g>
</g>
<!-- Node7 -->
<g id="Node000007" class="node">
<title>Node7</title>
<g id="a_Node000007"><a xlink:href="_solver_factory_8h.html" target="_top" xlink:title=" ">
<polygon fill="white" stroke="#666666" points="343,-74.5 192.75,-74.5 192.75,-55.25 343,-55.25 343,-74.5"/>
<text xml:space="preserve" text-anchor="middle" x="267.88" y="-61" font-family="Helvetica,sans-Serif" font-size="10.00">include/factory/SolverFactory.h</text>
</a>
</g>
</g>
<!-- Node6&#45;&gt;Node7 -->
<g id="edge6_Node000006_Node000007" class="edge">
<title>Node6&#45;&gt;Node7</title>
<g id="a_edge6_Node000006_Node000007"><a xlink:title=" ">
<path fill="none" stroke="#63b8ff" d="M322.42,-103.65C308.19,-93.8 292,-82.58 280.98,-74.95"/>
<polygon fill="#63b8ff" stroke="#63b8ff" points="320.41,-106.52 330.62,-109.33 324.39,-100.76 320.41,-106.52"/>
</a>
</g>
</g>
<!-- Node9 -->
<g id="Node000009" class="node">
<title>Node9</title>
<g id="a_Node000009"><a xlink:href="_slitherlink_solver_8cpp.html" target="_top" xlink:title=" ">
<polygon fill="white" stroke="#666666" points="514.88,-74.5 360.88,-74.5 360.88,-55.25 514.88,-55.25 514.88,-74.5"/>
<text xml:space="preserve" text-anchor="middle" x="437.88" y="-61" font-family="Helvetica,sans-Serif" font-size="10.00">src/factory/SlitherlinkSolver.cpp</text>
</a>
</g>
</g>
<!-- Node6&#45;&gt;Node9 -->
<g id="edge8_Node000006_Node000009" class="edge">
<title>Node6&#45;&gt;Node9</title>
<g id="a_edge8_Node000006_Node000009"><a xlink:title=" ">
<path fill="none" stroke="#63b8ff" d="M383.33,-103.65C397.56,-93.8 413.75,-82.58 424.77,-74.95"/>
<polygon fill="#63b8ff" stroke="#63b8ff" points="381.36,-100.76 375.13,-109.33 385.34,-106.52 381.36,-100.76"/>
</a>
</g>
</g>
<!-- Node8 -->
<g id="Node000008" class="node">
<title>Node8</title>
<g id="a_Node000008"><a xlink:href="_solver_factory_8cpp.html" target="_top" xlink:title=" ">
<polygon fill="white" stroke="#666666" points="339.62,-19.25 196.12,-19.25 196.12,0 339.62,0 339.62,-19.25"/>
<text xml:space="preserve" text-anchor="middle" x="267.88" y="-5.75" font-family="Helvetica,sans-Serif" font-size="10.00">src/factory/SolverFactory.cpp</text>
</a>
</g>
</g>
<!-- Node7&#45;&gt;Node8 -->
<g id="edge7_Node000007_Node000008" class="edge">
<title>Node7&#45;&gt;Node8</title>
<g id="a_edge7_Node000007_Node000008"><a xlink:title=" ">
<path fill="none" stroke="#63b8ff" d="M267.88,-43.63C267.88,-35.34 267.88,-26.17 267.88,-19.61"/>
<polygon fill="#63b8ff" stroke="#63b8ff" points="264.38,-43.57 267.88,-53.57 271.38,-43.57 264.38,-43.57"/>
</a>
</g>
</g>
<!-- Node11&#45;&gt;Node5 -->
<g id="edge13_Node000011_Node000005" class="edge">
<title>Node11&#45;&gt;Node5</title>
<g id="a_edge13_Node000011_Node000005"><a xlink:title=" ">
<path fill="none" stroke="#63b8ff" d="M401.77,-235.87C388.5,-224.3 372.94,-210.74 363,-202.07"/>
<polygon fill="#63b8ff" stroke="#63b8ff" points="399.1,-238.19 408.94,-242.12 403.7,-232.91 399.1,-238.19"/>
</a>
</g>
</g>
<!-- Node11&#45;&gt;Node12 -->
<g id="edge11_Node000011_Node000012" class="edge">
<title>Node11&#45;&gt;Node12</title>
<g id="a_edge11_Node000011_Node000012"><a xlink:title=" ">
<path fill="none" stroke="#63b8ff" d="M450.72,-235.46C460.5,-226.32 471.56,-215.98 480.28,-207.83"/>
<polygon fill="#63b8ff" stroke="#63b8ff" points="448.55,-232.69 443.64,-242.08 453.33,-237.81 448.55,-232.69"/>
</a>
</g>
</g>
<!-- Node13 -->
<g id="Node000013" class="node">
<title>Node13</title>
<g id="a_Node000013"><a xlink:href="_optimized_propagator_8cpp.html" target="_top" xlink:title=" ">
<polygon fill="white" stroke="#666666" points="604.5,-135.38 433.25,-135.38 433.25,-116.12 604.5,-116.12 604.5,-135.38"/>
<text xml:space="preserve" text-anchor="middle" x="518.88" y="-121.88" font-family="Helvetica,sans-Serif" font-size="10.00">src/solver/OptimizedPropagator.cpp</text>
</a>
</g>
</g>
<!-- Node12&#45;&gt;Node13 -->
<g id="edge12_Node000012_Node000013" class="edge">
<title>Node12&#45;&gt;Node13</title>
<g id="a_edge12_Node000012_Node000013"><a xlink:title=" ">
<path fill="none" stroke="#63b8ff" d="M504.87,-166.02C508.71,-155.26 512.93,-143.41 515.73,-135.57"/>
<polygon fill="#63b8ff" stroke="#63b8ff" points="501.66,-164.59 501.6,-175.19 508.26,-166.94 501.66,-164.59"/>
</a>
</g>
</g>
<!-- Node14&#45;&gt;Node5 -->
<g id="edge15_Node000014_Node000005" class="edge">
<title>Node14&#45;&gt;Node5</title>
<g id="a_edge15_Node000014_Node000005"><a xlink:title=" ">
<path fill="none" stroke="#63b8ff" d="M517.29,-241.02C474.75,-228.66 418.47,-212.31 384.01,-202.3"/>
<polygon fill="#63b8ff" stroke="#63b8ff" points="516.3,-244.38 526.88,-243.81 518.26,-237.66 516.3,-244.38"/>
</a>
</g>
</g>
<!-- Node14&#45;&gt;Node15 -->
<g id="edge16_Node000014_Node000015" class="edge">
<title>Node14&#45;&gt;Node15</title>
<g id="a_edge16_Node000014_Node000015"><a xlink:title=" ">
<path fill="none" stroke="#63b8ff" d="M602.27,-236.2C617.07,-224.56 634.54,-210.82 645.66,-202.07"/>
<polygon fill="#63b8ff" stroke="#63b8ff" points="600.37,-233.24 594.67,-242.18 604.7,-238.75 600.37,-233.24"/>
</a>
</g>
</g>
<!-- Node16 -->
<g id="Node000016" class="node">
<title>Node16</title>
<g id="a_Node000016"><a xlink:href="_standard_validator_8cpp.html" target="_top" xlink:title=" ">
<polygon fill="white" stroke="#666666" points="779,-135.38 622.75,-135.38 622.75,-116.12 779,-116.12 779,-135.38"/>
<text xml:space="preserve" text-anchor="middle" x="700.88" y="-121.88" font-family="Helvetica,sans-Serif" font-size="10.00">src/solver/StandardValidator.cpp</text>
</a>
</g>
</g>
<!-- Node15&#45;&gt;Node16 -->
<g id="edge17_Node000015_Node000016" class="edge">
<title>Node15&#45;&gt;Node16</title>
<g id="a_edge17_Node000015_Node000016"><a xlink:title=" ">
<path fill="none" stroke="#63b8ff" d="M669.32,-173C677.66,-160.79 688.26,-145.24 694.81,-135.64"/>
<polygon fill="#63b8ff" stroke="#63b8ff" points="666.59,-170.8 663.85,-181.03 672.37,-174.74 666.59,-170.8"/>
</a>
</g>
</g>
</g>
</svg>

<g id="navigator" transform="translate(0 0)" fill="#404254">
  <rect fill="#f2f5e9" fill-opacity="0.5" stroke="#606060" stroke-width=".5" x="0" y="0" width="60" height="60"/>
  <use id="zoomplus" xlink:href="#zoomPlus" x="17" y="9" onmousedown="handleZoom(evt,'in')"/>
  <use id="zoomminus" xlink:href="#zoomMin" x="42" y="9" onmousedown="handleZoom(evt,'out')"/>
  <use id="reset" xlink:href="#resetDef" x="30" y="36" onmousedown="handleReset()"/>
   <use id="arrowup" xlink:href="#arrowUp" x="0" y="0" onmousedown="handlePan(0,-1)"/>
  <use id="arrowright" xlink:href="#arrowRight" x="0" y="0" onmousedown="handlePan(1,0)"/>
  <use id="arrowdown" xlink:href="#arrowDown" x="0" y="0" onmousedown="handlePan(0,1)"/>
  <use id="arrowleft" xlink:href="#arrowLeft" x="0" y="0" onmousedown="handlePan(-1,0)"/>
</g>
<svg viewBox="0 0 15 15" width="100%" height="30px" preserveAspectRatio="xMaxYMin meet">
 <g id="arrow_out" transform="scale(0.3 0.3)">
  <a xlink:href="_state_8h__dep__incl_org.svg" target="_base">
   <rect id="button" ry="5" rx="5" y="6" x="6" height="38" width="38"
        fill="#f2f5e9" fill-opacity="0.5" stroke="#606060" stroke-width="1.0"/>
   <path id="arrow"
     d="M 11.500037,31.436501 C 11.940474,20.09759 22.043105,11.32322 32.158766,21.979434 L 37.068811,17.246167 C 37.068811,17.246167 37.088388,32 37.088388,32 L 22.160133,31.978069 C 22.160133,31.978069 26.997745,27.140456 26.997745,27.140456 C 18.528582,18.264221 13.291696,25.230495 11.500037,31.436501 z"
     style="fill:#404040;"/>
  </a>
 </g>
</svg>

<style type='text/css'>
<![CDATA[
[data-mouse-over-selected='false'] { opacity: 0.7; }
[data-mouse-over-selected='true']  { opacity: 1.0; }
]]>
</style>
<script type="application/ecmascript"><![CDATA[
document.addEventListener('DOMContentLoaded', (event) => {
  highlightEdges();
  highlightAdjacentNodes();
});
]]></script>
</svg>
