<?xml version="1.0" encoding="UTF-8" standalone="no"?>
<!DOCTYPE svg PUBLIC "-//W3C//DTD SVG 1.1//EN"
 "http://www.w3.org/Graphics/SVG/1.1/DTD/svg11.dtd">
<!-- Generated by graphviz version 14.0.2 (20251019.1705)
 -->
<!-- Title: include/slitherlink/core/State.h Pages: 1 -->
<!--zoomable 305 -->

<svg id="main" version="1.1" xmlns="http://www.w3.org/2000/svg" xmlns:xlink="http://www.w3.org/1999/xlink" xml:space="preserve" onload="init(evt)">

<style type="text/css"><![CDATA[
.node, .edge {opacity: 0.7;}
.node.selected, .edge.selected {opacity: 1;}
.edge:hover path { stroke: red; }
.edge:hover polygon { stroke: red; fill: red; }
]]></style>

<defs>
  <circle id="rim" cx="0" cy="0" r="7"/>
  <circle id="rim2" cx="0" cy="0" r="3.5"/>
  <g id="zoomPlus">
    <use xlink:href="#rim" fill="#404040"><set attributeName="fill" to="#808080" begin="zoomplus.mouseover" end="zoomplus.mouseout"/></use>
    <path d="M-4,0h8M0,-4v8" fill="none" stroke="white" stroke-width="1.5" pointer-events="none"/>
  </g>
  <g id="zoomMin">
    <use xlink:href="#rim" fill="#404040"><set attributeName="fill" to="#808080" begin="zoomminus.mouseover" end="zoomminus.mouseout"/></use>
    <path d="M-4,0h8" fill="none" stroke="white" stroke-width="1.5" pointer-events="none"/>
  </g>
  <g id="arrowUp" transform="translate(30 24)">
    <use xlink:href="#rim"/>
    <path pointer-events="none" fill="none" stroke="white" stroke-width="1.5" d="M0,-3.0v7 M-2.5,-0.5L0,-3.0L2.5,-0.5"/>
  </g>
  <g id="arrowRight" transform="rotate(90) translate(36 -43)">
    <use xlink:href="#rim"/>
    <path pointer-events="none" fill="none" stroke="white" stroke-width="1.5" d="M0,-3.0v7 M-2.5,-0.5L0,-3.0L2.5,-0.5"/>
  </g>
  <g id="arrowDown" transform="rotate(180) translate(-30 -48)">
    <use xlink:href="#rim"/>
    <path pointer-events="none" fill="none" stroke="white" stroke-width="1.5" d="M0,-3.0v7 M-2.5,-0.5L0,-3.0L2.5,-0.5"/>
  </g>
  <g id="arrowLeft" transform="rotate(270) translate(-36 17)">
    <use xlink:href="#rim"/>
    <path pointer-events="none" fill="none" stroke="white" stroke-width="1.5" d="M0,-3.0v7 M-2.5,-0.5L0,-3.0L2.5,-0.5"/>
  </g>
  <g id="resetDef">
    <use xlink:href="#rim2" fill="#404040"><set attributeName="fill" to="#808080" begin="reset.mouseover" end="reset.mouseout"/></use>
  </g>
</defs>
<script type="application/ecmascript">
var viewWidth = 651;
var viewHeight = 305;
var sectionId = 'dynsection-1';
</script>
<script type="application/ecmascript" xlink:href="svg.min.js"/>
<svg id="graph" class="graph">
<g id="viewport">
<title>include/slitherlink/core/State.h</title>
<!-- Node1 -->
<g id="Node000001" class="node">
<title>Node1</title>
<g id="a_Node000001"><a xlink:title=" ">
<polygon fill="#999999" stroke="#666666" points="294.25,-296.5 203.25,-296.5 203.25,-266 294.25,-266 294.25,-296.5"/>
<text xml:space="preserve" text-anchor="start" x="211.25" y="-283" font-family="Helvetica,sans-Serif" font-size="10.00">include/slitherlink</text>
<text xml:space="preserve" text-anchor="middle" x="248.75" y="-271.75" font-family="Helvetica,sans-Serif" font-size="10.00">/core/State.h</text>
</a>
</g>
</g>
<!-- Node2 -->
<g id="Node000002" class="node">
<title>Node2</title>
<g id="a_Node000002"><a xlink:href="_i_constraint_propagator_8h.html" target="_top" xlink:title=" ">
<polygon fill="white" stroke="#666666" points="167.5,-230 0,-230 0,-199.5 167.5,-199.5 167.5,-230"/>
<text xml:space="preserve" text-anchor="start" x="8" y="-216.5" font-family="Helvetica,sans-Serif" font-size="10.00">include/slitherlink</text>
<text xml:space="preserve" text-anchor="middle" x="83.75" y="-205.25" font-family="Helvetica,sans-Serif" font-size="10.00">/interfaces/IConstraintPropagator.h</text>
</a>
</g>
</g>
<!-- Node1&#45;&gt;Node2 -->
<g id="edge1_Node000001_Node000002" class="edge">
<title>Node1&#45;&gt;Node2</title>
<g id="a_edge1_Node000001_Node000002"><a xlink:title=" ">
<path fill="none" stroke="#63b8ff" d="M200.82,-261.51C175.51,-251.62 144.9,-239.65 121.33,-230.44"/>
<polygon fill="#63b8ff" stroke="#63b8ff" points="199.31,-264.68 209.9,-265.06 201.86,-258.16 199.31,-264.68"/>
</a>
</g>
</g>
<!-- Node4 -->
<g id="Node000004" class="node">
<title>Node4</title>
<g id="a_Node000004"><a xlink:href="_i_heuristic_8h.html" target="_top" xlink:title=" ">
<polygon fill="white" stroke="#666666" points="306.25,-230 191.25,-230 191.25,-199.5 306.25,-199.5 306.25,-230"/>
<text xml:space="preserve" text-anchor="start" x="199.25" y="-216.5" font-family="Helvetica,sans-Serif" font-size="10.00">include/slitherlink</text>
<text xml:space="preserve" text-anchor="middle" x="248.75" y="-205.25" font-family="Helvetica,sans-Serif" font-size="10.00">/interfaces/IHeuristic.h</text>
</a>
</g>
</g>
<!-- Node1&#45;&gt;Node4 -->
<g id="edge3_Node000001_Node000004" class="edge">
<title>Node1&#45;&gt;Node4</title>
<g id="a_edge3_Node000001_Node000004"><a xlink:title=" ">
<path fill="none" stroke="#63b8ff" d="M248.75,-254.31C248.75,-246.14 248.75,-237.41 248.75,-230.33"/>
<polygon fill="#63b8ff" stroke="#63b8ff" points="245.25,-254.1 248.75,-264.1 252.25,-254.1 245.25,-254.1"/>
</a>
</g>
</g>
<!-- Node6 -->
<g id="Node000006" class="node">
<title>Node6</title>
<g id="a_Node000006"><a xlink:href="_solver_8h.html" target="_top" xlink:title=" ">
<polygon fill="white" stroke="#666666" points="456.25,-230 365.25,-230 365.25,-199.5 456.25,-199.5 456.25,-230"/>
<text xml:space="preserve" text-anchor="start" x="373.25" y="-216.5" font-family="Helvetica,sans-Serif" font-size="10.00">include/slitherlink</text>
<text xml:space="preserve" text-anchor="middle" x="410.75" y="-205.25" font-family="Helvetica,sans-Serif" font-size="10.00">/solver/Solver.h</text>
</a>
</g>
</g>
<!-- Node1&#45;&gt;Node6 -->
<g id="edge5_Node000001_Node000006" class="edge">
<title>Node1&#45;&gt;Node6</title>
<g id="a_edge5_Node000001_Node000006"><a xlink:title=" ">
<path fill="none" stroke="#63b8ff" d="M296.14,-261.38C320.93,-251.51 350.82,-239.61 373.86,-230.44"/>
<polygon fill="#63b8ff" stroke="#63b8ff" points="294.91,-258.1 286.92,-265.05 297.5,-264.61 294.91,-258.1"/>
</a>
</g>
</g>
<!-- Node3 -->
<g id="Node000003" class="node">
<title>Node3</title>
<g id="a_Node000003"><a xlink:href="_constraint_propagator_8h.html" target="_top" xlink:title=" ">
<polygon fill="white" stroke="#666666" points="151.75,-163.5 3.75,-163.5 3.75,-133 151.75,-133 151.75,-163.5"/>
<text xml:space="preserve" text-anchor="start" x="11.75" y="-150" font-family="Helvetica,sans-Serif" font-size="10.00">include/slitherlink</text>
<text xml:space="preserve" text-anchor="middle" x="77.75" y="-138.75" font-family="Helvetica,sans-Serif" font-size="10.00">/solver/ConstraintPropagator.h</text>
</a>
</g>
</g>
<!-- Node2&#45;&gt;Node3 -->
<g id="edge2_Node000002_Node000003" class="edge">
<title>Node2&#45;&gt;Node3</title>
<g id="a_edge2_Node000002_Node000003"><a xlink:title=" ">
<path fill="none" stroke="#63b8ff" d="M81.34,-187.81C80.58,-179.64 79.77,-170.91 79.11,-163.83"/>
<polygon fill="#63b8ff" stroke="#63b8ff" points="77.84,-187.97 82.25,-197.61 84.81,-187.33 77.84,-187.97"/>
</a>
</g>
</g>
<!-- Node5 -->
<g id="Node000005" class="node">
<title>Node5</title>
<g id="a_Node000005"><a xlink:href="_edge_selection_heuristic_8h.html" target="_top" xlink:title=" ">
<polygon fill="white" stroke="#666666" points="328,-163.5 169.5,-163.5 169.5,-133 328,-133 328,-163.5"/>
<text xml:space="preserve" text-anchor="start" x="177.5" y="-150" font-family="Helvetica,sans-Serif" font-size="10.00">include/slitherlink</text>
<text xml:space="preserve" text-anchor="middle" x="248.75" y="-138.75" font-family="Helvetica,sans-Serif" font-size="10.00">/solver/EdgeSelectionHeuristic.h</text>
</a>
</g>
</g>
<!-- Node4&#45;&gt;Node5 -->
<g id="edge4_Node000004_Node000005" class="edge">
<title>Node4&#45;&gt;Node5</title>
<g id="a_edge4_Node000004_Node000005"><a xlink:title=" ">
<path fill="none" stroke="#63b8ff" d="M248.75,-187.81C248.75,-179.64 248.75,-170.91 248.75,-163.83"/>
<polygon fill="#63b8ff" stroke="#63b8ff" points="245.25,-187.6 248.75,-197.6 252.25,-187.6 245.25,-187.6"/>
</a>
</g>
</g>
<!-- Node7 -->
<g id="Node000007" class="node">
<title>Node7</title>
<g id="a_Node000007"><a xlink:href="_slitherlink_solver_8h.html" target="_top" xlink:title=" ">
<polygon fill="white" stroke="#666666" points="475.75,-163.5 345.75,-163.5 345.75,-133 475.75,-133 475.75,-163.5"/>
<text xml:space="preserve" text-anchor="start" x="353.75" y="-150" font-family="Helvetica,sans-Serif" font-size="10.00">include/slitherlink</text>
<text xml:space="preserve" text-anchor="middle" x="410.75" y="-138.75" font-family="Helvetica,sans-Serif" font-size="10.00">/factory/SlitherlinkSolver.h</text>
</a>
</g>
</g>
<!-- Node6&#45;&gt;Node7 -->
<g id="edge6_Node000006_Node000007" class="edge">
<title>Node6&#45;&gt;Node7</title>
<g id="a_edge6_Node000006_Node000007"><a xlink:title=" ">
<path fill="none" stroke="#63b8ff" d="M410.75,-187.81C410.75,-179.64 410.75,-170.91 410.75,-163.83"/>
<polygon fill="#63b8ff" stroke="#63b8ff" points="407.25,-187.6 410.75,-197.6 414.25,-187.6 407.25,-187.6"/>
</a>
</g>
</g>
<!-- Node13 -->
<g id="Node000013" class="node">
<title>Node13</title>
<g id="a_Node000013"><a xlink:href="_solver_8cpp.html" target="_top" xlink:title=" ">
<polygon fill="white" stroke="#666666" points="601.5,-157.88 494,-157.88 494,-138.62 601.5,-138.62 601.5,-157.88"/>
<text xml:space="preserve" text-anchor="middle" x="547.75" y="-144.38" font-family="Helvetica,sans-Serif" font-size="10.00">src/solver/Solver.cpp</text>
</a>
</g>
</g>
<!-- Node6&#45;&gt;Node13 -->
<g id="edge13_Node000006_Node000013" class="edge">
<title>Node6&#45;&gt;Node13</title>
<g id="a_edge13_Node000006_Node000013"><a xlink:title=" ">
<path fill="none" stroke="#63b8ff" d="M451.97,-194.35C477.41,-182.37 508.85,-167.56 528.61,-158.26"/>
<polygon fill="#63b8ff" stroke="#63b8ff" points="450.76,-191.04 443.21,-198.47 453.75,-197.38 450.76,-191.04"/>
</a>
</g>
</g>
<!-- Node8 -->
<g id="Node000008" class="node">
<title>Node8</title>
<g id="a_Node000008"><a xlink:href="_slitherlink_8h.html" target="_top" xlink:title=" ">
<polygon fill="white" stroke="#666666" points="333.25,-30.5 242.25,-30.5 242.25,0 333.25,0 333.25,-30.5"/>
<text xml:space="preserve" text-anchor="start" x="250.25" y="-17" font-family="Helvetica,sans-Serif" font-size="10.00">include/slitherlink</text>
<text xml:space="preserve" text-anchor="middle" x="287.75" y="-5.75" font-family="Helvetica,sans-Serif" font-size="10.00">/Slitherlink.h</text>
</a>
</g>
</g>
<!-- Node7&#45;&gt;Node8 -->
<g id="edge7_Node000007_Node000008" class="edge">
<title>Node7&#45;&gt;Node8</title>
<g id="a_edge7_Node000007_Node000008"><a xlink:title=" ">
<path fill="none" stroke="#63b8ff" d="M377.18,-126.36C365.25,-118.05 352.2,-107.88 341.75,-97 322,-76.45 304.79,-47.84 295.38,-30.77"/>
<polygon fill="#63b8ff" stroke="#63b8ff" points="374.93,-129.06 385.18,-131.75 378.84,-123.26 374.93,-129.06"/>
</a>
</g>
</g>
<!-- Node9 -->
<g id="Node000009" class="node">
<title>Node9</title>
<g id="a_Node000009"><a xlink:href="_solver_factory_8h.html" target="_top" xlink:title=" ">
<polygon fill="white" stroke="#666666" points="470.5,-97 351,-97 351,-66.5 470.5,-66.5 470.5,-97"/>
<text xml:space="preserve" text-anchor="start" x="359" y="-83.5" font-family="Helvetica,sans-Serif" font-size="10.00">include/slitherlink</text>
<text xml:space="preserve" text-anchor="middle" x="410.75" y="-72.25" font-family="Helvetica,sans-Serif" font-size="10.00">/factory/SolverFactory.h</text>
</a>
</g>
</g>
<!-- Node7&#45;&gt;Node9 -->
<g id="edge8_Node000007_Node000009" class="edge">
<title>Node7&#45;&gt;Node9</title>
<g id="a_edge8_Node000007_Node000009"><a xlink:title=" ">
<path fill="none" stroke="#63b8ff" d="M410.75,-121.31C410.75,-113.14 410.75,-104.41 410.75,-97.33"/>
<polygon fill="#63b8ff" stroke="#63b8ff" points="407.25,-121.1 410.75,-131.1 414.25,-121.1 407.25,-121.1"/>
</a>
</g>
</g>
<!-- Node12 -->
<g id="Node000012" class="node">
<title>Node12</title>
<g id="a_Node000012"><a xlink:href="_slitherlink_solver_8cpp.html" target="_top" xlink:title=" ">
<polygon fill="white" stroke="#666666" points="642.75,-91.38 488.75,-91.38 488.75,-72.12 642.75,-72.12 642.75,-91.38"/>
<text xml:space="preserve" text-anchor="middle" x="565.75" y="-77.88" font-family="Helvetica,sans-Serif" font-size="10.00">src/factory/SlitherlinkSolver.cpp</text>
</a>
</g>
</g>
<!-- Node7&#45;&gt;Node12 -->
<g id="edge12_Node000007_Node000012" class="edge">
<title>Node7&#45;&gt;Node12</title>
<g id="a_edge12_Node000007_Node000012"><a xlink:title=" ">
<path fill="none" stroke="#63b8ff" d="M456.23,-128.32C485.22,-116.26 521.45,-101.19 544.1,-91.76"/>
<polygon fill="#63b8ff" stroke="#63b8ff" points="455.21,-124.96 447.32,-132.03 457.9,-131.42 455.21,-124.96"/>
</a>
</g>
</g>
<!-- Node9&#45;&gt;Node8 -->
<g id="edge9_Node000009_Node000008" class="edge">
<title>Node9&#45;&gt;Node8</title>
<g id="a_edge9_Node000009_Node000008"><a xlink:title=" ">
<path fill="none" stroke="#63b8ff" d="M372.69,-60.79C354.22,-51.11 332.43,-39.68 315.55,-30.83"/>
<polygon fill="#63b8ff" stroke="#63b8ff" points="371.02,-63.87 381.5,-65.41 374.27,-57.67 371.02,-63.87"/>
</a>
</g>
</g>
<!-- Node10 -->
<g id="Node000010" class="node">
<title>Node10</title>
<g id="a_Node000010"><a xlink:href="_solver_factory_8cpp.html" target="_top" xlink:title=" ">
<polygon fill="white" stroke="#666666" points="494.5,-24.88 351,-24.88 351,-5.63 494.5,-5.63 494.5,-24.88"/>
<text xml:space="preserve" text-anchor="middle" x="422.75" y="-11.38" font-family="Helvetica,sans-Serif" font-size="10.00">src/factory/SolverFactory.cpp</text>
</a>
</g>
</g>
<!-- Node9&#45;&gt;Node10 -->
<g id="edge10_Node000009_Node000010" class="edge">
<title>Node9&#45;&gt;Node10</title>
<g id="a_edge10_Node000009_Node000010"><a xlink:title=" ">
<path fill="none" stroke="#63b8ff" d="M415.57,-54.84C417.54,-44.26 419.68,-32.75 421.11,-25.07"/>
<polygon fill="#63b8ff" stroke="#63b8ff" points="412.14,-54.15 413.75,-64.63 419.02,-55.43 412.14,-54.15"/>
</a>
</g>
</g>
<!-- Node11 -->
<g id="Node000011" class="node">
<title>Node11</title>
<g id="a_Node000011"><a xlink:href="src_2main_8cpp.html" target="_top" xlink:title=" ">
<polygon fill="white" stroke="#666666" points="584.88,-24.88 512.62,-24.88 512.62,-5.63 584.88,-5.63 584.88,-24.88"/>
<text xml:space="preserve" text-anchor="middle" x="548.75" y="-11.38" font-family="Helvetica,sans-Serif" font-size="10.00">src/main.cpp</text>
</a>
</g>
</g>
<!-- Node9&#45;&gt;Node11 -->
<g id="edge11_Node000009_Node000011" class="edge">
<title>Node9&#45;&gt;Node11</title>
<g id="a_edge11_Node000009_Node000011"><a xlink:title=" ">
<path fill="none" stroke="#63b8ff" d="M452.27,-61.35C477.89,-49.37 509.57,-34.56 529.47,-25.26"/>
<polygon fill="#63b8ff" stroke="#63b8ff" points="451.01,-58.07 443.44,-65.47 453.98,-64.41 451.01,-58.07"/>
</a>
</g>
</g>
</g>
</svg>

<g id="navigator" transform="translate(0 0)" fill="#404254">
  <rect fill="#f2f5e9" fill-opacity="0.5" stroke="#606060" stroke-width=".5" x="0" y="0" width="60" height="60"/>
  <use id="zoomplus" xlink:href="#zoomPlus" x="17" y="9" onmousedown="handleZoom(evt,'in')"/>
  <use id="zoomminus" xlink:href="#zoomMin" x="42" y="9" onmousedown="handleZoom(evt,'out')"/>
  <use id="reset" xlink:href="#resetDef" x="30" y="36" onmousedown="handleReset()"/>
   <use id="arrowup" xlink:href="#arrowUp" x="0" y="0" onmousedown="handlePan(0,-1)"/>
  <use id="arrowright" xlink:href="#arrowRight" x="0" y="0" onmousedown="handlePan(1,0)"/>
  <use id="arrowdown" xlink:href="#arrowDown" x="0" y="0" onmousedown="handlePan(0,1)"/>
  <use id="arrowleft" xlink:href="#arrowLeft" x="0" y="0" onmousedown="handlePan(-1,0)"/>
</g>
<svg viewBox="0 0 15 15" width="100%" height="30px" preserveAspectRatio="xMaxYMin meet">
 <g id="arrow_out" transform="scale(0.3 0.3)">
  <a xlink:href="_state_8h__dep__incl_org.svg" target="_base">
   <rect id="button" ry="5" rx="5" y="6" x="6" height="38" width="38"
        fill="#f2f5e9" fill-opacity="0.5" stroke="#606060" stroke-width="1.0"/>
   <path id="arrow"
     d="M 11.500037,31.436501 C 11.940474,20.09759 22.043105,11.32322 32.158766,21.979434 L 37.068811,17.246167 C 37.068811,17.246167 37.088388,32 37.088388,32 L 22.160133,31.978069 C 22.160133,31.978069 26.997745,27.140456 26.997745,27.140456 C 18.528582,18.264221 13.291696,25.230495 11.500037,31.436501 z"
     style="fill:#404040;"/>
  </a>
 </g>
</svg>

<style type='text/css'>
<![CDATA[
[data-mouse-over-selected='false'] { opacity: 0.7; }
[data-mouse-over-selected='true']  { opacity: 1.0; }
]]>
</style>
<script type="application/ecmascript"><![CDATA[
document.addEventListener('DOMContentLoaded', (event) => {
  highlightEdges();
  highlightAdjacentNodes();
});
]]></script>
</svg>
