<?xml version="1.0" encoding="UTF-8" standalone="no"?>
<!DOCTYPE svg PUBLIC "-//W3C//DTD SVG 1.1//EN"
 "http://www.w3.org/Graphics/SVG/1.1/DTD/svg11.dtd">
<!-- Generated by graphviz version 14.0.2 (20251019.1705)
 -->
<!-- Title: include/slitherlink/utils/Timer.h Pages: 1 -->
<svg width="112pt" height="94pt"
 viewBox="0.00 0.00 112.00 94.00" xmlns="http://www.w3.org/2000/svg" xmlns:xlink="http://www.w3.org/1999/xlink">
<g id="graph0" class="graph" transform="scale(1 1) rotate(0) translate(4 89.75)">
<title>include/slitherlink/utils/Timer.h</title>
<!-- Node1 -->
<g id="Node000001" class="node">
<title>Node1</title>
<g id="a_Node000001"><a xlink:title=" ">
<polygon fill="#999999" stroke="#666666" points="98.12,-85.75 7.12,-85.75 7.12,-55.25 98.12,-55.25 98.12,-85.75"/>
<text xml:space="preserve" text-anchor="start" x="15.12" y="-72.25" font-family="Helvetica,sans-Serif" font-size="10.00">include/slitherlink</text>
<text xml:space="preserve" text-anchor="middle" x="52.62" y="-61" font-family="Helvetica,sans-Serif" font-size="10.00">/utils/Timer.h</text>
</a>
</g>
</g>
<!-- Node2 -->
<g id="Node000002" class="node">
<title>Node2</title>
<g id="a_Node000002"><a xlink:title=" ">
<polygon fill="#e0e0e0" stroke="#999999" points="45.25,-19.25 0,-19.25 0,0 45.25,0 45.25,-19.25"/>
<text xml:space="preserve" text-anchor="middle" x="22.62" y="-5.75" font-family="Helvetica,sans-Serif" font-size="10.00">chrono</text>
</a>
</g>
</g>
<!-- Node1&#45;&gt;Node2 -->
<g id="edge1_Node000001_Node000002" class="edge">
<title>Node1&#45;&gt;Node2</title>
<g id="a_edge1_Node000001_Node000002"><a xlink:title=" ">
<path fill="none" stroke="#63b8ff" d="M45.21,-54.95C41.34,-47.36 36.57,-37.99 32.4,-29.82"/>
<polygon fill="#63b8ff" stroke="#63b8ff" points="35.6,-28.37 27.94,-21.05 29.36,-31.55 35.6,-28.37"/>
</a>
</g>
</g>
<!-- Node3 -->
<g id="Node000003" class="node">
<title>Node3</title>
<g id="a_Node000003"><a xlink:title=" ">
<polygon fill="#e0e0e0" stroke="#999999" points="103.62,-19.25 63.62,-19.25 63.62,0 103.62,0 103.62,-19.25"/>
<text xml:space="preserve" text-anchor="middle" x="83.62" y="-5.75" font-family="Helvetica,sans-Serif" font-size="10.00">string</text>
</a>
</g>
</g>
<!-- Node1&#45;&gt;Node3 -->
<g id="edge2_Node000001_Node000003" class="edge">
<title>Node1&#45;&gt;Node3</title>
<g id="a_edge2_Node000001_Node000003"><a xlink:title=" ">
<path fill="none" stroke="#63b8ff" d="M60.29,-54.95C64.28,-47.36 69.22,-37.99 73.52,-29.82"/>
<polygon fill="#63b8ff" stroke="#63b8ff" points="76.58,-31.52 78.14,-21.04 70.38,-28.26 76.58,-31.52"/>
</a>
</g>
</g>
</g>
</svg>
