<?xml version="1.0" encoding="UTF-8" standalone="no"?>
<!DOCTYPE svg PUBLIC "-//W3C//DTD SVG 1.1//EN"
 "http://www.w3.org/Graphics/SVG/1.1/DTD/svg11.dtd">
<!-- Generated by graphviz version 14.0.2 (20251019.1705)
 -->
<!-- Title: include Pages: 1 -->
<svg width="202pt" height="225pt"
 viewBox="0.00 0.00 202.00 225.00" xmlns="http://www.w3.org/2000/svg" xmlns:xlink="http://www.w3.org/1999/xlink">
<g id="graph0" class="graph" transform="scale(1 1) rotate(0) translate(4 221)">
<title>include</title>
<g id="clust1" class="cluster">
<title>clusterdir_d44c64559bbebec7f509842c48db8b23</title>
<g id="a_clust1"><a xlink:href="dir_d44c64559bbebec7f509842c48db8b23.html" target="_top">
<polygon fill="#edf0f7" stroke="#404040" stroke-width="2" points="8,-8 8,-209 186,-209 186,-8 8,-8"/>
</a>
</g>
</g>
<!-- dir_d44c64559bbebec7f509842c48db8b23 -->
<g id="node1" class="node">
<title>dir_d44c64559bbebec7f509842c48db8b23</title>
<text xml:space="preserve" text-anchor="middle" x="39" y="-187.5" font-family="Helvetica,sans-Serif" font-size="10.00">include</text>
</g>
<!-- dir_3d69f64eaf81436fe2b22361382717e5 -->
<g id="node2" class="node">
<title>dir_3d69f64eaf81436fe2b22361382717e5</title>
<g id="a_node2"><a xlink:href="dir_3d69f64eaf81436fe2b22361382717e5.html" target="_top" xlink:title="core">
<polygon fill="#a2b4d6" stroke="#404040" points="95.38,-35.25 60.62,-35.25 60.62,-16 95.38,-16 95.38,-35.25"/>
<text xml:space="preserve" text-anchor="middle" x="78" y="-21.75" font-family="Helvetica,sans-Serif" font-size="10.00">core</text>
</a>
</g>
</g>
<!-- dir_46c1264354d56cbca40f9c72fbeb27f0 -->
<g id="node3" class="node">
<title>dir_46c1264354d56cbca40f9c72fbeb27f0</title>
<g id="a_node3"><a xlink:href="dir_46c1264354d56cbca40f9c72fbeb27f0.html" target="_top" xlink:title="factory">
<polygon fill="#a2b4d6" stroke="#404040" points="126,-201 80,-201 80,-181.75 126,-181.75 126,-201"/>
<text xml:space="preserve" text-anchor="middle" x="103" y="-187.5" font-family="Helvetica,sans-Serif" font-size="10.00">factory</text>
</a>
</g>
</g>
<!-- dir_46c1264354d56cbca40f9c72fbeb27f0&#45;&gt;dir_3d69f64eaf81436fe2b22361382717e5 -->
<g id="edge1" class="edge">
<title>dir_46c1264354d56cbca40f9c72fbeb27f0&#45;&gt;dir_3d69f64eaf81436fe2b22361382717e5</title>
<g id="a_edge1"><a xlink:href="dir_000005_000001.html" target="_top">
<path fill="none" stroke="#63b8ff" d="M95.3,-181.4C88.28,-172.78 78.1,-159.14 72,-145.75 61.49,-122.7 61.14,-115.64 58,-90.5 56.94,-82.01 56.21,-79.62 58,-71.25 59.88,-62.44 63.65,-53.26 67.4,-45.54"/>
<polygon fill="#63b8ff" stroke="#63b8ff" points="70.43,-47.29 71.98,-36.81 64.23,-44.04 70.43,-47.29"/>
</a>
</g>
<g id="a_edge1&#45;headlabel"><a xlink:href="dir_000005_000001.html" target="_top" xlink:title="2">
<text xml:space="preserve" text-anchor="middle" x="71.98" y="-46.58" font-family="Helvetica,sans-Serif" font-size="10.00" fill="#63b8ff">2</text>
</a>
</g>
</g>
<!-- dir_a41085eaf10b710b06fa633322b65393 -->
<g id="node6" class="node">
<title>dir_a41085eaf10b710b06fa633322b65393</title>
<g id="a_node6"><a xlink:href="dir_a41085eaf10b710b06fa633322b65393.html" target="_top" xlink:title="solver">
<polygon fill="#a2b4d6" stroke="#404040" points="123.12,-145.75 80.88,-145.75 80.88,-126.5 123.12,-126.5 123.12,-145.75"/>
<text xml:space="preserve" text-anchor="middle" x="102" y="-132.25" font-family="Helvetica,sans-Serif" font-size="10.00">solver</text>
</a>
</g>
</g>
<!-- dir_46c1264354d56cbca40f9c72fbeb27f0&#45;&gt;dir_a41085eaf10b710b06fa633322b65393 -->
<g id="edge2" class="edge">
<title>dir_46c1264354d56cbca40f9c72fbeb27f0&#45;&gt;dir_a41085eaf10b710b06fa633322b65393</title>
<g id="a_edge2"><a xlink:href="dir_000005_000012.html" target="_top">
<path fill="none" stroke="#63b8ff" d="M102.83,-181.58C102.71,-175.07 102.54,-165.92 102.38,-157.62"/>
<polygon fill="#63b8ff" stroke="#63b8ff" points="105.88,-157.55 102.2,-147.62 98.89,-157.69 105.88,-157.55"/>
</a>
</g>
<g id="a_edge2&#45;headlabel"><a xlink:href="dir_000005_000012.html" target="_top" xlink:title="1">
<text xml:space="preserve" text-anchor="middle" x="108.76" y="-155.71" font-family="Helvetica,sans-Serif" font-size="10.00" fill="#63b8ff">1</text>
</a>
</g>
</g>
<!-- dir_b6a1b25c97174b03ee33ad89b32089b9 -->
<g id="node4" class="node">
<title>dir_b6a1b25c97174b03ee33ad89b32089b9</title>
<g id="a_node4"><a xlink:href="dir_b6a1b25c97174b03ee33ad89b32089b9.html" target="_top" xlink:title="interfaces">
<polygon fill="#a2b4d6" stroke="#404040" points="131.38,-90.5 72.62,-90.5 72.62,-71.25 131.38,-71.25 131.38,-90.5"/>
<text xml:space="preserve" text-anchor="middle" x="102" y="-77" font-family="Helvetica,sans-Serif" font-size="10.00">interfaces</text>
</a>
</g>
</g>
<!-- dir_b6a1b25c97174b03ee33ad89b32089b9&#45;&gt;dir_3d69f64eaf81436fe2b22361382717e5 -->
<g id="edge3" class="edge">
<title>dir_b6a1b25c97174b03ee33ad89b32089b9&#45;&gt;dir_3d69f64eaf81436fe2b22361382717e5</title>
<g id="a_edge3"><a xlink:href="dir_000008_000001.html" target="_top">
<path fill="none" stroke="#63b8ff" d="M98.04,-71.08C94.96,-64.26 90.59,-54.56 86.71,-45.95"/>
<polygon fill="#63b8ff" stroke="#63b8ff" points="89.97,-44.67 82.67,-36.99 83.59,-47.54 89.97,-44.67"/>
</a>
</g>
<g id="a_edge3&#45;headlabel"><a xlink:href="dir_000008_000001.html" target="_top" xlink:title="3">
<text xml:space="preserve" text-anchor="middle" x="93.41" y="-41.52" font-family="Helvetica,sans-Serif" font-size="10.00" fill="#63b8ff">3</text>
</a>
</g>
</g>
<!-- dir_a00b633439466cbb1729245c7f66f564 -->
<g id="node5" class="node">
<title>dir_a00b633439466cbb1729245c7f66f564</title>
<g id="a_node5"><a xlink:href="dir_a00b633439466cbb1729245c7f66f564.html" target="_top" xlink:title="io">
<polygon fill="#a2b4d6" stroke="#404040" points="178.4,-90.5 149.6,-90.5 149.6,-71.25 178.4,-71.25 178.4,-90.5"/>
<text xml:space="preserve" text-anchor="middle" x="164" y="-77" font-family="Helvetica,sans-Serif" font-size="10.00">io</text>
</a>
</g>
</g>
<!-- dir_a00b633439466cbb1729245c7f66f564&#45;&gt;dir_3d69f64eaf81436fe2b22361382717e5 -->
<g id="edge4" class="edge">
<title>dir_a00b633439466cbb1729245c7f66f564&#45;&gt;dir_3d69f64eaf81436fe2b22361382717e5</title>
<g id="a_edge4"><a xlink:href="dir_000009_000001.html" target="_top">
<path fill="none" stroke="#63b8ff" d="M149.41,-70.84C136.56,-62.89 117.59,-51.14 102.43,-41.75"/>
<polygon fill="#63b8ff" stroke="#63b8ff" points="104.29,-38.79 93.95,-36.5 100.61,-44.74 104.29,-38.79"/>
</a>
</g>
<g id="a_edge4&#45;headlabel"><a xlink:href="dir_000009_000001.html" target="_top" xlink:title="4">
<text xml:space="preserve" text-anchor="middle" x="107.56" y="-33.59" font-family="Helvetica,sans-Serif" font-size="10.00" fill="#63b8ff">4</text>
</a>
</g>
</g>
<!-- dir_a41085eaf10b710b06fa633322b65393&#45;&gt;dir_3d69f64eaf81436fe2b22361382717e5 -->
<g id="edge5" class="edge">
<title>dir_a41085eaf10b710b06fa633322b65393&#45;&gt;dir_3d69f64eaf81436fe2b22361382717e5</title>
<g id="a_edge5"><a xlink:href="dir_000012_000001.html" target="_top">
<path fill="none" stroke="#63b8ff" d="M90.93,-126.2C81.74,-118.03 69.34,-105.02 64,-90.5 58.66,-75.98 62.97,-58.82 68.17,-45.94"/>
<polygon fill="#63b8ff" stroke="#63b8ff" points="71.33,-47.44 72.32,-36.9 64.97,-44.53 71.33,-47.44"/>
</a>
</g>
<g id="a_edge5&#45;headlabel"><a xlink:href="dir_000012_000001.html" target="_top" xlink:title="13">
<text xml:space="preserve" text-anchor="middle" x="73.05" y="-46.64" font-family="Helvetica,sans-Serif" font-size="10.00" fill="#63b8ff">13</text>
</a>
</g>
</g>
<!-- dir_a41085eaf10b710b06fa633322b65393&#45;&gt;dir_b6a1b25c97174b03ee33ad89b32089b9 -->
<g id="edge6" class="edge">
<title>dir_a41085eaf10b710b06fa633322b65393&#45;&gt;dir_b6a1b25c97174b03ee33ad89b32089b9</title>
<g id="a_edge6"><a xlink:href="dir_000012_000008.html" target="_top">
<path fill="none" stroke="#63b8ff" d="M102,-126.33C102,-119.82 102,-110.67 102,-102.37"/>
<polygon fill="#63b8ff" stroke="#63b8ff" points="105.5,-102.37 102,-92.37 98.5,-102.37 105.5,-102.37"/>
</a>
</g>
<g id="a_edge6&#45;headlabel"><a xlink:href="dir_000012_000008.html" target="_top" xlink:title="6">
<text xml:space="preserve" text-anchor="middle" x="108.34" y="-100.58" font-family="Helvetica,sans-Serif" font-size="10.00" fill="#63b8ff">6</text>
</a>
</g>
</g>
<!-- dir_821002d4f10779a80d4fb17bc32f21f1 -->
<g id="node7" class="node">
<title>dir_821002d4f10779a80d4fb17bc32f21f1</title>
<g id="a_node7"><a xlink:href="dir_821002d4f10779a80d4fb17bc32f21f1.html" target="_top" xlink:title="utils">
<polygon fill="#a2b4d6" stroke="#404040" points="178,-201 144,-201 144,-181.75 178,-181.75 178,-201"/>
<text xml:space="preserve" text-anchor="middle" x="161" y="-187.5" font-family="Helvetica,sans-Serif" font-size="10.00">utils</text>
</a>
</g>
</g>
</g>
</svg>
