<?xml version="1.0" encoding="UTF-8" standalone="no"?>
<!DOCTYPE svg PUBLIC "-//W3C//DTD SVG 1.1//EN"
 "http://www.w3.org/Graphics/SVG/1.1/DTD/svg11.dtd">
<!-- Generated by graphviz version 14.0.2 (20251019.1705)
 -->
<!-- Title: include/slitherlink Pages: 1 -->
<svg width="204pt" height="316pt"
 viewBox="0.00 0.00 204.00 316.00" xmlns="http://www.w3.org/2000/svg" xmlns:xlink="http://www.w3.org/1999/xlink">
<g id="graph0" class="graph" transform="scale(1 1) rotate(0) translate(4 311.5)">
<title>include/slitherlink</title>
<g id="clust1" class="cluster">
<title>clusterdir_d44c64559bbebec7f509842c48db8b23</title>
<g id="a_clust1"><a xlink:href="dir_d44c64559bbebec7f509842c48db8b23.html" target="_top" xlink:title="include">
<polygon fill="#edf0f7" stroke="#404040" stroke-dasharray="5,2" points="8,-8 8,-299.5 188,-299.5 188,-8 8,-8"/>
<text xml:space="preserve" text-anchor="middle" x="98" y="-286" font-family="Helvetica,sans-Serif" font-size="10.00">include</text>
</a>
</g>
</g>
<g id="clust2" class="cluster">
<title>clusterdir_4c81db1a71084b812306b69d77185a79</title>
<g id="a_clust2"><a xlink:href="dir_4c81db1a71084b812306b69d77185a79.html" target="_top">
<polygon fill="#edf0f7" stroke="#404040" stroke-width="2" points="16,-16 16,-272.25 180,-272.25 180,-16 16,-16"/>
</a>
</g>
</g>
<!-- dir_4c81db1a71084b812306b69d77185a79 -->
<g id="node1" class="node">
<title>dir_4c81db1a71084b812306b69d77185a79</title>
<text xml:space="preserve" text-anchor="middle" x="85" y="-250.75" font-family="Helvetica,sans-Serif" font-size="10.00">slitherlink</text>
</g>
<!-- dir_189042d36de83d14517f9eb1027bc5c6 -->
<g id="node2" class="node">
<title>dir_189042d36de83d14517f9eb1027bc5c6</title>
<g id="a_node2"><a xlink:href="dir_189042d36de83d14517f9eb1027bc5c6.html" target="_top" xlink:title="core">
<polygon fill="#a2b4d6" stroke="#404040" points="82.38,-43.25 47.62,-43.25 47.62,-24 82.38,-24 82.38,-43.25"/>
<text xml:space="preserve" text-anchor="middle" x="65" y="-29.75" font-family="Helvetica,sans-Serif" font-size="10.00">core</text>
</a>
</g>
</g>
<!-- dir_4c81db1a71084b812306b69d77185a79&#45;&gt;dir_189042d36de83d14517f9eb1027bc5c6 -->
<g id="edge2" class="edge">
<title>dir_4c81db1a71084b812306b69d77185a79&#45;&gt;dir_189042d36de83d14517f9eb1027bc5c6</title>
<g id="a_edge2"><a xlink:href="dir_000008_000000.html" target="_top">
<path fill="none" stroke="#63b8ff" d="M76.89,-245.2C69.31,-236.77 58.38,-223.07 53,-209 32.39,-155.08 36,-135.92 47,-79.25 48.67,-70.65 51.99,-61.6 55.34,-53.92"/>
<polygon fill="#63b8ff" stroke="#63b8ff" points="58.48,-55.45 59.57,-44.91 52.15,-52.47 58.48,-55.45"/>
</a>
</g>
<g id="a_edge2&#45;headlabel"><a xlink:href="dir_000008_000000.html" target="_top" xlink:title="22">
<text xml:space="preserve" text-anchor="middle" x="60.17" y="-54.67" font-family="Helvetica,sans-Serif" font-size="10.00" fill="#63b8ff">22</text>
</a>
</g>
</g>
<!-- dir_08dea7ea96cc1aa01d45445dc3f923e1 -->
<g id="node3" class="node">
<title>dir_08dea7ea96cc1aa01d45445dc3f923e1</title>
<g id="a_node3"><a xlink:href="dir_08dea7ea96cc1aa01d45445dc3f923e1.html" target="_top" xlink:title="factory">
<polygon fill="#a2b4d6" stroke="#404040" points="108,-209 62,-209 62,-189.75 108,-189.75 108,-209"/>
<text xml:space="preserve" text-anchor="middle" x="85" y="-195.5" font-family="Helvetica,sans-Serif" font-size="10.00">factory</text>
</a>
</g>
</g>
<!-- dir_4c81db1a71084b812306b69d77185a79&#45;&gt;dir_08dea7ea96cc1aa01d45445dc3f923e1 -->
<g id="edge1" class="edge">
<title>dir_4c81db1a71084b812306b69d77185a79&#45;&gt;dir_08dea7ea96cc1aa01d45445dc3f923e1</title>
<g id="a_edge1"><a xlink:href="dir_000008_000002.html" target="_top">
<path fill="none" stroke="#63b8ff" d="M85,-245.3C85,-238.7 85,-229.19 85,-220.61"/>
<polygon fill="#63b8ff" stroke="#63b8ff" points="88.5,-220.68 85,-210.68 81.5,-220.68 88.5,-220.68"/>
</a>
</g>
<g id="a_edge1&#45;headlabel"><a xlink:href="dir_000008_000002.html" target="_top" xlink:title="2">
<text xml:space="preserve" text-anchor="middle" x="91.34" y="-218.89" font-family="Helvetica,sans-Serif" font-size="10.00" fill="#63b8ff">2</text>
</a>
</g>
</g>
<!-- dir_f45df4d53e99950b8207438294f8ed36 -->
<g id="node5" class="node">
<title>dir_f45df4d53e99950b8207438294f8ed36</title>
<g id="a_node5"><a xlink:href="dir_f45df4d53e99950b8207438294f8ed36.html" target="_top" xlink:title="io">
<polygon fill="#a2b4d6" stroke="#404040" points="172.4,-153.75 143.6,-153.75 143.6,-134.5 172.4,-134.5 172.4,-153.75"/>
<text xml:space="preserve" text-anchor="middle" x="158" y="-140.25" font-family="Helvetica,sans-Serif" font-size="10.00">io</text>
</a>
</g>
</g>
<!-- dir_4c81db1a71084b812306b69d77185a79&#45;&gt;dir_f45df4d53e99950b8207438294f8ed36 -->
<g id="edge3" class="edge">
<title>dir_4c81db1a71084b812306b69d77185a79&#45;&gt;dir_f45df4d53e99950b8207438294f8ed36</title>
<g id="a_edge3"><a xlink:href="dir_000008_000006.html" target="_top">
<path fill="none" stroke="#63b8ff" d="M91.27,-245.16C97.82,-236.25 108.33,-221.78 117,-209 127.29,-193.84 138.5,-176.3 146.59,-163.44"/>
<polygon fill="#63b8ff" stroke="#63b8ff" points="149.43,-165.51 151.77,-155.18 143.49,-161.8 149.43,-165.51"/>
</a>
</g>
<g id="a_edge3&#45;headlabel"><a xlink:href="dir_000008_000006.html" target="_top" xlink:title="1">
<text xml:space="preserve" text-anchor="middle" x="150.73" y="-164.91" font-family="Helvetica,sans-Serif" font-size="10.00" fill="#63b8ff">1</text>
</a>
</g>
</g>
<!-- dir_08dea7ea96cc1aa01d45445dc3f923e1&#45;&gt;dir_189042d36de83d14517f9eb1027bc5c6 -->
<g id="edge4" class="edge">
<title>dir_08dea7ea96cc1aa01d45445dc3f923e1&#45;&gt;dir_189042d36de83d14517f9eb1027bc5c6</title>
<g id="a_edge4"><a xlink:href="dir_000002_000000.html" target="_top">
<path fill="none" stroke="#63b8ff" d="M76.5,-189.32C69.2,-180.86 59.19,-167.5 55,-153.75 44.69,-119.94 52.53,-78.39 58.92,-54.37"/>
<polygon fill="#63b8ff" stroke="#63b8ff" points="62.22,-55.56 61.62,-44.99 55.49,-53.63 62.22,-55.56"/>
</a>
</g>
<g id="a_edge4&#45;headlabel"><a xlink:href="dir_000002_000000.html" target="_top" xlink:title="2">
<text xml:space="preserve" text-anchor="middle" x="64.38" y="-54.47" font-family="Helvetica,sans-Serif" font-size="10.00" fill="#63b8ff">2</text>
</a>
</g>
</g>
<!-- dir_5efe62d04b48daad03ea6ec6ee3b67fe -->
<g id="node4" class="node">
<title>dir_5efe62d04b48daad03ea6ec6ee3b67fe</title>
<g id="a_node4"><a xlink:href="dir_5efe62d04b48daad03ea6ec6ee3b67fe.html" target="_top" xlink:title="interfaces">
<polygon fill="#a2b4d6" stroke="#404040" points="142.38,-98.5 83.62,-98.5 83.62,-79.25 142.38,-79.25 142.38,-98.5"/>
<text xml:space="preserve" text-anchor="middle" x="113" y="-85" font-family="Helvetica,sans-Serif" font-size="10.00">interfaces</text>
</a>
</g>
</g>
<!-- dir_08dea7ea96cc1aa01d45445dc3f923e1&#45;&gt;dir_5efe62d04b48daad03ea6ec6ee3b67fe -->
<g id="edge5" class="edge">
<title>dir_08dea7ea96cc1aa01d45445dc3f923e1&#45;&gt;dir_5efe62d04b48daad03ea6ec6ee3b67fe</title>
<g id="a_edge5"><a xlink:href="dir_000002_000005.html" target="_top">
<path fill="none" stroke="#63b8ff" d="M93.5,-189.32C100.8,-180.86 110.81,-167.5 115,-153.75 119.32,-139.58 118.59,-122.82 116.9,-110.02"/>
<polygon fill="#63b8ff" stroke="#63b8ff" points="120.38,-109.58 115.29,-100.28 113.47,-110.72 120.38,-109.58"/>
</a>
</g>
<g id="a_edge5&#45;headlabel"><a xlink:href="dir_000002_000005.html" target="_top" xlink:title="2">
<text xml:space="preserve" text-anchor="middle" x="123.52" y="-107.3" font-family="Helvetica,sans-Serif" font-size="10.00" fill="#63b8ff">2</text>
</a>
</g>
</g>
<!-- dir_ca531795cefaae565ebcd08e509d49a1 -->
<g id="node6" class="node">
<title>dir_ca531795cefaae565ebcd08e509d49a1</title>
<g id="a_node6"><a xlink:href="dir_ca531795cefaae565ebcd08e509d49a1.html" target="_top" xlink:title="solver">
<polygon fill="#a2b4d6" stroke="#404040" points="106.12,-153.75 63.88,-153.75 63.88,-134.5 106.12,-134.5 106.12,-153.75"/>
<text xml:space="preserve" text-anchor="middle" x="85" y="-140.25" font-family="Helvetica,sans-Serif" font-size="10.00">solver</text>
</a>
</g>
</g>
<!-- dir_08dea7ea96cc1aa01d45445dc3f923e1&#45;&gt;dir_ca531795cefaae565ebcd08e509d49a1 -->
<g id="edge6" class="edge">
<title>dir_08dea7ea96cc1aa01d45445dc3f923e1&#45;&gt;dir_ca531795cefaae565ebcd08e509d49a1</title>
<g id="a_edge6"><a xlink:href="dir_000002_000009.html" target="_top">
<path fill="none" stroke="#63b8ff" d="M85,-189.58C85,-183.07 85,-173.92 85,-165.62"/>
<polygon fill="#63b8ff" stroke="#63b8ff" points="88.5,-165.62 85,-155.62 81.5,-165.62 88.5,-165.62"/>
</a>
</g>
<g id="a_edge6&#45;headlabel"><a xlink:href="dir_000002_000009.html" target="_top" xlink:title="1">
<text xml:space="preserve" text-anchor="middle" x="91.34" y="-163.83" font-family="Helvetica,sans-Serif" font-size="10.00" fill="#63b8ff">1</text>
</a>
</g>
</g>
<!-- dir_5efe62d04b48daad03ea6ec6ee3b67fe&#45;&gt;dir_189042d36de83d14517f9eb1027bc5c6 -->
<g id="edge7" class="edge">
<title>dir_5efe62d04b48daad03ea6ec6ee3b67fe&#45;&gt;dir_189042d36de83d14517f9eb1027bc5c6</title>
<g id="a_edge7"><a xlink:href="dir_000005_000000.html" target="_top">
<path fill="none" stroke="#63b8ff" d="M105.07,-79.08C98.44,-71.73 88.78,-61.01 80.61,-51.94"/>
<polygon fill="#63b8ff" stroke="#63b8ff" points="83.41,-49.82 74.11,-44.73 78.21,-54.5 83.41,-49.82"/>
</a>
</g>
<g id="a_edge7&#45;headlabel"><a xlink:href="dir_000005_000000.html" target="_top" xlink:title="6">
<text xml:space="preserve" text-anchor="middle" x="86.91" y="-45.59" font-family="Helvetica,sans-Serif" font-size="10.00" fill="#63b8ff">6</text>
</a>
</g>
</g>
<!-- dir_f45df4d53e99950b8207438294f8ed36&#45;&gt;dir_189042d36de83d14517f9eb1027bc5c6 -->
<g id="edge8" class="edge">
<title>dir_f45df4d53e99950b8207438294f8ed36&#45;&gt;dir_189042d36de83d14517f9eb1027bc5c6</title>
<g id="a_edge8"><a xlink:href="dir_000006_000000.html" target="_top">
<path fill="none" stroke="#63b8ff" d="M159.46,-134.4C161.17,-121.22 162.48,-96 151,-79.25 137.65,-59.76 113.06,-48.23 93.59,-41.78"/>
<polygon fill="#63b8ff" stroke="#63b8ff" points="94.87,-38.51 84.29,-38.99 92.86,-45.22 94.87,-38.51"/>
</a>
</g>
<g id="a_edge8&#45;headlabel"><a xlink:href="dir_000006_000000.html" target="_top" xlink:title="2">
<text xml:space="preserve" text-anchor="middle" x="97.68" y="-32.52" font-family="Helvetica,sans-Serif" font-size="10.00" fill="#63b8ff">2</text>
</a>
</g>
</g>
<!-- dir_f45df4d53e99950b8207438294f8ed36&#45;&gt;dir_5efe62d04b48daad03ea6ec6ee3b67fe -->
<g id="edge9" class="edge">
<title>dir_f45df4d53e99950b8207438294f8ed36&#45;&gt;dir_5efe62d04b48daad03ea6ec6ee3b67fe</title>
<g id="a_edge9"><a xlink:href="dir_000006_000005.html" target="_top">
<path fill="none" stroke="#63b8ff" d="M150.57,-134.33C144.42,-127.05 135.49,-116.48 127.87,-107.48"/>
<polygon fill="#63b8ff" stroke="#63b8ff" points="130.7,-105.39 121.57,-100.02 125.35,-109.91 130.7,-105.39"/>
</a>
</g>
<g id="a_edge9&#45;headlabel"><a xlink:href="dir_000006_000005.html" target="_top" xlink:title="2">
<text xml:space="preserve" text-anchor="middle" x="134.21" y="-101.28" font-family="Helvetica,sans-Serif" font-size="10.00" fill="#63b8ff">2</text>
</a>
</g>
</g>
<!-- dir_ca531795cefaae565ebcd08e509d49a1&#45;&gt;dir_189042d36de83d14517f9eb1027bc5c6 -->
<g id="edge10" class="edge">
<title>dir_ca531795cefaae565ebcd08e509d49a1&#45;&gt;dir_189042d36de83d14517f9eb1027bc5c6</title>
<g id="a_edge10"><a xlink:href="dir_000009_000000.html" target="_top">
<path fill="none" stroke="#63b8ff" d="M82.84,-134.27C80.69,-125.29 77.37,-110.98 75,-98.5 72.2,-83.78 69.6,-67.04 67.76,-54.39"/>
<polygon fill="#63b8ff" stroke="#63b8ff" points="71.27,-54.24 66.39,-44.83 64.34,-55.23 71.27,-54.24"/>
</a>
</g>
<g id="a_edge10&#45;headlabel"><a xlink:href="dir_000009_000000.html" target="_top" xlink:title="10">
<text xml:space="preserve" text-anchor="middle" x="74.37" y="-52.02" font-family="Helvetica,sans-Serif" font-size="10.00" fill="#63b8ff">10</text>
</a>
</g>
</g>
<!-- dir_ca531795cefaae565ebcd08e509d49a1&#45;&gt;dir_5efe62d04b48daad03ea6ec6ee3b67fe -->
<g id="edge11" class="edge">
<title>dir_ca531795cefaae565ebcd08e509d49a1&#45;&gt;dir_5efe62d04b48daad03ea6ec6ee3b67fe</title>
<g id="a_edge11"><a xlink:href="dir_000009_000005.html" target="_top">
<path fill="none" stroke="#63b8ff" d="M89.62,-134.33C93.25,-127.44 98.43,-117.59 102.99,-108.91"/>
<polygon fill="#63b8ff" stroke="#63b8ff" points="106.02,-110.68 107.57,-100.2 99.82,-107.42 106.02,-110.68"/>
</a>
</g>
<g id="a_edge11&#45;headlabel"><a xlink:href="dir_000009_000005.html" target="_top" xlink:title="3">
<text xml:space="preserve" text-anchor="middle" x="107.56" y="-109.97" font-family="Helvetica,sans-Serif" font-size="10.00" fill="#63b8ff">3</text>
</a>
</g>
</g>
<!-- dir_38f48adee39b8778fc91ccdc58b25c91 -->
<g id="node7" class="node">
<title>dir_38f48adee39b8778fc91ccdc58b25c91</title>
<g id="a_node7"><a xlink:href="dir_38f48adee39b8778fc91ccdc58b25c91.html" target="_top" xlink:title="utils">
<polygon fill="#a2b4d6" stroke="#404040" points="169,-264.25 135,-264.25 135,-245 169,-245 169,-264.25"/>
<text xml:space="preserve" text-anchor="middle" x="152" y="-250.75" font-family="Helvetica,sans-Serif" font-size="10.00">utils</text>
</a>
</g>
</g>
</g>
</svg>
