<?xml version="1.0" encoding="UTF-8" standalone="no"?>
<!DOCTYPE svg PUBLIC "-//W3C//DTD SVG 1.1//EN"
 "http://www.w3.org/Graphics/SVG/1.1/DTD/svg11.dtd">
<!-- Generated by graphviz version 14.0.2 (20251019.1705)
 -->
<!-- Title: main.cpp Pages: 1 -->
<!--zoomable 83 -->

<svg id="main" version="1.1" xmlns="http://www.w3.org/2000/svg" xmlns:xlink="http://www.w3.org/1999/xlink" xml:space="preserve" onload="init(evt)">

<style type="text/css"><![CDATA[
.node, .edge {opacity: 0.7;}
.node.selected, .edge.selected {opacity: 1;}
.edge:hover path { stroke: red; }
.edge:hover polygon { stroke: red; fill: red; }
]]></style>

<defs>
  <circle id="rim" cx="0" cy="0" r="7"/>
  <circle id="rim2" cx="0" cy="0" r="3.5"/>
  <g id="zoomPlus">
    <use xlink:href="#rim" fill="#404040"><set attributeName="fill" to="#808080" begin="zoomplus.mouseover" end="zoomplus.mouseout"/></use>
    <path d="M-4,0h8M0,-4v8" fill="none" stroke="white" stroke-width="1.5" pointer-events="none"/>
  </g>
  <g id="zoomMin">
    <use xlink:href="#rim" fill="#404040"><set attributeName="fill" to="#808080" begin="zoomminus.mouseover" end="zoomminus.mouseout"/></use>
    <path d="M-4,0h8" fill="none" stroke="white" stroke-width="1.5" pointer-events="none"/>
  </g>
  <g id="arrowUp" transform="translate(30 24)">
    <use xlink:href="#rim"/>
    <path pointer-events="none" fill="none" stroke="white" stroke-width="1.5" d="M0,-3.0v7 M-2.5,-0.5L0,-3.0L2.5,-0.5"/>
  </g>
  <g id="arrowRight" transform="rotate(90) translate(36 -43)">
    <use xlink:href="#rim"/>
    <path pointer-events="none" fill="none" stroke="white" stroke-width="1.5" d="M0,-3.0v7 M-2.5,-0.5L0,-3.0L2.5,-0.5"/>
  </g>
  <g id="arrowDown" transform="rotate(180) translate(-30 -48)">
    <use xlink:href="#rim"/>
    <path pointer-events="none" fill="none" stroke="white" stroke-width="1.5" d="M0,-3.0v7 M-2.5,-0.5L0,-3.0L2.5,-0.5"/>
  </g>
  <g id="arrowLeft" transform="rotate(270) translate(-36 17)">
    <use xlink:href="#rim"/>
    <path pointer-events="none" fill="none" stroke="white" stroke-width="1.5" d="M0,-3.0v7 M-2.5,-0.5L0,-3.0L2.5,-0.5"/>
  </g>
  <g id="resetDef">
    <use xlink:href="#rim2" fill="#404040"><set attributeName="fill" to="#808080" begin="reset.mouseover" end="reset.mouseout"/></use>
  </g>
</defs>
<script type="application/ecmascript">
var viewWidth = 1761;
var viewHeight = 83;
var sectionId = 'dynsection-0';
</script>
<script type="application/ecmascript" xlink:href="svg.min.js"/>
<svg id="graph" class="graph">
<g id="viewport">
<title>main.cpp</title>
<!-- Node1 -->
<g id="Node000001" class="node">
<title>Node1</title>
<g id="a_Node000001"><a xlink:title=" ">
<polygon fill="#999999" stroke="#666666" points="709.75,-74.5 654,-74.5 654,-55.25 709.75,-55.25 709.75,-74.5"/>
<text xml:space="preserve" text-anchor="middle" x="681.88" y="-61" font-family="Helvetica,sans-Serif" font-size="10.00">main.cpp</text>
</a>
</g>
</g>
<!-- Node2 -->
<g id="Node000002" class="node">
<title>Node2</title>
<g id="a_Node000002"><a xlink:title=" ">
<polygon fill="#e0e0e0" stroke="#999999" points="55.75,-19.25 0,-19.25 0,0 55.75,0 55.75,-19.25"/>
<text xml:space="preserve" text-anchor="middle" x="27.88" y="-5.75" font-family="Helvetica,sans-Serif" font-size="10.00">algorithm</text>
</a>
</g>
</g>
<!-- Node1&#45;&gt;Node2 -->
<g id="edge1_Node000001_Node000002" class="edge">
<title>Node1&#45;&gt;Node2</title>
<g id="a_edge1_Node000001_Node000002"><a xlink:title=" ">
<path fill="none" stroke="#63b8ff" d="M653.72,-63.41C567.45,-61.64 299.09,-53.71 67.42,-19.39"/>
<polygon fill="#63b8ff" stroke="#63b8ff" points="67.97,-15.93 57.57,-17.9 66.93,-22.85 67.97,-15.93"/>
</a>
</g>
</g>
<!-- Node3 -->
<g id="Node000003" class="node">
<title>Node3</title>
<g id="a_Node000003"><a xlink:title=" ">
<polygon fill="#e0e0e0" stroke="#999999" points="119.5,-19.25 74.25,-19.25 74.25,0 119.5,0 119.5,-19.25"/>
<text xml:space="preserve" text-anchor="middle" x="96.88" y="-5.75" font-family="Helvetica,sans-Serif" font-size="10.00">atomic</text>
</a>
</g>
</g>
<!-- Node1&#45;&gt;Node3 -->
<g id="edge2_Node000001_Node000003" class="edge">
<title>Node1&#45;&gt;Node3</title>
<g id="a_edge2_Node000001_Node000003"><a xlink:title=" ">
<path fill="none" stroke="#63b8ff" d="M653.67,-63.5C573.26,-62.03 335.93,-54.92 131.06,-19.51"/>
<polygon fill="#63b8ff" stroke="#63b8ff" points="131.73,-16.07 121.28,-17.79 130.52,-22.97 131.73,-16.07"/>
</a>
</g>
</g>
<!-- Node4 -->
<g id="Node000004" class="node">
<title>Node4</title>
<g id="a_Node000004"><a xlink:title=" ">
<polygon fill="#e0e0e0" stroke="#999999" points="182.5,-19.25 137.25,-19.25 137.25,0 182.5,0 182.5,-19.25"/>
<text xml:space="preserve" text-anchor="middle" x="159.88" y="-5.75" font-family="Helvetica,sans-Serif" font-size="10.00">chrono</text>
</a>
</g>
</g>
<!-- Node1&#45;&gt;Node4 -->
<g id="edge3_Node000001_Node000004" class="edge">
<title>Node1&#45;&gt;Node4</title>
<g id="a_edge3_Node000001_Node000004"><a xlink:title=" ">
<path fill="none" stroke="#63b8ff" d="M653.68,-63.09C579.66,-60.66 373.64,-51.49 194.04,-19.54"/>
<polygon fill="#63b8ff" stroke="#63b8ff" points="194.74,-16.11 184.28,-17.77 193.5,-22.99 194.74,-16.11"/>
</a>
</g>
</g>
<!-- Node5 -->
<g id="Node000005" class="node">
<title>Node5</title>
<g id="a_Node000005"><a xlink:title=" ">
<polygon fill="#e0e0e0" stroke="#999999" points="249.38,-19.25 200.38,-19.25 200.38,0 249.38,0 249.38,-19.25"/>
<text xml:space="preserve" text-anchor="middle" x="224.88" y="-5.75" font-family="Helvetica,sans-Serif" font-size="10.00">fstream</text>
</a>
</g>
</g>
<!-- Node1&#45;&gt;Node5 -->
<g id="edge4_Node000001_Node000005" class="edge">
<title>Node1&#45;&gt;Node5</title>
<g id="a_edge4_Node000001_Node000005"><a xlink:title=" ">
<path fill="none" stroke="#63b8ff" d="M653.71,-62.3C587.12,-58.29 414.6,-46.17 260.71,-19.31"/>
<polygon fill="#63b8ff" stroke="#63b8ff" points="261.62,-15.92 251.16,-17.62 260.39,-22.81 261.62,-15.92"/>
</a>
</g>
</g>
<!-- Node6 -->
<g id="Node000006" class="node">
<title>Node6</title>
<g id="a_Node000006"><a xlink:title=" ">
<polygon fill="#e0e0e0" stroke="#999999" points="308.25,-19.25 267.5,-19.25 267.5,0 308.25,0 308.25,-19.25"/>
<text xml:space="preserve" text-anchor="middle" x="287.88" y="-5.75" font-family="Helvetica,sans-Serif" font-size="10.00">future</text>
</a>
</g>
</g>
<!-- Node1&#45;&gt;Node6 -->
<g id="edge5_Node000001_Node000006" class="edge">
<title>Node1&#45;&gt;Node6</title>
<g id="a_edge5_Node000001_Node000006"><a xlink:title=" ">
<path fill="none" stroke="#63b8ff" d="M653.68,-62.04C593.74,-57.81 449.13,-45.78 319.57,-19.51"/>
<polygon fill="#63b8ff" stroke="#63b8ff" points="320.66,-16.17 310.16,-17.57 319.25,-23.02 320.66,-16.17"/>
</a>
</g>
</g>
<!-- Node7 -->
<g id="Node000007" class="node">
<title>Node7</title>
<g id="a_Node000007"><a xlink:title=" ">
<polygon fill="#e0e0e0" stroke="#999999" points="379.62,-19.25 326.12,-19.25 326.12,0 379.62,0 379.62,-19.25"/>
<text xml:space="preserve" text-anchor="middle" x="352.88" y="-5.75" font-family="Helvetica,sans-Serif" font-size="10.00">iostream</text>
</a>
</g>
</g>
<!-- Node1&#45;&gt;Node7 -->
<g id="edge6_Node000001_Node000007" class="edge">
<title>Node1&#45;&gt;Node7</title>
<g id="a_edge6_Node000001_Node000007"><a xlink:title=" ">
<path fill="none" stroke="#63b8ff" d="M653.76,-60.47C603.1,-54.16 492.95,-39.59 391.06,-19.75"/>
<polygon fill="#63b8ff" stroke="#63b8ff" points="391.93,-16.35 381.44,-17.85 390.57,-23.22 391.93,-16.35"/>
</a>
</g>
</g>
<!-- Node8 -->
<g id="Node000008" class="node">
<title>Node8</title>
<g id="a_Node000008"><a xlink:title=" ">
<polygon fill="#e0e0e0" stroke="#999999" points="448.5,-19.25 397.25,-19.25 397.25,0 448.5,0 448.5,-19.25"/>
<text xml:space="preserve" text-anchor="middle" x="422.88" y="-5.75" font-family="Helvetica,sans-Serif" font-size="10.00">memory</text>
</a>
</g>
</g>
<!-- Node1&#45;&gt;Node8 -->
<g id="edge7_Node000001_Node000008" class="edge">
<title>Node1&#45;&gt;Node8</title>
<g id="a_edge7_Node000001_Node000008"><a xlink:title=" ">
<path fill="none" stroke="#63b8ff" d="M653.71,-58.78C613.01,-51.32 535.13,-36.63 459.9,-19.85"/>
<polygon fill="#63b8ff" stroke="#63b8ff" points="460.83,-16.47 450.31,-17.69 459.29,-23.3 460.83,-16.47"/>
</a>
</g>
</g>
<!-- Node9 -->
<g id="Node000009" class="node">
<title>Node9</title>
<g id="a_Node000009"><a xlink:title=" ">
<polygon fill="#e0e0e0" stroke="#999999" points="509.38,-19.25 466.38,-19.25 466.38,0 509.38,0 509.38,-19.25"/>
<text xml:space="preserve" text-anchor="middle" x="487.88" y="-5.75" font-family="Helvetica,sans-Serif" font-size="10.00">mutex</text>
</a>
</g>
</g>
<!-- Node1&#45;&gt;Node9 -->
<g id="edge8_Node000001_Node000009" class="edge">
<title>Node1&#45;&gt;Node9</title>
<g id="a_edge8_Node000001_Node000009"><a xlink:title=" ">
<path fill="none" stroke="#63b8ff" d="M653.6,-56.17C623.18,-47.88 573.1,-34.2 520.46,-19.68"/>
<polygon fill="#63b8ff" stroke="#63b8ff" points="521.58,-16.36 511.01,-17.07 519.72,-23.11 521.58,-16.36"/>
</a>
</g>
</g>
<!-- Node10 -->
<g id="Node000010" class="node">
<title>Node10</title>
<g id="a_Node000010"><a xlink:title=" ">
<polygon fill="#e0e0e0" stroke="#999999" points="567.88,-19.25 527.88,-19.25 527.88,0 567.88,0 567.88,-19.25"/>
<text xml:space="preserve" text-anchor="middle" x="547.88" y="-5.75" font-family="Helvetica,sans-Serif" font-size="10.00">stack</text>
</a>
</g>
</g>
<!-- Node1&#45;&gt;Node10 -->
<g id="edge9_Node000001_Node000010" class="edge">
<title>Node1&#45;&gt;Node10</title>
<g id="a_edge9_Node000001_Node000010"><a xlink:title=" ">
<path fill="none" stroke="#63b8ff" d="M659.14,-54.84C637,-46.04 603.17,-32.6 578.63,-22.85"/>
<polygon fill="#63b8ff" stroke="#63b8ff" points="580.08,-19.66 569.49,-19.21 577.49,-26.16 580.08,-19.66"/>
</a>
</g>
</g>
<!-- Node11 -->
<g id="Node000011" class="node">
<title>Node11</title>
<g id="a_Node000011"><a xlink:title=" ">
<polygon fill="#e0e0e0" stroke="#999999" points="644.25,-19.25 585.5,-19.25 585.5,0 644.25,0 644.25,-19.25"/>
<text xml:space="preserve" text-anchor="middle" x="614.88" y="-5.75" font-family="Helvetica,sans-Serif" font-size="10.00">stdexcept</text>
</a>
</g>
</g>
<!-- Node1&#45;&gt;Node11 -->
<g id="edge10_Node000001_Node000011" class="edge">
<title>Node1&#45;&gt;Node11</title>
<g id="a_edge10_Node000001_Node000011"><a xlink:title=" ">
<path fill="none" stroke="#63b8ff" d="M670.51,-54.84C660.83,-47.15 646.68,-35.9 635.07,-26.68"/>
<polygon fill="#63b8ff" stroke="#63b8ff" points="637.26,-23.95 627.26,-20.47 632.91,-29.43 637.26,-23.95"/>
</a>
</g>
</g>
<!-- Node12 -->
<g id="Node000012" class="node">
<title>Node12</title>
<g id="a_Node000012"><a xlink:title=" ">
<polygon fill="#e0e0e0" stroke="#999999" points="701.88,-19.25 661.88,-19.25 661.88,0 701.88,0 701.88,-19.25"/>
<text xml:space="preserve" text-anchor="middle" x="681.88" y="-5.75" font-family="Helvetica,sans-Serif" font-size="10.00">string</text>
</a>
</g>
</g>
<!-- Node1&#45;&gt;Node12 -->
<g id="edge11_Node000001_Node000012" class="edge">
<title>Node1&#45;&gt;Node12</title>
<g id="a_edge11_Node000001_Node000012"><a xlink:title=" ">
<path fill="none" stroke="#63b8ff" d="M681.88,-55.08C681.88,-48.57 681.88,-39.42 681.88,-31.12"/>
<polygon fill="#63b8ff" stroke="#63b8ff" points="685.38,-31.12 681.88,-21.12 678.38,-31.12 685.38,-31.12"/>
</a>
</g>
</g>
<!-- Node13 -->
<g id="Node000013" class="node">
<title>Node13</title>
<g id="a_Node000013"><a xlink:title=" ">
<polygon fill="#e0e0e0" stroke="#999999" points="763.38,-19.25 720.38,-19.25 720.38,0 763.38,0 763.38,-19.25"/>
<text xml:space="preserve" text-anchor="middle" x="741.88" y="-5.75" font-family="Helvetica,sans-Serif" font-size="10.00">thread</text>
</a>
</g>
</g>
<!-- Node1&#45;&gt;Node13 -->
<g id="edge12_Node000001_Node000013" class="edge">
<title>Node1&#45;&gt;Node13</title>
<g id="a_edge12_Node000001_Node000013"><a xlink:title=" ">
<path fill="none" stroke="#63b8ff" d="M692.05,-54.84C700.64,-47.22 713.14,-36.12 723.48,-26.95"/>
<polygon fill="#63b8ff" stroke="#63b8ff" points="725.56,-29.79 730.72,-20.53 720.91,-24.55 725.56,-29.79"/>
</a>
</g>
</g>
<!-- Node14 -->
<g id="Node000014" class="node">
<title>Node14</title>
<g id="a_Node000014"><a xlink:title=" ">
<polygon fill="#e0e0e0" stroke="#999999" points="824.38,-19.25 781.38,-19.25 781.38,0 824.38,0 824.38,-19.25"/>
<text xml:space="preserve" text-anchor="middle" x="802.88" y="-5.75" font-family="Helvetica,sans-Serif" font-size="10.00">vector</text>
</a>
</g>
</g>
<!-- Node1&#45;&gt;Node14 -->
<g id="edge13_Node000001_Node000014" class="edge">
<title>Node1&#45;&gt;Node14</title>
<g id="a_edge13_Node000001_Node000014"><a xlink:title=" ">
<path fill="none" stroke="#63b8ff" d="M702.4,-54.84C721.44,-46.47 750.03,-33.88 771.85,-24.28"/>
<polygon fill="#63b8ff" stroke="#63b8ff" points="773.12,-27.54 780.86,-20.31 770.3,-21.14 773.12,-27.54"/>
</a>
</g>
</g>
<!-- Node15 -->
<g id="Node000015" class="node">
<title>Node15</title>
<g id="a_Node000015"><a xlink:title=" ">
<polygon fill="#e0e0e0" stroke="#999999" points="945.75,-19.25 842,-19.25 842,0 945.75,0 945.75,-19.25"/>
<text xml:space="preserve" text-anchor="middle" x="893.88" y="-5.75" font-family="Helvetica,sans-Serif" font-size="10.00">tbb/blocked_range.h</text>
</a>
</g>
</g>
<!-- Node1&#45;&gt;Node15 -->
<g id="edge14_Node000001_Node000015" class="edge">
<title>Node1&#45;&gt;Node15</title>
<g id="a_edge14_Node000001_Node000015"><a xlink:title=" ">
<path fill="none" stroke="#63b8ff" d="M710.03,-56.8C744.9,-48.04 804.83,-32.99 846.75,-22.46"/>
<polygon fill="#63b8ff" stroke="#63b8ff" points="847.48,-25.89 856.33,-20.06 845.78,-19.1 847.48,-25.89"/>
</a>
</g>
</g>
<!-- Node16 -->
<g id="Node000016" class="node">
<title>Node16</title>
<g id="a_Node000016"><a xlink:title=" ">
<polygon fill="#e0e0e0" stroke="#999999" points="1081.88,-19.25 963.88,-19.25 963.88,0 1081.88,0 1081.88,-19.25"/>
<text xml:space="preserve" text-anchor="middle" x="1022.88" y="-5.75" font-family="Helvetica,sans-Serif" font-size="10.00">tbb/concurrent_vector.h</text>
</a>
</g>
</g>
<!-- Node1&#45;&gt;Node16 -->
<g id="edge15_Node000001_Node000016" class="edge">
<title>Node1&#45;&gt;Node16</title>
<g id="a_edge15_Node000001_Node000016"><a xlink:title=" ">
<path fill="none" stroke="#63b8ff" d="M710.07,-59.47C762.97,-51.21 878.48,-33.17 953.37,-21.48"/>
<polygon fill="#63b8ff" stroke="#63b8ff" points="953.73,-24.97 963.07,-19.96 952.65,-18.05 953.73,-24.97"/>
</a>
</g>
</g>
<!-- Node17 -->
<g id="Node000017" class="node">
<title>Node17</title>
<g id="a_Node000017"><a xlink:title=" ">
<polygon fill="#e0e0e0" stroke="#999999" points="1200.25,-19.25 1099.5,-19.25 1099.5,0 1200.25,0 1200.25,-19.25"/>
<text xml:space="preserve" text-anchor="middle" x="1149.88" y="-5.75" font-family="Helvetica,sans-Serif" font-size="10.00">tbb/global_control.h</text>
</a>
</g>
</g>
<!-- Node1&#45;&gt;Node17 -->
<g id="edge16_Node000001_Node000017" class="edge">
<title>Node1&#45;&gt;Node17</title>
<g id="a_edge16_Node000001_Node000017"><a xlink:title=" ">
<path fill="none" stroke="#63b8ff" d="M710.18,-61.15C775.07,-54.81 939.8,-38.3 1087.95,-19.59"/>
<polygon fill="#63b8ff" stroke="#63b8ff" points="1088.06,-23.1 1097.54,-18.37 1087.18,-16.16 1088.06,-23.1"/>
</a>
</g>
</g>
<!-- Node18 -->
<g id="Node000018" class="node">
<title>Node18</title>
<g id="a_Node000018"><a xlink:title=" ">
<polygon fill="#e0e0e0" stroke="#999999" points="1305.5,-19.25 1218.25,-19.25 1218.25,0 1305.5,0 1305.5,-19.25"/>
<text xml:space="preserve" text-anchor="middle" x="1261.88" y="-5.75" font-family="Helvetica,sans-Serif" font-size="10.00">tbb/parallel_for.h</text>
</a>
</g>
</g>
<!-- Node1&#45;&gt;Node18 -->
<g id="edge17_Node000001_Node000018" class="edge">
<title>Node1&#45;&gt;Node18</title>
<g id="a_edge17_Node000001_Node000018"><a xlink:title=" ">
<path fill="none" stroke="#63b8ff" d="M710.23,-62.24C787.83,-57.61 1010.41,-43.25 1206.56,-19.44"/>
<polygon fill="#63b8ff" stroke="#63b8ff" points="1206.95,-22.92 1216.45,-18.22 1206.1,-15.97 1206.95,-22.92"/>
</a>
</g>
</g>
<!-- Node19 -->
<g id="Node000019" class="node">
<title>Node19</title>
<g id="a_Node000019"><a xlink:title=" ">
<polygon fill="#e0e0e0" stroke="#999999" points="1429.88,-19.25 1323.88,-19.25 1323.88,0 1429.88,0 1429.88,-19.25"/>
<text xml:space="preserve" text-anchor="middle" x="1376.88" y="-5.75" font-family="Helvetica,sans-Serif" font-size="10.00">tbb/parallel_reduce.h</text>
</a>
</g>
</g>
<!-- Node1&#45;&gt;Node19 -->
<g id="edge18_Node000001_Node000019" class="edge">
<title>Node1&#45;&gt;Node19</title>
<g id="a_edge18_Node000001_Node000019"><a xlink:title=" ">
<path fill="none" stroke="#63b8ff" d="M710.01,-62.57C797.54,-58.38 1072.97,-44.11 1312.11,-19.47"/>
<polygon fill="#63b8ff" stroke="#63b8ff" points="1312.38,-22.96 1321.96,-18.45 1311.65,-16 1312.38,-22.96"/>
</a>
</g>
</g>
<!-- Node20 -->
<g id="Node000020" class="node">
<title>Node20</title>
<g id="a_Node000020"><a xlink:title=" ">
<polygon fill="#e0e0e0" stroke="#999999" points="1539.38,-19.25 1448.38,-19.25 1448.38,0 1539.38,0 1539.38,-19.25"/>
<text xml:space="preserve" text-anchor="middle" x="1493.88" y="-5.75" font-family="Helvetica,sans-Serif" font-size="10.00">tbb/spin_mutex.h</text>
</a>
</g>
</g>
<!-- Node1&#45;&gt;Node20 -->
<g id="edge19_Node000001_Node000020" class="edge">
<title>Node1&#45;&gt;Node20</title>
<g id="a_edge19_Node000001_Node000020"><a xlink:title=" ">
<path fill="none" stroke="#63b8ff" d="M710.14,-63.19C808.74,-60.61 1146.75,-50.02 1436.84,-19.35"/>
<polygon fill="#63b8ff" stroke="#63b8ff" points="1436.93,-22.86 1446.5,-18.32 1436.18,-15.9 1436.93,-22.86"/>
</a>
</g>
</g>
<!-- Node21 -->
<g id="Node000021" class="node">
<title>Node21</title>
<g id="a_Node000021"><a xlink:title=" ">
<polygon fill="#e0e0e0" stroke="#999999" points="1646.25,-19.25 1557.5,-19.25 1557.5,0 1646.25,0 1646.25,-19.25"/>
<text xml:space="preserve" text-anchor="middle" x="1601.88" y="-5.75" font-family="Helvetica,sans-Serif" font-size="10.00">tbb/task_arena.h</text>
</a>
</g>
</g>
<!-- Node1&#45;&gt;Node21 -->
<g id="edge20_Node000001_Node000021" class="edge">
<title>Node1&#45;&gt;Node21</title>
<g id="a_edge20_Node000001_Node000021"><a xlink:title=" ">
<path fill="none" stroke="#63b8ff" d="M710.03,-63.55C817.37,-62.07 1211.3,-54.51 1545.73,-19.47"/>
<polygon fill="#63b8ff" stroke="#63b8ff" points="1546.02,-22.96 1555.6,-18.43 1545.28,-16 1546.02,-22.96"/>
</a>
</g>
</g>
<!-- Node22 -->
<g id="Node000022" class="node">
<title>Node22</title>
<g id="a_Node000022"><a xlink:title=" ">
<polygon fill="#e0e0e0" stroke="#999999" points="1753.25,-19.25 1664.5,-19.25 1664.5,0 1753.25,0 1753.25,-19.25"/>
<text xml:space="preserve" text-anchor="middle" x="1708.88" y="-5.75" font-family="Helvetica,sans-Serif" font-size="10.00">tbb/task_group.h</text>
</a>
</g>
</g>
<!-- Node1&#45;&gt;Node22 -->
<g id="edge21_Node000001_Node000022" class="edge">
<title>Node1&#45;&gt;Node22</title>
<g id="a_edge21_Node000001_Node000022"><a xlink:title=" ">
<path fill="none" stroke="#63b8ff" d="M710.22,-63.74C825.92,-62.94 1273.82,-57.49 1652.94,-19.31"/>
<polygon fill="#63b8ff" stroke="#63b8ff" points="1653.04,-22.82 1662.63,-18.32 1652.33,-15.85 1653.04,-22.82"/>
</a>
</g>
</g>
</g>
</svg>

<g id="navigator" transform="translate(0 0)" fill="#404254">
  <rect fill="#f2f5e9" fill-opacity="0.5" stroke="#606060" stroke-width=".5" x="0" y="0" width="60" height="60"/>
  <use id="zoomplus" xlink:href="#zoomPlus" x="17" y="9" onmousedown="handleZoom(evt,'in')"/>
  <use id="zoomminus" xlink:href="#zoomMin" x="42" y="9" onmousedown="handleZoom(evt,'out')"/>
  <use id="reset" xlink:href="#resetDef" x="30" y="36" onmousedown="handleReset()"/>
   <use id="arrowup" xlink:href="#arrowUp" x="0" y="0" onmousedown="handlePan(0,-1)"/>
  <use id="arrowright" xlink:href="#arrowRight" x="0" y="0" onmousedown="handlePan(1,0)"/>
  <use id="arrowdown" xlink:href="#arrowDown" x="0" y="0" onmousedown="handlePan(0,1)"/>
  <use id="arrowleft" xlink:href="#arrowLeft" x="0" y="0" onmousedown="handlePan(-1,0)"/>
</g>
<svg viewBox="0 0 15 15" width="100%" height="30px" preserveAspectRatio="xMaxYMin meet">
 <g id="arrow_out" transform="scale(0.3 0.3)">
  <a xlink:href="main_8cpp__incl_org.svg" target="_base">
   <rect id="button" ry="5" rx="5" y="6" x="6" height="38" width="38"
        fill="#f2f5e9" fill-opacity="0.5" stroke="#606060" stroke-width="1.0"/>
   <path id="arrow"
     d="M 11.500037,31.436501 C 11.940474,20.09759 22.043105,11.32322 32.158766,21.979434 L 37.068811,17.246167 C 37.068811,17.246167 37.088388,32 37.088388,32 L 22.160133,31.978069 C 22.160133,31.978069 26.997745,27.140456 26.997745,27.140456 C 18.528582,18.264221 13.291696,25.230495 11.500037,31.436501 z"
     style="fill:#404040;"/>
  </a>
 </g>
</svg>

<style type='text/css'>
<![CDATA[
[data-mouse-over-selected='false'] { opacity: 0.7; }
[data-mouse-over-selected='true']  { opacity: 1.0; }
]]>
</style>
<script type="application/ecmascript"><![CDATA[
document.addEventListener('DOMContentLoaded', (event) => {
  highlightEdges();
  highlightAdjacentNodes();
});
]]></script>
</svg>
