<?xml version="1.0" encoding="UTF-8" standalone="no"?>
<!DOCTYPE svg PUBLIC "-//W3C//DTD SVG 1.1//EN"
 "http://www.w3.org/Graphics/SVG/1.1/DTD/svg11.dtd">
<!-- Generated by graphviz version 14.0.2 (20251019.1705)
 -->
<!-- Title: src/main.cpp Pages: 1 -->
<!--zoomable 337 -->

<svg id="main" version="1.1" xmlns="http://www.w3.org/2000/svg" xmlns:xlink="http://www.w3.org/1999/xlink" xml:space="preserve" onload="init(evt)">

<style type="text/css"><![CDATA[
.node, .edge {opacity: 0.7;}
.node.selected, .edge.selected {opacity: 1;}
.edge:hover path { stroke: red; }
.edge:hover polygon { stroke: red; fill: red; }
]]></style>

<defs>
  <circle id="rim" cx="0" cy="0" r="7"/>
  <circle id="rim2" cx="0" cy="0" r="3.5"/>
  <g id="zoomPlus">
    <use xlink:href="#rim" fill="#404040"><set attributeName="fill" to="#808080" begin="zoomplus.mouseover" end="zoomplus.mouseout"/></use>
    <path d="M-4,0h8M0,-4v8" fill="none" stroke="white" stroke-width="1.5" pointer-events="none"/>
  </g>
  <g id="zoomMin">
    <use xlink:href="#rim" fill="#404040"><set attributeName="fill" to="#808080" begin="zoomminus.mouseover" end="zoomminus.mouseout"/></use>
    <path d="M-4,0h8" fill="none" stroke="white" stroke-width="1.5" pointer-events="none"/>
  </g>
  <g id="arrowUp" transform="translate(30 24)">
    <use xlink:href="#rim"/>
    <path pointer-events="none" fill="none" stroke="white" stroke-width="1.5" d="M0,-3.0v7 M-2.5,-0.5L0,-3.0L2.5,-0.5"/>
  </g>
  <g id="arrowRight" transform="rotate(90) translate(36 -43)">
    <use xlink:href="#rim"/>
    <path pointer-events="none" fill="none" stroke="white" stroke-width="1.5" d="M0,-3.0v7 M-2.5,-0.5L0,-3.0L2.5,-0.5"/>
  </g>
  <g id="arrowDown" transform="rotate(180) translate(-30 -48)">
    <use xlink:href="#rim"/>
    <path pointer-events="none" fill="none" stroke="white" stroke-width="1.5" d="M0,-3.0v7 M-2.5,-0.5L0,-3.0L2.5,-0.5"/>
  </g>
  <g id="arrowLeft" transform="rotate(270) translate(-36 17)">
    <use xlink:href="#rim"/>
    <path pointer-events="none" fill="none" stroke="white" stroke-width="1.5" d="M0,-3.0v7 M-2.5,-0.5L0,-3.0L2.5,-0.5"/>
  </g>
  <g id="resetDef">
    <use xlink:href="#rim2" fill="#404040"><set attributeName="fill" to="#808080" begin="reset.mouseover" end="reset.mouseout"/></use>
  </g>
</defs>
<script type="application/ecmascript">
var viewWidth = 1285;
var viewHeight = 337;
var sectionId = 'dynsection-0';
</script>
<script type="application/ecmascript" xlink:href="svg.min.js"/>
<svg id="graph" class="graph">
<g id="viewport">
<title>src/main.cpp</title>
<!-- Node1 -->
<g id="Node000001" class="node">
<title>Node1</title>
<g id="a_Node000001"><a xlink:title=" ">
<polygon fill="#999999" stroke="#666666" points="1116.75,-329.25 1044.5,-329.25 1044.5,-310 1116.75,-310 1116.75,-329.25"/>
<text xml:space="preserve" text-anchor="middle" x="1080.62" y="-315.75" font-family="Helvetica,sans-Serif" font-size="10.00">src/main.cpp</text>
</a>
</g>
</g>
<!-- Node2 -->
<g id="Node000002" class="node">
<title>Node2</title>
<g id="a_Node000002"><a xlink:href="_grid_reader_8h.html" target="_top" xlink:title=" ">
<polygon fill="white" stroke="#666666" points="1173.5,-201.88 1045.75,-201.88 1045.75,-182.62 1173.5,-182.62 1173.5,-201.88"/>
<text xml:space="preserve" text-anchor="middle" x="1109.62" y="-188.38" font-family="Helvetica,sans-Serif" font-size="10.00">slitherlink/io/GridReader.h</text>
</a>
</g>
</g>
<!-- Node1&#45;&gt;Node2 -->
<g id="edge1_Node000001_Node000002" class="edge">
<title>Node1&#45;&gt;Node2</title>
<g id="a_edge1_Node000001_Node000002"><a xlink:title=" ">
<path fill="none" stroke="#63b8ff" d="M1077.76,-309.59C1073.67,-295.23 1067.41,-266.47 1074.62,-243.5 1078.37,-231.58 1086.05,-220.02 1093.26,-210.99"/>
<polygon fill="#63b8ff" stroke="#63b8ff" points="1095.87,-213.33 1099.72,-203.45 1090.55,-208.77 1095.87,-213.33"/>
</a>
</g>
</g>
<!-- Node5 -->
<g id="Node000005" class="node">
<title>Node5</title>
<g id="a_Node000005"><a xlink:title=" ">
<polygon fill="#e0e0e0" stroke="#999999" points="1037.62,-135.38 997.62,-135.38 997.62,-116.12 1037.62,-116.12 1037.62,-135.38"/>
<text xml:space="preserve" text-anchor="middle" x="1017.62" y="-121.88" font-family="Helvetica,sans-Serif" font-size="10.00">string</text>
</a>
</g>
</g>
<!-- Node1&#45;&gt;Node5 -->
<g id="edge38_Node000001_Node000005" class="edge">
<title>Node1&#45;&gt;Node5</title>
<g id="a_edge38_Node000001_Node000005"><a xlink:title=" ">
<path fill="none" stroke="#63b8ff" d="M1076.51,-309.57C1068.12,-290.83 1048.8,-246.3 1036.62,-207.5 1030.23,-187.13 1024.87,-163.28 1021.49,-146.81"/>
<polygon fill="#63b8ff" stroke="#63b8ff" points="1024.99,-146.44 1019.61,-137.31 1018.12,-147.8 1024.99,-146.44"/>
</a>
</g>
</g>
<!-- Node6 -->
<g id="Node000006" class="node">
<title>Node6</title>
<g id="a_Node000006"><a xlink:href="_solver_factory_8h.html" target="_top" xlink:title=" ">
<polygon fill="white" stroke="#666666" points="908.75,-274 818.5,-274 818.5,-243.5 908.75,-243.5 908.75,-274"/>
<text xml:space="preserve" text-anchor="start" x="826.5" y="-260.5" font-family="Helvetica,sans-Serif" font-size="10.00">slitherlink/factory</text>
<text xml:space="preserve" text-anchor="middle" x="863.62" y="-249.25" font-family="Helvetica,sans-Serif" font-size="10.00">/SolverFactory.h</text>
</a>
</g>
</g>
<!-- Node1&#45;&gt;Node6 -->
<g id="edge5_Node000001_Node000006" class="edge">
<title>Node1&#45;&gt;Node6</title>
<g id="a_edge5_Node000001_Node000006"><a xlink:title=" ">
<path fill="none" stroke="#63b8ff" d="M1047.19,-309.55C1013.4,-300.39 960.54,-286.04 920.21,-275.1"/>
<polygon fill="#63b8ff" stroke="#63b8ff" points="921.22,-271.75 910.65,-272.51 919.39,-278.51 921.22,-271.75"/>
</a>
</g>
</g>
<!-- Node23 -->
<g id="Node000023" class="node">
<title>Node23</title>
<g id="a_Node000023"><a xlink:title=" ">
<polygon fill="#e0e0e0" stroke="#999999" points="1129.25,-268.38 1084,-268.38 1084,-249.12 1129.25,-249.12 1129.25,-268.38"/>
<text xml:space="preserve" text-anchor="middle" x="1106.62" y="-254.88" font-family="Helvetica,sans-Serif" font-size="10.00">chrono</text>
</a>
</g>
</g>
<!-- Node1&#45;&gt;Node23 -->
<g id="edge35_Node000001_Node000023" class="edge">
<title>Node1&#45;&gt;Node23</title>
<g id="a_edge35_Node000001_Node000023"><a xlink:title=" ">
<path fill="none" stroke="#63b8ff" d="M1084.57,-309.68C1088.12,-301.64 1093.46,-289.55 1098,-279.28"/>
<polygon fill="#63b8ff" stroke="#63b8ff" points="1101.19,-280.72 1102.03,-270.16 1094.79,-277.89 1101.19,-280.72"/>
</a>
</g>
</g>
<!-- Node24 -->
<g id="Node000024" class="node">
<title>Node24</title>
<g id="a_Node000024"><a xlink:title=" ">
<polygon fill="#e0e0e0" stroke="#999999" points="1205.62,-268.38 1147.62,-268.38 1147.62,-249.12 1205.62,-249.12 1205.62,-268.38"/>
<text xml:space="preserve" text-anchor="middle" x="1176.62" y="-254.88" font-family="Helvetica,sans-Serif" font-size="10.00">exception</text>
</a>
</g>
</g>
<!-- Node1&#45;&gt;Node24 -->
<g id="edge36_Node000001_Node000024" class="edge">
<title>Node1&#45;&gt;Node24</title>
<g id="a_edge36_Node000001_Node000024"><a xlink:title=" ">
<path fill="none" stroke="#63b8ff" d="M1095.21,-309.68C1110.29,-300.43 1134.11,-285.82 1152.1,-274.79"/>
<polygon fill="#63b8ff" stroke="#63b8ff" points="1153.92,-277.78 1160.62,-269.57 1150.26,-271.81 1153.92,-277.78"/>
</a>
</g>
</g>
<!-- Node25 -->
<g id="Node000025" class="node">
<title>Node25</title>
<g id="a_Node000025"><a xlink:title=" ">
<polygon fill="#e0e0e0" stroke="#999999" points="1277.38,-268.38 1223.88,-268.38 1223.88,-249.12 1277.38,-249.12 1277.38,-268.38"/>
<text xml:space="preserve" text-anchor="middle" x="1250.62" y="-254.88" font-family="Helvetica,sans-Serif" font-size="10.00">iostream</text>
</a>
</g>
</g>
<!-- Node1&#45;&gt;Node25 -->
<g id="edge37_Node000001_Node000025" class="edge">
<title>Node1&#45;&gt;Node25</title>
<g id="a_edge37_Node000001_Node000025"><a xlink:title=" ">
<path fill="none" stroke="#63b8ff" d="M1109.54,-309.51C1136.79,-300.8 1178.68,-287.09 1214.62,-274 1215.59,-273.65 1216.57,-273.29 1217.56,-272.92"/>
<polygon fill="#63b8ff" stroke="#63b8ff" points="1218.73,-276.22 1226.82,-269.38 1216.23,-269.68 1218.73,-276.22"/>
</a>
</g>
</g>
<!-- Node3 -->
<g id="Node000003" class="node">
<title>Node3</title>
<g id="a_Node000003"><a xlink:href="_grid_8h.html" target="_top" xlink:title=" ">
<polygon fill="white" stroke="#666666" points="1095.75,-74.5 987.5,-74.5 987.5,-55.25 1095.75,-55.25 1095.75,-74.5"/>
<text xml:space="preserve" text-anchor="middle" x="1041.62" y="-61" font-family="Helvetica,sans-Serif" font-size="10.00">slitherlink/core/Grid.h</text>
</a>
</g>
</g>
<!-- Node2&#45;&gt;Node3 -->
<g id="edge2_Node000002_Node000003" class="edge">
<title>Node2&#45;&gt;Node3</title>
<g id="a_edge2_Node000002_Node000003"><a xlink:title=" ">
<path fill="none" stroke="#63b8ff" d="M1104.73,-182.23C1093.71,-161.9 1066.71,-112.13 1051.85,-84.73"/>
<polygon fill="#63b8ff" stroke="#63b8ff" points="1055.04,-83.26 1047.19,-76.14 1048.88,-86.6 1055.04,-83.26"/>
</a>
</g>
</g>
<!-- Node2&#45;&gt;Node5 -->
<g id="edge4_Node000002_Node000005" class="edge">
<title>Node2&#45;&gt;Node5</title>
<g id="a_edge4_Node000002_Node000005"><a xlink:title=" ">
<path fill="none" stroke="#63b8ff" d="M1096.83,-182.28C1082.15,-171.99 1057.81,-154.93 1039.98,-142.43"/>
<polygon fill="#63b8ff" stroke="#63b8ff" points="1042.04,-139.59 1031.84,-136.72 1038.02,-145.33 1042.04,-139.59"/>
</a>
</g>
</g>
<!-- Node4 -->
<g id="Node000004" class="node">
<title>Node4</title>
<g id="a_Node000004"><a xlink:title=" ">
<polygon fill="#e0e0e0" stroke="#999999" points="388.12,-19.25 345.12,-19.25 345.12,0 388.12,0 388.12,-19.25"/>
<text xml:space="preserve" text-anchor="middle" x="366.62" y="-5.75" font-family="Helvetica,sans-Serif" font-size="10.00">vector</text>
</a>
</g>
</g>
<!-- Node3&#45;&gt;Node4 -->
<g id="edge3_Node000003_Node000004" class="edge">
<title>Node3&#45;&gt;Node4</title>
<g id="a_edge3_Node000003_Node000004"><a xlink:title=" ">
<path fill="none" stroke="#63b8ff" d="M987.01,-56.18C984.18,-55.85 981.37,-55.54 978.62,-55.25 758.34,-32.16 492.18,-17.14 399.97,-12.31"/>
<polygon fill="#63b8ff" stroke="#63b8ff" points="400.3,-8.83 390.14,-11.8 399.94,-15.82 400.3,-8.83"/>
</a>
</g>
</g>
<!-- Node6&#45;&gt;Node3 -->
<g id="edge30_Node000006_Node000003" class="edge">
<title>Node6&#45;&gt;Node3</title>
<g id="a_edge30_Node000006_Node000003"><a xlink:title=" ">
<path fill="none" stroke="#63b8ff" d="M863.57,-243.29C864.29,-213.93 870.19,-147.02 907.62,-110.5 926.12,-92.46 952.09,-81.71 976.25,-75.31"/>
<polygon fill="#63b8ff" stroke="#63b8ff" points="976.82,-78.77 985.72,-73.02 975.17,-71.97 976.82,-78.77"/>
</a>
</g>
</g>
<!-- Node7 -->
<g id="Node000007" class="node">
<title>Node7</title>
<g id="a_Node000007"><a xlink:href="_slitherlink_solver_8h.html" target="_top" xlink:title=" ">
<polygon fill="white" stroke="#666666" points="703.12,-207.5 606.12,-207.5 606.12,-177 703.12,-177 703.12,-207.5"/>
<text xml:space="preserve" text-anchor="start" x="614.12" y="-194" font-family="Helvetica,sans-Serif" font-size="10.00">slitherlink/factory</text>
<text xml:space="preserve" text-anchor="middle" x="654.62" y="-182.75" font-family="Helvetica,sans-Serif" font-size="10.00">/SlitherlinkSolver.h</text>
</a>
</g>
</g>
<!-- Node6&#45;&gt;Node7 -->
<g id="edge6_Node000006_Node000007" class="edge">
<title>Node6&#45;&gt;Node7</title>
<g id="a_edge6_Node000006_Node000007"><a xlink:title=" ">
<path fill="none" stroke="#63b8ff" d="M818.02,-243.67C787.26,-234.18 746.4,-221.57 713.24,-211.34"/>
<polygon fill="#63b8ff" stroke="#63b8ff" points="714.35,-208.02 703.76,-208.41 712.28,-214.71 714.35,-208.02"/>
</a>
</g>
</g>
<!-- Node14 -->
<g id="Node000014" class="node">
<title>Node14</title>
<g id="a_Node000014"><a xlink:title=" ">
<polygon fill="#e0e0e0" stroke="#999999" points="969.25,-74.5 918,-74.5 918,-55.25 969.25,-55.25 969.25,-74.5"/>
<text xml:space="preserve" text-anchor="middle" x="943.62" y="-61" font-family="Helvetica,sans-Serif" font-size="10.00">memory</text>
</a>
</g>
</g>
<!-- Node6&#45;&gt;Node14 -->
<g id="edge34_Node000006_Node000014" class="edge">
<title>Node6&#45;&gt;Node14</title>
<g id="a_edge34_Node000006_Node000014"><a xlink:title=" ">
<path fill="none" stroke="#63b8ff" d="M856.87,-243.43C844.77,-215.46 823,-152.61 849.62,-110.5 856.33,-99.89 883.47,-87.65 906.87,-78.67"/>
<polygon fill="#63b8ff" stroke="#63b8ff" points="908.04,-81.97 916.19,-75.2 905.6,-75.41 908.04,-81.97"/>
</a>
</g>
</g>
<!-- Node21 -->
<g id="Node000021" class="node">
<title>Node21</title>
<g id="a_Node000021"><a xlink:href="_config_8h.html" target="_top" xlink:title=" ">
<polygon fill="white" stroke="#666666" points="989.12,-201.88 892.12,-201.88 892.12,-182.62 989.12,-182.62 989.12,-201.88"/>
<text xml:space="preserve" text-anchor="middle" x="940.62" y="-188.38" font-family="Helvetica,sans-Serif" font-size="10.00">slitherlink/Config.h</text>
</a>
</g>
</g>
<!-- Node6&#45;&gt;Node21 -->
<g id="edge31_Node000006_Node000021" class="edge">
<title>Node6&#45;&gt;Node21</title>
<g id="a_edge31_Node000006_Node000021"><a xlink:title=" ">
<path fill="none" stroke="#63b8ff" d="M881.1,-243.11C893.12,-233.04 909.09,-219.67 921.46,-209.31"/>
<polygon fill="#63b8ff" stroke="#63b8ff" points="923.51,-212.15 928.93,-203.04 919.02,-206.78 923.51,-212.15"/>
</a>
</g>
</g>
<!-- Node7&#45;&gt;Node3 -->
<g id="edge7_Node000007_Node000003" class="edge">
<title>Node7&#45;&gt;Node3</title>
<g id="a_edge7_Node000007_Node000003"><a xlink:title=" ">
<path fill="none" stroke="#63b8ff" d="M685.44,-176.63C723.39,-159.07 790.14,-129.59 849.62,-110.5 893.07,-96.56 943.35,-85.03 981.55,-77.19"/>
<polygon fill="#63b8ff" stroke="#63b8ff" points="981.9,-80.69 991.01,-75.28 980.52,-73.83 981.9,-80.69"/>
</a>
</g>
</g>
<!-- Node8 -->
<g id="Node000008" class="node">
<title>Node8</title>
<g id="a_Node000008"><a xlink:href="_solver_8h.html" target="_top" xlink:title=" ">
<polygon fill="white" stroke="#666666" points="697.88,-141 611.38,-141 611.38,-110.5 697.88,-110.5 697.88,-141"/>
<text xml:space="preserve" text-anchor="start" x="619.38" y="-127.5" font-family="Helvetica,sans-Serif" font-size="10.00">slitherlink/solver</text>
<text xml:space="preserve" text-anchor="middle" x="654.62" y="-116.25" font-family="Helvetica,sans-Serif" font-size="10.00">/Solver.h</text>
</a>
</g>
</g>
<!-- Node7&#45;&gt;Node8 -->
<g id="edge8_Node000007_Node000008" class="edge">
<title>Node7&#45;&gt;Node8</title>
<g id="a_edge8_Node000007_Node000008"><a xlink:title=" ">
<path fill="none" stroke="#63b8ff" d="M654.62,-176.61C654.62,-169.52 654.62,-160.79 654.62,-152.63"/>
<polygon fill="#63b8ff" stroke="#63b8ff" points="658.13,-152.84 654.63,-142.84 651.13,-152.84 658.13,-152.84"/>
</a>
</g>
</g>
<!-- Node7&#45;&gt;Node14 -->
<g id="edge28_Node000007_Node000014" class="edge">
<title>Node7&#45;&gt;Node14</title>
<g id="a_edge28_Node000007_Node000014"><a xlink:title=" ">
<path fill="none" stroke="#63b8ff" d="M671.51,-176.56C693.09,-158.51 732.27,-128.1 770.62,-110.5 776.89,-107.63 857.86,-87.23 906.77,-75.03"/>
<polygon fill="#63b8ff" stroke="#63b8ff" points="907.54,-78.44 916.39,-72.63 905.84,-71.65 907.54,-78.44"/>
</a>
</g>
</g>
<!-- Node18 -->
<g id="Node000018" class="node">
<title>Node18</title>
<g id="a_Node000018"><a xlink:href="_i_solution_collector_8h.html" target="_top" xlink:title=" ">
<polygon fill="white" stroke="#666666" points="291.5,-141 187.75,-141 187.75,-110.5 291.5,-110.5 291.5,-141"/>
<text xml:space="preserve" text-anchor="start" x="195.75" y="-127.5" font-family="Helvetica,sans-Serif" font-size="10.00">slitherlink/interfaces</text>
<text xml:space="preserve" text-anchor="middle" x="239.62" y="-116.25" font-family="Helvetica,sans-Serif" font-size="10.00">/ISolutionCollector.h</text>
</a>
</g>
</g>
<!-- Node7&#45;&gt;Node18 -->
<g id="edge22_Node000007_Node000018" class="edge">
<title>Node7&#45;&gt;Node18</title>
<g id="a_edge22_Node000007_Node000018"><a xlink:title=" ">
<path fill="none" stroke="#63b8ff" d="M605.8,-183.66C530.59,-171.97 386.42,-149.56 303.17,-136.63"/>
<polygon fill="#63b8ff" stroke="#63b8ff" points="303.76,-133.18 293.34,-135.1 302.68,-140.09 303.76,-133.18"/>
</a>
</g>
</g>
<!-- Node19 -->
<g id="Node000019" class="node">
<title>Node19</title>
<g id="a_Node000019"><a xlink:href="_i_solution_printer_8h.html" target="_top" xlink:title=" ">
<polygon fill="white" stroke="#666666" points="170.12,-141 67.12,-141 67.12,-110.5 170.12,-110.5 170.12,-141"/>
<text xml:space="preserve" text-anchor="start" x="75.12" y="-127.5" font-family="Helvetica,sans-Serif" font-size="10.00">slitherlink/interfaces</text>
<text xml:space="preserve" text-anchor="middle" x="118.62" y="-116.25" font-family="Helvetica,sans-Serif" font-size="10.00">/ISolutionPrinter.h</text>
</a>
</g>
</g>
<!-- Node7&#45;&gt;Node19 -->
<g id="edge25_Node000007_Node000019" class="edge">
<title>Node7&#45;&gt;Node19</title>
<g id="a_edge25_Node000007_Node000019"><a xlink:title=" ">
<path fill="none" stroke="#63b8ff" d="M605.69,-188.16C521.05,-182.36 341.73,-168.1 181.58,-141.38"/>
<polygon fill="#63b8ff" stroke="#63b8ff" points="182.51,-137.99 172.07,-139.77 181.34,-144.89 182.51,-137.99"/>
</a>
</g>
</g>
<!-- Node20 -->
<g id="Node000020" class="node">
<title>Node20</title>
<g id="a_Node000020"><a xlink:title=" ">
<polygon fill="#e0e0e0" stroke="#999999" points="51.25,-74.5 0,-74.5 0,-55.25 51.25,-55.25 51.25,-74.5"/>
<text xml:space="preserve" text-anchor="middle" x="25.62" y="-61" font-family="Helvetica,sans-Serif" font-size="10.00">ostream</text>
</a>
</g>
</g>
<!-- Node7&#45;&gt;Node20 -->
<g id="edge29_Node000007_Node000020" class="edge">
<title>Node7&#45;&gt;Node20</title>
<g id="a_edge29_Node000007_Node000020"><a xlink:title=" ">
<path fill="none" stroke="#63b8ff" d="M606.1,-190.01C471.71,-186.19 101.66,-172.84 57.62,-141 39.97,-128.23 31.98,-103.72 28.41,-86.16"/>
<polygon fill="#63b8ff" stroke="#63b8ff" points="31.88,-85.65 26.77,-76.37 24.97,-86.81 31.88,-85.65"/>
</a>
</g>
</g>
<!-- Node8&#45;&gt;Node3 -->
<g id="edge10_Node000008_Node000003" class="edge">
<title>Node8&#45;&gt;Node3</title>
<g id="a_edge10_Node000008_Node000003"><a xlink:title=" ">
<path fill="none" stroke="#63b8ff" d="M698.27,-118.11C766,-107.81 896.86,-87.9 976.01,-75.86"/>
<polygon fill="#63b8ff" stroke="#63b8ff" points="976.44,-79.33 985.8,-74.37 975.39,-72.41 976.44,-79.33"/>
</a>
</g>
</g>
<!-- Node8&#45;&gt;Node4 -->
<g id="edge19_Node000008_Node000004" class="edge">
<title>Node8&#45;&gt;Node4</title>
<g id="a_edge19_Node000008_Node000004"><a xlink:title=" ">
<path fill="none" stroke="#63b8ff" d="M611.02,-122.04C543.54,-116.98 418.19,-103.83 385.62,-74.5 373.39,-63.48 368.89,-44.97 367.3,-30.71"/>
<polygon fill="#63b8ff" stroke="#63b8ff" points="370.81,-30.81 366.64,-21.07 363.83,-31.29 370.81,-30.81"/>
</a>
</g>
</g>
<!-- Node9 -->
<g id="Node000009" class="node">
<title>Node9</title>
<g id="a_Node000009"><a xlink:href="_edge_8h.html" target="_top" xlink:title=" ">
<polygon fill="white" stroke="#666666" points="639,-74.5 526.25,-74.5 526.25,-55.25 639,-55.25 639,-74.5"/>
<text xml:space="preserve" text-anchor="middle" x="582.62" y="-61" font-family="Helvetica,sans-Serif" font-size="10.00">slitherlink/core/Edge.h</text>
</a>
</g>
</g>
<!-- Node8&#45;&gt;Node9 -->
<g id="edge9_Node000008_Node000009" class="edge">
<title>Node8&#45;&gt;Node9</title>
<g id="a_edge9_Node000008_Node000009"><a xlink:title=" ">
<path fill="none" stroke="#63b8ff" d="M636.83,-110.2C626.39,-101.66 613.19,-90.87 602.42,-82.06"/>
<polygon fill="#63b8ff" stroke="#63b8ff" points="604.85,-79.53 594.9,-75.91 600.42,-84.95 604.85,-79.53"/>
</a>
</g>
</g>
<!-- Node10 -->
<g id="Node000010" class="node">
<title>Node10</title>
<g id="a_Node000010"><a xlink:href="_solution_8h.html" target="_top" xlink:title=" ">
<polygon fill="white" stroke="#666666" points="194.38,-74.5 68.88,-74.5 68.88,-55.25 194.38,-55.25 194.38,-74.5"/>
<text xml:space="preserve" text-anchor="middle" x="131.62" y="-61" font-family="Helvetica,sans-Serif" font-size="10.00">slitherlink/core/Solution.h</text>
</a>
</g>
</g>
<!-- Node8&#45;&gt;Node10 -->
<g id="edge11_Node000008_Node000010" class="edge">
<title>Node8&#45;&gt;Node10</title>
<g id="a_edge11_Node000008_Node000010"><a xlink:title=" ">
<path fill="none" stroke="#63b8ff" d="M610.93,-119.83C521.54,-109.77 316.88,-86.73 206.12,-74.26"/>
<polygon fill="#63b8ff" stroke="#63b8ff" points="206.55,-70.79 196.22,-73.15 205.77,-77.74 206.55,-70.79"/>
</a>
</g>
</g>
<!-- Node12 -->
<g id="Node000012" class="node">
<title>Node12</title>
<g id="a_Node000012"><a xlink:href="_state_8h.html" target="_top" xlink:title=" ">
<polygon fill="white" stroke="#666666" points="508.38,-74.5 394.88,-74.5 394.88,-55.25 508.38,-55.25 508.38,-74.5"/>
<text xml:space="preserve" text-anchor="middle" x="451.62" y="-61" font-family="Helvetica,sans-Serif" font-size="10.00">slitherlink/core/State.h</text>
</a>
</g>
</g>
<!-- Node8&#45;&gt;Node12 -->
<g id="edge14_Node000008_Node000012" class="edge">
<title>Node8&#45;&gt;Node12</title>
<g id="a_edge14_Node000008_Node000012"><a xlink:title=" ">
<path fill="none" stroke="#63b8ff" d="M611.08,-112.12C576.28,-102.03 527.82,-87.97 493.48,-78.01"/>
<polygon fill="#63b8ff" stroke="#63b8ff" points="494.89,-74.78 484.31,-75.36 492.94,-81.5 494.89,-74.78"/>
</a>
</g>
</g>
<!-- Node13 -->
<g id="Node000013" class="node">
<title>Node13</title>
<g id="a_Node000013"><a xlink:title=" ">
<polygon fill="#e0e0e0" stroke="#999999" points="702.25,-74.5 657,-74.5 657,-55.25 702.25,-55.25 702.25,-74.5"/>
<text xml:space="preserve" text-anchor="middle" x="679.62" y="-61" font-family="Helvetica,sans-Serif" font-size="10.00">atomic</text>
</a>
</g>
</g>
<!-- Node8&#45;&gt;Node13 -->
<g id="edge16_Node000008_Node000013" class="edge">
<title>Node8&#45;&gt;Node13</title>
<g id="a_edge16_Node000008_Node000013"><a xlink:title=" ">
<path fill="none" stroke="#63b8ff" d="M660.8,-110.2C663.99,-102.7 667.92,-93.45 671.36,-85.35"/>
<polygon fill="#63b8ff" stroke="#63b8ff" points="674.49,-86.92 675.18,-76.34 668.05,-84.18 674.49,-86.92"/>
</a>
</g>
</g>
<!-- Node8&#45;&gt;Node14 -->
<g id="edge17_Node000008_Node000014" class="edge">
<title>Node8&#45;&gt;Node14</title>
<g id="a_edge17_Node000008_Node000014"><a xlink:title=" ">
<path fill="none" stroke="#63b8ff" d="M698.18,-115.98C707.25,-114.16 716.75,-112.26 725.62,-110.5 803.43,-95.04 825.8,-92.61 906.44,-74.9"/>
<polygon fill="#63b8ff" stroke="#63b8ff" points="907.18,-78.32 916.19,-72.74 905.67,-71.49 907.18,-78.32"/>
</a>
</g>
</g>
<!-- Node15 -->
<g id="Node000015" class="node">
<title>Node15</title>
<g id="a_Node000015"><a xlink:title=" ">
<polygon fill="#e0e0e0" stroke="#999999" points="763.12,-74.5 720.12,-74.5 720.12,-55.25 763.12,-55.25 763.12,-74.5"/>
<text xml:space="preserve" text-anchor="middle" x="741.62" y="-61" font-family="Helvetica,sans-Serif" font-size="10.00">mutex</text>
</a>
</g>
</g>
<!-- Node8&#45;&gt;Node15 -->
<g id="edge18_Node000008_Node000015" class="edge">
<title>Node8&#45;&gt;Node15</title>
<g id="a_edge18_Node000008_Node000015"><a xlink:title=" ">
<path fill="none" stroke="#63b8ff" d="M676.13,-110.2C689.12,-101.4 705.67,-90.21 718.88,-81.27"/>
<polygon fill="#63b8ff" stroke="#63b8ff" points="720.64,-84.3 726.96,-75.8 716.72,-78.51 720.64,-84.3"/>
</a>
</g>
</g>
<!-- Node16 -->
<g id="Node000016" class="node">
<title>Node16</title>
<g id="a_Node000016"><a xlink:title=" ">
<polygon fill="#e0e0e0" stroke="#999999" points="899.62,-74.5 781.62,-74.5 781.62,-55.25 899.62,-55.25 899.62,-74.5"/>
<text xml:space="preserve" text-anchor="middle" x="840.62" y="-61" font-family="Helvetica,sans-Serif" font-size="10.00">tbb/concurrent_vector.h</text>
</a>
</g>
</g>
<!-- Node8&#45;&gt;Node16 -->
<g id="edge20_Node000008_Node000016" class="edge">
<title>Node8&#45;&gt;Node16</title>
<g id="a_edge20_Node000008_Node000016"><a xlink:title=" ">
<path fill="none" stroke="#63b8ff" d="M698.23,-110.95C729.37,-101.09 770.91,-87.94 801.08,-78.39"/>
<polygon fill="#63b8ff" stroke="#63b8ff" points="802.12,-81.73 810.6,-75.38 800.01,-75.06 802.12,-81.73"/>
</a>
</g>
</g>
<!-- Node17 -->
<g id="Node000017" class="node">
<title>Node17</title>
<g id="a_Node000017"><a xlink:title=" ">
<polygon fill="#e0e0e0" stroke="#999999" points="339,-74.5 250.25,-74.5 250.25,-55.25 339,-55.25 339,-74.5"/>
<text xml:space="preserve" text-anchor="middle" x="294.62" y="-61" font-family="Helvetica,sans-Serif" font-size="10.00">tbb/task_arena.h</text>
</a>
</g>
</g>
<!-- Node8&#45;&gt;Node17 -->
<g id="edge21_Node000008_Node000017" class="edge">
<title>Node8&#45;&gt;Node17</title>
<g id="a_edge21_Node000008_Node000017"><a xlink:title=" ">
<path fill="none" stroke="#63b8ff" d="M611.2,-117.65C545.88,-106.96 422.33,-86.76 350.41,-75"/>
<polygon fill="#63b8ff" stroke="#63b8ff" points="351.26,-71.59 340.83,-73.43 350.13,-78.5 351.26,-71.59"/>
</a>
</g>
</g>
<!-- Node10&#45;&gt;Node4 -->
<g id="edge13_Node000010_Node000004" class="edge">
<title>Node10&#45;&gt;Node4</title>
<g id="a_edge13_Node000010_Node000004"><a xlink:title=" ">
<path fill="none" stroke="#63b8ff" d="M171.76,-54.78C217.41,-44.44 291.11,-27.74 333.59,-18.11"/>
<polygon fill="#63b8ff" stroke="#63b8ff" points="334.24,-21.55 343.22,-15.93 332.69,-14.73 334.24,-21.55"/>
</a>
</g>
</g>
<!-- Node11 -->
<g id="Node000011" class="node">
<title>Node11</title>
<g id="a_Node000011"><a xlink:title=" ">
<polygon fill="#e0e0e0" stroke="#999999" points="151.25,-19.25 112,-19.25 112,0 151.25,0 151.25,-19.25"/>
<text xml:space="preserve" text-anchor="middle" x="131.62" y="-5.75" font-family="Helvetica,sans-Serif" font-size="10.00">utility</text>
</a>
</g>
</g>
<!-- Node10&#45;&gt;Node11 -->
<g id="edge12_Node000010_Node000011" class="edge">
<title>Node10&#45;&gt;Node11</title>
<g id="a_edge12_Node000010_Node000011"><a xlink:title=" ">
<path fill="none" stroke="#63b8ff" d="M131.62,-55.08C131.62,-48.57 131.62,-39.42 131.62,-31.12"/>
<polygon fill="#63b8ff" stroke="#63b8ff" points="135.13,-31.12 131.63,-21.12 128.13,-31.12 135.13,-31.12"/>
</a>
</g>
</g>
<!-- Node12&#45;&gt;Node4 -->
<g id="edge15_Node000012_Node000004" class="edge">
<title>Node12&#45;&gt;Node4</title>
<g id="a_edge15_Node000012_Node000004"><a xlink:title=" ">
<path fill="none" stroke="#63b8ff" d="M437.21,-54.84C424.51,-46.89 405.75,-35.14 390.77,-25.75"/>
<polygon fill="#63b8ff" stroke="#63b8ff" points="392.73,-22.85 382.4,-20.51 389.01,-28.78 392.73,-22.85"/>
</a>
</g>
</g>
<!-- Node18&#45;&gt;Node4 -->
<g id="edge24_Node000018_Node000004" class="edge">
<title>Node18&#45;&gt;Node4</title>
<g id="a_edge24_Node000018_Node000004"><a xlink:title=" ">
<path fill="none" stroke="#63b8ff" d="M235.65,-110.2C232.41,-94.99 230.06,-71.17 241.62,-55.25 262.7,-26.25 304.32,-16.02 333.73,-12.45"/>
<polygon fill="#63b8ff" stroke="#63b8ff" points="334,-15.94 343.6,-11.47 333.31,-8.98 334,-15.94"/>
</a>
</g>
</g>
<!-- Node18&#45;&gt;Node10 -->
<g id="edge23_Node000018_Node000010" class="edge">
<title>Node18&#45;&gt;Node10</title>
<g id="a_edge23_Node000018_Node000010"><a xlink:title=" ">
<path fill="none" stroke="#63b8ff" d="M212.65,-110.05C196.05,-100.99 174.85,-89.44 158.3,-80.41"/>
<polygon fill="#63b8ff" stroke="#63b8ff" points="159.97,-77.34 149.52,-75.63 156.62,-83.49 159.97,-77.34"/>
</a>
</g>
</g>
<!-- Node19&#45;&gt;Node10 -->
<g id="edge26_Node000019_Node000010" class="edge">
<title>Node19&#45;&gt;Node10</title>
<g id="a_edge26_Node000019_Node000010"><a xlink:title=" ">
<path fill="none" stroke="#63b8ff" d="M121.84,-110.2C123.44,-102.96 125.4,-94.09 127.14,-86.19"/>
<polygon fill="#63b8ff" stroke="#63b8ff" points="130.56,-86.95 129.29,-76.43 123.72,-85.44 130.56,-86.95"/>
</a>
</g>
</g>
<!-- Node19&#45;&gt;Node20 -->
<g id="edge27_Node000019_Node000020" class="edge">
<title>Node19&#45;&gt;Node20</title>
<g id="a_edge27_Node000019_Node000020"><a xlink:title=" ">
<path fill="none" stroke="#63b8ff" d="M95.64,-110.2C81.61,-101.32 63.72,-89.99 49.53,-81.01"/>
<polygon fill="#63b8ff" stroke="#63b8ff" points="51.56,-78.15 41.24,-75.76 47.82,-84.07 51.56,-78.15"/>
</a>
</g>
</g>
<!-- Node21&#45;&gt;Node5 -->
<g id="edge32_Node000021_Node000005" class="edge">
<title>Node21&#45;&gt;Node5</title>
<g id="a_edge32_Node000021_Node000005"><a xlink:title=" ">
<path fill="none" stroke="#63b8ff" d="M951.33,-182.28C963.51,-172.08 983.65,-155.21 998.54,-142.74"/>
<polygon fill="#63b8ff" stroke="#63b8ff" points="1000.43,-145.72 1005.85,-136.61 995.94,-140.35 1000.43,-145.72"/>
</a>
</g>
</g>
<!-- Node22 -->
<g id="Node000022" class="node">
<title>Node22</title>
<g id="a_Node000022"><a xlink:title=" ">
<polygon fill="#e0e0e0" stroke="#999999" points="964.75,-135.38 916.5,-135.38 916.5,-116.12 964.75,-116.12 964.75,-135.38"/>
<text xml:space="preserve" text-anchor="middle" x="940.62" y="-121.88" font-family="Helvetica,sans-Serif" font-size="10.00">cstddef</text>
</a>
</g>
</g>
<!-- Node21&#45;&gt;Node22 -->
<g id="edge33_Node000021_Node000022" class="edge">
<title>Node21&#45;&gt;Node22</title>
<g id="a_edge33_Node000021_Node000022"><a xlink:title=" ">
<path fill="none" stroke="#63b8ff" d="M940.62,-182.28C940.62,-173.23 940.62,-158.95 940.62,-147.13"/>
<polygon fill="#63b8ff" stroke="#63b8ff" points="944.13,-147.16 940.63,-137.16 937.13,-147.16 944.13,-147.16"/>
</a>
</g>
</g>
</g>
</svg>

<g id="navigator" transform="translate(0 0)" fill="#404254">
  <rect fill="#f2f5e9" fill-opacity="0.5" stroke="#606060" stroke-width=".5" x="0" y="0" width="60" height="60"/>
  <use id="zoomplus" xlink:href="#zoomPlus" x="17" y="9" onmousedown="handleZoom(evt,'in')"/>
  <use id="zoomminus" xlink:href="#zoomMin" x="42" y="9" onmousedown="handleZoom(evt,'out')"/>
  <use id="reset" xlink:href="#resetDef" x="30" y="36" onmousedown="handleReset()"/>
   <use id="arrowup" xlink:href="#arrowUp" x="0" y="0" onmousedown="handlePan(0,-1)"/>
  <use id="arrowright" xlink:href="#arrowRight" x="0" y="0" onmousedown="handlePan(1,0)"/>
  <use id="arrowdown" xlink:href="#arrowDown" x="0" y="0" onmousedown="handlePan(0,1)"/>
  <use id="arrowleft" xlink:href="#arrowLeft" x="0" y="0" onmousedown="handlePan(-1,0)"/>
</g>
<svg viewBox="0 0 15 15" width="100%" height="30px" preserveAspectRatio="xMaxYMin meet">
 <g id="arrow_out" transform="scale(0.3 0.3)">
  <a xlink:href="src_2main_8cpp__incl_org.svg" target="_base">
   <rect id="button" ry="5" rx="5" y="6" x="6" height="38" width="38"
        fill="#f2f5e9" fill-opacity="0.5" stroke="#606060" stroke-width="1.0"/>
   <path id="arrow"
     d="M 11.500037,31.436501 C 11.940474,20.09759 22.043105,11.32322 32.158766,21.979434 L 37.068811,17.246167 C 37.068811,17.246167 37.088388,32 37.088388,32 L 22.160133,31.978069 C 22.160133,31.978069 26.997745,27.140456 26.997745,27.140456 C 18.528582,18.264221 13.291696,25.230495 11.500037,31.436501 z"
     style="fill:#404040;"/>
  </a>
 </g>
</svg>

<style type='text/css'>
<![CDATA[
[data-mouse-over-selected='false'] { opacity: 0.7; }
[data-mouse-over-selected='true']  { opacity: 1.0; }
]]>
</style>
<script type="application/ecmascript"><![CDATA[
document.addEventListener('DOMContentLoaded', (event) => {
  highlightEdges();
  highlightAdjacentNodes();
});
]]></script>
</svg>
